<?xml version="1.0" encoding="UTF-8"?>
<svg version="1.1" xmlns="http://www.w3.org/2000/svg" width="1400" height="288">
<path d="M0 0 C11.22 0 22.44 0 34 0 C34.01458252 3.98368652 34.02916504 7.96737305 34.04418945 12.07177734 C34.09484663 25.33108781 34.16134971 38.59028077 34.23571491 51.84947777 C34.28036259 59.87734017 34.31984517 67.90516126 34.34643555 75.93310547 C34.36967077 82.94388983 34.40334275 89.95453994 34.44870156 96.96521723 C34.47229662 100.66495483 34.49124253 104.36456235 34.49761391 108.06437302 C34.1743421 145.75305443 34.1743421 145.75305443 42.75 182.125 C43.0080542 182.79950195 43.2661084 183.47400391 43.53198242 184.16894531 C45.47985163 189.09248055 47.86018027 193.56961448 50.80078125 197.984375 C52.0034676 200.00582827 52.56005528 201.70193583 53 204 C53.66 204 54.32 204 55 204 C56.2265625 205.43359375 56.2265625 205.43359375 57.625 207.4375 C71.85541508 226.85502081 91.40854386 238.52577225 114 246 C115.39412109 246.47566406 115.39412109 246.47566406 116.81640625 246.9609375 C146.61565329 256.1509343 179.7962041 250.47492479 206.86669922 236.17626953 C222.46744863 227.57425412 234.80830825 215.44461575 245 201 C245.50015625 200.31679687 246.0003125 199.63359375 246.515625 198.9296875 C266.80420166 169.26727479 262.5045159 126.59882736 262.66955566 92.57543945 C262.69980584 86.96948581 262.74617775 81.36366508 262.79101562 75.7578125 C262.87606491 64.83859761 262.94233836 53.91939387 263 43 C274.55 43 286.1 43 298 43 C298.06882218 53.85202305 298.1234017 64.70389226 298.15543652 75.55608749 C298.17084097 80.59965108 298.19159262 85.64305294 298.22631836 90.68652344 C298.36154438 110.88506617 298.34963976 130.99015836 296.62890625 151.12890625 C296.56710867 151.85972664 296.50531109 152.59054703 296.44164085 153.34351349 C294.23362957 178.69895044 287.25431898 200.3396039 274 222 C273.64083496 222.58990723 273.28166992 223.17981445 272.91162109 223.78759766 C271.99904819 225.23007882 271.00609585 226.62111917 270 228 C269.34 228 268.68 228 268 228 C267.59587891 228.87978516 267.59587891 228.87978516 267.18359375 229.77734375 C261.7908327 239.90434387 249.78179876 251.18975863 240 257 C239.34 257 238.68 257 238 257 C238 257.66 238 258.32 238 259 C216.48280403 271.69594644 195.79470419 281.14536111 171 285 C169.80890625 285.185625 168.6178125 285.37125 167.390625 285.5625 C128.61129914 290.19426668 88.15393985 280.2215627 56.890625 256.65625 C55.21737988 255.32152268 53.55692723 253.97036228 51.91796875 252.59375 C49.88363367 250.84649011 49.88363367 250.84649011 47 249 C47 248.34 47 247.68 47 247 C46.40058594 246.73832031 45.80117188 246.47664062 45.18359375 246.20703125 C42.86938236 244.92779812 41.70340555 243.73749558 40.0625 241.6875 C38.31807669 239.52519255 36.56037649 237.56604905 34.578125 235.609375 C3.91492765 204.57450254 -0.60321594 159.80500706 -0.45318604 118.41943359 C-0.43924566 116.17213929 -0.42274036 113.92487652 -0.40557575 111.67760468 C-0.37992666 107.72732125 -0.37817172 103.77701401 -0.37347412 99.82666016 C-0.36122516 92.40442147 -0.32865921 84.98242904 -0.28807616 77.56029701 C-0.2427818 69.08574896 -0.22122919 60.61118677 -0.20129442 52.13654709 C-0.15990164 34.75753269 -0.08678746 17.37885602 0 0 Z " fill="#024890" transform="translate(0,0)"/>
<path d="M0 0 C5.63947923 4.43975262 10.57177572 9.19359503 15.0078125 14.83203125 C15.45640625 15.38246094 15.905 15.93289062 16.3671875 16.5 C28.85717858 32.72927853 31.19448835 54.44993305 28.71044922 74.19580078 C25.62787569 92.64560495 15.33394952 109.5136245 0.10546875 120.41796875 C-0.93287109 121.11792969 -0.93287109 121.11792969 -1.9921875 121.83203125 C-2.61222656 122.27804688 -3.23226562 122.7240625 -3.87109375 123.18359375 C-20.55623428 134.53924263 -43.06788007 137.5381814 -62.6953125 134.10546875 C-75.441835 131.4814326 -86.74510315 126.91828068 -96.9921875 118.83203125 C-97.76433594 118.22488281 -98.53648437 117.61773437 -99.33203125 116.9921875 C-112.53778753 105.95352968 -118.69490924 92.06619358 -122.9921875 75.83203125 C-128.6021875 75.50203125 -134.2121875 75.17203125 -139.9921875 74.83203125 C-139.9921875 93.64203125 -139.9921875 112.45203125 -139.9921875 131.83203125 C-151.5421875 131.83203125 -163.0921875 131.83203125 -174.9921875 131.83203125 C-174.9921875 84.31203125 -174.9921875 36.79203125 -174.9921875 -12.16796875 C-163.4421875 -12.16796875 -151.8921875 -12.16796875 -139.9921875 -12.16796875 C-139.9921875 6.31203125 -139.9921875 24.79203125 -139.9921875 43.83203125 C-134.0521875 43.83203125 -128.1121875 43.83203125 -121.9921875 43.83203125 C-121.6621875 41.52203125 -121.3321875 39.21203125 -120.9921875 36.83203125 C-117.99509071 27.22369154 -112.88031809 17.24535655 -105.9921875 9.83203125 C-105.3321875 9.83203125 -104.6721875 9.83203125 -103.9921875 9.83203125 C-103.75113281 9.25066406 -103.51007813 8.66929688 -103.26171875 8.0703125 C-97.44413307 -2.18653856 -82.27363637 -8.40296055 -71.5546875 -11.54296875 C-47.04861688 -18.07413473 -20.73918316 -15.02643166 0 0 Z M-79.9921875 30.83203125 C-88.18395343 42.33951197 -90.7395436 56.20656435 -88.4609375 70.0625 C-85.45772087 82.94042347 -79.36612357 93.10716409 -67.9296875 100.33203125 C-58.12305786 105.63210284 -46.7465525 106.44873406 -35.86328125 104.1796875 C-24.87391057 100.53740675 -16.54553385 94.00824305 -10.9921875 83.83203125 C-5.01674031 70.25975028 -3.78585477 55.83346003 -8.72265625 41.73828125 C-10.63774846 37.35419324 -13.02936224 33.57564811 -15.9921875 29.83203125 C-16.74242187 28.83558594 -17.49265625 27.83914062 -18.265625 26.8125 C-24.35103269 19.58216616 -35.77640339 15.6398549 -44.9921875 14.83203125 C-58.94976397 14.17706407 -70.75775356 20.92889692 -79.9921875 30.83203125 Z " fill="#024890" transform="translate(568.9921875,55.16796875)"/>
<path d="M0 0 C11.22 0 22.44 0 34 0 C34.04535801 18.02143465 34.08211106 36.04281966 34.10362434 54.06429577 C34.11388418 62.43424224 34.12784167 70.8041504 34.15087891 79.17407227 C34.17097658 86.47954678 34.18375475 93.78499353 34.18817699 101.09049493 C34.19075702 104.94937955 34.19670692 108.80818481 34.21146011 112.66704369 C34.34692645 149.63247752 32.82341721 180.02129459 6.48046875 208.5859375 C2.03070182 212.91657681 -2.88639635 216.49623454 -8 220 C-8.78890625 220.54398438 -9.5778125 221.08796875 -10.390625 221.6484375 C-33.41610634 236.45053265 -61.39285227 240.50767165 -87.9152832 234.76220703 C-108.13336321 230.02874367 -124.61347238 220.90514794 -139 206 C-139.78117187 205.19304687 -140.56234375 204.38609375 -141.3671875 203.5546875 C-148.71354837 195.59844007 -153.99019964 187.05159414 -158 177 C-158.3609375 176.10539063 -158.721875 175.21078125 -159.09375 174.2890625 C-168.12402823 148.77168537 -165.36891623 119.37010368 -165.20599365 92.78143311 C-165.17488079 87.15575572 -165.16151373 81.53003614 -165.14648438 75.90429688 C-165.11465188 64.9360712 -165.06204574 53.9680964 -165 43 C-153.45 43 -141.9 43 -130 43 C-129.970271 47.42611694 -129.970271 47.42611694 -129.93994141 51.94165039 C-129.87274145 61.74049391 -129.79510792 71.53923535 -129.71247292 81.33796024 C-129.66273461 87.27321645 -129.61640429 93.20845677 -129.578125 99.14379883 C-129.54098631 104.88216695 -129.4945526 110.62039434 -129.44193649 116.35864067 C-129.42354321 118.53722071 -129.40838104 120.71583073 -129.39665604 122.89445686 C-129.24906286 154.25933073 -129.24906286 154.25933073 -114 181 C-113.16662109 181.93585938 -113.16662109 181.93585938 -112.31640625 182.890625 C-104.24063814 191.46996295 -95.14036677 195.49874187 -84 199 C-83.2678125 199.2371875 -82.535625 199.474375 -81.78125 199.71875 C-65.22751899 204.4884691 -47.42261935 201.23664928 -32.3828125 193.38671875 C-28.66654025 191.22397015 -25.34073909 188.69578078 -22 186 C-20.989375 185.2575 -19.97875 184.515 -18.9375 183.75 C-7.61176708 174.05541883 -2.93591489 159.00189182 -1.71522617 144.65241909 C-1.13092369 136.12376945 -0.83604678 127.63958267 -0.79467773 119.08813477 C-0.78477814 117.78871948 -0.77487854 116.4893042 -0.76467896 115.1505127 C-0.73804215 111.64120081 -0.71681409 108.13187603 -0.69667697 104.62252164 C-0.67455775 100.93500606 -0.64729803 97.24752825 -0.62062073 93.56004333 C-0.57103961 86.60132614 -0.52597502 79.64258759 -0.48259836 72.68382925 C-0.43292715 64.75132197 -0.37812151 56.81885264 -0.32291877 48.88638222 C-0.20963077 32.59095544 -0.10335689 16.29549325 0 0 Z " fill="#024890" transform="translate(214,0)"/>
<path d="M0 0 C11.22 0 22.44 0 34 0 C34.33 29.7 34.66 59.4 35 90 C44.11561373 77.86375928 44.11561373 77.86375928 53.08203125 65.62890625 C55.15112336 62.79285943 57.25980154 59.98930738 59.375 57.1875 C62.74572333 52.70683311 66.05228626 48.18627492 69.3125 43.625 C69.72097168 43.05418701 70.12944336 42.48337402 70.55029297 41.89526367 C72.49403475 39.16499753 74.37369404 36.41533883 76.16796875 33.5859375 C76.77253906 32.73257813 77.37710937 31.87921875 78 31 C78.66 31 79.32 31 80 31 C80.35384766 29.95392578 80.35384766 29.95392578 80.71484375 28.88671875 C82.24803056 25.4428736 84.25688116 22.79167041 86.5625 19.8125 C89.54428674 16.07228756 89.54428674 16.07228756 92 12 C92.66 12 93.32 12 94 12 C94.226875 11.319375 94.45375 10.63875 94.6875 9.9375 C96 7 96 7 101 0 C111.89 0 122.78 0 134 0 C134 47.52 134 95.04 134 144 C122.78 144 111.56 144 100 144 C99.67 114.63 99.34 85.26 99 55 C86.80932224 70.13932853 86.80932224 70.13932853 76 87 C75.34 87 74.68 87 74 87 C73.64615234 88.04607422 73.64615234 88.04607422 73.28515625 89.11328125 C71.75196944 92.5571264 69.74311884 95.20832959 67.4375 98.1875 C64.45571326 101.92771244 64.45571326 101.92771244 62 106 C61.34 106 60.68 106 60 106 C59.7628125 106.70253906 59.525625 107.40507812 59.28125 108.12890625 C57.76751469 111.52096557 55.81525072 114.03244648 53.5 116.9375 C49.32703753 122.231328 45.34869282 127.62828854 41.48828125 133.15405273 C38.81016582 136.9605939 36.00194649 140.39766421 33 144 C22.11 144 11.22 144 0 144 C0 96.48 0 48.96 0 0 Z " fill="#024890" transform="translate(1105,43)"/>
<path d="M0 0 C1.41732422 0.41765625 1.41732422 0.41765625 2.86328125 0.84375 C21.97359484 7.11474399 36.81678754 20.13751683 46.4453125 37.625 C55.15066906 55.55699196 56.40637575 77.68275528 49.96875 96.609375 C46.44627965 105.30192279 42.20382708 112.94778631 36 120 C35.41734375 120.66515625 34.8346875 121.3303125 34.234375 122.015625 C20.00353587 137.2031592 0.33674757 145.30558382 -20.296875 146.3515625 C-43.5996222 146.97451768 -65.48977379 140.95247956 -83 125 C-91 116.8699187 -91 116.8699187 -91 114 C-91.66 114 -92.32 114 -93 114 C-104.40374389 92.65522522 -108.04640471 71.6960314 -102 48 C-98.40878244 36.39543816 -90.83702333 23.49357733 -81 16 C-80.34 16 -79.68 16 -79 16 C-79 15.34 -79 14.68 -79 14 C-58.39127852 -3.74764084 -25.5084472 -7.81764828 0 0 Z M-59 40 C-61.37236558 42.83000594 -63.23949175 45.75808847 -65 49 C-65.4021875 49.73734375 -65.804375 50.4746875 -66.21875 51.234375 C-71.20607457 61.85025159 -71.32552744 75.87979737 -68 87 C-62.91083123 99.34235359 -56.10001782 107.10981236 -44.25 113.140625 C-38.1130423 115.4846019 -32.26961293 116.39008122 -25.75 116.375 C-25.01346191 116.37338867 -24.27692383 116.37177734 -23.51806641 116.37011719 C-14.0459197 116.15994556 -5.94075224 113.05320597 2 108 C2 107.34 2 106.68 2 106 C2.556875 105.79375 3.11375 105.5875 3.6875 105.375 C10.48782177 101.33156543 15.25977444 92.47365573 17.3125 85 C19.99960617 70.27259119 18.44250387 55.98695128 9.9453125 43.5078125 C4.51599757 36.50857518 -1.94340177 32.4939329 -10 29 C-10.94875 28.5875 -11.8975 28.175 -12.875 27.75 C-29.94261063 23.65377345 -46.26170817 28.04160359 -59 40 Z " fill="#024890" transform="translate(857,44)"/>
<path d="M0 0 C0 47.52 0 95.04 0 144 C-11.22 144 -22.44 144 -34 144 C-34 131.46 -34 118.92 -34 106 C-50.02357573 104.44385377 -50.02357573 104.44385377 -65.37109375 109.22265625 C-67.20063384 111.98658133 -68.61280624 114.7145017 -69.91357422 117.75878906 C-72.22127194 122.51938796 -75.44877657 126.77356189 -78.4375 131.125 C-79.64787461 132.93787641 -80.85511941 134.75284804 -82.05859375 136.5703125 C-83.7037855 139.04819255 -85.35014579 141.52521869 -87 144 C-89.83727325 144.26667539 -92.45383045 144.34791234 -95.2890625 144.29296875 C-96.10748627 144.28872391 -96.92591003 144.28447906 -97.76913452 144.28010559 C-100.38808836 144.26328679 -103.00627802 144.22562974 -105.625 144.1875 C-107.3984264 144.17245726 -109.17186484 144.15876814 -110.9453125 144.14648438 C-115.2971703 144.11337292 -119.64845551 144.06156952 -124 144 C-122.51862653 140.11994259 -120.81475116 137.14064152 -118.3125 133.8125 C-115.61233287 130.17972541 -112.95299593 126.5330821 -110.375 122.8125 C-108.2259028 119.72133279 -106.0285712 116.68443848 -103.75 113.6875 C-101.62824439 110.88858834 -99.74489404 108.05356456 -98 105 C-97.34 104.01 -96.68 103.02 -96 102 C-96.85722656 101.443125 -97.71445313 100.88625 -98.59765625 100.3125 C-111.52796134 91.75026026 -119.73332064 82.20447839 -124 67 C-124.5524001 62.8778855 -124.62175873 58.84233795 -124.5625 54.6875 C-124.55081787 53.59026611 -124.53913574 52.49303223 -124.52709961 51.36254883 C-124.14280199 37.20845902 -119.77773626 26.49355185 -110 16 C-82.18670432 -9.40393724 -30.48234967 0 0 0 Z M-85 37 C-89.43579764 44.37281042 -90.88755944 52.2929241 -89.3125 60.75 C-87.57250616 67.29514241 -83.80317083 72.4458364 -78 76 C-69.21802581 80.05200199 -59.79887632 79.34034155 -50.375 79.1875 C-42.269375 79.0946875 -42.269375 79.0946875 -34 79 C-34 62.5 -34 46 -34 29 C-42.3221875 28.87625 -42.3221875 28.87625 -50.8125 28.75 C-53.40315308 28.69537598 -53.40315308 28.69537598 -56.04614258 28.63964844 C-66.21196801 28.5158699 -77.70721824 28.82324469 -85 37 Z " fill="#024890" transform="translate(1400,43)"/>
<path d="M0 0 C93.97586207 0 93.97586207 0 113 18 C124.1811563 31.03403363 125.88743592 44.73347922 125.2265625 61.27734375 C124.44389731 70.68282026 120.33487313 79.0801122 114 86 C112.6696875 87.4540625 112.6696875 87.4540625 111.3125 88.9375 C109 91 109 91 106 92 C106 92.66 106 93.32 106 94 C104.03491396 95.10866978 102.0515813 96.18498009 100.0625 97.25 C98.96035156 97.85328125 97.85820313 98.4565625 96.72265625 99.078125 C82.77780063 105.32213879 68.42651918 105.52488281 53.4375 105.25 C47.023125 105.1675 40.60875 105.085 34 105 C34 117.87 34 130.74 34 144 C22.78 144 11.56 144 0 144 C0 96.48 0 48.96 0 0 Z M34 29 C34 44.84 34 60.68 34 77 C41.7653125 77.12375 41.7653125 77.12375 49.6875 77.25 C51.29197998 77.28641602 52.89645996 77.32283203 54.54956055 77.36035156 C64.40052635 77.43561928 73.00665199 76.49667401 82 72 C82 71.34 82 70.68 82 70 C82.61359375 69.74863281 83.2271875 69.49726562 83.859375 69.23828125 C87.7728833 66.97444524 88.8339731 63.21197471 90 59 C90.93334984 51.34653132 90.83299171 44.28145509 86 38 C80.97487974 32.16179662 74.70022153 29.44039354 67.03643799 28.84829712 C61.64802592 28.63213309 56.2657526 28.72769883 50.875 28.8125 C45.30625 28.874375 39.7375 28.93625 34 29 Z " fill="#024890" transform="translate(943,43)"/>
<path d="M0 0 C11.22 0 22.44 0 34 0 C34.05607422 5.61708984 34.05607422 5.61708984 34.11328125 11.34765625 C34.1595271 14.98500319 34.21074982 18.62224848 34.26245117 22.25952148 C34.29565129 24.78224481 34.32369842 27.30504154 34.34643555 29.82788086 C34.38007096 33.45979006 34.43239367 37.09102957 34.48828125 40.72265625 C34.49467117 41.84583755 34.5010611 42.96901886 34.50764465 44.12623596 C34.6444759 51.45765485 35.01346316 57.08812659 40.5 62.4375 C45.40695083 64.62810305 49.70774615 64.78753777 55 64 C58.92936613 62.03531694 61.88786825 59.89076902 64 56 C65.15852252 49.89008182 65.21628473 43.80226427 65.31640625 37.59765625 C65.3475779 35.9811039 65.3475779 35.9811039 65.37937927 34.33189392 C65.44446161 30.90882388 65.50356673 27.48568088 65.5625 24.0625 C65.60572455 21.73371659 65.64934007 19.4049404 65.69335938 17.07617188 C65.80083182 11.38418808 65.90021231 5.69214441 66 0 C77.22 0 88.44 0 100 0 C100.0691574 7.75587451 100.12880783 15.51066353 100.16479492 23.26660156 C100.17980939 25.90075319 100.20022713 28.53488012 100.22631836 31.16894531 C100.26302525 34.97206751 100.27980049 38.77485694 100.29296875 42.578125 C100.30845261 43.74112122 100.32393646 44.90411743 100.33988953 46.10235596 C100.3428968 60.97003989 96.74401859 73.77876149 86.421875 84.640625 C75.1799643 95.59242188 63.54854006 99.49959549 48 100 C35.05006986 99.7140394 23.5130025 94.78233514 14 86 C14 85.34 14 84.68 14 84 C13.3915625 83.7421875 12.783125 83.484375 12.15625 83.21875 C5.9295546 79.69931347 3.14573874 70.44773455 1 64 C0.11244533 60.27831934 -0.12170991 56.83852714 -0.11352539 53.01635742 C-0.11344986 51.83551071 -0.11337433 50.654664 -0.11329651 49.43803406 C-0.10813522 48.17328751 -0.10297394 46.90854095 -0.09765625 45.60546875 C-0.0962413 44.30297684 -0.09482635 43.00048492 -0.09336853 41.65852356 C-0.08956355 38.20783546 -0.07975064 34.75718992 -0.06866455 31.30651855 C-0.05840689 27.78052354 -0.05380669 24.25452139 -0.04882812 20.72851562 C-0.03865806 13.81897291 -0.01908129 6.90954686 0 0 Z " fill="#024890" transform="translate(99,88)"/>
<path d="M0 0 C33.99 0 67.98 0 103 0 C103 9.57 103 19.14 103 29 C80.23 29 57.46 29 34 29 C34.165 37.58 34.33 46.16 34.5 55 C35.0354996 84.67036509 35.10252495 114.32472408 35 144 C23.45 144 11.9 144 0 144 C0 96.48 0 48.96 0 0 Z " fill="#024890" transform="translate(631,43)"/>
<path d="M0 0 C3.63 0 7.26 0 11 0 C11.33 10.23 11.66 20.46 12 31 C16.62215297 24.82406523 16.62215297 24.82406523 21.24243164 18.64672852 C32.86086249 3.13913751 32.86086249 3.13913751 36 0 C39.3 0 42.6 0 46 0 C46 16.83 46 33.66 46 51 C42.37 51 38.74 51 35 51 C34.67 40.77 34.34 30.54 34 20 C31.89625 22.701875 29.7925 25.40375 27.625 28.1875 C26.93003418 29.07123291 26.23506836 29.95496582 25.51904297 30.86547852 C22.63427478 34.54020864 19.80606624 38.21423482 17.1953125 42.08984375 C16.77685059 42.69223877 16.35838867 43.29463379 15.92724609 43.9152832 C14.81927996 45.52438458 13.74438079 47.15611195 12.671875 48.7890625 C10 51 10 51 0 51 C0 34.17 0 17.34 0 0 Z " fill="#024890" transform="translate(1027,237)"/>
<path d="M0 0 C7.239375 -0.0928125 7.239375 -0.0928125 14.625 -0.1875 C16.89238037 -0.22846802 16.89238037 -0.22846802 19.20556641 -0.27026367 C21.01033447 -0.28150269 21.01033447 -0.28150269 22.8515625 -0.29296875 C24.07697754 -0.3086792 25.30239258 -0.32438965 26.56494141 -0.34057617 C31.8268394 0.18112587 35.01280078 2.09864419 38.875 5.625 C41.5816127 9.92373783 42.11440648 13.04517736 41 18 C39.57113702 20.6902041 37.99378915 22.65729775 36 25 C36.598125 25.226875 37.19625 25.45375 37.8125 25.6875 C40.76738497 27.46043098 41.64499863 28.81574678 43 32 C43.56728694 36.22398787 43.44861085 39.8125007 41.9375 43.8125 C38.51026821 47.68195524 34.11264272 50.07729405 29 51 C26.75646063 51.08173345 24.51063108 51.10750277 22.265625 51.09765625 C20.51427246 51.09390991 20.51427246 51.09390991 18.72753906 51.09008789 C17.24995117 51.08098389 15.77236328 51.07187988 14.25 51.0625 C9.5475 51.041875 4.845 51.02125 0 51 C0 34.17 0 17.34 0 0 Z M10 9 C10 12.96 10 16.92 10 21 C12.39652528 21.08139142 14.79025436 21.14067009 17.1875 21.1875 C17.86103516 21.21263672 18.53457031 21.23777344 19.22851562 21.26367188 C23.67265957 21.32870813 26.52833559 20.84225961 30 18 C30.75 15 30.75 15 30 12 C27.44173707 9.17867661 25.96144325 8.99709663 22.109375 8.70703125 C20.65595991 8.72685055 19.20268833 8.76245155 17.75 8.8125 C16.63238281 8.83280273 16.63238281 8.83280273 15.4921875 8.85351562 C13.66114584 8.88872796 11.83047831 8.94253149 10 9 Z M10 29 C10 33.29 10 37.58 10 42 C12.91691525 42.05401695 15.83282724 42.09368066 18.75 42.125 C19.575 42.14175781 20.4 42.15851563 21.25 42.17578125 C22.04921875 42.18222656 22.8484375 42.18867188 23.671875 42.1953125 C24.77160645 42.21102295 24.77160645 42.21102295 25.89355469 42.22705078 C28.29896076 41.96777544 29.91251494 41.19225925 32 40 C32.103125 38.741875 32.20625 37.48375 32.3125 36.1875 C32.37050781 35.47980469 32.42851563 34.77210938 32.48828125 34.04296875 C32.15960362 31.80559356 32.15960362 31.80559356 30.03125 30.25 C25.9761608 28.57779827 22.5218319 28.67080767 18.1875 28.8125 C17.00510742 28.83280273 17.00510742 28.83280273 15.79882812 28.85351562 C13.86558831 28.88866544 11.93270318 28.94246639 10 29 Z " fill="#024890" transform="translate(808,237)"/>
<path d="M0 0 C4.84249725 3.79547081 8.43731146 8.95468626 10.3125 14.8125 C11.35351608 23.78715444 10.73103941 31.40124836 5.3125 38.8125 C0.51229357 44.1828022 -5.45101344 47.71191866 -12.703125 48.31640625 C-21.8609744 48.60891741 -29.39565582 47.99913435 -36.6875 41.8125 C-41.79450458 36.19893018 -44.62856306 29.99895075 -44.71484375 22.40625 C-44.34363979 16.23855342 -42.51971523 11.26616095 -39.6875 5.8125 C-39.0275 5.8125 -38.3675 5.8125 -37.6875 5.8125 C-37.44773437 5.20792969 -37.20796875 4.60335937 -36.9609375 3.98046875 C-35.4085994 1.33768455 -34.00559563 0.54312511 -31.3125 -0.875 C-30.15621094 -1.49955078 -30.15621094 -1.49955078 -28.9765625 -2.13671875 C-19.25918921 -6.59742423 -9.31443873 -4.11568223 0 0 Z M-29.9375 11.1875 C-33.97748607 17.2474791 -34.08593772 21.75038953 -32.6875 28.8125 C-30.79019442 33.40597667 -28.07359239 35.53822987 -23.6875 37.8125 C-18.0216493 39.23670291 -13.12963185 39.1149404 -7.6875 36.8125 C-2.82579748 33.16622311 -0.62601949 28.73011238 0.3125 22.8125 C-0.10763726 17.08428711 -2.35575941 11.91858827 -6.625 8.0625 C-14.17989637 3.48377493 -23.97557616 4.89435817 -29.9375 11.1875 Z " fill="#024890" transform="translate(771.6875,240.1875)"/>
<path d="M0 0 C6.7134375 -0.0928125 6.7134375 -0.0928125 13.5625 -0.1875 C14.96056885 -0.21481201 16.3586377 -0.24212402 17.79907227 -0.27026367 C25.83833581 -0.32407091 31.90111277 0.05696849 38.3125 5.3125 C42.35900636 9.35900636 43.07944933 12.94407201 43.3125 18.5 C43.1748481 23.3259138 42.0950186 26.88737621 38.60546875 30.40625 C30.15831541 37.76275822 21.76615673 37.10985874 11 37 C11 41.62 11 46.24 11 51 C7.37 51 3.74 51 0 51 C0 34.17 0 17.34 0 0 Z M11 9 C11 14.94 11 20.88 11 27 C13.371875 27.061875 15.74375 27.12375 18.1875 27.1875 C18.92508545 27.21481201 19.6626709 27.24212402 20.42260742 27.27026367 C24.80536255 27.32530705 27.62922402 26.85755633 31 24 C32.20702141 21.02972611 32.28445467 18.17919928 32 15 C30.56348718 11.91125677 30.56348718 11.91125677 28 10 C24.20678915 8.95473046 20.60637018 8.89443549 16.6875 8.9375 C14.810625 8.958125 12.93375 8.97875 11 9 Z " fill="#024890" transform="translate(524,237)"/>
<path d="M0 0 C3.3 0 6.6 0 10 0 C10 6.6 10 13.2 10 20 C18.25 20 26.5 20 35 20 C35 13.4 35 6.8 35 0 C38.3 0 41.6 0 45 0 C45 16.83 45 33.66 45 51 C41.7 51 38.4 51 35 51 C35 43.74 35 36.48 35 29 C26.75 29 18.5 29 10 29 C10 36.26 10 43.52 10 51 C6.7 51 3.4 51 0 51 C0 34.17 0 17.34 0 0 Z " fill="#024890" transform="translate(950,237)"/>
<path d="M0 0 C3.63 0 7.26 0 11 0 C16.23508602 10.29787366 21.24602294 20.67305002 26.01220703 31.19628906 C27.02260819 33.42486542 28.04040235 35.64997366 29.05859375 37.875 C29.70616636 39.29928047 30.35331894 40.72375201 31 42.1484375 C31.30301025 42.80975677 31.60602051 43.47107605 31.91821289 44.1524353 C34 48.77038843 34 48.77038843 34 51 C30.04 51 26.08 51 22 51 C18 41.25 18 41.25 18 39 C10.08 39 2.16 39 -6 39 C-6.99 41.97 -7.98 44.94 -9 48 C-9.66 48.99 -10.32 49.98 -11 51 C-13.6015625 51.29296875 -13.6015625 51.29296875 -16.625 51.1875 C-18.12933594 51.14689453 -18.12933594 51.14689453 -19.6640625 51.10546875 C-20.43492187 51.07066406 -21.20578125 51.03585937 -22 51 C-19.60037221 43.08885962 -16.2278872 35.76948442 -12.6875 28.3125 C-8.26412918 18.94807534 -4.01778877 9.54418302 0 0 Z M5 13 C3.82887054 15.62309099 2.66294036 18.24828142 1.5 20.875 C1.16613281 21.62136719 0.83226562 22.36773437 0.48828125 23.13671875 C0.17246094 23.85214844 -0.14335938 24.56757813 -0.46875 25.3046875 C-0.90864258 26.2944458 -0.90864258 26.2944458 -1.35742188 27.30419922 C-2.11811255 29.00946207 -2.11811255 29.00946207 -2 31 C3.28 31 8.56 31 14 31 C12.50748294 26.52244882 10.99752948 22.77777506 8.875 18.625 C8.33617187 17.56539062 7.79734375 16.50578125 7.2421875 15.4140625 C6.83226562 14.61742187 6.42234375 13.82078125 6 13 C5.67 13 5.34 13 5 13 Z " fill="#024890" transform="translate(607,237)"/>
<path d="M0 0 C3.63 0 7.26 0 11 0 C16.2312648 10.30577453 21.27399154 20.67921729 26.06713867 31.19628906 C27.08587005 33.42615388 28.11618422 35.65046082 29.14648438 37.875 C29.79758313 39.29915564 30.44800175 40.72362246 31.09765625 42.1484375 C31.40582779 42.80975677 31.71399933 43.47107605 32.0315094 44.1524353 C32.74841103 45.74227482 33.38261448 47.36893509 34 49 C33.505 49.99 33.505 49.99 33 51 C29.37 51 25.74 51 22 51 C18 41.25 18 41.25 18 39 C10.08 39 2.16 39 -6 39 C-6.99 41.97 -7.98 44.94 -9 48 C-9.66 48.99 -10.32 49.98 -11 51 C-13.6015625 51.29296875 -13.6015625 51.29296875 -16.625 51.1875 C-18.12933594 51.14689453 -18.12933594 51.14689453 -19.6640625 51.10546875 C-20.43492187 51.07066406 -21.20578125 51.03585937 -22 51 C-19.60037221 43.08885962 -16.2278872 35.76948442 -12.6875 28.3125 C-8.26412918 18.94807534 -4.01778877 9.54418302 0 0 Z M5 12 C3.82905995 14.7899439 2.66309073 17.58178597 1.5 20.375 C1.16613281 21.1690625 0.83226562 21.963125 0.48828125 22.78125 C0.01455078 23.92207031 0.01455078 23.92207031 -0.46875 25.0859375 C-0.76201172 25.7876709 -1.05527344 26.4894043 -1.35742188 27.21240234 C-2.11275781 28.99708561 -2.11275781 28.99708561 -2 31 C3.28 31 8.56 31 14 31 C12.49073103 26.47219308 10.89033388 22.41853739 8.875 18.125 C8.33617187 16.97257812 7.79734375 15.82015625 7.2421875 14.6328125 C6.83226562 13.76398438 6.42234375 12.89515625 6 12 C5.67 12 5.34 12 5 12 Z " fill="#024890" transform="translate(892,237)"/>
<path d="M0 0 C11.22 0 22.44 0 34 0 C34 2.97 34 5.94 34 9 C26.41 9 18.82 9 11 9 C11 12.63 11 16.26 11 20 C18.59 20 26.18 20 34 20 C34 22.97 34 25.94 34 29 C26.41 29 18.82 29 11 29 C11 32.96 11 36.92 11 41 C18.59 41 26.18 41 34 41 C34 44.3 34 47.6 34 51 C22.78 51 11.56 51 0 51 C0 34.17 0 17.34 0 0 Z " fill="#024890" transform="translate(1105,237)"/>
<path d="M0 0 C4.50112044 -0.67009161 8.52882779 -0.95773654 13 0 C17.03039703 3.95783669 19.22978494 8.68935481 21 14 C21.99 14 22.98 14 24 14 C25.10191996 12.36071111 26.19366224 10.71284352 27.21142578 9.02001953 C32.41762325 0.44254485 32.41762325 0.44254485 37.32421875 -0.9296875 C40.32824029 -0.87991673 43.0663756 -0.63511456 46 0 C44.34840042 5.2144842 41.12174629 9.26016181 37.9375 13.625 C36.8390369 15.13554624 35.7438354 16.64847117 34.65234375 18.1640625 C34.16757568 18.82873535 33.68280762 19.4934082 33.18334961 20.17822266 C31.82739726 22.09850611 31.82739726 22.09850611 31 25 C32.08757749 27.10987002 32.08757749 27.10987002 33.8125 29.3125 C34.44929687 30.18261719 35.08609375 31.05273438 35.7421875 31.94921875 C36.48726562 32.95597656 37.23234375 33.96273437 38 35 C39.36255948 36.89738175 40.71717367 38.80026879 42.07104492 40.70385742 C44.04115219 43.47369378 46.02097407 46.2365312 48 49 C47.505 49.99 47.505 49.99 47 51 C42.72176633 51.92621554 39.24663041 52.16993921 35 51 C30.07153157 46.73995804 26.03622426 40.10867279 24 34 C23.34 34 22.68 34 22 34 C21.7525 34.53625 21.505 35.0725 21.25 35.625 C19.69800001 38.57379999 17.88585956 41.25203321 16 44 C15.68675781 44.64066406 15.37351562 45.28132813 15.05078125 45.94140625 C13.86131337 48.13020402 12.99227537 49.48270419 11 51 C6.93751471 51.60007953 3.0756078 51.40951083 -1 51 C-0.36651054 47.28584259 1.28657418 44.80869701 3.4375 41.75 C4.05496094 40.85796875 4.67242188 39.9659375 5.30859375 39.046875 C6.14583984 38.03367187 6.14583984 38.03367187 7 37 C7.66 37 8.32 37 9 37 C9.10183594 36.43796875 9.20367188 35.8759375 9.30859375 35.296875 C10.13648111 32.54660512 11.43198618 30.60904126 13.0625 28.25 C13.61035156 27.45078125 14.15820312 26.6515625 14.72265625 25.828125 C15.14417969 25.22484375 15.56570313 24.6215625 16 24 C15.65743164 23.5467334 15.31486328 23.0934668 14.96191406 22.62646484 C13.38954119 20.54394668 11.81975666 18.45949082 10.25 16.375 C9.71117187 15.66214844 9.17234375 14.94929687 8.6171875 14.21484375 C0 2.76028963 0 2.76028963 0 0 Z " fill="#024890" transform="translate(660,237)"/>
<path d="M0 0 C3.125 2.25 3.125 2.25 5 4 C3.71792641 6.86001033 2.50848764 9.07039412 0 11 C-1.32 11 -2.64 11 -4 11 C-4 10.34 -4 9.68 -4 9 C-10.5586255 6.76727643 -17.30898907 5.35269064 -23.8125 8.5 C-27.75340823 11.09366751 -29.59169269 14.57508176 -31 19 C-31.83865778 24.87060446 -30.29326742 29.20092938 -27 34 C-23.00696741 37.53668601 -18.18760902 38.00891342 -13 38 C-8.40844925 37.08168985 -4.88827101 35.59218067 -1 33 C0.98 34.65 2.96 36.3 5 38 C4.63108098 40.62156088 4.32833246 41.7268804 2.2578125 43.44921875 C1.55398438 43.85785156 0.85015625 44.26648438 0.125 44.6875 C-0.57367188 45.10386719 -1.27234375 45.52023437 -1.9921875 45.94921875 C-6.20743325 48.15525203 -10.10622473 48.21610383 -14.75 48.25 C-15.4409375 48.270625 -16.131875 48.29125 -16.84375 48.3125 C-24.76873452 48.37208635 -30.50233135 45.27584296 -36.19921875 39.921875 C-41.8065967 33.93742825 -42.6278848 27.98867868 -42.5390625 19.93823242 C-42.20349317 12.78137752 -40.26673119 8.20991847 -35.203125 3.234375 C-24.5740613 -5.52397349 -12.04521934 -6.3104158 0 0 Z " fill="#024890" transform="translate(431,240)"/>
<path d="M0 0 C14.19 0 28.38 0 43 0 C43 2.97 43 5.94 43 9 C37.72 9 32.44 9 27 9 C27 22.86 27 36.72 27 51 C23.37 51 19.74 51 16 51 C16 37.14 16 23.28 16 9 C10.72 9 5.44 9 0 9 C0 6.03 0 3.06 0 0 Z " fill="#024890" transform="translate(456,237)"/>
</svg>
