<?xml version="1.0" encoding="utf-8"?>
<!-- Generator: Adobe Illustrator 28.0.0, SVG Export Plug-In . SVG Version: 6.00 Build 0)  -->
<svg version="1.1" id="Слой_1" xmlns="http://www.w3.org/2000/svg" xmlns:xlink="http://www.w3.org/1999/xlink" x="0px" y="0px"
	 viewBox="0 0 1000 203.2700348" enable-background="new 0 0 1000 203.2700348" xml:space="preserve">
<g>
	<path fill="#000078" d="M49.3576698,101.6042786c0-30.4874268,20.5913048-55.319931,50.1567345-55.319931
		c22.7426453,0,41.6128845,12.416256,46.2843475,30.8562317h51.4475403
		c-2.6430664-42.7192802-41.6743469-77.1405716-96.5640182-77.1405716C43.27248,0.0000103,0,41.858757,0,101.6657486
		s43.27248,101.6042862,100.6822739,101.6042862c55.8116684,0,95.2117538-34.2368927,96.5640182-81.0129776h-51.447525
		c-3.9953308,21.3903732-21.8821106,34.7286301-46.2843552,34.7286301
		C72.5305786,156.9242096,49.3576698,132.8907776,49.3576698,101.6042786 M382.4451294,111.3160172
		c-31.1635437,7.3759918-52.8612366,33.8680954-57.8400574,76.5873642
		c-4.9787903-42.6578217-26.6764832-69.1499176-57.8400574-76.5873642
		c-5.3475952-33.4378357,24.1563721-62.6344566,57.8400574-62.6959267
		C358.3502197,48.7430153,387.854187,77.9396439,382.4451294,111.3160172 M426.2093201,101.6042786
		C426.2093201,45.4852829,380.7240295,0,324.605072,0c-56.1190186,0-101.6042786,45.4852753-101.6042786,101.6042786
		S268.486084,203.2085571,324.605072,203.2085571C380.7240601,203.2085724,426.2093201,157.7232819,426.2093201,101.6042786
		 M506.914978,52.7998161h78.4928589V7.7448006H452.8858643v187.780426h53.9676514V52.7998161H506.914978z M745.1594849,101.6042786
		c0,29.6883698-22.2509155,51.4475403-48.8659058,51.4475403c-26.2462158,0-48.8659058-21.7591858-48.8659058-51.4475403
		s22.6196899-51.4475365,48.8659058-51.4475365C722.9085693,50.1567497,745.1594849,71.9159241,745.1594849,101.6042786
		 M741.4100342,195.5252533h54.0291748V7.7448006h-54.0291748V28.274641
		c-13.8914185-17.2721138-32.2699585-24.4022369-52.1851196-24.4022369c-50.7714233,0-91.2163696,39.0927544-91.2163696,97.7318726
		s40.4450073,97.7318878,91.2163696,97.7318878c19.9151611,0,38.2937012-7.1301117,52.1851196-24.4022217V195.5252533z
		 M995.3284912,58.946476c0-31.225029-26.5536499-56.3648682-80.3983154-56.3648682
		c-57.2868042,0-86.7908325,32.0855598-86.7908325,71.6700439h52.6154175c0-20.5913124,11.4328003-31.286499,33.3762817-31.286499
		c20.7757568,0,29.6269531,7.437458,29.6269531,19.2390442s-6.5154419,19.853714-22.6811523,19.853714h-29.7498169v33.8680954
		h29.012207c18.4400024,0,26.1847534,7.9906464,26.1847534,20.9600983c0,12.1703949-8.052124,23.7875671-31.5324097,23.7875671
		c-25.3856812,0-36.9413452-12.9694519-36.9413452-34.2983551h-52.4924316
		c0,48.3742218,34.0524292,74.3131256,89.4338989,74.3131256C969.635498,200.688446,1000,177.822876,1000,141.2502441
		c0-19.0546417-10.019104-32.7616882-29.2580566-40.7523422C987.2149658,91.708168,995.3284912,75.7268524,995.3284912,58.946476"/>
</g>
</svg>
