<svg xmlns="http://www.w3.org/2000/svg" width="467" height="164" viewBox="0 0 467 164" fill="none"><rect x="22" y="22" width="120" height="120" rx="28" fill="#e60023"></rect><g transform="translate(46.49,66.43) scale(1.44)" fill="#ffffff" stroke="#ffffff" stroke-width="0.62" stroke-linejoin="round"><path d="M 0 20.402 L 0 0.543 L 12.916 0.543 L 12.916 3.559 L 3.597 3.559 L 3.597 8.95 L 12.247 8.95 L 12.247 11.966 L 3.597 11.966 L 3.597 17.386 L 12.994 17.386 L 12.994 20.402 L 0 20.402 Z"></path><path d="M 34.962 17.396 L 34.867 21.619 L 31.209 21.619 L 31.209 20.402 L 29.813 20.402 L 29.813 17.396 L 34.962 17.396 Z M 16.586 20.402 L 16.586 0.543 L 20.038 0.543 L 20.038 17.415 L 28.959 17.415 L 28.959 0.543 L 32.44 0.543 L 32.44 20.402 L 16.586 20.402 Z"></path><g transform="translate(-1.34,-0.03) scale(1.03)"><path d="M 53.261 6.972 L 49.634 6.972 C 49.531 6.377 49.34 5.851 49.062 5.392 C 48.784 4.926 48.438 4.532 48.025 4.209 C 47.611 3.885 47.139 3.643 46.609 3.481 C 46.085 3.313 45.52 3.229 44.912 3.229 C 43.832 3.229 42.876 3.501 42.042 4.044 C 41.208 4.58 40.555 5.369 40.083 6.41 C 39.611 7.444 39.375 8.708 39.375 10.201 C 39.375 11.72 39.611 13 40.083 14.041 C 40.561 15.075 41.214 15.858 42.042 16.388 C 42.876 16.911 43.829 17.173 44.902 17.173 C 45.497 17.173 46.053 17.095 46.57 16.94 C 47.094 16.779 47.562 16.543 47.976 16.232 C 48.396 15.922 48.749 15.541 49.033 15.088 C 49.324 14.636 49.524 14.119 49.634 13.537 L 53.261 13.556 C 53.125 14.5 52.831 15.386 52.378 16.213 C 51.932 17.041 51.347 17.771 50.623 18.405 C 49.899 19.032 49.052 19.523 48.083 19.878 C 47.113 20.228 46.037 20.402 44.854 20.402 C 43.108 20.402 41.55 19.998 40.18 19.19 C 38.81 18.382 37.73 17.215 36.941 15.689 C 36.153 14.164 35.758 12.334 35.758 10.201 C 35.758 8.061 36.156 6.232 36.951 4.713 C 37.746 3.187 38.829 2.02 40.199 1.212 C 41.57 0.404 43.121 0 44.854 0 C 45.959 0 46.987 0.155 47.937 0.466 C 48.888 0.776 49.734 1.232 50.478 1.833 C 51.221 2.428 51.832 3.158 52.311 4.024 C 52.795 4.884 53.112 5.867 53.261 6.972 Z"></path></g></g><g transform="translate(166.21,72.20) scale(0.38)" fill="#ffffff" stroke="#ffffff" stroke-width="0.62" stroke-linejoin="round"><path transform="translate(0,0)" d="M56.21 0L5.50 0L5.50-72.73L56.21-72.73L56.21-58.45L23.08-58.45L23.08-43.54L53.62-43.54L53.62-29.23L23.08-29.23L23.08-14.28L56.21-14.28L56.21 0ZM80.36 16.09L63.46 16.09L63.46-13.39L67.54-13.39Q69.39-14.31 70.49-16.96Q71.59-19.60 72.25-23.17Q72.90-26.74 73.24-30.63Q73.58-34.52 73.86-37.96L73.86-37.96L75.14-54.55L119.32-54.55L119.32-13.39L127.84-13.39L127.84 16.09L111.36 16.09L111.36 0L80.36 0L80.36 16.09ZM84.45-13.39L84.45-13.39L103.13-13.39L103.13-41.62L89.63-41.62L89.35-37.96Q88.85-29.15 87.78-23.19Q86.72-17.22 84.45-13.39ZM152.27-54.55L152.27-22.48L169.71-54.55L186.40-54.55L186.40 0L169.96 0L169.96-32.17L152.56 0L135.83 0L135.83-54.55L152.27-54.55ZM207.88-34.06L235.87-34.06L235.87-20.81L207.88-20.81L207.88-34.06ZM197.41-54.55L213.85-54.55L213.85 0L197.41 0L197.41-54.55ZM230.01-54.55L246.34-54.55L246.34 0L230.01 0L230.01-54.55ZM267.08-25.50L267.08-38.78L283.63-38.78Q294.89-38.78 301.28-33.50Q307.67-28.23 307.71-19.21L307.71-19.21Q307.67-13.35 304.78-9.04Q301.88-4.72 296.50-2.36Q291.12 0 283.63 0L283.63 0L256.89 0L256.89-54.55L273.33-54.55L273.33-13.28L283.63-13.28Q287.04-13.28 289.24-14.95Q291.44-16.62 291.48-19.25L291.48-19.25Q291.44-22.02 289.24-23.76Q287.04-25.50 283.63-25.50L283.63-25.50L267.08-25.50ZM329.97 0L312.61 0L312.61-54.55L329.97-54.55L329.97 0ZM357.42-54.55L357.42-22.48L374.86-54.55L391.55-54.55L391.55 0L375.11 0L375.11-32.17L357.71 0L340.98 0L340.98-54.55L357.42-54.55ZM373.30-73.86L373.30-73.86L384.73-73.86Q384.69-67.19 379.71-63.14Q374.72-59.09 366.19-59.09L366.19-59.09Q357.67-59.09 352.68-63.14Q347.69-67.19 347.73-73.86L347.73-73.86L359.06-73.86Q359.02-71.52 360.65-69.60Q362.29-67.68 366.19-67.68L366.19-67.68Q369.99-67.68 371.63-69.57Q373.26-71.45 373.30-73.86ZM474.43-13.60L496.91-13.60L496.02 17.19L479.55 17.19L479.55 0L474.43 0L474.43-13.60ZM485.97 0L424.08 0L424.08-72.73L440.98-72.73L440.98-13.78L468.82-13.78L468.82-72.73L485.97-72.73L485.97 0ZM530.40 1.03L530.40 1.03Q521.84 1.03 515.64-2.36Q509.45-5.75 506.13-12.06Q502.81-18.36 502.81-27.06L502.81-27.06Q502.81-35.51 506.14-41.85Q509.48-48.19 515.55-51.72Q521.63-55.26 529.87-55.26L529.87-55.26Q535.69-55.26 540.52-53.44Q545.35-51.63 548.86-48.08Q552.38-44.53 554.33-39.33Q556.29-34.13 556.29-27.41L556.29-27.41L556.29-23.08L508.88-23.08L508.88-33.17L540.13-33.17Q540.09-35.94 538.81-38.10Q537.54-40.27 535.32-41.50Q533.10-42.72 530.22-42.72L530.22-42.72Q527.31-42.72 525-41.42Q522.69-40.13 521.34-37.91Q519.99-35.69 519.92-32.88L519.92-32.88L519.92-22.62Q519.92-19.28 521.24-16.78Q522.55-14.28 524.96-12.89Q527.38-11.51 530.72-11.51L530.72-11.51Q533.03-11.51 534.91-12.14Q536.79-12.78 538.14-14.03Q539.49-15.27 540.16-17.08L540.16-17.08L556.11-16.62Q555.11-11.26 551.76-7.30Q548.40-3.34 542.97-1.15Q537.54 1.03 530.40 1.03ZM575.67-34.06L603.66-34.06L603.66-20.81L575.67-20.81L575.67-34.06ZM565.20-54.55L581.64-54.55L581.64 0L565.20 0L565.20-54.55ZM597.80-54.55L614.13-54.55L614.13 0L597.80 0L597.80-54.55ZM637.14-41.26L619.92-41.26L619.92-54.55L671.06-54.55L671.06-41.26L653.62-41.26L653.62 0L637.14 0L637.14-41.26ZM696.66 20.45L679.30 20.45L679.30-54.55L696.48-54.55L696.48-45.21L697.02-45.21Q698.08-47.69 700.05-50.00Q702.02-52.31 705.10-53.78Q708.17-55.26 712.46-55.26L712.46-55.26Q718.15-55.26 723.10-52.27Q728.05-49.29 731.11-43.08Q734.16-36.86 734.16-27.24L734.16-27.24Q734.16-17.97 731.23-11.72Q728.30-5.47 723.35-2.34Q718.39 0.78 712.36 0.78L712.36 0.78Q708.24 0.78 705.22-0.57Q702.20-1.92 700.16-4.12Q698.12-6.32 697.02-8.84L697.02-8.84L696.66-8.84L696.66 20.45ZM696.31-27.27L696.31-27.27Q696.31-22.87 697.50-19.60Q698.69-16.34 700.94-14.54Q703.20-12.75 706.36-12.75L706.36-12.75Q709.55-12.75 711.79-14.54Q714.03-16.34 715.18-19.60Q716.34-22.87 716.34-27.27L716.34-27.27Q716.34-31.68 715.18-34.91Q714.03-38.14 711.81-39.91Q709.59-41.69 706.36-41.69L706.36-41.69Q703.16-41.69 700.92-39.95Q698.69-38.21 697.50-34.98Q696.31-31.75 696.31-27.27Z"></path><path transform="translate(0,105)" d="M71.52-46.38L71.52-46.38L53.76-46.38Q53.41-49.11 52.31-51.31Q51.21-53.52 49.40-55.08Q47.59-56.64 45.12-57.48Q42.65-58.31 39.67-58.31L39.67-58.31Q34.38-58.31 30.56-55.72Q26.74-53.13 24.70-48.22Q22.66-43.32 22.66-36.36L22.66-36.36Q22.66-29.12 24.73-24.24Q26.81-19.35 30.59-16.89Q34.38-14.42 39.56-14.42L39.56-14.42Q42.47-14.42 44.87-15.16Q47.27-15.91 49.09-17.35Q50.92-18.79 52.11-20.86Q53.30-22.94 53.76-25.57L53.76-25.57L71.52-25.46Q71.06-20.63 68.73-15.94Q66.41-11.26 62.36-7.40Q58.31-3.55 52.50-1.28Q46.70 0.99 39.20 0.99L39.20 0.99Q29.33 0.99 21.54-3.36Q13.74-7.71 9.23-16.05Q4.72-24.40 4.72-36.36L4.72-36.36Q4.72-48.37 9.30-56.71Q13.88-65.06 21.70-69.39Q29.51-73.72 39.20-73.72L39.20-73.72Q45.81-73.72 51.42-71.89Q57.03-70.06 61.29-66.57Q65.55-63.07 68.22-57.99Q70.88-52.91 71.52-46.38ZM95.99-41.26L78.76-41.26L78.76-54.55L129.90-54.55L129.90-41.26L112.46-41.26L112.46 0L95.99 0L95.99-41.26ZM155.50 20.45L138.14 20.45L138.14-54.55L155.33-54.55L155.33-45.21L155.86-45.21Q156.92-47.69 158.90-50.00Q160.87-52.31 163.94-53.78Q167.01-55.26 171.31-55.26L171.31-55.26Q176.99-55.26 181.94-52.27Q186.90-49.29 189.95-43.08Q193.00-36.86 193.00-27.24L193.00-27.24Q193.00-17.97 190.07-11.72Q187.14-5.47 182.19-2.34Q177.24 0.78 171.20 0.78L171.20 0.78Q167.08 0.78 164.06-0.57Q161.04-1.92 159.00-4.12Q156.96-6.32 155.86-8.84L155.86-8.84L155.50-8.84L155.50 20.45ZM155.15-27.27L155.15-27.27Q155.15-22.87 156.34-19.60Q157.53-16.34 159.78-14.54Q162.04-12.75 165.20-12.75L165.20-12.75Q168.39-12.75 170.63-14.54Q172.87-16.34 174.02-19.60Q175.18-22.87 175.18-27.27L175.18-27.27Q175.18-31.68 174.02-34.91Q172.87-38.14 170.65-39.91Q168.43-41.69 165.20-41.69L165.20-41.69Q162.00-41.69 159.77-39.95Q157.53-38.21 156.34-34.98Q155.15-31.75 155.15-27.27ZM217.51 0.92L217.51 0.92Q212.29 0.92 208.26-0.83Q204.23-2.59 201.90-6.16Q199.57-9.73 199.57-15.13L199.57-15.13Q199.57-19.67 201.17-22.80Q202.77-25.92 205.58-27.88Q208.38-29.83 212.04-30.84Q215.70-31.85 219.85-32.21L219.85-32.21Q224.50-32.63 227.34-33.11Q230.18-33.59 231.48-34.50Q232.78-35.40 232.78-37.07L232.78-37.07L232.78-37.25Q232.78-39.99 230.89-41.48Q229.01-42.97 225.82-42.97L225.82-42.97Q222.37-42.97 220.28-41.48Q218.18-39.99 217.61-37.36L217.61-37.36L201.60-37.93Q202.31-42.90 205.27-46.82Q208.24-50.75 213.44-53.00Q218.64-55.26 225.96-55.26L225.96-55.26Q231.18-55.26 235.58-54.03Q239.99-52.81 243.25-50.48Q246.52-48.15 248.31-44.78Q250.11-41.41 250.11-37.07L250.11-37.07L250.11 0L233.77 0L233.77-7.60L233.35-7.60Q231.89-4.83 229.63-2.91Q227.38-0.99 224.34-0.04Q221.31 0.92 217.51 0.92ZM222.87-10.44L222.87-10.44Q225.67-10.44 227.93-11.58Q230.18-12.71 231.53-14.72Q232.88-16.73 232.88-19.39L232.88-19.39L232.88-24.57Q232.14-24.18 231.09-23.86Q230.04-23.54 228.80-23.26Q227.56-22.98 226.24-22.76Q224.93-22.55 223.72-22.37L223.72-22.37Q221.27-21.98 219.55-21.16Q217.83-20.35 216.92-19.05Q216.02-17.76 216.02-15.98L216.02-15.98Q216.02-13.28 217.95-11.86Q219.89-10.44 222.87-10.44ZM257.85-54.55L275.46-54.55L284.45-36.58L293.75-54.55L311.26-54.55L296.02-27.27L311.83 0L294.46 0L284.45-18.11L274.68 0L257.07 0L272.90-27.27L257.85-54.55ZM342.76 1.03L342.76 1.03Q334.16 1.03 328.00-2.50Q321.84-6.04 318.52-12.38Q315.20-18.71 315.20-27.10L315.20-27.10Q315.20-35.51 318.52-41.85Q321.84-48.19 328.00-51.72Q334.16-55.26 342.76-55.26L342.76-55.26Q351.35-55.26 357.51-51.72Q363.67-48.19 366.99-41.85Q370.31-35.51 370.31-27.10L370.31-27.10Q370.31-18.71 366.99-12.38Q363.67-6.04 357.51-2.50Q351.35 1.03 342.76 1.03ZM342.86-12.07L342.86-12.07Q345.99-12.07 348.15-13.99Q350.32-15.91 351.47-19.32Q352.63-22.73 352.63-27.20L352.63-27.20Q352.63-31.75 351.47-35.16Q350.32-38.57 348.15-40.48Q345.99-42.40 342.86-42.40L342.86-42.40Q339.63-42.40 337.41-40.48Q335.19-38.57 334.04-35.16Q332.88-31.75 332.88-27.20L332.88-27.20Q332.88-22.73 334.04-19.32Q335.19-15.91 337.41-13.99Q339.63-12.07 342.86-12.07ZM406.43 0L379.23 0L379.23-54.55L402.77-54.55Q413.32-54.55 419.41-50.76Q425.50-46.98 425.50-39.70L425.50-39.70Q425.50-35.48 422.07-32.44Q418.64-29.40 412.36-28.34L412.36-28.34Q417.90-28.05 421.56-26.14Q425.21-24.22 427.02-21.27Q428.84-18.32 428.84-14.99L428.84-14.99Q428.84-10.16 426.24-6.82Q423.65-3.48 418.66-1.74Q413.67 0 406.43 0L406.43 0ZM395.38-22.83L395.38-12.57L406.43-12.57Q409.20-12.57 410.78-13.88Q412.36-15.20 412.36-17.51L412.36-17.51Q412.36-19.99 410.78-21.41Q409.20-22.83 406.43-22.83L406.43-22.83L395.38-22.83ZM395.38-41.65L395.38-32.24L403.23-32.24Q405.11-32.24 406.46-32.81Q407.81-33.38 408.54-34.45Q409.27-35.51 409.27-37.00L409.27-37.00Q409.27-39.17 407.55-40.41Q405.82-41.65 402.77-41.65L402.77-41.65L395.38-41.65ZM452.77 0.92L452.77 0.92Q447.55 0.92 443.52-0.83Q439.49-2.59 437.16-6.16Q434.84-9.73 434.84-15.13L434.84-15.13Q434.84-19.67 436.43-22.80Q438.03-25.92 440.84-27.88Q443.64-29.83 447.30-30.84Q450.96-31.85 455.11-32.21L455.11-32.21Q459.77-32.63 462.61-33.11Q465.45-33.59 466.74-34.50Q468.04-35.40 468.04-37.07L468.04-37.07L468.04-37.25Q468.04-39.99 466.16-41.48Q464.28-42.97 461.08-42.97L461.08-42.97Q457.63-42.97 455.54-41.48Q453.44-39.99 452.88-37.36L452.88-37.36L436.86-37.93Q437.57-42.90 440.54-46.82Q443.50-50.75 448.70-53.00Q453.91-55.26 461.22-55.26L461.22-55.26Q466.44-55.26 470.85-54.03Q475.25-52.81 478.52-50.48Q481.78-48.15 483.58-44.78Q485.37-41.41 485.37-37.07L485.37-37.07L485.37 0L469.03 0L469.03-7.60L468.61-7.60Q467.15-4.83 464.90-2.91Q462.64-0.99 459.61-0.04Q456.57 0.92 452.77 0.92ZM458.13-10.44L458.13-10.44Q460.94-10.44 463.19-11.58Q465.45-12.71 466.80-14.72Q468.15-16.73 468.15-19.39L468.15-19.39L468.15-24.57Q467.40-24.18 466.35-23.86Q465.31-23.54 464.06-23.26Q462.82-22.98 461.51-22.76Q460.19-22.55 458.98-22.37L458.98-22.37Q456.53-21.98 454.81-21.16Q453.09-20.35 452.18-19.05Q451.28-17.76 451.28-15.98L451.28-15.98Q451.28-13.28 453.21-11.86Q455.15-10.44 458.13-10.44ZM506.43-34.06L534.41-34.06L534.41-20.81L506.43-20.81L506.43-34.06ZM495.95-54.55L512.39-54.55L512.39 0L495.95 0L495.95-54.55ZM528.55-54.55L544.89-54.55L544.89 0L528.55 0L528.55-54.55ZM571.88-54.55L571.88-22.48L589.31-54.55L606.00-54.55L606.00 0L589.56 0L589.56-32.17L572.16 0L555.43 0L555.43-54.55L571.88-54.55ZM664.84 0L648.69 0L648.69-41.30L639.88-41.30Q635.94-41.30 633.98-39.49Q632.03-37.68 632.10-35.51L632.10-35.51Q632.03-33.27 634.02-31.57Q636.01-29.87 640.02-29.87L640.02-29.87L654.69-29.87L654.69-18.86L640.02-18.86Q632.53-18.86 627.04-21.04Q621.56-23.22 618.59-27.11Q615.62-31.00 615.66-36.08L615.66-36.08Q615.62-41.51 618.57-45.69Q621.52-49.86 626.97-52.20Q632.42-54.55 639.88-54.55L639.88-54.55L664.84-54.55L664.84 0ZM630.86 0L614.60 0L629.62-28.84L645.88-28.84L630.86 0Z"></path></g></svg>