<?xml version="1.0" encoding="UTF-8"?>
<svg version="1.1" xmlns="http://www.w3.org/2000/svg" width="823" height="423">
<path d="M0 0 C271.59 0 543.18 0 823 0 C823 139.59 823 279.18 823 423 C551.41 423 279.82 423 0 423 C0 283.41 0 143.82 0 0 Z " fill="#FEFEFE" transform="translate(0,0)"/>
<path d="M0 0 C10.09829274 8.70330575 19.45322943 18.25681653 28.89453125 27.65625 C29.68016638 28.4378096 30.46580151 29.2193692 31.27524376 30.02461243 C35.42299035 34.15166821 39.56757435 38.28187077 43.7097168 42.41455078 C47.96215368 46.65587698 52.22615744 50.88537775 56.4927721 55.11243439 C59.79989001 58.39332656 63.09801374 61.68315122 66.39383507 64.97538757 C67.9616027 66.53831552 69.53271842 68.09789313 71.10737038 69.65388489 C84.97451945 83.36667024 96.82827256 96.83476414 97.49023438 117.26879883 C97.59364903 143.5438769 83.36877528 158.70420981 65.87884521 176.36270142 C64.31028484 177.94274846 62.74128381 179.52235817 61.171875 181.1015625 C60.36891243 181.90984875 59.56594986 182.71813499 58.73865509 183.55091476 C54.49286832 187.82326963 50.24352036 192.09204944 45.99169922 196.35839844 C42.49733397 199.86611868 39.01039004 203.38096996 35.52978516 206.90234375 C31.29661422 211.18506475 27.05108256 215.45516146 22.79660797 219.71671677 C21.18977493 221.33021701 19.58716156 222.94793208 17.9890976 224.57011795 C7.35957919 235.35096351 -3.22398759 245.97664997 -18.3125 250 C-19.02269287 250.19513184 -19.73288574 250.39026367 -20.46459961 250.59130859 C-35.90232397 254.48787833 -51.09136517 252.00747267 -64.75 243.875 C-77.15950763 235.09504107 -87.71717622 223.4720597 -98.45703125 212.78125 C-99.22060125 212.02175552 -99.98417126 211.26226105 -100.77087975 210.47975159 C-104.80191407 206.46940237 -108.8297897 202.45591069 -112.85522461 198.43994141 C-116.98659519 194.31968214 -121.12952975 190.21125294 -125.27507496 186.10526276 C-128.48954946 182.91701962 -131.69502351 179.71983948 -134.89819908 176.52024841 C-136.42130875 175.00197674 -137.94776484 173.48705379 -139.47776222 171.97572327 C-153.35296084 158.25954898 -166.03854986 143.51165678 -166.32983398 122.86230469 C-166.19947198 106.97650152 -162.30661921 93.48711079 -151.25927734 81.61791992 C-150.78834341 81.11185557 -150.31740948 80.60579123 -149.83220482 80.08439159 C-142.98811125 72.78343985 -135.91078166 65.70501852 -128.8515625 58.61328125 C-128.09456432 57.85220755 -127.33756615 57.09113384 -126.55762863 56.3069973 C-122.55794399 52.28662256 -118.55511247 48.269411 -114.54980469 44.25463867 C-110.4476687 40.14141006 -106.35736224 36.01662056 -102.26952553 31.88918781 C-99.08980674 28.68318357 -95.90109929 25.48623138 -92.7100029 22.2915554 C-91.19896069 20.77568658 -89.69125594 19.25648237 -88.18718338 17.73369789 C-67.0085417 -3.69219865 -67.0085417 -3.69219865 -53.5625 -8 C-51.89380859 -8.556875 -51.89380859 -8.556875 -50.19140625 -9.125 C-32.76400817 -13.90313607 -14.55098154 -10.81569412 0 0 Z " fill="#019CA6" transform="translate(184,87)"/>
<path d="M0 0 C1.32 0.66 2.64 1.32 4 2 C4 9.59 4 17.18 4 25 C9.30233395 24.9028502 14.60392521 24.79998682 19.90576172 24.68261719 C21.70777715 24.64443478 23.50986601 24.60956349 25.31201172 24.578125 C27.90879481 24.53224037 30.5050771 24.47428565 33.1015625 24.4140625 C33.9017984 24.40251129 34.7020343 24.39096008 35.52651978 24.37905884 C40.0202515 24.26162506 43.81564455 23.83405454 48 22 C49.29319254 19.9478575 49.29319254 19.9478575 49.75 17.4375 C49.97429687 16.54804688 50.19859375 15.65859375 50.4296875 14.7421875 C50.79575326 12.98206308 51.13659168 11.21639509 51.4453125 9.4453125 C52.52986907 3.43095336 52.52986907 3.43095336 55.25 0.9375 C58.40178935 -0.13697364 60.69163106 -0.35960532 64 0 C64.99 0.66 65.98 1.32 67 2 C67.34057617 4.33837891 67.34057617 4.33837891 67.29296875 7.2265625 C67.28330078 8.2578125 67.27363281 9.2890625 67.26367188 10.3515625 C67.23853516 11.43179688 67.21339844 12.51203125 67.1875 13.625 C67.16719727 15.25695312 67.16719727 15.25695312 67.14648438 16.921875 C67.11104754 19.61507409 67.06164331 22.30729374 67 25 C68.46808105 24.97643433 68.46808105 24.97643433 69.96582031 24.95239258 C73.60359438 24.8980143 77.24133264 24.86362152 80.87939453 24.83520508 C82.45269822 24.82013636 84.02596002 24.79967755 85.59912109 24.77368164 C87.86306096 24.73721262 90.12644457 24.72025492 92.390625 24.70703125 C93.09181458 24.69154739 93.79300415 24.67606354 94.51544189 24.66011047 C97.63094799 24.65904147 99.70811388 24.83480289 102.44458008 26.38354492 C104 28 104 28 104.49609375 30.15625 C104.47675781 30.9296875 104.45742188 31.703125 104.4375 32.5 C104.43556641 33.66015625 104.43556641 33.66015625 104.43359375 34.84375 C103.87233325 37.63488328 103.32638649 38.3429321 101 40 C98.41225229 40.26153069 96.07100347 40.34958438 93.48828125 40.29296875 C92.76005661 40.28872391 92.03183197 40.28447906 91.28153992 40.28010559 C88.95814873 40.26332733 86.6356285 40.22567855 84.3125 40.1875 C82.73634066 40.17245197 81.16016771 40.15876377 79.58398438 40.14648438 C75.72232123 40.11342685 71.86130822 40.06165194 68 40 C68.06135385 48.35428747 68.13856168 56.70821718 68.23571491 65.06215763 C68.28034099 68.94172631 68.31961379 72.82119187 68.34643555 76.70092773 C68.37254659 80.44884353 68.41300299 84.19636081 68.46318626 87.94402885 C68.47980252 89.37002014 68.49134934 90.79608028 68.49761391 92.22215462 C68.37973757 102.56061354 68.37973757 102.56061354 72 112 C75.49418927 113.74709463 79.17896076 113.45157736 83 113 C85.64060719 112.07031877 88.12282216 110.99921866 90.640625 109.77734375 C93.51254997 108.83113006 95.1329736 109.13603076 98 110 C99.875 111.25 99.875 111.25 101 113 C101.12109692 117.35948902 98.74251324 120.19772033 95.94140625 123.2890625 C86.5671119 131.55051306 74.8779442 131.67730622 63 131 C56.4642556 129.89668406 51.34146291 127.02933106 47 122 C42.89257717 115.63287038 41.89240249 109.71499158 41.79467773 102.19018555 C41.78477814 101.52621262 41.77487854 100.86223969 41.76467896 100.17814636 C41.73325574 97.99770595 41.70838301 95.81724381 41.68359375 93.63671875 C41.66300762 92.11928258 41.64201073 90.60185193 41.62062073 89.08442688 C41.56557127 85.10115037 41.51608688 81.11782359 41.46777344 77.13446045 C41.4085736 72.34941897 41.34244035 67.56446886 41.27747345 62.77950287 C41.17967955 55.51972465 41.09067623 48.25988633 41 41 C22.685 40.505 22.685 40.505 4 40 C4.0678228 47.62655719 4.13851116 55.25221796 4.2355423 62.87831879 C4.27995707 66.43065683 4.31944058 69.98288363 4.34643555 73.53540039 C4.37774286 77.62414451 4.43251974 81.71229692 4.48828125 85.80078125 C4.49467117 87.05643387 4.5010611 88.31208649 4.50764465 89.60578918 C4.62835616 96.9263236 4.99248596 104.21014122 8 111 C12.08234498 113.72156332 15.20109964 113.6413277 20 113 C22.63761639 112.06608842 25.12396495 110.99866407 27.640625 109.77734375 C30.52662928 108.82649135 32.1289843 109.07992618 35 110 C37 112 37 112 37.5 114.6875 C36.7848098 119.42563509 34.56295862 121.89750849 31 125 C28.43490417 126.6439007 25.83760198 127.899386 23 129 C22.09636719 129.35707031 21.19273437 129.71414063 20.26171875 130.08203125 C11.23570571 132.62228642 -0.06675603 132.08190002 -8.69140625 128.40625 C-13.82187573 125.28109092 -17.70676696 120.5445279 -20 115 C-20.87159491 110.65873265 -21.14777498 106.49958043 -21.20532227 102.07666016 C-21.21522186 101.4125412 -21.22512146 100.74842224 -21.23532104 100.06417847 C-21.26667587 97.88917493 -21.29158942 95.71414961 -21.31640625 93.5390625 C-21.33699831 92.02305565 -21.35799535 90.50705424 -21.37937927 88.99105835 C-21.43436751 85.01601599 -21.48387852 81.04092383 -21.53222656 77.0657959 C-21.58261219 73.00345468 -21.63820888 68.94118508 -21.69335938 64.87890625 C-21.80065625 56.91933154 -21.90216348 48.95969659 -22 41 C-22.77085937 40.96261719 -23.54171875 40.92523438 -24.3359375 40.88671875 C-25.33882812 40.82097656 -26.34171875 40.75523437 -27.375 40.6875 C-28.87160156 40.60048828 -28.87160156 40.60048828 -30.3984375 40.51171875 C-31.25695312 40.34285156 -32.11546875 40.17398438 -33 40 C-35.71232939 35.93150591 -35.30699887 33.83523216 -35 29 C-31.80647088 25.80647088 -27.60361581 25.79840391 -23.26171875 24.9765625 C-19.10467209 23.73193775 -16.16422145 21.9770597 -13.92578125 18.17578125 C-13.72339844 17.56089844 -13.52101563 16.94601563 -13.3125 16.3125 C-13.08046875 15.62414062 -12.8484375 14.93578125 -12.609375 14.2265625 C-11.97092005 11.89374633 -11.51138557 9.56349775 -11.0625 7.1875 C-10.46123629 4.35227276 -10.15913655 3.18755379 -8.25 0.9375 C-5.29875352 -0.29218603 -3.17214952 -0.33043224 0 0 Z " fill="#1C1C50" transform="translate(602,129)"/>
<path d="M0 0 C13.26459209 -0.04626195 26.52916512 -0.08183788 39.79382133 -0.10362434 C45.95258297 -0.1140787 52.11128957 -0.12826797 58.27001953 -0.15087891 C64.20924549 -0.17254846 70.14841839 -0.18455617 76.08768082 -0.18975449 C78.35798097 -0.19346086 80.62827809 -0.20069805 82.89855576 -0.21146011 C86.06899124 -0.22589677 89.23920511 -0.22798123 92.40966797 -0.22705078 C93.35625275 -0.23424133 94.30283752 -0.24143188 95.27810669 -0.24884033 C96.13909973 -0.246091 97.00009277 -0.24334167 97.88717651 -0.24050903 C98.637516 -0.24235262 99.38785549 -0.24419621 100.16093254 -0.24609566 C102 0 102 0 104 2 C104.3359375 5.01171875 104.3359375 5.01171875 104.375 8.6875 C104.40335937 9.88761719 104.43171875 11.08773437 104.4609375 12.32421875 C103.62459553 18.9936916 99.62115243 23.71442001 95.5625 28.875 C94.67406897 30.01270063 93.78607019 31.1507389 92.8984375 32.2890625 C92.19412598 33.18866699 92.19412598 33.18866699 91.47558594 34.10644531 C88.85525601 37.46899974 86.27357724 40.86107971 83.6875 44.25 C82.5769156 45.70319584 81.46623764 47.15632018 80.35546875 48.609375 C79.52281494 49.69895508 79.52281494 49.69895508 78.67333984 50.81054688 C75.41066502 55.07953838 72.14634813 59.34727434 68.88232422 63.61523438 C66.13583561 67.20660543 63.38977402 70.79830151 60.64453125 74.390625 C60.0918457 75.11362793 59.53916016 75.83663086 58.96972656 76.58154297 C57.87613983 78.01248542 56.78303061 79.44379297 55.69042969 80.87548828 C53.14120032 84.21324384 50.58244635 87.54246472 47.99609375 90.8515625 C47.53098389 91.4487207 47.06587402 92.04587891 46.58666992 92.66113281 C45.33695045 94.26351285 44.08270481 95.86235999 42.828125 97.4609375 C40.85694231 99.93302232 40.85694231 99.93302232 40 103 C40.66763367 102.99111755 41.33526733 102.98223511 42.02313232 102.9730835 C48.96585538 102.88465527 55.90841871 102.82428424 62.8515625 102.78027344 C65.44342546 102.76014625 68.03524296 102.73284184 70.62695312 102.69824219 C74.35037449 102.64977499 78.07319599 102.62704184 81.796875 102.609375 C83.53768341 102.57840729 83.53768341 102.57840729 85.31365967 102.54681396 C86.39447815 102.54651184 87.47529663 102.54620972 88.58886719 102.54589844 C90.01449982 102.53257477 90.01449982 102.53257477 91.46893311 102.51898193 C94.74745689 103.14205087 95.9084903 104.4622421 98 107 C99.00488281 108.93530273 99.00488281 108.93530273 99.703125 110.93359375 C99.9609375 111.66513672 100.21875 112.39667969 100.484375 113.15039062 C100.73703125 113.90513672 100.9896875 114.65988281 101.25 115.4375 C101.518125 116.18837891 101.78625 116.93925781 102.0625 117.71289062 C103.43172418 121.68433934 104.05429495 124.77329073 104 129 C89.67505574 129.0233302 75.35011441 129.04091336 61.02515507 129.05181217 C54.3742647 129.05704174 47.72339214 129.06414072 41.07250977 129.07543945 C34.65997123 129.08626571 28.24744496 129.09227628 21.83489799 129.09487724 C19.38235722 129.09673197 16.92981715 129.10035347 14.47728157 129.10573006 C11.05523323 129.11293702 7.63323629 129.11399109 4.21118164 129.11352539 C2.6737027 129.1189183 2.6737027 129.1189183 1.10516357 129.12442017 C0.17823196 129.1230455 -0.74869965 129.12167084 -1.70372009 129.12025452 C-2.51397613 129.12117631 -3.32423216 129.1220981 -4.1590414 129.12304783 C-6 129 -6 129 -7 128 C-8.07804122 120.46308576 -8.65892865 113.30023372 -3.92895508 106.88769531 C-2.14419891 104.7316858 -0.30465299 102.63770873 1.58886719 100.57666016 C3.8877854 98.00807645 5.92831912 95.25236427 8 92.5 C8.8372988 91.4092011 9.67584077 90.31935532 10.515625 89.23046875 C12.1315326 87.12991492 13.74585162 85.02817016 15.359375 82.92578125 C20.15375069 76.68212533 24.97406287 70.45958169 29.8125 64.25 C35.10281744 57.45961576 40.35477611 50.64126457 45.57055664 43.79345703 C48.93783009 39.3747964 52.34484036 34.99230233 55.828125 30.6640625 C57.19619291 28.89089119 57.19619291 28.89089119 58 26 C57.3927861 26.00666183 56.7855722 26.01332367 56.15995789 26.02018738 C49.8499378 26.08646887 43.54001632 26.13177064 37.22973633 26.16479492 C34.87357569 26.17989747 32.51744323 26.20038091 30.16137695 26.22631836 C26.77808688 26.26263656 23.39516792 26.27971167 20.01171875 26.29296875 C18.42722176 26.31619453 18.42722176 26.31619453 16.81071472 26.33988953 C15.33952934 26.34022942 15.33952934 26.34022942 13.83862305 26.34057617 C12.97480515 26.34723801 12.11098724 26.35389984 11.22099304 26.36076355 C8.51203413 25.92073802 7.67097788 25.13097691 6 23 C5.10864258 21.08642578 5.10864258 21.08642578 4.39453125 18.9453125 C4.00297852 17.77548828 4.00297852 17.77548828 3.60351562 16.58203125 C3.34248047 15.77121094 3.08144531 14.96039063 2.8125 14.125 C2.40354492 12.92037109 2.40354492 12.92037109 1.98632812 11.69140625 C0.63814558 7.58941726 -0.05773767 4.34060688 0 0 Z " fill="#FCFDFE" transform="translate(101,143)"/>
<path d="M0 0 C0.78761719 0.35191406 1.57523438 0.70382813 2.38671875 1.06640625 C9.8977493 4.82812899 14.81423782 10.19488265 18 18 C20.26924445 25.19338406 20.32796937 32.07632468 20.37890625 39.58203125 C20.40486754 41.55440491 20.43083356 43.52677853 20.4570837 45.49914837 C20.49130361 48.24092022 20.51699721 50.98274557 20.54260254 53.72460938 C20.58853584 58.54450568 20.64359542 63.36428698 20.70530701 68.18400574 C20.73724766 70.74588673 20.76414282 73.30783651 20.78553772 75.86982727 C20.79902756 77.02500351 20.8125174 78.18017975 20.82641602 79.37036133 C20.83592789 80.38769852 20.84543976 81.40503571 20.85523987 82.45320129 C20.89546432 85.12286274 20.89546432 85.12286274 22 88 C26.7897321 88.23428313 26.7897321 88.23428313 31 86 C34.15795845 86.15789792 35.57992338 86.62057596 37.9375 88.75 C39 91 39 91 38.625 93.375 C34.64829511 99.7989079 28.19611507 103.9221658 21 106 C13.21990646 107.06038028 7.60451103 105.62146257 1.25 101 C-0.56905461 99.38306256 -2.29051347 97.7291358 -4 96 C-4.57105469 96.38671875 -5.14210938 96.7734375 -5.73046875 97.171875 C-17.46774307 104.71060127 -29.23405263 107.43364808 -43 106 C-50.32444785 104.16114003 -56.26918084 99.57831476 -60.8125 93.625 C-64.4553779 85.57232254 -65.3557229 76.9034024 -62.875 68.375 C-59.23651882 58.8949206 -52.92657591 53.57982289 -44 49 C-31.46514928 43.7471448 -19.40390797 42.674399 -6 43 C-6.05264095 39.85288822 -6.14787597 36.70836405 -6.25 33.5625 C-6.26417969 32.68400391 -6.27835938 31.80550781 -6.29296875 30.90039062 C-6.52440918 24.62835503 -7.5806826 19.35209923 -11 14 C-15.64105981 9.92244155 -20.76606595 10.512425 -26.6640625 10.6484375 C-31.10311181 11.116253 -32.94507047 11.77050307 -36 15 C-37.14768913 17.48250172 -37.14768913 17.48250172 -37 20 C-36.34 20.99 -35.68 21.98 -35 23 C-34.45456121 26.06594015 -34.46623258 28.93218522 -35 32 C-37.98273906 35.89413155 -41.25820323 38.52641692 -46.1484375 39.37109375 C-50.28770068 39.49454546 -53.12211901 39.39741725 -56.4375 36.75 C-60.68649635 32.19010148 -61.52453407 28.79386263 -61.37109375 22.65625 C-60.35343279 15.37193999 -55.79864701 10.06900443 -50.23046875 5.56640625 C-36.50736289 -4.07101135 -15.59083623 -6.99480761 0 0 Z " fill="#1C1C50" transform="translate(769,154)"/>
<path d="M0 0 C0.77730469 0.37511719 1.55460938 0.75023437 2.35546875 1.13671875 C13.55172879 6.9266281 20.75264638 16.95685999 24.58984375 28.82421875 C25.17237399 31.91440295 25.21034877 34.92013992 25.25 38.0625 C25.27578125 39.29097656 25.3015625 40.51945312 25.328125 41.78515625 C25 45 25 45 23.8679657 46.67964172 C21.1543726 48.59772572 19.08640769 48.36003777 15.78442383 48.34057617 C14.5033223 48.34034958 13.22222076 48.34012299 11.90229797 48.33988953 C10.50387219 48.32456957 9.10544996 48.30892158 7.70703125 48.29296875 C6.27642766 48.28737268 4.84581831 48.28310263 3.41520691 48.28010559 C-0.34801132 48.26865756 -4.11088156 48.23919115 -7.8739624 48.20599365 C-11.71475517 48.17529163 -15.55560423 48.1616 -19.39648438 48.14648438 C-26.93114814 48.11432106 -34.46552529 48.06312566 -42 48 C-41.55806927 50.88046154 -41.10615837 53.75876045 -40.6484375 56.63671875 C-40.52525146 57.44653198 -40.40206543 58.25634521 -40.27514648 59.09069824 C-38.85972605 67.88461165 -36.04592325 75.18711332 -29 81 C-22.70655622 85.35699954 -16.72071478 86.36497278 -9.25 86.3125 C-8.45376221 86.30903564 -7.65752441 86.30557129 -6.8371582 86.30200195 C0.35049634 86.16942624 6.55249639 85.11551358 12.75 81.3125 C15.72470587 79.57725491 17.61560283 79.48498304 21 80 C22.9375 81.6875 22.9375 81.6875 24 84 C24.11923222 88.41159226 21.69901088 91.13668631 18.84375 94.234375 C8.62923639 104.01607024 -4.08720653 106.62676555 -17.80981445 106.47265625 C-33.04358999 105.90906628 -46.51820459 101.51099513 -57.18359375 90.19921875 C-69.48237206 75.30843985 -70.2457818 57.55434144 -69 39 C-66.69872822 26.1391783 -58.78882414 14.07087792 -48.3125 6.375 C-34.73863091 -2.72892428 -15.47554344 -7.78429139 0 0 Z " fill="#1B1B4F" transform="translate(542,154)"/>
<path d="M0 0 C1.09256355 0.00842926 1.09256355 0.00842926 2.2071991 0.01702881 C2.97481064 0.01513046 3.74242218 0.01323212 4.53329468 0.01127625 C7.07769393 0.00756316 9.62180947 0.0182802 12.16618347 0.02947998 C13.92973293 0.03067161 15.69328304 0.03112498 17.45683289 0.03086853 C21.15572575 0.03243432 24.85452195 0.0407312 28.5533905 0.05413818 C33.3017309 0.07112815 38.04996498 0.07495257 42.79833221 0.074193 C46.44079102 0.07446456 50.08322645 0.07994342 53.72567749 0.08719444 C55.47682518 0.09038324 57.22797554 0.09234901 58.97912598 0.09308815 C61.42368611 0.09524948 63.86813212 0.10398922 66.31266785 0.11468506 C67.04104355 0.11423187 67.76941925 0.11377869 68.51986694 0.11331177 C73.53097806 0.14547103 73.53097806 0.14547103 75.75993347 1.25994873 C76.32651934 6.80210106 74.47019474 10.26784563 71.62712097 14.83416748 C71.1829483 15.5672966 70.73877563 16.30042572 70.28114319 17.05577087 C63.88082748 27.49855317 56.94286224 37.60041527 50.07878113 47.74066162 C35.92536199 68.40351001 35.92536199 68.40351001 23.75993347 90.25994873 C28.11404325 90.31832083 32.46805141 90.35367046 36.82243347 90.38494873 C38.05155457 90.40170654 39.28067566 90.41846436 40.54704285 90.43572998 C51.2818401 90.77125167 51.2818401 90.77125167 60.38493347 85.88494873 C63.32741165 82.00666602 64.81817673 77.41279448 66.45133972 72.86932373 C67.75993347 70.25994873 67.75993347 70.25994873 69.74821472 68.88494873 C72.42897357 68.05209161 74.10609936 68.42189585 76.75993347 69.25994873 C78.75993347 71.25994873 78.75993347 71.25994873 78.77165222 74.24432373 C78.61116394 76.10830811 78.61116394 76.10830811 78.44743347 78.00994873 C78.33513809 79.36408921 78.22316701 80.71825662 78.11149597 82.07244873 C78.0512323 82.76467529 77.99096863 83.45690186 77.92887878 84.17010498 C77.76481848 86.19952149 77.64106581 88.22683117 77.53337097 90.25994873 C77.4637616 91.49744873 77.39415222 92.73494873 77.32243347 94.00994873 C77.26184753 95.13916748 77.2012616 96.26838623 77.13883972 97.43182373 C76.75993347 100.25994873 76.75993347 100.25994873 74.75993347 103.25994873 C72.14412642 103.56233863 69.7636543 103.66946364 67.14494324 103.64813232 C66.35943085 103.65338928 65.57391846 103.65864624 64.76460266 103.6640625 C62.15998121 103.67729948 59.55596772 103.66851077 56.95133972 103.65838623 C55.14534385 103.66040611 53.33934878 103.66331683 51.53335571 103.66708374 C47.74446361 103.67151227 43.9557834 103.66505988 40.16691589 103.65106201 C35.30642836 103.63398199 30.44643819 103.64380039 25.58596897 103.6617794 C21.85508468 103.67261345 18.12431853 103.66917244 14.39343071 103.66139603 C12.60124083 103.65939233 10.80904029 103.66185922 9.01686287 103.66883469 C6.51239191 103.67644165 4.00872892 103.66485552 1.50431824 103.64813232 C0.76083633 103.65420502 0.01735443 103.66027771 -0.74865723 103.66653442 C-5.74791048 103.60459495 -5.74791048 103.60459495 -8.20274353 101.88552856 C-9.70911861 99.5249013 -9.60147494 98.01378266 -9.24006653 95.25994873 C-8.22468567 92.97772217 -8.22468567 92.97772217 -6.77522278 90.61932373 C-6.2317218 89.72721191 -5.68822083 88.8351001 -5.12825012 87.91595459 C-4.52577454 86.95697266 -3.92329895 85.99799072 -3.30256653 85.00994873 C-2.67430969 83.99489258 -2.04605286 82.97983643 -1.39875793 81.934021 C4.52978444 72.44646281 10.81182472 63.20939409 17.14665222 53.99041748 C21.92657629 47.03333264 26.65113274 40.03998455 31.34654236 33.02560425 C32.24039247 31.69189653 33.13607723 30.35941638 34.03367615 29.02822876 C35.28935044 27.16571679 36.53901403 25.29930799 37.78727722 23.43182373 C38.86610168 21.82452393 38.86610168 21.82452393 39.96672058 20.18475342 C41.56414682 17.5792849 42.73896832 15.13151683 43.75993347 12.25994873 C39.76007418 12.17211398 35.76046643 12.11927771 31.75993347 12.07244873 C30.63458191 12.04731201 29.50923035 12.02217529 28.34977722 11.99627686 C20.71199135 11.92927873 14.64102475 12.20959271 8.42399597 17.09588623 C6.51313007 19.58090902 5.34256425 21.99442602 4.13493347 24.88494873 C1.95437792 30.06550429 1.95437792 30.06550429 -0.24006653 32.25994873 C-4.2926794 32.60485195 -5.78760829 32.56158756 -9.24006653 30.25994873 C-9.00367188 26.30812946 -8.75518962 22.35727608 -8.49543762 18.40692139 C-8.40876804 17.0627313 -8.32541533 15.7183231 -8.24543762 14.37371826 C-8.12996373 12.44202539 -8.00160271 10.51111643 -7.87287903 8.58026123 C-7.7995636 7.41768799 -7.72624817 6.25511475 -7.65071106 5.05731201 C-6.9091593 0.00576616 -4.61073315 0.02910071 0 0 Z " fill="#1B1B50" transform="translate(392.2400665283203,154.74005126953125)"/>
<path d="M0 0 C3.51685176 0.58286591 5.16415671 1.79360217 7.65652466 4.30249023 C8.36592194 5.00920868 9.07531921 5.71592712 9.80621338 6.44406128 C10.95812164 7.61450485 10.95812164 7.61450485 12.13330078 8.80859375 C12.94997223 9.62643341 13.76664368 10.44427307 14.60806274 11.28689575 C17.31083641 13.9968681 20.00294167 16.71719548 22.6953125 19.4375 C24.5673831 21.31770371 26.4400802 23.19726039 28.31369019 25.07592773 C32.74399705 29.52072077 37.16702468 33.97267977 41.58713043 38.42761517 C49.50760129 46.41002796 57.44030828 54.38027266 65.37573612 62.34781361 C68.61063619 65.59647245 71.84038767 68.85019747 75.06887817 72.10522461 C76.75433349 73.8006994 78.43986595 75.49609751 80.12548828 77.19140625 C80.89747559 77.97170197 81.66946289 78.75199768 82.46484375 79.55593872 C83.52048019 80.61601639 83.52048019 80.61601639 84.59744263 81.69750977 C85.20984865 82.31473404 85.82225468 82.93195831 86.45321846 83.56788635 C87.95922885 85.09607388 87.95922885 85.09607388 90 86 C90 87.32 90 88.64 90 90 C79.26453934 90.06952072 68.52913227 90.12282187 57.79349232 90.15543652 C52.80845499 90.17109019 47.82357171 90.19232311 42.83862305 90.22631836 C38.02756423 90.2589223 33.21665356 90.27685526 28.40549278 90.28463173 C26.57027543 90.29017337 24.73506614 90.30099483 22.89991188 90.31719017 C20.32868574 90.33897825 17.75807123 90.34196636 15.18676758 90.34057617 C14.42863266 90.351362 13.67049774 90.36214783 12.88938904 90.3732605 C8.42018962 90.34712651 5.49421636 89.85828962 2 87 C-0.74425326 83.44278517 -0.26760114 79.2224547 -0.22705078 74.92675781 C-0.22734283 74.11662735 -0.22763489 73.30649689 -0.22793579 72.47181702 C-0.22654443 69.79881006 -0.21099238 67.12608316 -0.1953125 64.453125 C-0.19158168 62.59796297 -0.18873503 60.74279898 -0.18673706 58.88763428 C-0.17910604 54.00826565 -0.15946207 49.12901635 -0.1373291 44.24969482 C-0.11685927 39.26934422 -0.10773291 34.28897431 -0.09765625 29.30859375 C-0.07621571 19.53901011 -0.04208612 9.76951498 0 0 Z " fill="#1A1A4F" transform="translate(10,257)"/>
<path d="M0 0 C0.80983841 -0.00014603 1.61967682 -0.00029205 2.45405579 -0.0004425 C5.13785456 0.00025562 7.82158441 0.00804335 10.50537109 0.01586914 C12.36339276 0.01773368 14.22141492 0.01915741 16.07943726 0.02015686 C20.97523348 0.02397924 25.87100014 0.03380716 30.76678467 0.04486084 C35.76037191 0.05508095 40.75396391 0.05965577 45.74755859 0.06469727 C55.54965493 0.07542966 65.35172931 0.09250275 75.15380859 0.11352539 C75.15380859 4.11352539 75.15380859 4.11352539 73.68901539 5.75251102 C73.01971847 6.283184 72.35042154 6.81385698 71.6608429 7.36061096 C67.18630472 11.05872361 63.11968911 15.03367858 59.04125977 19.16015625 C58.27437836 19.93171051 57.50749695 20.70326477 56.71737671 21.49819946 C55.06690586 23.15910436 53.41754071 24.82110861 51.76918602 26.48411369 C49.16225796 29.11318169 46.55127856 31.73816161 43.93904114 34.36195374 C36.51750524 41.81699252 29.1001666 49.27617474 21.69311523 56.74560547 C17.1515647 61.32469189 12.60282426 65.8965275 8.04931068 70.46371651 C6.31573107 72.20536894 4.58493659 73.94979808 2.85695457 75.69700432 C0.45120746 78.12907583 -1.96353699 80.55185345 -4.38061523 82.97265625 C-5.09596939 83.70036728 -5.81132355 84.42807831 -6.5483551 85.17784119 C-7.20563599 85.83244324 -7.86291687 86.48704529 -8.54011536 87.16148376 C-9.10953259 87.7349652 -9.67894983 88.30844664 -10.26562214 88.8993063 C-11.84619141 90.11352539 -11.84619141 90.11352539 -14.84619141 90.11352539 C-14.96212232 79.39541026 -15.05092571 68.67744467 -15.10525227 57.95882988 C-15.13132855 52.98152368 -15.16669071 48.00464694 -15.22338867 43.02758789 C-15.27777857 38.22298089 -15.30762676 33.41878655 -15.32057762 28.61389542 C-15.32980498 26.78225332 -15.34782423 24.9506334 -15.37484169 23.11916733 C-15.41122569 20.55022413 -15.41613299 17.98297842 -15.41381836 15.41381836 C-15.43179474 14.65927872 -15.44977112 13.90473907 -15.46829224 13.12733459 C-15.41202472 7.34266286 -13.81620134 5.01333198 -9.84619141 1.11352539 C-6.7286003 -0.44527016 -3.42104655 -0.01599593 0 0 Z " fill="#1A1A4E" transform="translate(24.84619140625,67.886474609375)"/>
<path d="M0 0 C10.58780549 -0.06956183 21.17555647 -0.12284274 31.76354408 -0.15543652 C36.6801728 -0.17108123 41.59664497 -0.19229776 46.51318359 -0.22631836 C51.25940868 -0.2589543 56.00548333 -0.27686201 60.75181198 -0.28463173 C62.5610834 -0.29016762 64.37034674 -0.30097792 66.17955399 -0.31719017 C68.71705051 -0.33902083 71.25392832 -0.34196459 73.79150391 -0.34057617 C74.53669281 -0.351362 75.28188171 -0.36214783 76.0496521 -0.3732605 C80.77183279 -0.34536878 84.01250033 0.45631447 88 3 C90.50816366 6.76224549 90.26746142 9.69786212 90.22705078 14.05151367 C90.22734283 14.87125168 90.22763489 15.69098969 90.22793579 16.53556824 C90.22654188 19.24647589 90.21097781 21.95710908 90.1953125 24.66796875 C90.19158259 26.54698028 90.18873551 28.42599376 90.18673706 30.30500793 C90.17909889 35.25179408 90.15944879 40.19846287 90.1373291 45.14520264 C90.11687466 50.19248873 90.1077362 55.23979378 90.09765625 60.28710938 C90.0762031 70.19145782 90.0420649 80.09571915 90 90 C86.10555684 89.20152811 84.78857615 87.96954531 82.25 84.875 C79.79078655 81.88881224 77.24181966 79.29258698 74.30895996 76.784729 C70.27235347 73.27738702 66.44956099 69.60393519 62.66601562 65.82714844 C61.98209747 65.14819519 61.29817932 64.46924194 60.59353638 63.76971436 C58.36170306 61.55233377 56.13364541 59.33121297 53.90625 57.109375 C52.75883583 55.9662019 52.75883583 55.9662019 51.58824158 54.79993439 C47.55254717 50.77915175 43.51967533 46.75556413 39.48925781 42.72949219 C35.32173905 38.5674944 31.1449978 34.41487957 26.9661026 30.26430893 C23.75275438 27.06952664 20.54607763 23.86811237 17.3412323 20.66480255 C15.80306224 19.1296654 14.2623841 17.59703712 12.7191925 16.06694794 C10.57197608 13.93668977 8.43431666 11.79727897 6.29882812 9.65527344 C5.65684479 9.02250488 5.01486145 8.38973633 4.35342407 7.73779297 C0 3.34238129 0 3.34238129 0 0 Z " fill="#1A1A4F" transform="translate(199,68)"/>
<path d="M0 0 C0.99 0 1.98 0 3 0 C3.11586331 10.86577138 3.20469999 21.73139574 3.25906086 32.59765911 C3.28515186 37.64337169 3.32054101 42.68866156 3.37719727 47.73413086 C3.43153452 52.60357122 3.46142428 57.47260507 3.47438622 62.34232521 C3.48362301 64.19991264 3.5016606 66.05747788 3.52865028 67.9148922 C3.56496414 70.51756184 3.56994449 73.11855322 3.56762695 75.72143555 C3.58560333 76.4889212 3.60357971 77.25640686 3.62210083 78.04714966 C3.58334398 82.07130371 3.1679462 83.79412124 0.58952332 86.95491028 C-3.61428384 90.27488919 -6.6629065 90.1377611 -11.84619141 90.11352539 C-12.65602982 90.11367142 -13.46586823 90.11381744 -14.30024719 90.1139679 C-16.98404596 90.11326977 -19.66777581 90.10548204 -22.3515625 90.09765625 C-24.20958417 90.09579171 -26.06760633 90.09436798 -27.92562866 90.09336853 C-32.82142488 90.08954615 -37.71719155 90.07971823 -42.61297607 90.06866455 C-47.60656331 90.05844444 -52.60015532 90.05386962 -57.59375 90.04882812 C-67.39584634 90.03809573 -77.19792071 90.02102264 -87 90 C-86.48402287 85.82246437 -84.24358771 83.87507483 -81.33178711 80.9753418 C-80.84705933 80.48856964 -80.36233154 80.00179749 -79.86291504 79.50027466 C-78.25821861 77.89257048 -76.6430298 76.29587242 -75.02734375 74.69921875 C-73.90392192 73.57885728 -72.78109231 72.45790169 -71.65882874 71.33638 C-69.30190076 68.98405658 -66.94014945 66.63672733 -64.57446289 64.29321289 C-61.56083724 61.30770659 -58.55580069 58.3137465 -55.55396175 55.31639385 C-52.67322391 52.44085034 -49.78783759 49.56998829 -46.90234375 46.69921875 C-46.36045851 46.15921423 -45.81857327 45.61920971 -45.26026726 45.06284142 C-39.87637604 39.70305086 -34.47258547 34.42182679 -28.70005798 29.47569275 C-26.22258811 27.32518708 -23.90270131 25.03242693 -21.58203125 22.71484375 C-20.88432869 22.01857628 -20.88432869 22.01857628 -20.17253113 21.3082428 C-19.20437069 20.34075394 -18.23743563 19.37203729 -17.27172852 18.40209961 C-15.80792516 16.93290832 -14.33881313 15.46917707 -12.86914062 14.00585938 C-7.20305511 8.37681854 -7.20305511 8.37681854 -2.01171875 2.31640625 C-1.01591797 1.16978516 -1.01591797 1.16978516 0 0 Z " fill="#1A1A4E" transform="translate(286,257)"/>
<path d="M0 0 C5.89690518 2.7876279 9.94743731 7.29341023 12.3125 13.375 C13.08201516 17.43244359 13.21308457 20.88036491 13 25 C12 26 12 26 8.30639648 26.11352539 C6.66128708 26.11336624 5.01617269 26.10766988 3.37109375 26.09765625 C2.07474754 26.09553383 2.07474754 26.09553383 0.75221252 26.09336853 C-2.01939292 26.08775239 -4.7909188 26.07519719 -7.5625 26.0625 C-9.4368478 26.05748708 -11.31119685 26.05292381 -13.18554688 26.04882812 C-17.79039544 26.03777772 -22.39518421 26.0205023 -27 26 C-26.36663242 17.45370453 -25.30931153 10.423874 -19.08984375 4.0390625 C-13.1723257 -0.5360059 -7.2908042 -1.20819041 0 0 Z " fill="#F6F6F8" transform="translate(528,164)"/>
<path d="M0 0 C0.79809082 0.00676758 1.59618164 0.01353516 2.41845703 0.02050781 C3.32120361 0.03355957 3.32120361 0.03355957 4.2421875 0.046875 C4.38736932 4.1298346 4.47622097 8.21213141 4.5546875 12.296875 C4.59658203 13.45574219 4.63847656 14.61460937 4.68164062 15.80859375 C4.80563099 24.38872709 4.80563099 24.38872709 1.94140625 27.734375 C1.05066406 28.1675 0.15992188 28.600625 -0.7578125 29.046875 C-2.4903125 29.913125 -2.4903125 29.913125 -4.2578125 30.796875 C-9.77855772 32.6933142 -16.04488594 33.19550574 -21.7578125 32.046875 C-26.43720392 27.21045702 -27.29080171 23.51769941 -27.23046875 16.94140625 C-26.30374612 11.26618748 -22.44439603 8.06482451 -18.015625 4.73828125 C-12.39384413 1.20199973 -6.55101475 -0.0723869 0 0 Z " fill="#FCFCFC" transform="translate(758.7578125,209.953125)"/>
<path d="M0 0 C2.98800037 1.52591087 5.08339873 3.23783935 7 6 C7.8240744 9.17380005 7.75620212 11.81691665 7 15 C5.20606332 17.87029869 4.01736724 19.49131638 1 21 C-2.05920574 21.42071592 -4.9467746 21.48514117 -8 21 C-10.75569447 18.81840855 -12.43588747 17.12822506 -14 14 C-14.3885634 9.88122799 -14.45820463 7.71100718 -12.1875 4.1875 C-8.15259357 0.15259357 -5.65908164 -0.75454422 0 0 Z " fill="#F3F3F6" transform="translate(803,121)"/>
<path d="M0 0 C2.98800037 1.52591087 5.08339873 3.23783935 7 6 C7.8240744 9.17380005 7.75620212 11.81691665 7 15 C5.20606332 17.87029869 4.01736724 19.49131638 1 21 C-2.05920574 21.42071592 -4.9467746 21.48514117 -8 21 C-10.75569447 18.81840855 -12.43588747 17.12822506 -14 14 C-14.3885634 9.88122799 -14.45820463 7.71100718 -12.1875 4.1875 C-8.15259357 0.15259357 -5.65908164 -0.75454422 0 0 Z M-9.4375 4.5625 C-11.63021887 7.98314143 -11.63007693 10.00951279 -11 14 C-9.10350449 17.14658666 -9.10350449 17.14658666 -6 19 C-1.70752394 19.1506132 0.22050496 18.66257079 3.5 15.875 C5.48799759 12.06467129 5.20899436 10.08035596 4 6 C1.63506574 3.18027069 0.1719335 3.02149169 -3.5 2.5625 C-6.98390715 2.74259802 -6.98390715 2.74259802 -9.4375 4.5625 Z " fill="#2F2F5F" transform="translate(803,121)"/>
<path d="M0 0 C0 0.99 0 1.98 0 3 C-1.65 3.33 -3.3 3.66 -5 4 C-5 5.65 -5 7.3 -5 9 C-3.35 9.33 -1.7 9.66 0 10 C0 10.99 0 11.98 0 13 C-5.4 13.36 -5.4 13.36 -7.875 11.875 C-9.55468045 9.07553259 -9.45742277 7.20195936 -9 4 C-6.36160394 0.28670185 -4.49495424 -0.49943936 0 0 Z " fill="#2E2E5E" transform="translate(803,125)"/>
<path d="M0 0 C0 0.33 0 0.66 0 1 C-1.7015625 1.433125 -1.7015625 1.433125 -3.4375 1.875 C-4.613125 2.24625 -5.78875 2.6175 -7 3 C-8.38125018 5.76250036 -8.19079306 7.94731099 -8 11 C-5.4345406 13.5654594 -3.52313332 13.54046087 0 14 C0.33 13.34 0.66 12.68 1 12 C1 12.99 1 13.98 1 15 C-2.1875 15.8125 -2.1875 15.8125 -6 16 C-8.9375 14 -8.9375 14 -11 11 C-11.63007693 7.00951279 -11.63021887 4.98314143 -9.4375 1.5625 C-6.18129203 -0.5248128 -3.79004984 -0.2915423 0 0 Z " fill="#E5E5EB" transform="translate(803,124)"/>
<path d="M0 0 C3.88720503 2.59147002 3.75036635 4.62628222 5 9 C8.18762365 11.12508244 10.26512223 11.5020163 14 12 C14 12.66 14 13.32 14 14 C6.75898264 14.61364554 6.75898264 14.61364554 3.0625 11.625 C-0.16998406 7.51092937 -0.09640109 5.20565883 0 0 Z " fill="#3A3A67" transform="translate(789,128)"/>
<path d="M0 0 C-0.8353125 0.37125 -0.8353125 0.37125 -1.6875 0.75 C-5.85877143 3.00474131 -8.50037501 4.76283335 -10.3125 9.25 C-10.539375 10.1575 -10.76625 11.065 -11 12 C-11.33 12 -11.66 12 -12 12 C-12.60550459 4.73394495 -12.60550459 4.73394495 -9.9375 1.5 C-6.3957736 -0.30854114 -3.92556076 -0.30788712 0 0 Z " fill="#282859" transform="translate(802,122)"/>
<path d="M0 0 C3.44999969 -0.42244894 6.00600025 -0.62172957 9.0234375 1.265625 C10.81486407 2.77188571 12.48121058 4.21807686 14 6 C14 6.66 14 7.32 14 8 C13.01 8 12.02 8 11 8 C10.38125 7.360625 9.7625 6.72125 9.125 6.0625 C6.66647492 3.67628448 5.27739771 3.60373116 2 3 C1.34 2.01 0.68 1.02 0 0 Z " fill="#3E3E6A" transform="translate(796,121)"/>
<path d="M0 0 C0 0.33 0 0.66 0 1 C-1.093125 1.20625 -2.18625 1.4125 -3.3125 1.625 C-7.2285659 2.65663938 -7.2285659 2.65663938 -8.9375 6.125 C-9.288125 7.07375 -9.63875 8.0225 -10 9 C-10.33 9 -10.66 9 -11 9 C-11.35430394 5.81126451 -11.25953249 4.38410809 -9.4375 1.6875 C-6.185351 -0.56398777 -3.86806995 -0.29754384 0 0 Z " fill="#F1F1F4" transform="translate(803,124)"/>
<path d="M0 0 C0 0.99 0 1.98 0 3 C-2.64 3.33 -5.28 3.66 -8 4 C-7.67 3.01 -7.34 2.02 -7 1 C-4.53721199 -0.231394 -2.7204945 -0.07159196 0 0 Z " fill="#3A3A67" transform="translate(803,125)"/>
</svg>
