<?xml version="1.0" encoding="UTF-8"?>
<svg version="1.1" xmlns="http://www.w3.org/2000/svg" width="1366" height="650">
<path d="M0 0 C9.57 0 19.14 0 29 0 C29 156.42 29 312.84 29 474 C19.43 474 9.86 474 0 474 C-0.495 364.11 -0.495 364.11 -1 252 C-11.33371076 266.99453772 -11.33371076 266.99453772 -15.125 276.0625 C-16.73375 277.691875 -18.3425 279.32125 -20 281 C-28.25 281 -36.5 281 -45 281 C-45 255.59 -45 230.18 -45 204 C-36.75 204 -28.5 204 -20 204 C-19.67 216.54 -19.34 229.08 -19 242 C-15.7 236.72 -12.4 231.44 -9 226 C-7.494375 224.12326599 -5.98875 222.24653198 -4.4375 220.31292725 C1.08373861 212.02584023 0.09852872 202.57957285 0 192.99316406 C0.00761648 190.88303138 0.01874403 188.7729089 0.03309631 186.66281128 C0.06199091 180.96497184 0.04207248 175.26824637 0.0130806 169.57044697 C-0.00887157 163.60466086 0.01449506 157.63905206 0.03295898 151.67327881 C0.0610436 140.39000518 0.0486453 129.10715748 0.02153492 117.82389617 C-0.00735957 104.97253268 0.00913114 92.12135112 0.02934647 79.26998568 C0.06989858 52.84654038 0.05213102 26.423411 0 0 Z " fill="#7D9090" transform="translate(450,89)"/>
<path d="M0 0 C9.57 0 19.14 0 29 0 C29 68.97 29 137.94 29 209 C30.65 209.33 32.3 209.66 34 210 C38.87436784 213.0799577 42.91992594 216.96459095 44.6015625 222.56640625 C46.22573365 232.48658885 45.6856722 241.2082294 40.25 249.75 C37.37812076 252.62187924 34.63523407 254.18238296 31 256 C30.34 256 29.68 256 29 256 C29 327.94 29 399.88 29 474 C19.43 474 9.86 474 0 474 C0 410.97 0 347.94 0 283 C-7.92 283 -15.84 283 -24 283 C-24 257.59 -24 232.18 -24 206 C-16.08 206 -8.16 206 0 206 C0 138.02 0 70.04 0 0 Z " fill="#7D9190" transform="translate(300,87)"/>
<path d="M0 0 C9.57 0 19.14 0 29 0 C29 67.32 29 134.64 29 204 C43.52 204 58.04 204 73 204 C73 229.08 73 254.16 73 280 C64.75 280 56.5 280 48 280 C48 262.18 48 244.36 48 226 C41.73 226 35.46 226 29 226 C29 307.84 29 389.68 29 474 C19.43 474 9.86 474 0 474 C0 317.58 0 161.16 0 0 Z " fill="#809493" transform="translate(5,89)"/>
<path d="M0 0 C9.57 0 19.14 0 29 0 C29 67.98 29 135.96 29 206 C31.64 206 34.28 206 37 206 C40.73848325 214.6738406 44.01577776 223.45914427 47.125 232.375 C48.0794467 235.09726686 49.0370118 237.81842546 49.99609375 240.5390625 C50.23969131 241.23040283 50.48328888 241.92174316 50.73426819 242.6340332 C52.50187719 247.63343952 54.3178371 252.61361612 56.16015625 257.5859375 C56.4155719 258.2762204 56.67098755 258.9665033 56.93414307 259.67770386 C58.16523202 263.00164402 59.40237088 266.32318694 60.64697266 269.64208984 C61.08702637 270.82754395 61.52708008 272.01299805 61.98046875 273.234375 C62.37129639 274.27819336 62.76212402 275.32201172 63.16479492 276.39746094 C64 279 64 279 64 282 C55.75 282 47.5 282 39 282 C38.01 278.7 37.02 275.4 36 272 C33.69 272 31.38 272 29 272 C29 338.66 29 405.32 29 474 C19.43 474 9.86 474 0 474 C0 410.97 0 347.94 0 283 C-5.28 283 -10.56 283 -16 283 C-14.43946378 277.25894826 -12.59309808 271.95893879 -10.13092041 266.54067993 C1.21785702 240.71498337 0.67336447 215.08411726 0.41865635 187.29155302 C0.37592973 181.35749455 0.38969093 175.42364536 0.40240797 169.4895068 C0.42575952 157.76709994 0.39660651 146.04547418 0.33251953 134.32324219 C0.27053095 122.96347207 0.23446217 111.60408615 0.23193359 100.24414062 C0.23168506 99.18670161 0.23168506 99.18670161 0.23143151 98.10790019 C0.23075553 94.56990869 0.23057519 91.03191737 0.23064089 87.49392581 C0.23054585 58.32894497 0.14108399 29.16463732 0 0 Z M29 250 C29 251.98 29 253.96 29 256 C29.66 256 30.32 256 31 256 C30.67 254.02 30.34 252.04 30 250 C29.67 250 29.34 250 29 250 Z " fill="#7E9291" transform="translate(154,87)"/>
<path d="M0 0 C9.9 0 19.8 0 30 0 C30 156.42 30 312.84 30 474 C20.1 474 10.2 474 0 474 C0 317.58 0 161.16 0 0 Z " fill="#90A1A1" transform="translate(80,87)"/>
<path d="M0 0 C9.57 0 19.14 0 29 0 C29 156.42 29 312.84 29 474 C19.43 474 9.86 474 0 474 C0 317.58 0 161.16 0 0 Z " fill="#90A1A1" transform="translate(375,87)"/>
<path d="M0 0 C9.57 0 19.14 0 29 0 C29 156.42 29 312.84 29 474 C19.43 474 9.86 474 0 474 C0 317.58 0 161.16 0 0 Z " fill="#90A1A1" transform="translate(230,87)"/>
<path d="M0 0 C0 72.27 0 144.54 0 219 C-9.57 219 -19.14 219 -29 219 C-29.0232486 194.39807874 -29.0410453 169.79616016 -29.05181217 145.19423008 C-29.05694652 133.76856167 -29.06393402 122.34290025 -29.07543945 110.91723633 C-29.08547442 100.94700409 -29.09187418 90.97677691 -29.09408849 81.00653976 C-29.09538078 75.73797632 -29.09837103 70.46942736 -29.10573006 65.20086861 C-29.13409146 44.11103906 -29.16112066 23.06548208 -28 2 C-26.28838762 1.92976561 -24.57677327 1.85957935 -22.86515808 1.78941345 C-21.91200305 1.75032332 -20.95884802 1.7112332 -19.9768095 1.67095852 C-17.97460294 1.58945284 -15.97230735 1.51012961 -13.9699707 1.43188477 C-12.64872192 1.3747229 -12.64872192 1.3747229 -11.30078125 1.31640625 C-10.40528564 1.27974854 -9.50979004 1.24309082 -8.5871582 1.20532227 C-5.72145066 0.97789374 -2.84557382 0 0 0 Z " fill="#899B9A" transform="translate(329,342)"/>
<path d="M0 0 C9.57 0 19.14 0 29 0 C29 68.31 29 136.62 29 207 C23.39 207.33 17.78 207.66 12 208 C11.07767578 210.74570312 11.07767578 210.74570312 10.13671875 213.546875 C9.3206955 215.94804686 8.50426818 218.34908143 7.6875 220.75 C7.28337891 221.9565625 6.87925781 223.163125 6.46289062 224.40625 C6.06650391 225.56640625 5.67011719 226.7265625 5.26171875 227.921875 C4.90037842 228.99018555 4.53903809 230.05849609 4.16674805 231.15917969 C3 234 3 234 0 238 C0 159.46 0 80.92 0 0 Z " fill="#809493" transform="translate(154,87)"/>
<path d="M0 0 C9.57 0 19.14 0 29 0 C29 67.32 29 134.64 29 204 C19.43 204 9.86 204 0 204 C0 136.68 0 69.36 0 0 Z " fill="#7B908F" transform="translate(5,89)"/>
<path d="M0 0 C7.92 0 15.84 0 24 0 C24 88.77 24 177.54 24 269 C14.43 269 4.86 269 -5 269 C-5.09042786 240.3110946 -5.16203969 211.62221877 -5.20426132 182.93319889 C-5.20926414 179.54612324 -5.21444143 176.15904788 -5.21972656 172.77197266 C-5.2207758 172.09766758 -5.22182505 171.4233625 -5.22290608 170.72862394 C-5.24031085 159.8106694 -5.2718489 148.89279912 -5.30861118 137.97489457 C-5.34601867 126.77193049 -5.36793603 115.56900849 -5.37635398 104.36597884 C-5.3815735 98.07345477 -5.39386038 91.78112179 -5.42292023 85.48865891 C-5.45004413 79.5674921 -5.458451 73.64659535 -5.45243073 67.72537231 C-5.4535323 65.55092527 -5.46150396 63.37646932 -5.4768219 61.20207596 C-5.49670206 58.23483819 -5.49194598 55.26862214 -5.48101807 52.30136108 C-5.49266943 51.43948382 -5.5043208 50.57760655 -5.51632524 49.68961179 C-5.46166647 44.20469477 -4.55571903 41.23142051 -1 37 C-0.67 37 -0.34 37 0 37 C0 49.54 0 62.08 0 75 C7.59 75 15.18 75 23 75 C23 50.58 23 26.16 23 1 C15.41 1 7.82 1 0 1 C0 0.67 0 0.34 0 0 Z " fill="#7D9190" transform="translate(455,294)"/>
<path d="M0 0 C8.25 0 16.5 0 25 0 C28.375 9 28.375 9 29.3503418 12.76367188 C29.57034348 13.60393921 29.79034515 14.44420654 30.01701355 15.30993652 C30.24214127 16.18734497 30.46726898 17.06475342 30.69921875 17.96875 C30.9391304 18.88966431 31.17904205 19.81057861 31.42622375 20.75939941 C32.18399978 23.67190721 32.93584165 26.58590807 33.6875 29.5 C34.20338309 31.48708123 34.71965531 33.47406147 35.23632812 35.4609375 C36.49538716 40.30613582 37.74913024 45.15268132 39 50 C41.33104422 44.08710734 43.12049636 38.18413238 44.69921875 32.03125 C45.05908623 30.64987854 45.05908623 30.64987854 45.42622375 29.24060059 C46.18399978 26.32809279 46.93584165 23.41409193 47.6875 20.5 C48.20338309 18.51291877 48.71965531 16.52593853 49.23632812 14.5390625 C50.49611583 9.69403629 51.74785023 4.84703135 53 0 C61.58 0 70.16 0 79 0 C79 26.73 79 53.46 79 81 C73.72 81 68.44 81 63 81 C62.67 62.85 62.34 44.7 62 26 C57.38 44.15 52.76 62.3 48 81 C42.39 81 36.78 81 31 81 C26.38 62.85 21.76 44.7 17 26 C16.67 44.15 16.34 62.3 16 81 C10.72 81 5.44 81 0 81 C0 54.27 0 27.54 0 0 Z " fill="#335251" transform="translate(767,411)"/>
<path d="M0 0 C8.25 0 16.5 0 25 0 C25.33 12.54 25.66 25.08 26 38 C29.3 32.72 32.6 27.44 36 22 C43.58778626 10.13740458 43.58778626 10.13740458 47 9 C48.16953416 6.57616923 48.16953416 6.57616923 49 4 C49.33 3.34 49.66 2.68 50 2 C57.59 2 65.18 2 73 2 C73 26.42 73 50.84 73 76 C65.41 76 57.82 76 50 76 C49.67 63.79 49.34 51.58 49 39 C46.36 43.62 43.72 48.24 41 53 C39.31967587 55.63948932 37.64328361 58.23747421 35.875 60.8125 C35.0806733 61.98563926 34.28640321 63.15881685 33.4921875 64.33203125 C32.66976562 65.54246094 31.84734375 66.75289063 31 68 C28.03 72.455 28.03 72.455 25 77 C16.75 77 8.5 77 0 77 C0 51.59 0 26.18 0 0 Z " fill="#345252" transform="translate(405,293)"/>
<path d="M0 0 C6.6825 0.020625 13.365 0.04125 20.25 0.0625 C20.25 25.1425 20.25 50.2225 20.25 76.0625 C12 76.0625 3.75 76.0625 -4.75 76.0625 C-4.75 58.2425 -4.75 40.4225 -4.75 22.0625 C-11.02 22.0625 -17.29 22.0625 -23.75 22.0625 C-25.07 21.7325 -26.39 21.4025 -27.75 21.0625 C-27.75 38.8825 -27.75 56.7025 -27.75 75.0625 C-35.67 75.0625 -43.59 75.0625 -51.75 75.0625 C-51.75 50.6425 -51.75 26.2225 -51.75 1.0625 C-34.45102187 0.44467935 -17.28817893 -0.07706976 0 0 Z " fill="#345352" transform="translate(57.75,292.9375)"/>
<path d="M0 0 C54.02777778 0 54.02777778 0 62 7 C68.6947305 13.99903643 69.40228143 20.19482802 69.25390625 29.58203125 C68.76984497 36.09824082 66.69067082 41.30932918 62 46 C53.78514268 51.68720892 45.18835681 51.14514346 35.5 51.0625 C34.48679687 51.05798828 33.47359375 51.05347656 32.4296875 51.04882812 C29.95306173 51.03714593 27.47656343 51.02076582 25 51 C25.00785522 52.1281311 25.00785522 52.1281311 25.01586914 53.27905273 C25.03657227 56.66519342 25.04963877 60.05132084 25.0625 63.4375 C25.07087891 64.62150391 25.07925781 65.80550781 25.08789062 67.02539062 C25.09272461 68.71245117 25.09272461 68.71245117 25.09765625 70.43359375 C25.10551147 71.99678345 25.10551147 71.99678345 25.11352539 73.59155273 C25 76 25 76 24 77 C16.08 77 8.16 77 0 77 C0 51.59 0 26.18 0 0 Z " fill="#345352" transform="translate(276,293)"/>
<path d="M0 0 C7.775625 -0.061875 15.55125 -0.12375 23.5625 -0.1875 C26.00470947 -0.21481201 28.44691895 -0.24212402 30.96313477 -0.27026367 C32.91422024 -0.27903135 34.86531123 -0.28667462 36.81640625 -0.29296875 C37.81700073 -0.30831665 38.81759521 -0.32366455 39.84851074 -0.33947754 C46.66706101 -0.34201641 51.63573034 0.35883384 57.14453125 4.68359375 C57.97017578 5.55177734 57.97017578 5.55177734 58.8125 6.4375 C59.37582031 7.01371094 59.93914062 7.58992187 60.51953125 8.18359375 C65.30655656 14.05685699 64.67936307 20.72584425 64 28 C62.52798082 32.598163 59.87869725 35.23765049 56 38 C56.79664063 38.54527344 56.79664063 38.54527344 57.609375 39.1015625 C62.61158853 42.66153198 66.87120243 45.86107559 68.5625 52.0625 C69.79111836 59.43421016 67.74337824 65.61086293 63.75 71.8125 C60.51920004 75.99410596 56.66663349 78.37232975 51.47021484 79.59545898 C46.61035595 80.16199804 41.8025231 80.12252345 36.9140625 80.09765625 C35.97651123 80.09664917 35.03895996 80.09564209 34.07299805 80.09460449 C30.59031949 80.08939554 27.10765844 80.07543435 23.625 80.0625 C15.82875 80.041875 8.0325 80.02125 0 80 C0 53.6 0 27.2 0 0 Z M17 14 C17 19.61 17 25.22 17 31 C21.08403601 31.10778981 25.1652368 31.18722647 29.25 31.25 C30.98830078 31.30027344 30.98830078 31.30027344 32.76171875 31.3515625 C33.87675781 31.36445313 34.99179688 31.37734375 36.140625 31.390625 C37.16704102 31.41157227 38.19345703 31.43251953 39.25097656 31.45410156 C42.73852869 30.87800503 43.86064982 29.76255755 46 27 C47.16585191 23.58905085 47.16585191 23.58905085 47 20 C44.91374661 16.57258371 43.8255689 15.27518963 40 14 C38.22686149 13.91790208 36.45079225 13.89253706 34.67578125 13.90234375 C33.64775391 13.90556641 32.61972656 13.90878906 31.56054688 13.91210938 C29.95276367 13.92467773 29.95276367 13.92467773 28.3125 13.9375 C26.68731445 13.94426758 26.68731445 13.94426758 25.02929688 13.95117188 C22.35284106 13.96296243 19.67641361 13.98089792 17 14 Z M17 45 C17 51.93 17 58.86 17 66 C21.04207139 66.08108167 25.08250908 66.14054629 29.125 66.1875 C30.26710938 66.21263672 31.40921875 66.23777344 32.5859375 66.26367188 C40.74625499 66.4243538 40.74625499 66.4243538 48 63 C50.46672109 59.29991837 50.670778 56.29297922 50 52 C48.21167696 48.83604385 46.8807204 47.41176538 43.59375 45.875 C38.42346452 44.61614788 33.42357909 44.79017053 28.125 44.875 C27.05507812 44.88402344 25.98515625 44.89304688 24.8828125 44.90234375 C22.25511144 44.92580537 19.62752628 44.96167304 17 45 Z " fill="#335251" transform="translate(1076,169)"/>
<path d="M0 0 C3.73848325 8.6738406 7.01577776 17.45914427 10.125 26.375 C11.0794467 29.09726686 12.0370118 31.81842546 12.99609375 34.5390625 C13.3614901 35.576073 13.3614901 35.576073 13.73426819 36.6340332 C15.50187719 41.63343952 17.3178371 46.61361612 19.16015625 51.5859375 C19.54327972 52.62136185 19.54327972 52.62136185 19.93414307 53.67770386 C21.16523202 57.00164402 22.40237088 60.32318694 23.64697266 63.64208984 C24.08702637 64.82754395 24.52708008 66.01299805 24.98046875 67.234375 C25.37129639 68.27819336 25.76212402 69.32201172 26.16479492 70.39746094 C27 73 27 73 27 76 C18.75 76 10.5 76 2 76 C1.01 72.7 0.02 69.4 -1 66 C-9.25 66 -17.5 66 -26 66 C-26.99 70.95 -26.99 70.95 -28 76 C-36.34332544 77.19190363 -44.59323022 77.09283549 -53 77 C-50.62947957 68.60165866 -47.76757099 60.38457305 -44.86645508 52.15869141 C-44.06236285 49.87461041 -43.26642875 47.58778831 -42.47070312 45.30078125 C-41.9510178 43.82274184 -41.43085177 42.34487133 -40.91015625 40.8671875 C-40.6777272 40.19613983 -40.44529816 39.52509216 -40.20582581 38.83370972 C-38.7257968 34.6697951 -36.9379504 30.79376697 -34.91999817 26.86425781 C-33.69471575 24.38138079 -32.77657384 21.84523826 -31.89453125 19.22265625 C-31.55099609 18.21525391 -31.20746094 17.20785156 -30.85351562 16.16992188 C-30.50998047 15.14447266 -30.16644531 14.11902344 -29.8125 13.0625 C-29.11321499 10.99002736 -28.41152628 8.91836365 -27.70703125 6.84765625 C-27.4025708 5.94023682 -27.09811035 5.03281738 -26.78442383 4.09790039 C-26 2 -26 2 -25 1 C-22.30720594 0.75898749 -19.63591116 0.57593825 -16.9375 0.4375 C-16.19822266 0.39431641 -15.45894531 0.35113281 -14.69726562 0.30664062 C-9.79122388 0.03622888 -4.91319953 -0.03903791 0 0 Z M-8 44 C-8 45.98 -8 47.96 -8 50 C-7.34 50 -6.68 50 -6 50 C-6.33 48.02 -6.66 46.04 -7 44 C-7.33 44 -7.66 44 -8 44 Z " fill="#345352" transform="translate(191,293)"/>
<path d="M0 0 C1.25737976 0.00151062 1.25737976 0.00151062 2.54016113 0.00305176 C5.64267361 0.00824577 8.74516645 0.02220677 11.84765625 0.03515625 C18.79828125 0.05578125 25.74890625 0.07640625 32.91015625 0.09765625 C32.91015625 26.82765625 32.91015625 53.55765625 32.91015625 81.09765625 C27.63015625 81.09765625 22.35015625 81.09765625 16.91015625 81.09765625 C16.91015625 70.53765625 16.91015625 59.97765625 16.91015625 49.09765625 C4.94217466 50.52926873 4.94217466 50.52926873 -2.09448242 57.70727539 C-2.72588135 58.67270264 -3.35728027 59.63812988 -4.0078125 60.6328125 C-4.70455078 61.68919922 -5.40128906 62.74558594 -6.11914062 63.83398438 C-6.83134766 64.93162109 -7.54355469 66.02925781 -8.27734375 67.16015625 C-9.00115234 68.26166016 -9.72496094 69.36316406 -10.47070312 70.49804688 C-11.80862469 72.53542139 -13.14321603 74.57498952 -14.47338867 76.61743164 C-15.66841476 78.45103231 -16.87580044 80.27659128 -18.08984375 82.09765625 C-20.24462891 82.43823242 -20.24462891 82.43823242 -22.87890625 82.390625 C-23.81992188 82.38095703 -24.7609375 82.37128906 -25.73046875 82.36132812 C-26.7153125 82.33619141 -27.70015625 82.31105469 -28.71484375 82.28515625 C-30.20371094 82.26485352 -30.20371094 82.26485352 -31.72265625 82.24414062 C-34.17892447 82.20871368 -36.6341166 82.15931821 -39.08984375 82.09765625 C-37.47550871 77.51929623 -35.10190527 73.61842156 -32.52734375 69.53515625 C-32.08769287 68.83495361 -31.64804199 68.13475098 -31.19506836 67.41333008 C-21.47025659 52.11804579 -21.47025659 52.11804579 -15.08984375 46.09765625 C-16.28609375 45.70578125 -17.48234375 45.31390625 -18.71484375 44.91015625 C-23.85981701 42.92852344 -27.64008363 40.7090254 -30.34765625 35.83203125 C-33.93153719 27.66178519 -34.0075504 20.961783 -31.26953125 12.5 C-28.78312032 7.43661351 -24.40248068 4.33858338 -19.52734375 1.72265625 C-13.02030792 0.05418552 -6.67743467 -0.03827042 0 0 Z M-14.08984375 20.09765625 C-15.72074884 23.64727322 -15.10101645 25.06626629 -13.77734375 28.78515625 C-12.31398069 32.0795767 -12.31398069 32.0795767 -10.08984375 34.09765625 C-4.29875164 35.30762162 1.45227919 35.21533257 7.34765625 35.16015625 C8.26998047 35.15564453 9.19230469 35.15113281 10.14257812 35.14648438 C12.39846593 35.13479584 14.65431993 35.11686394 16.91015625 35.09765625 C16.91015625 28.82765625 16.91015625 22.55765625 16.91015625 16.09765625 C12.86777053 15.98953895 8.82828775 15.91027112 4.78515625 15.84765625 C3.64304687 15.81414062 2.5009375 15.780625 1.32421875 15.74609375 C-7.19491806 15.63575765 -7.19491806 15.63575765 -14.08984375 20.09765625 Z " fill="#335251" transform="translate(1277.08984375,166.90234375)"/>
<path d="M0 0 C0.89420654 0.00302124 1.78841309 0.00604248 2.7097168 0.00915527 C6.00191033 0.02467262 9.29393739 0.06655432 12.5859375 0.10546875 C23.6615625 0.19828125 23.6615625 0.19828125 34.9609375 0.29296875 C34.9609375 26.69296875 34.9609375 53.09296875 34.9609375 80.29296875 C29.6809375 80.29296875 24.4009375 80.29296875 18.9609375 80.29296875 C18.9609375 70.06296875 18.9609375 59.83296875 18.9609375 49.29296875 C9.74362113 49.44450698 9.74362113 49.44450698 2.9609375 53.29296875 C1.29034254 55.39951011 -0.18910119 57.43447573 -1.6484375 59.67578125 C-2.06071594 60.29065399 -2.47299438 60.90552673 -2.89776611 61.53903198 C-4.20462654 63.49237487 -5.49710178 65.45474704 -6.7890625 67.41796875 C-8.09843206 69.38610436 -9.41062532 71.35233353 -10.72320557 73.31832886 C-11.53708538 74.53971046 -12.34848098 75.76275174 -13.15716553 76.98757935 C-15.93471548 81.18862173 -15.93471548 81.18862173 -17.0390625 82.29296875 C-18.5277811 82.37966307 -20.0205075 82.40000369 -21.51171875 82.390625 C-22.41083984 82.38740234 -23.30996094 82.38417969 -24.23632812 82.38085938 C-25.65461914 82.36829102 -25.65461914 82.36829102 -27.1015625 82.35546875 C-28.05095703 82.35095703 -29.00035156 82.34644531 -29.97851562 82.34179688 C-32.33209315 82.32996985 -34.68554727 82.313489 -37.0390625 82.29296875 C-36.13781543 78.12887875 -34.17595778 74.8348943 -31.9765625 71.23046875 C-31.5746167 70.56797119 -31.1726709 69.90547363 -30.75854492 69.22290039 C-25.63574515 60.88212505 -20.25306659 52.96592254 -13.0390625 46.29296875 C-13.69132812 46.08542969 -14.34359375 45.87789063 -15.015625 45.6640625 C-22.30368699 43.0949669 -26.75872906 39.98731035 -30.171875 32.9609375 C-32.30659383 26.39331154 -31.98991196 18.68966158 -29.4140625 12.29296875 C-26.44027505 6.65516338 -22.56088981 3.60103615 -16.51806641 1.6784668 C-10.95024178 0.07812981 -5.76154847 -0.09386599 0 0 Z M-11.4765625 18.98046875 C-13.71070491 22.28699951 -13.58796516 24.38203731 -13.0390625 28.29296875 C-11.24343845 31.04625896 -9.98651328 32.81924336 -7.0390625 34.29296875 C1.5947774 35.46635974 10.26698393 35.37990829 18.9609375 35.29296875 C18.9609375 28.69296875 18.9609375 22.09296875 18.9609375 15.29296875 C15.60655077 15.23871991 12.25305296 15.19917448 8.8984375 15.16796875 C7.48401367 15.14283203 7.48401367 15.14283203 6.04101562 15.1171875 C-0.39311828 15.07235033 -6.02080943 15.20340893 -11.4765625 18.98046875 Z " fill="#335251" transform="translate(1281.0390625,409.70703125)"/>
<path d="M0 0 C5.28 0 10.56 0 16 0 C16.33 16.5 16.66 33 17 50 C20.3 44.39 23.6 38.78 27 33 C29.77853662 28.44920759 32.56449197 23.90578001 35.375 19.375 C36.73804206 17.17513739 38.10005285 14.97463539 39.4609375 12.7734375 C40.33951416 11.35683838 40.33951416 11.35683838 41.23583984 9.91162109 C43.2163869 6.64286878 45.10378136 3.31838262 47 0 C52.94 0 58.88 0 65 0 C65 26.4 65 52.8 65 80 C59.72 80 54.44 80 49 80 C48.67 64.16 48.34 48.32 48 32 C38.84553643 46.33257906 38.84553643 46.33257906 29.80078125 60.734375 C29.12345947 61.82298828 28.4461377 62.91160156 27.74829102 64.03320312 C26.42996634 66.15540787 25.11399546 68.27907686 23.80053711 70.40429688 C23.20120361 71.36916016 22.60187012 72.33402344 21.984375 73.328125 C21.45553711 74.1830957 20.92669922 75.03806641 20.38183594 75.91894531 C19 78 19 78 17 80 C11.39 80 5.78 80 0 80 C0 53.6 0 27.2 0 0 Z " fill="#335251" transform="translate(1158,411)"/>
<path d="M0 0 C2.8125 2.5 2.8125 2.5 5 5 C5.680625 5.7425 6.36125 6.485 7.0625 7.25 C15.48573647 19.20556144 15.74481728 32.96876104 14 47 C12.26725392 56.54284421 7.53156687 64.63724651 -0.0703125 70.71875 C-10.5047604 77.64688545 -21.85938032 77.99449757 -34 77 C-44.22771111 74.78705354 -51.86473671 69.38933813 -58 61 C-65.54913484 48.23892377 -65.42015115 32.43656211 -62.1015625 18.40234375 C-59.25493214 9.61009182 -54.11622348 2.51710822 -46 -2 C-31.37624881 -9.02846956 -13.67194107 -9.58416879 0 0 Z M-41 16 C-46.77687883 24.13042206 -46.64408902 33.41023009 -46 43 C-44.66499775 50.83051742 -40.70103588 56.20165579 -34.4375 60.9375 C-28.34798182 62.81971471 -21.56559596 63.36447216 -15.51953125 61.05078125 C-8.94758552 57.14213811 -5.52980043 52.27385325 -3.5390625 44.9453125 C-1.91210223 36.05597885 -2.198105 27.25806961 -6 19 C-6.61875 17.63875 -6.61875 17.63875 -7.25 16.25 C-10.53012595 12.03269521 -14.69704252 8.9715342 -20 8 C-28.75487501 7.1584963 -35.12630313 9.14735365 -41 16 Z " fill="#335251" transform="translate(727,416)"/>
<path d="M0 0 C0.64839844 0.32742187 1.29679687 0.65484375 1.96484375 0.9921875 C9.86223943 5.72716872 14.47571176 15.44546764 17 24 C19.80885436 39.06567336 18.12627005 53.27824037 9.94140625 66.3671875 C4.11781788 74.26477012 -4.437987 77.79491182 -13.9140625 79.53515625 C-26.21058263 80.94649827 -37.92302706 79.01750574 -47.9609375 71.5390625 C-58.10430715 62.45875343 -60.27080909 50.04196728 -61.3125 37.125 C-60.85582884 24.44565951 -57.56459609 12.97907081 -48.1875 4.125 C-35.45828021 -6.23428828 -14.3569172 -7.75633094 0 0 Z M-38.55859375 18.7109375 C-43.87504153 27.15385999 -44.07553583 37.13013599 -42.56640625 46.76953125 C-41.00098936 53.09926041 -38.02272754 57.81940642 -33 62 C-27.61994675 65.13924522 -22.1543946 65.84077034 -16.03125 64.6015625 C-9.30781819 62.61039231 -5.22809446 58.03743358 -1.8984375 52.00390625 C1.58951583 43.381816 1.60060269 31.61497126 -1.90234375 22.99609375 C-4.98787872 17.38503194 -8.48900824 13.18850373 -14.625 11 C-24.17587965 8.52384602 -32.37876681 10.82484744 -38.55859375 18.7109375 Z " fill="#335251" transform="translate(1040,171)"/>
<path d="M0 0 C5.61 0 11.22 0 17 0 C17 10.23 17 20.46 17 31 C27.23 31 37.46 31 48 31 C48 20.77 48 10.54 48 0 C53.61 0 59.22 0 65 0 C65 26.73 65 53.46 65 81 C59.39 81 53.78 81 48 81 C48 69.45 48 57.9 48 46 C37.77 46 27.54 46 17 46 C17 57.55 17 69.1 17 81 C11.39 81 5.78 81 0 81 C0 54.27 0 27.54 0 0 Z " fill="#335251" transform="translate(1063,411)"/>
<path d="M0 0 C21.12 0 42.24 0 64 0 C64 26.4 64 52.8 64 80 C58.39 80 52.78 80 47 80 C47 58.22 47 36.44 47 14 C37.1 14 27.2 14 17 14 C17.01160156 18.68058594 17.02320313 23.36117188 17.03515625 28.18359375 C17.0402632 31.14127742 17.04507698 34.09895569 17.04882812 37.05664062 C17.05481585 41.75562666 17.06191425 46.45459328 17.07543945 51.15356445 C17.0862708 54.94014257 17.09227736 58.7266999 17.09487724 62.51329231 C17.09673105 63.96104319 17.10035081 65.40879288 17.10573006 66.85653496 C17.11294367 68.87757135 17.11340808 70.89862848 17.11352539 72.91967773 C17.115746 74.07217514 17.11796661 75.22467255 17.12025452 76.41209412 C17 79 17 79 16 80 C10.72 80 5.44 80 0 80 C0 53.6 0 27.2 0 0 Z " fill="#335251" transform="translate(875,411)"/>
<path d="M0 0 C5.94 0 11.88 0 18 0 C21.75649211 7.28894815 25.02369692 14.65935081 28.08984375 22.26171875 C28.55685196 23.4105806 29.02386017 24.55944244 29.50502014 25.74311829 C30.98626912 29.38973468 32.46193222 33.03858162 33.9375 36.6875 C34.9234689 39.11668229 35.90979404 41.54572002 36.89648438 43.97460938 C39.2060913 49.66312609 41.50808302 55.35467814 43.80633545 61.04779053 C44.87597605 63.69325998 45.95074486 66.33656006 47.02783203 68.97900391 C47.58246834 70.34663445 48.13700435 71.71430567 48.69140625 73.08203125 C49.14845947 74.20456299 49.6055127 75.32709473 50.07641602 76.48364258 C51 79 51 79 51 81 C45.06 81 39.12 81 33 81 C29 73 29 73 26 63 C15.44 63 4.88 63 -6 63 C-6.99 65.97 -7.98 68.94 -9 72 C-10.24983582 75.04725857 -11.6221012 78.00663365 -13 81 C-18.94 81 -24.88 81 -31 81 C-30.34069171 77.70345854 -29.81019786 75.21011681 -28.62402344 72.19238281 C-28.34527878 71.4772905 -28.06653412 70.76219818 -27.77934265 70.0254364 C-27.47575333 69.25907364 -27.172164 68.49271088 -26.859375 67.703125 C-26.54051834 66.88862381 -26.22166168 66.07412262 -25.8931427 65.23493958 C-24.84940767 62.57171176 -23.79979412 59.91084459 -22.75 57.25 C-22.02822477 55.41216136 -21.30679217 53.57418813 -20.58569336 51.73608398 C-18.75071169 47.06152165 -16.9108033 42.38891478 -15.06976318 37.71673584 C-13.71778424 34.28329401 -12.36938083 30.84845583 -11.02145386 27.41342163 C-9.53645495 23.62926254 -8.04966379 19.84580873 -6.5625 16.0625 C-6.14490417 14.99968811 -6.14490417 14.99968811 -5.71887207 13.91540527 C-4.93991809 11.93407959 -4.15965593 9.9532749 -3.37890625 7.97265625 C-2.9413501 6.86156494 -2.50379395 5.75047363 -2.05297852 4.60571289 C-1 2 -1 2 0 0 Z M9 21 C7.49198432 24.93447709 5.99497086 28.87304977 4.5 32.8125 C3.85611328 34.49182617 3.85611328 34.49182617 3.19921875 36.20507812 C2.79316406 37.27822266 2.38710938 38.35136719 1.96875 39.45703125 C1.59169922 40.44678955 1.21464844 41.43654785 0.82617188 42.45629883 C-0.15445325 45.02979542 -0.15445325 45.02979542 0 48 C6.6 48 13.2 48 20 48 C18.54849808 43.87247807 17.08916849 39.7480266 15.625 35.625 C15.2125 34.449375 14.8 33.27375 14.375 32.0625 C13.97539063 30.94101562 13.57578125 29.81953125 13.1640625 28.6640625 C12.79748535 27.62717285 12.4309082 26.5902832 12.05322266 25.52197266 C11.14043216 22.88709888 11.14043216 22.88709888 9 21 Z " fill="#335251" transform="translate(991,411)"/>
<path d="M0 0 C6.27 0 12.54 0 19 0 C23.499782 8.99956399 23.499782 8.99956399 24.84008789 12.33520508 C25.14499146 13.089216 25.44989502 13.84322693 25.76403809 14.62008667 C26.23855408 15.80781174 26.23855408 15.80781174 26.72265625 17.01953125 C27.06502319 17.86838898 27.40739014 18.7172467 27.76013184 19.59182739 C28.86408929 22.33078864 29.96344175 25.07156962 31.0625 27.8125 C32.20268838 30.6476367 33.34380417 33.48239869 34.48509216 36.3170929 C35.24374077 38.20145193 36.00201235 40.0859628 36.75990295 41.97062683 C39.0035158 47.54513545 41.26882679 53.10997382 43.5625 58.6640625 C43.82485947 59.30081406 44.08721893 59.93756561 44.35752869 60.59361267 C45.54982855 63.48709384 46.74650986 66.37858673 47.95141602 69.2668457 C48.36061279 70.26031006 48.76980957 71.25377441 49.19140625 72.27734375 C49.54404541 73.12546631 49.89668457 73.97358887 50.26000977 74.84741211 C51 77 51 77 51 80 C45.06 80 39.12 80 33 80 C28.25 68.625 28.25 68.625 26 63 C15.77 63 5.54 63 -5 63 C-7.31 68.61 -9.62 74.22 -12 80 C-18.27 80 -24.54 80 -31 80 C-26.2256402 66.12645448 -20.93283159 52.50237014 -15.5 38.875 C-14.66246796 36.76704326 -13.82522697 34.65897085 -12.98828125 32.55078125 C-8.67581301 21.69374079 -4.34350378 10.84465716 0 0 Z M9 21 C7.49744208 25.14491082 5.99838155 29.29107778 4.5 33.4375 C4.07074219 34.62150391 3.64148438 35.80550781 3.19921875 37.02539062 C2.79316406 38.15009766 2.38710938 39.27480469 1.96875 40.43359375 C1.59169922 41.47572021 1.21464844 42.51784668 0.82617188 43.59155273 C-0.05407857 45.73328115 -0.05407857 45.73328115 0 47 C6.6 47 13.2 47 20 47 C17.50556932 38.13091313 14.29501074 29.59475294 11 21 C10.34 21 9.68 21 9 21 Z " fill="#335251" transform="translate(838,169)"/>
<path d="M0 0 C6.6 0 13.2 0 20 0 C20.6084375 1.5571875 21.216875 3.114375 21.84375 4.71875 C28.65516634 22.11878653 35.57042353 39.47610598 42.52005005 56.8213501 C43.16110244 58.42158587 43.8017997 60.02196397 44.44210815 61.62249756 C45.73846993 64.86145681 47.03992983 68.09769546 48.35986328 71.32714844 C48.72708496 72.22723633 49.09430664 73.12732422 49.47265625 74.0546875 C49.7756665 74.78929199 50.07867676 75.52389648 50.39086914 76.28076172 C51 78 51 78 51 80 C44.73 80 38.46 80 32 80 C29.37006908 74.32488591 26.9811362 68.94340859 25 63 C14.77 62.67 4.54 62.34 -6 62 C-6.99 65.3 -7.98 68.6 -9 72 C-10.27474106 74.69516681 -11.5894089 77.37338209 -13 80 C-18.61 80 -24.22 80 -30 80 C-29.30825405 75.8495243 -28.79557437 73.05223315 -27.30102539 69.32519531 C-26.95267639 68.44776672 -26.60432739 67.57033813 -26.24542236 66.6663208 C-25.86665955 65.72971619 -25.48789673 64.79311157 -25.09765625 63.828125 C-24.70382751 62.84011902 -24.30999878 61.85211304 -23.90423584 60.83416748 C-22.62889332 57.63732477 -21.34563615 54.44372141 -20.0625 51.25 C-18.75672354 47.98106102 -17.45318408 44.7112367 -16.14994812 41.44128418 C-15.29193295 39.28845018 -14.43330389 37.13586075 -13.5740509 34.98352051 C-10.26068919 26.67800346 -7.00707174 18.3519333 -3.8125 10 C-3.40974854 8.9471582 -3.00699707 7.89431641 -2.59204102 6.80957031 C-1.72587211 4.54053509 -0.86249846 2.27043295 0 0 Z M9 20 C7.49198432 23.93447709 5.99497086 27.87304977 4.5 31.8125 C3.85611328 33.49182617 3.85611328 33.49182617 3.19921875 35.20507812 C2.79316406 36.27822266 2.38710937 37.35136719 1.96875 38.45703125 C1.59169922 39.44678955 1.21464844 40.43654785 0.82617188 41.45629883 C-0.15445325 44.02979542 -0.15445325 44.02979542 0 47 C6.27 47 12.54 47 19 47 C17.49783758 39.86774427 17.49783758 39.86774427 15.2734375 33.18359375 C14.809375 32.00893555 14.809375 32.00893555 14.3359375 30.81054688 C14.01882813 30.02744141 13.70171875 29.24433594 13.375 28.4375 C13.05015625 27.61958984 12.7253125 26.80167969 12.390625 25.95898438 C11.59978204 23.97024694 10.80075781 21.98476601 10 20 C9.67 20 9.34 20 9 20 Z " fill="#335251" transform="translate(1181,169)"/>
<path d="M0 0 C0 4.29 0 8.58 0 13 C-2.50651042 13.35807292 -5.01302083 13.71614583 -7.51953125 14.07421875 C-10.90519513 15.33784448 -11.4651122 16.76656201 -13 20 C-14.49151216 23.52094674 -15.90178278 27.06790825 -17.3046875 30.625 C-19.08852746 34.176239 -21.0554863 36.36490977 -24 39 C-23.030625 39.66 -22.06125 40.32 -21.0625 41 C-14.95179111 46.26234085 -11.64963069 53.9464298 -8 61 C-7.57799316 61.80840332 -7.15598633 62.61680664 -6.72119141 63.44970703 C-5.44825549 65.89817744 -4.18914129 68.3530822 -2.9375 70.8125 C-2.54320801 71.58303711 -2.14891602 72.35357422 -1.74267578 73.14746094 C-1.38286621 73.86836914 -1.02305664 74.58927734 -0.65234375 75.33203125 C-0.33257568 75.96858643 -0.01280762 76.6051416 0.31665039 77.26098633 C1 79 1 79 1 82 C-5.27 82 -11.54 82 -18 82 C-19.155 79.855 -20.31 77.71 -21.5 75.5 C-21.88905518 74.77844727 -22.27811035 74.05689453 -22.67895508 73.31347656 C-24.5790525 69.75964913 -26.40969459 66.18827783 -28.13671875 62.546875 C-28.48089844 61.82822266 -28.82507813 61.10957031 -29.1796875 60.36914062 C-29.83894399 58.98291332 -30.48660364 57.59109596 -31.12109375 56.19335938 C-33.10443158 52.04599827 -34.8192847 49.94324574 -39 48 C-39.66 47.67 -40.32 47.34 -41 47 C-41 58.88 -41 70.76 -41 83 C-46.61 83 -52.22 83 -58 83 C-58 55.94 -58 28.88 -58 1 C-52.72 1 -47.44 1 -42 1 C-42 11.89 -42 22.78 -42 34 C-36.4412791 31.66795739 -36.4412791 31.66795739 -33.875 27.55859375 C-33.56425537 26.89698242 -33.25351074 26.23537109 -32.93334961 25.55371094 C-32.62534424 24.85536133 -32.31733887 24.15701172 -32 23.4375 C-31.31631365 21.99229875 -30.63011178 20.54828487 -29.94140625 19.10546875 C-29.61156738 18.40341309 -29.28172852 17.70135742 -28.94189453 16.97802734 C-25.44095914 9.62588153 -22.69872192 4.21946553 -15 1 C-10.19036307 -0.55988225 -5.00178618 -0.06669048 0 0 Z " fill="#335251" transform="translate(644,410)"/>
<path d="M0 0 C6.67073637 -1.38917749 13.52227725 -2.68720704 20 0 C26.44157573 6.26407333 30.29679064 14.92094992 34 23 C36.42377467 20.02994505 38.70024088 17.05998288 40.76171875 13.828125 C41.24060547 13.08175781 41.71949219 12.33539063 42.21289062 11.56640625 C42.69951172 10.80199219 43.18613281 10.03757813 43.6875 9.25 C44.66949562 7.71285291 45.65251389 6.1763585 46.63671875 4.640625 C47.06686279 3.96547852 47.49700684 3.29033203 47.94018555 2.59472656 C49 1 49 1 50 0 C51.4887186 -0.08669432 52.981445 -0.10703494 54.47265625 -0.09765625 C55.37177734 -0.09443359 56.27089844 -0.09121094 57.19726562 -0.08789062 C58.61555664 -0.07532227 58.61555664 -0.07532227 60.0625 -0.0625 C61.4865918 -0.05573242 61.4865918 -0.05573242 62.93945312 -0.04882812 C65.29303065 -0.0370011 67.64648477 -0.02052025 70 0 C66.49985554 6.53432542 62.64979454 12.75636334 58.5625 18.9375 C54.21093111 25.53404789 50.01570851 32.19296172 46 39 C47.32133326 41.0328204 48.64268461 43.06562902 49.96411133 45.09838867 C51.1217976 46.87960847 52.27918249 48.66102418 53.4362793 50.44262695 C56.53645485 55.21506158 59.64178038 59.98399442 62.7578125 64.74609375 C63.35376221 65.65842773 63.94971191 66.57076172 64.5637207 67.51074219 C65.71929173 69.27950957 66.87664967 71.04711097 68.03588867 72.81347656 C68.55642822 73.61108398 69.07696777 74.40869141 69.61328125 75.23046875 C70.07516846 75.93582764 70.53705566 76.64118652 71.01293945 77.36791992 C72 79 72 79 72 80 C65.04582352 81.58233887 57.77178754 82.70965342 51 80 C43.96338584 73.62645914 38.99190424 64.5434132 35 56 C35 55.34 35 54.68 35 54 C32.77159387 56.09930554 31.08550159 58.22180198 29.44140625 60.80078125 C28.73854492 61.89616211 28.73854492 61.89616211 28.02148438 63.01367188 C27.29928711 64.1515918 27.29928711 64.1515918 26.5625 65.3125 C25.14160325 67.53492825 23.72083035 69.75597154 22.27294922 71.9609375 C20.82959037 74.19255555 20.82959037 74.19255555 19.29296875 77.51953125 C16.62030344 80.410745 16.01163423 80.40344913 12.234375 80.5859375 C10.40533048 80.54617566 8.57675359 80.47478066 6.75 80.375 C5.34621094 80.33439453 5.34621094 80.33439453 3.9140625 80.29296875 C1.6070276 80.22234523 -0.69530769 80.12380579 -3 80 C0.72760591 73.37177361 4.63419764 66.93362481 8.875 60.625 C9.29217285 60.00052979 9.7093457 59.37605957 10.13916016 58.73266602 C12.30062225 55.50371815 14.48828586 52.29651302 16.7109375 49.109375 C17.55774758 47.86489344 18.40411886 46.62011316 19.25 45.375 C19.65718262 44.8073291 20.06436523 44.2396582 20.48388672 43.65478516 C21.74898924 41.85725029 21.74898924 41.85725029 23 39 C21.72514481 34.36300676 18.86519281 30.52995847 16.2109375 26.58203125 C15.74765045 25.8835759 15.2843634 25.18512054 14.80703735 24.46549988 C13.33399112 22.24493787 11.85523247 20.02827711 10.375 17.8125 C8.41928416 14.88492344 6.46951777 11.95351923 4.5234375 9.01953125 C4.07036224 8.34557816 3.61728699 7.67162506 3.15048218 6.97724915 C0 2.22562122 0 2.22562122 0 0 Z " fill="#335251" transform="translate(898,169)"/>
<path d="M0 0 C10.580625 -0.12375 10.580625 -0.12375 21.375 -0.25 C23.58106934 -0.28641602 25.78713867 -0.32283203 28.06005859 -0.36035156 C29.83950838 -0.37205119 31.61896901 -0.38223998 33.3984375 -0.390625 C34.29731689 -0.41108887 35.19619629 -0.43155273 36.12231445 -0.45263672 C43.62958016 -0.4567046 50.42561675 1.22183353 56.4375 5.89453125 C61.89607214 12.59492855 63.51770931 18.53277284 63.3046875 27.16015625 C62.57001806 34.00765216 60.22201021 39.26853797 55.1875 44 C45.07237037 51.93562656 30.1615134 50.10306367 18 50 C18 59.9 18 69.8 18 80 C12.06 80 6.12 80 0 80 C0 53.6 0 27.2 0 0 Z M18 14 C18 21.26 18 28.52 18 36 C30.96043426 36.72468378 30.96043426 36.72468378 42.5625 32 C44.94846394 28.680398 45.39300823 26.16840517 45.35546875 22.0390625 C44.75359564 18.58655959 42.68176469 17.05809848 40 15 C37.17588235 14.05862745 35.47081968 13.88274618 32.55078125 13.90234375 C31.78677002 13.90484131 31.02275879 13.90733887 30.2355957 13.90991211 C29.27097412 13.91901611 28.30635254 13.92812012 27.3125 13.9375 C24.239375 13.958125 21.16625 13.97875 18 14 Z " fill="#335251" transform="translate(744,169)"/>
<path d="M0 0 C7.8881741 5.25382162 11.72451362 11.62835534 15.0703125 20.37890625 C12.14120306 22.33164587 9.98898959 23.13286988 6.6328125 24.06640625 C5.68535156 24.33839844 4.73789062 24.61039063 3.76171875 24.890625 C1.04705068 25.38312646 -0.41259935 25.47624356 -2.9296875 24.37890625 C-3.3834375 23.45078125 -3.8371875 22.52265625 -4.3046875 21.56640625 C-6.68292905 16.90139398 -10.04565883 15.00691581 -14.9296875 13.37890625 C-21.48663493 12.60376324 -25.58553648 13.50177708 -30.9296875 17.37890625 C-36.33382441 22.1825835 -37.45973702 29.88184166 -38.18359375 36.80859375 C-38.38940342 44.51959595 -37.14315834 52.82461827 -32.9296875 59.37890625 C-29.33589064 62.7835559 -25.906983 65.3291926 -20.82421875 65.4140625 C-14.25176308 64.96268782 -10.25343148 62.83174712 -5.6796875 58.00390625 C-3.80878186 55.19754779 -2.83319912 52.61648956 -1.9296875 49.37890625 C-0.03276607 49.8327152 1.86280845 50.29215617 3.7578125 50.75390625 C5.34142578 51.13675781 5.34142578 51.13675781 6.95703125 51.52734375 C9.77438016 52.29796114 12.38699575 53.23389168 15.0703125 54.37890625 C14.74677482 61.82027287 11.48026743 68.01816716 6.17578125 73.24609375 C-2.40813992 80.05227977 -11.94298794 81.97818111 -22.79296875 81.1640625 C-32.76464218 79.6831209 -41.78581581 75.56572795 -47.9296875 67.37890625 C-55.83529357 54.945378 -57.16693459 41.77186252 -54.9296875 27.37890625 C-52.56472501 16.97970203 -48.12226611 9.28303778 -39.9296875 2.37890625 C-29.1149336 -4.22449489 -11.43978969 -5.71989485 0 0 Z " fill="#335251" transform="translate(636.9296875,169.62109375)"/>
<path d="M0 0 C21.45 0 42.9 0 65 0 C65 4.95 65 9.9 65 15 C57.08 15 49.16 15 41 15 C41 36.78 41 58.56 41 81 C35.06 81 29.12 81 23 81 C23 59.22 23 37.44 23 15 C15.41 15 7.82 15 0 15 C0 10.05 0 5.1 0 0 Z " fill="#335251" transform="translate(664,168)"/>
<path d="M0 0 C14.19642857 -0.53571429 14.19642857 -0.53571429 17.875 2 C18.57625 2.66 19.2775 3.32 20 4 C19.96682761 5.43847561 19.89726123 6.8761407 19.8125 8.3125 C19.77769531 9.11300781 19.74289062 9.91351563 19.70703125 10.73828125 C19 13 19 13 16.90625 14.78125 C13.30999267 16.28935791 10.57433712 16.29647674 6.6875 16.1875 C3.3771875 16.0946875 3.3771875 16.0946875 0 16 C0 10.72 0 5.44 0 0 Z " fill="#FAFAFA" transform="translate(301,312)"/>
<path d="M0 0 C5.45134273 8.1770141 5.30660793 17.49515404 5 27 C1.04 27 -2.92 27 -7 27 C-6.52314486 21.7545935 -5.52767428 17.26969616 -3.76171875 12.31640625 C-2.72851909 9.17441958 -2.07121259 5.99138992 -1.4296875 2.75 C-1 1 -1 1 0 0 Z " fill="#F3F5F5" transform="translate(178,317)"/>
<path d="M0 0 C7.92 0 15.84 0 24 0 C24 25.08 24 50.16 24 76 C15.75 76 7.5 76 -1 76 C-1.33 64.78 -1.66 53.56 -2 42 C-2.99 42.495 -2.99 42.495 -4 43 C-2.25 38.125 -2.25 38.125 0 37 C0 49.54 0 62.08 0 75 C7.59 75 15.18 75 23 75 C23 50.58 23 26.16 23 1 C15.41 1 7.82 1 0 1 C0 0.67 0 0.34 0 0 Z " fill="#9FAEAD" transform="translate(455,294)"/>
<path d="M0 0 C0.33 0 0.66 0 1 0 C1 12.87 1 25.74 1 39 C0.67 39 0.34 39 0 39 C-0.33 27.78 -0.66 16.56 -1 5 C-1.99 5.495 -1.99 5.495 -3 6 C-1.125 1.125 -1.125 1.125 0 0 Z " fill="#E5E8E8" transform="translate(454,331)"/>
</svg>
