<?xml version="1.0" encoding="UTF-8"?>
<svg version="1.1" xmlns="http://www.w3.org/2000/svg" width="1000" height="192">
<path d="M0 0 C17.47473871 4.65993032 17.47473871 4.65993032 23.75 8.1875 C24.45753418 8.57405762 25.16506836 8.96061523 25.89404297 9.35888672 C32.20756735 12.91302871 37.66903859 17.07841276 43 22 C43.97839844 22.87591797 43.97839844 22.87591797 44.9765625 23.76953125 C59.97893745 37.87969447 69.5199107 60.08377418 70.203125 80.53125 C70.59750473 105.56808265 63.64754868 126.91703839 47 146 C46.20529297 146.92039063 46.20529297 146.92039063 45.39453125 147.859375 C33.22069107 160.96503999 16.97505898 167.75623525 0 172 C0 156.82 0 141.64 0 126 C-8.06173011 126.15692012 -8.06173011 126.15692012 -16.12231445 126.36035156 C-29.24860462 126.48788114 -38.3908474 122.35438186 -47.75 113.30859375 C-56.26331969 104.13549178 -57.4727048 93.57990516 -57.27734375 81.56640625 C-56.8093653 70.22549564 -51.26395382 61.82870021 -43.1875 54.25 C-36.34319422 48.49605387 -28.78574334 45.85889342 -19.921875 45.90234375 C-18.87612305 45.90484131 -17.83037109 45.90733887 -16.75292969 45.90991211 C-15.43196289 45.91901611 -14.11099609 45.92812012 -12.75 45.9375 C-8.5425 45.958125 -4.335 45.97875 0 46 C0 30.82 0 15.64 0 0 Z " fill="#003790" transform="translate(113,10)"/>
<path d="M0 0 C0 11.22 0 22.44 0 34 C-4.08375 34.3403125 -4.08375 34.3403125 -8.25 34.6875 C-23.13878024 36.22208037 -35.57139851 42.24645329 -45.375 53.8125 C-55.21260953 66.91587335 -57.31081274 81.0637941 -56 97 C-53.68849689 109.17479192 -46.4068373 121.42777932 -36.4609375 128.91015625 C-24.41126154 136.90367368 -14.21528651 138.72698927 0 140 C0 151.22 0 162.44 0 174 C-26.46624925 174 -47.67777229 167.39748102 -66.75 148.8125 C-76.93605201 138.46733828 -83.3806373 126.68042032 -88 113 C-88.3403125 112.03578125 -88.680625 111.0715625 -89.03125 110.078125 C-93.79454061 93.75944421 -92.65902121 73.91930266 -87 58 C-86.57589844 56.80503906 -86.15179688 55.61007813 -85.71484375 54.37890625 C-77.53713289 33.58155245 -61.55243866 16.53353005 -41.23828125 7.22265625 C-27.30281601 1.18861414 -15.58842981 0 0 0 Z " fill="#FC5055" transform="translate(100,9)"/>
<path d="M0 0 C10.085625 -0.12375 10.085625 -0.12375 20.375 -0.25 C22.47665527 -0.28641602 24.57831055 -0.32283203 26.74365234 -0.36035156 C28.4410704 -0.37205244 30.13849982 -0.38224094 31.8359375 -0.390625 C32.6916333 -0.41108887 33.5473291 -0.43155273 34.42895508 -0.45263672 C41.49801636 -0.45664981 48.61087427 0.90631831 53.98178101 5.809021 C58.60474607 10.93723936 59.3955869 15.31201642 59.359375 22.12890625 C58.81073339 26.51207564 56.89866215 29.71484956 54 33 C53.01 33.495 53.01 33.495 52 34 C52.54269531 34.35191406 53.08539063 34.70382813 53.64453125 35.06640625 C58.57138147 38.46637676 61.35044584 41.02036618 63 47 C63.69060825 54.25138662 62.36448077 59.94008371 57.875 65.75 C50.70547322 71.360934 44.00072127 72.58382029 35.05859375 72.390625 C34.16338013 72.38659668 33.2681665 72.38256836 32.3458252 72.37841797 C29.04283777 72.3576929 25.74014547 72.30184939 22.4375 72.25 C15.033125 72.1675 7.62875 72.085 0 72 C0 48.24 0 24.48 0 0 Z M13 12 C13 17.94 13 23.88 13 30 C17.20902296 30.10807762 21.41526202 30.1873684 25.625 30.25 C26.81480469 30.28351562 28.00460937 30.31703125 29.23046875 30.3515625 C37.94131881 30.50736172 37.94131881 30.50736172 45 26 C46.42662219 23.14675563 46.31033868 21.16545451 46 18 C43.79072049 14.39685342 43.79072049 14.39685342 40.22558594 12.36938477 C37.49822604 11.91671961 34.90589289 11.88823524 32.140625 11.90234375 C31.02558594 11.90556641 29.91054688 11.90878906 28.76171875 11.91210938 C27.02341797 11.92467773 27.02341797 11.92467773 25.25 11.9375 C24.07566406 11.94201172 22.90132813 11.94652344 21.69140625 11.95117188 C18.79424905 11.96294894 15.89711807 11.98088412 13 12 Z M13 42 C13 47.94 13 53.88 13 60 C17.18153431 60.06905286 21.3610734 60.12872548 25.54272461 60.16479492 C26.96369141 60.1798376 28.38461213 60.20027704 29.80541992 60.22631836 C31.85346886 60.26290347 33.9009015 60.27977097 35.94921875 60.29296875 C37.17987061 60.3086792 38.41052246 60.32438965 39.6784668 60.34057617 C43.28005741 59.97128408 45.11674358 59.13840698 48 57 C50.08606926 54.34500276 49.99879455 52.93249496 49.9375 49.5 C48.78926855 45.21326927 47.72155017 44.32059566 44 42 C40.52331952 41.45168472 40.52331952 41.45168472 36.73046875 41.609375 C35.70896477 41.61786469 35.70896477 41.61786469 34.66682434 41.62652588 C32.50631355 41.64879519 30.34750354 41.69896682 28.1875 41.75 C26.71682095 41.77007753 25.24611571 41.78832611 23.77539062 41.8046875 C20.18242243 41.84521732 16.59309891 41.92350588 13 42 Z " fill="#003790" transform="translate(377,12)"/>
<path d="M0 0 C12 0 12 0 14.6484375 1.73828125 C15.21820312 2.58777344 15.78796875 3.43726563 16.375 4.3125 C17.07625 5.29992187 17.7775 6.28734375 18.5 7.3046875 C18.88285156 7.87670898 19.26570312 8.44873047 19.66015625 9.03808594 C21.83345825 12.22042101 24.16342469 15.28533061 26.46728516 18.3737793 C28.83794714 21.55964076 31.1790996 24.76644189 33.51708984 27.97631836 C34.0064502 28.6441333 34.49581055 29.31194824 35 30 C35.51643066 30.74580322 36.03286133 31.49160645 36.56494141 32.26000977 C37.03851074 32.83420654 37.51208008 33.40840332 38 34 C38.66 34 39.32 34 40 34 C41.4308858 32.43971384 41.4308858 32.43971384 42.87109375 30.37109375 C43.43965088 29.58968018 44.00820801 28.8082666 44.59399414 28.00317383 C45.20235107 27.15650146 45.81070801 26.3098291 46.4375 25.4375 C47.06712646 24.58373779 47.69675293 23.72997559 48.34545898 22.8503418 C51.33943095 18.77585569 54.23905271 14.69010817 56.9140625 10.3984375 C57.58997437 9.35925171 57.58997437 9.35925171 58.27954102 8.29907227 C59.10979388 7.01348377 59.90502826 5.70430011 60.65600586 4.37084961 C61.81640625 2.61328125 61.81640625 2.61328125 65 0 C69.29 0 73.58 0 78 0 C78 23.76 78 47.52 78 72 C73.71 72 69.42 72 65 72 C64.67 55.83 64.34 39.66 64 23 C61.4425 26.34125 58.885 29.6825 56.25 33.125 C55.05165527 34.68758545 55.05165527 34.68758545 53.82910156 36.28173828 C53.1894043 37.11946777 52.54970703 37.95719727 51.890625 38.8203125 C51.19775391 39.7165332 50.50488281 40.61275391 49.79101562 41.53613281 C48.31988761 43.55993651 47.22404566 45.45948283 46.109375 47.6796875 C43.66594223 50.36746354 42.79346114 50.59937776 39.26953125 51.00390625 C35.88220481 50.79076133 34.38341538 50.32327838 31.77099609 48.12060547 C29.56249851 45.48945881 27.61330876 42.78180047 25.6875 39.9375 C24.67333008 38.52307617 24.67333008 38.52307617 23.63867188 37.08007812 C22.37041772 35.30452231 21.11504638 33.51963363 19.87768555 31.72241211 C17.62381644 28.45458031 15.30735096 25.23029135 13 22 C12.67 38.5 12.34 55 12 72 C8.04 72 4.08 72 0 72 C0 48.24 0 24.48 0 0 Z " fill="#003790" transform="translate(603,12)"/>
<path d="M0 0 C18.81 0 37.62 0 57 0 C57 3.96 57 7.92 57 12 C42.48 12 27.96 12 13 12 C13 17.61 13 23.22 13 29 C15.2171875 28.96519531 17.434375 28.93039063 19.71875 28.89453125 C21.88996089 28.87106816 24.06115712 28.85289023 26.23242188 28.83520508 C27.72988307 28.82021112 29.22730105 28.79980895 30.72460938 28.77368164 C49.69919837 28.45111363 49.69919837 28.45111363 57.375 35.375 C58.02210938 35.93960938 58.66921875 36.50421875 59.3359375 37.0859375 C63.63743991 42.03367501 63.43517025 47.50666619 63.30078125 53.7734375 C62.77038708 59.46312037 61.2857916 63.08748446 56.87109375 66.78125 C51.67228342 70.41270894 47.68805325 72.13101114 41.32324219 72.11352539 C40.3897998 72.11340454 39.45635742 72.11328369 38.49462891 72.11315918 C37.52187012 72.10804321 36.54911133 72.10292725 35.546875 72.09765625 C34.64662598 72.09664917 33.74637695 72.09564209 32.81884766 72.09460449 C29.46255211 72.08938058 26.10627475 72.0754193 22.75 72.0625 C15.2425 72.041875 7.735 72.02125 0 72 C0 48.24 0 24.48 0 0 Z M13 41 C13 47.27 13 53.54 13 60 C17.16372198 60.09218573 21.32386084 60.17169966 25.48779297 60.21972656 C26.90197795 60.23975843 28.31608097 60.26699248 29.72998047 60.30175781 C31.77071419 60.35065489 33.8103469 60.37305123 35.8515625 60.390625 C37.07697754 60.41157227 38.30239258 60.43251953 39.56494141 60.45410156 C43.66200729 59.91248518 45.80284162 58.56751453 49 56 C50.56935594 52.86128812 50.35201103 50.46144178 50 47 C47.45862841 43.84045695 45.85377341 42.28459114 42 41 C39.78910055 40.91641042 37.57573922 40.89268236 35.36328125 40.90234375 C34.06455078 40.90556641 32.76582031 40.90878906 31.42773438 40.91210938 C30.05598892 40.92046469 28.68424413 40.92892963 27.3125 40.9375 C25.92903805 40.94251665 24.54557437 40.94707927 23.16210938 40.95117188 C19.77472104 40.96297462 16.3873551 40.98091033 13 41 Z " fill="#003790" transform="translate(695,12)"/>
<path d="M0 0 C10.085625 -0.1546875 10.085625 -0.1546875 20.375 -0.3125 C23.52748291 -0.38078003 23.52748291 -0.38078003 26.74365234 -0.45043945 C44.91691846 -0.68007267 44.91691846 -0.68007267 52 5 C55.89346122 9.08338616 56.75585907 13.0571938 57.1015625 18.5390625 C56.85729319 24.45789579 53.79004264 28.68719286 50 33 C50.7425 33.226875 51.485 33.45375 52.25 33.6875 C55.55765809 35.266155 56.94858409 36.99614099 59 40 C60.90948276 45.72844829 60.91185715 51.77562505 58.375 57.3125 C55.5772931 62.17167514 52.28756804 65.16461633 46.93139648 67.12060547 C42.28623044 68.35743758 37.68725274 68.2500705 32.91015625 68.1953125 C32.07190308 68.19329834 31.2336499 68.19128418 30.36999512 68.18920898 C27.26744031 68.17882081 24.1649641 68.15089875 21.0625 68.125 C14.111875 68.08375 7.16125 68.0425 0 68 C0 45.56 0 23.12 0 0 Z M12 11 C12 16.61 12 22.22 12 28 C16.06290008 28.08095816 20.12418567 28.14048645 24.1875 28.1875 C25.33798828 28.21263672 26.48847656 28.23777344 27.67382812 28.26367188 C28.78564453 28.27333984 29.89746094 28.28300781 31.04296875 28.29296875 C32.57473755 28.31653442 32.57473755 28.31653442 34.13745117 28.34057617 C38.40875265 27.83239148 41.00313919 25.99686081 44 23 C44.4423824 19.01855844 44.66305693 16.86883322 42.1875 13.625 C38.55780366 10.92865415 35.62485282 10.88007689 31.23828125 10.90234375 C29.56088867 10.90717773 29.56088867 10.90717773 27.84960938 10.91210938 C26.68236328 10.92048828 25.51511719 10.92886719 24.3125 10.9375 C23.13365234 10.94201172 21.95480469 10.94652344 20.74023438 10.95117188 C17.82680133 10.96296715 14.91339433 10.98090273 12 11 Z M12 39 C12 44.61 12 50.22 12 56 C16.18202075 56.09208119 20.36049589 56.17162732 24.54272461 56.21972656 C25.96374457 56.23978421 27.38468259 56.26703778 28.80541992 56.30175781 C30.85355895 56.35054011 32.90060275 56.37302539 34.94921875 56.390625 C36.79519653 56.4220459 36.79519653 56.4220459 38.6784668 56.45410156 C42.62336019 55.91477766 44.23402224 54.81467119 47 52 C48.22639835 48.39745485 48.32594514 46.75482032 46.8125 43.25 C44.85193715 40.81619784 43.88700512 40.0904156 41 39 C37.80305813 38.72455865 37.80305813 38.72455865 34.265625 38.8046875 C32.32236328 38.81435547 32.32236328 38.81435547 30.33984375 38.82421875 C28.97655981 38.84092807 27.61327856 38.85785794 26.25 38.875 C24.87110015 38.8850366 23.49219335 38.89416127 22.11328125 38.90234375 C18.74211277 38.92591835 15.37103436 38.96178928 12 39 Z " fill="#FC5055" transform="translate(640,112)"/>
<path d="M0 0 C7.60236156 6.84341176 12.53839002 15.21206314 13.23828125 25.50390625 C13.53614453 36.47881409 12.23999153 46.1946049 5 55 C-3.47037763 63.88780897 -12.46581594 67.78952839 -24.6875 68.25 C-35.1807498 68.09267991 -45.03311652 64.46643519 -52.81640625 57.3359375 C-60.49515717 48.90663197 -63.47963767 38.73973973 -63.18359375 27.47265625 C-62.42121567 17.20488332 -58.32092544 8.32092544 -51 1 C-35.78731213 -9.64377658 -15.37878027 -11.7028767 0 0 Z M-44.4375 13.25 C-48.51810439 18.57906126 -50.66695071 25.08521652 -50.34375 31.83203125 C-49.01735788 40.19734517 -45.87259422 46.91457087 -39 52 C-32.15927953 55.80040026 -25.42935596 56.89255182 -17.875 54.875 C-10.40093836 52.29094458 -5.99965513 48.74445643 -1.9453125 41.96484375 C1.03129078 35.77793694 1.08212713 27.92859198 -0.71875 21.390625 C-3.70901749 14.204337 -8.39093062 10.0229118 -15 6 C-25.70848275 2.43050575 -36.70824607 5.12291683 -44.4375 13.25 Z " fill="#003790" transform="translate(578,18)"/>
<path d="M0 0 C7.91526904 7.31186288 12.09507928 15.93667552 12.54150391 26.70751953 C12.65164899 39.06169909 10.15999243 47.79824354 1.34765625 56.83984375 C-6.94569828 64.47083386 -17.21000712 67.71493573 -28.50390625 67.28125 C-39.16556359 66.0799365 -48.91518747 62.13139126 -55.875 53.75 C-61.95331858 45.24895538 -64.96247668 35.46474644 -64 25 C-62.08676936 13.8219123 -58.14944813 5.31897718 -48.89453125 -1.56640625 C-34.02359474 -11.90382442 -14.33681236 -11.46944989 0 0 Z M-46.8125 13.99609375 C-51.15283275 21.32040526 -51.78064542 28.76451495 -50 37 C-47.68424831 44.49987763 -42.30033885 49.57416783 -35.5625 53.375 C-26.75249636 55.52378138 -19.90764334 55.13972653 -11.765625 50.8125 C-6.1519193 47.09816841 -2.87859064 42.45819641 -1 36 C0.03407826 27.85548978 -0.2324583 20.83458775 -5 14 C-5.53625 13.113125 -6.0725 12.22625 -6.625 11.3125 C-12.0408067 6.03921453 -17.96474529 3.68637416 -25.5 3.375 C-34.16906183 3.75280364 -41.49191781 6.99771433 -46.8125 13.99609375 Z " fill="#003790" transform="translate(353,19)"/>
<path d="M0 0 C4.29 0 8.58 0 13 0 C13 9.9 13 19.8 13 30 C26.2 30 39.4 30 53 30 C53 20.1 53 10.2 53 0 C57.29 0 61.58 0 66 0 C66 23.76 66 47.52 66 72 C61.71 72 57.42 72 53 72 C53 62.1 53 52.2 53 42 C39.8 42 26.6 42 13 42 C13 51.9 13 61.8 13 72 C8.71 72 4.42 72 0 72 C0 48.24 0 24.48 0 0 Z " fill="#003790" transform="translate(843,12)"/>
<path d="M0 0 C7.22907726 5.78626766 12.09288484 13.37160812 13.87890625 22.50390625 C14.73997567 34.72446837 12.97033639 45.00220506 4.87890625 54.50390625 C-3.43270009 62.5650687 -12.6536032 65.48804527 -24.12109375 65.50390625 C-34.309614 64.72017392 -43.55685187 61.11261026 -50.5859375 53.53515625 C-58.01062003 43.71114883 -59.11898476 33.4228339 -58.12109375 21.50390625 C-56.24943048 11.32357563 -49.94432992 4.5931717 -42.24609375 -1.93359375 C-28.62783259 -8.74272433 -12.76542916 -8.63922984 0 0 Z M-40.00390625 12.37109375 C-44.88780379 18.43467668 -46.79348414 24.70417778 -46.12109375 32.50390625 C-44.70687416 39.6135738 -41.48289252 44.6554712 -36.12109375 49.50390625 C-30.34288787 53.01614904 -24.87812234 54.30362318 -18.12109375 53.50390625 C-10.52467346 51.63749313 -5.27446763 48.17691692 -1.12109375 41.50390625 C1.95639736 34.98686624 2.80524783 28.48418895 0.87890625 21.50390625 C-2.13998061 14.37308729 -6.05630715 9.74256109 -13.12109375 6.50390625 C-22.67906648 3.31791534 -32.81335256 5.24021271 -40.00390625 12.37109375 Z " fill="#FC5055" transform="translate(614.12109375,116.49609375)"/>
<path d="M0 0 C3.96 0 7.92 0 12 0 C12.33 15.18 12.66 30.36 13 46 C23.39382788 33.22186334 23.39382788 33.22186334 33.5078125 20.25 C36.76263649 15.98741725 40.09207262 11.7833244 43.42236328 7.57958984 C45.37998803 5.10069981 47.24662747 2.63005879 49 0 C52.96 0 56.92 0 61 0 C61 22.44 61 44.88 61 68 C57.04 68 53.08 68 49 68 C48.67 52.49 48.34 36.98 48 21 C41.43239334 29.20950833 34.902399 37.38058838 28.51953125 45.72265625 C25.74908243 49.33690777 22.93987806 52.92029645 20.125 56.5 C19.6724585 57.07564697 19.21991699 57.65129395 18.75366211 58.24438477 C17.50443074 59.83115803 16.25228688 61.41563705 15 63 C14.46117187 63.9590625 13.92234375 64.918125 13.3671875 65.90625 C11 68 11 68 0 68 C0 45.56 0 23.12 0 0 Z " fill="#FC5055" transform="translate(861,112)"/>
<path d="M0 0 C4.29 0 8.58 0 13 0 C13 9.57 13 19.14 13 29 C24.03015179 29.17613566 24.03015179 29.17613566 30.953125 23.84741211 C31.38109375 23.27901611 31.8090625 22.71062012 32.25 22.125 C32.7346875 21.54435791 33.219375 20.96371582 33.71875 20.36547852 C35.18021347 18.60186709 36.5903128 16.80509946 38 15 C38.86606223 13.9409496 39.73568333 12.88479637 40.609375 11.83203125 C42.11024545 10.01480085 43.59694135 8.18567046 45.0625 6.33984375 C46.0215625 5.18162109 46.0215625 5.18162109 47 4 C47.56203125 3.24332031 48.1240625 2.48664062 48.703125 1.70703125 C52.21434615 -0.90249875 55.50257636 -0.43313933 59.75 -0.25 C60.93916016 -0.22292969 60.93916016 -0.22292969 62.15234375 -0.1953125 C64.10208348 -0.14833082 66.05119878 -0.07659044 68 0 C64.89476499 5.00844356 61.25517312 9.12572468 57.1875 13.375 C55.93272741 14.70230654 54.67881143 16.03042343 53.42578125 17.359375 C52.83104004 17.98908203 52.23629883 18.61878906 51.62353516 19.26757812 C47.19345305 23.99477552 42.9884731 28.89475443 39 34 C40.40839495 38.29445018 42.45854776 40.87046479 45.5625 44.125 C49.85498991 48.72012588 53.87195384 53.44697295 57.81640625 58.34765625 C60.61657942 61.74893995 63.57068598 64.99335155 66.56640625 68.22265625 C68 70 68 70 68 72 C54.06127809 73.91187628 54.06127809 73.91187628 49.29248047 70.93359375 C46.10990083 67.99292787 43.72216884 64.45430962 41.31347656 60.87402344 C39.09602036 57.71023277 36.53553218 54.84753271 34 51.9375 C31.22678427 48.69296458 28.5634772 45.4179696 26 42 C21.71 41.67 17.42 41.34 13 41 C13 51.23 13 61.46 13 72 C8.71 72 4.42 72 0 72 C0 48.24 0 24.48 0 0 Z " fill="#003790" transform="translate(923,12)"/>
<path d="M0 0 C4.29 0 8.58 0 13 0 C13 9.57 13 19.14 13 29 C25.0365486 29.28196822 25.0365486 29.28196822 29.54296875 25.2265625 C30.46171609 24.05429367 31.34305172 22.85187326 32.1875 21.625 C33.16603299 20.34877386 34.14653341 19.07405403 35.12890625 17.80078125 C35.60344238 17.16221191 36.07797852 16.52364258 36.56689453 15.86572266 C38.75556919 13.01634416 41.17376562 10.43957616 43.625 7.8125 C45.99806855 5.25127552 48.06094072 2.90858892 50 0 C52.95064148 -0.2208564 55.68368231 -0.28060989 58.625 -0.1875 C59.42679687 -0.17396484 60.22859375 -0.16042969 61.0546875 -0.14648438 C63.03674378 -0.11109051 65.01845551 -0.05728234 67 0 C65.33922468 4.14690564 62.34018306 7.06714587 59.3125 10.25 C58.21929407 11.41595641 57.12684222 12.58262032 56.03515625 13.75 C55.50937988 14.31074219 54.98360352 14.87148438 54.44189453 15.44921875 C52.12469083 17.94140938 49.89451892 20.50522258 47.66796875 23.078125 C44.48104538 26.75017722 41.23488012 30.37021243 38 34 C39.26936947 36.73362753 40.62408666 38.92280422 42.6171875 41.1796875 C43.13619629 41.77217285 43.65520508 42.3646582 44.18994141 42.97509766 C44.74601074 43.60206543 45.30208008 44.2290332 45.875 44.875 C47.04713643 46.21331274 48.21900491 47.55186021 49.390625 48.890625 C49.98810547 49.57060547 50.58558594 50.25058594 51.20117188 50.95117188 C54.0223427 54.16442725 56.82857841 57.39019693 59.625 60.625 C60.12112793 61.19202637 60.61725586 61.75905273 61.12841797 62.34326172 C63.77347406 65.40581368 66.03833003 68.4584616 68 72 C53.46049857 73.66984993 53.46049857 73.66984993 47.9609375 69.9375 C45.40535271 67.08173541 43.19399324 64.14095657 41 61 C39.450602 59.09344392 37.88838261 57.19722393 36.3125 55.3125 C34.22237797 52.77449468 32.18418645 50.26439668 30.3046875 47.56640625 C28.52763873 45.01110573 28.52763873 45.01110573 25 42 C21.04 41.67 17.08 41.34 13 41 C13 51.23 13 61.46 13 72 C8.71 72 4.42 72 0 72 C0 48.24 0 24.48 0 0 Z " fill="#003790" transform="translate(450,12)"/>
<path d="M0 0 C4.62 0 9.24 0 14 0 C20.05180078 12.72935433 25.69398409 25.62473866 31.29980469 38.5559082 C32.35883524 40.99748902 33.4192441 43.43840292 34.48242188 45.87817383 C36.03051769 49.43173586 37.57444832 52.98707845 39.1171875 56.54296875 C39.59316376 57.63457809 40.06914001 58.72618744 40.55953979 59.85087585 C40.99734772 60.86325821 41.43515564 61.87564056 41.88623047 62.91870117 C42.46411819 64.24982185 42.46411819 64.24982185 43.05368042 65.60783386 C44 68 44 68 45 72 C40.38 72 35.76 72 31 72 C28.14376931 66.36473404 25.49335889 60.8178374 23 55 C12.44 55 1.88 55 -9 55 C-11.26126142 60.21945978 -11.26126142 60.21945978 -13.51733398 65.44116211 C-15.88888889 70.88888889 -15.88888889 70.88888889 -17 72 C-20.59499796 72.11109388 -24.17884273 72.06145187 -27.77514648 72.02905273 C-28.83934814 72.01946533 -29.9035498 72.00987793 -31 72 C-26.86003428 60.73016496 -22.04065628 49.78837664 -17.1875 38.8125 C-16.41053661 37.04894735 -15.63384259 35.28527601 -14.85742188 33.52148438 C-9.93042758 22.33634839 -4.97029741 11.16594959 0 0 Z M6 18 C4.32742736 21.78908876 2.66294885 25.58167885 1 29.375 C0.52304687 30.45523438 0.04609375 31.53546875 -0.4453125 32.6484375 C-0.89648438 33.6796875 -1.34765625 34.7109375 -1.8125 35.7734375 C-2.23144531 36.72653809 -2.65039062 37.67963867 -3.08203125 38.66162109 C-4.12180594 40.89159667 -4.12180594 40.89159667 -4 43 C3.26 43 10.52 43 18 43 C15.79277659 36.18671095 15.79277659 36.18671095 13.17578125 29.62109375 C12.86962891 28.92822266 12.56347656 28.23535156 12.24804688 27.52148438 C11.93931641 26.83376953 11.63058594 26.14605469 11.3125 25.4375 C10.99216797 24.71498047 10.67183594 23.99246094 10.34179688 23.24804688 C9.56487057 21.49706371 8.78297505 19.74828676 8 18 C7.34 18 6.68 18 6 18 Z " fill="#003790" transform="translate(791,12)"/>
<path d="M0 0 C16.83 0 33.66 0 51 0 C51 3.63 51 7.26 51 11 C38.13 11 25.26 11 12 11 C12 16.61 12 22.22 12 28 C23.88 28 35.76 28 48 28 C48 31.63 48 35.26 48 39 C36.12 39 24.24 39 12 39 C12 44.61 12 50.22 12 56 C25.2 56 38.4 56 52 56 C52 59.96 52 63.92 52 68 C34.84 68 17.68 68 0 68 C0 45.56 0 23.12 0 0 Z " fill="#FC5055" transform="translate(938,112)"/>
<path d="M0 0 C3.96 0 7.92 0 12 0 C12 8.91 12 17.82 12 27 C24.54 27 37.08 27 50 27 C50 18.09 50 9.18 50 0 C53.96 0 57.92 0 62 0 C62 22.44 62 44.88 62 68 C58.04 68 54.08 68 50 68 C50 58.43 50 48.86 50 39 C37.46 39 24.92 39 12 39 C12 48.57 12 58.14 12 68 C8.04 68 4.08 68 0 68 C0 45.56 0 23.12 0 0 Z " fill="#FC5055" transform="translate(783,112)"/>
<path d="M0 0 C4.62 0 9.24 0 14 0 C22.11431652 17.9561972 30.05212956 35.97029217 37.75439453 54.10742188 C39.22517928 57.52291731 40.75598325 60.90866893 42.31616211 64.28417969 C43 66 43 66 43 68 C38.38 68 33.76 68 29 68 C26.69 62.72 24.38 57.44 22 52 C11.77 51.67 1.54 51.34 -9 51 C-9.99 53.97 -10.98 56.94 -12 60 C-13.22121073 62.74874522 -14.59542017 65.3361417 -16 68 C-20.29 68 -24.58 68 -29 68 C-27.0044246 61.75124033 -24.71555188 55.77578921 -22.05078125 49.78515625 C-21.67447067 48.93054306 -21.2981601 48.07592987 -20.91044617 47.19541931 C-19.71489473 44.48276668 -18.5137912 41.77261489 -17.3125 39.0625 C-16.52632837 37.28075967 -15.74051851 35.49885968 -14.95507812 33.71679688 C-9.99330956 22.46756683 -4.99843793 11.23297489 0 0 Z M6 16 C1.05 27.88 1.05 27.88 -4 40 C2.93 40 9.86 40 17 40 C15.11017118 34.33051354 13.2597056 28.96401318 10.9375 23.5 C10.43089844 22.2934375 9.92429687 21.086875 9.40234375 19.84375 C8.30783581 16.90208518 8.30783581 16.90208518 6 16 Z " fill="#FC5055" transform="translate(732,112)"/>
<path d="M0 0 C4.62 0 9.24 0 14 0 C19.10380719 9.90504858 23.55661262 20.01033552 27.9375 30.25 C28.96175409 32.63514264 29.98701189 35.01985126 31.01260376 37.40441895 C31.68510969 38.96927801 32.35649002 40.53462133 33.02670288 42.10046387 C34.67907349 45.95614775 36.35051973 49.80144694 38.06298828 53.63085938 C38.38973038 54.36463806 38.71647247 55.09841675 39.05311584 55.85443115 C39.67113935 57.23891647 40.29365044 58.62141032 40.92137146 60.00152588 C42.19428558 62.8584231 43 64.83295259 43 68 C38.71 68 34.42 68 30 68 C28.82866942 65.54379149 27.66278278 63.08525083 26.5 60.625 C26.16613281 59.92632812 25.83226562 59.22765625 25.48828125 58.5078125 C23 53.2265625 23 53.2265625 23 51 C7.655 51.495 7.655 51.495 -8 52 C-10.31 57.28 -12.62 62.56 -15 68 C-19.29 68 -23.58 68 -28 68 C-27.11744861 63.58724303 -25.82562069 59.91324346 -24.04296875 55.83984375 C-23.5938765 54.79762161 -23.5938765 54.79762161 -23.13571167 53.73434448 C-22.15744574 51.46676761 -21.1724939 49.2021614 -20.1875 46.9375 C-19.51114489 45.37285277 -18.83528653 43.80799071 -18.15991211 42.24291992 C-16.78351801 39.05458573 -15.40482386 35.86726158 -14.02441406 32.68066406 C-11.28233641 26.3465333 -8.56624791 20.00131113 -5.85122681 13.6555481 C-4.60125348 10.73468762 -3.34938012 7.81464187 -2.09765625 4.89453125 C-1.40542969 3.27933594 -0.71320313 1.66414063 0 0 Z M7 16 C5.88933877 18.30956678 4.78646653 20.62237333 3.6875 22.9375 C3.37876953 23.57751953 3.07003906 24.21753906 2.75195312 24.87695312 C0.38207044 29.89112597 -1.21656202 34.64968607 -3 40 C3.93 40 10.86 40 18 40 C16.741875 36.7825 15.48375 33.565 14.1875 30.25 C13.79715576 29.24227539 13.40681152 28.23455078 13.00463867 27.19628906 C12.6872876 26.39416992 12.36993652 25.59205078 12.04296875 24.765625 C11.72352295 23.94868164 11.40407715 23.13173828 11.07495117 22.29003906 C9.96356766 19.9223858 8.63779925 18.03144216 7 16 Z " fill="#FC5055" transform="translate(439,112)"/>
<path d="M0 0 C0.99 1.98 0.99 1.98 2 4 C-0.31 6.64 -2.62 9.28 -5 12 C-7.44635625 11.04385372 -9.85234647 10.07122723 -12.21875 8.9296875 C-19.8827333 5.38640755 -27.75998713 4.28380787 -35.91015625 6.953125 C-40.65541152 9.16152068 -44.26996463 11.41354058 -47 16 C-47.5775 16.94875 -48.155 17.8975 -48.75 18.875 C-51.34434976 25.39670797 -51.07641449 33.83530108 -49.34375 40.5390625 C-46.7495216 46.33134833 -42.1031215 50.28511707 -36.625 53.3125 C-27.50068453 55.70220167 -19.02192325 55.20598441 -10.52734375 50.68359375 C-9.17041337 49.81919709 -7.83206369 48.92419745 -6.5234375 47.98828125 C-5 47 -5 47 -3 47 C-1.45703125 48.609375 -1.45703125 48.609375 0.1875 50.75 C0.73792969 51.44609375 1.28835938 52.1421875 1.85546875 52.859375 C3 55 3 55 2.89453125 57.10546875 C0.89071031 61.349369 -4.16052411 63.24748713 -8.3203125 64.94921875 C-20.85054741 69.30294444 -33.59141095 69.37300618 -45.7734375 63.7109375 C-54.39801132 58.86770836 -59.49072549 52.8842985 -63.08203125 43.64453125 C-66.16931151 31.38737173 -64.89732338 18.83407851 -58.78515625 7.80859375 C-54.20874399 0.81795821 -47.0281156 -3.49799079 -39.3125 -6.375 C-25.73879729 -8.93607598 -11.58858912 -8.38067518 0 0 Z " fill="#003790" transform="translate(281,18)"/>
<path d="M0 0 C6.744375 -0.0825 13.48875 -0.165 20.4375 -0.25 C22.54825928 -0.28641602 24.65901855 -0.32283203 26.83374023 -0.36035156 C28.53368111 -0.37204967 30.23363331 -0.38223883 31.93359375 -0.390625 C33.2248114 -0.4213208 33.2248114 -0.4213208 34.54211426 -0.45263672 C41.42849748 -0.45654555 47.69712169 0.95288305 52.88597107 5.7399292 C57.92121618 11.24913042 59.4475387 16.02217996 59.23828125 23.4453125 C58.55226273 30.80033069 55.78538343 34.78699625 50.23046875 39.5546875 C45.31222793 42.74163864 40.61625618 43.24458339 34.8515625 43.1953125 C34.19417084 43.1924826 33.53677917 43.18965271 32.85946655 43.18673706 C30.78111767 43.17563447 28.70321634 43.15054986 26.625 43.125 C25.20703752 43.11495731 23.78906821 43.10583373 22.37109375 43.09765625 C18.91375571 43.0774379 15.45737265 43.0382735 12 43 C12 51.25 12 59.5 12 68 C8.04 68 4.08 68 0 68 C0 45.56 0 23.12 0 0 Z M12 11 C12 17.93 12 24.86 12 32 C16.02124276 32.08120685 20.04083232 32.1406066 24.0625 32.1875 C25.19623047 32.21263672 26.32996094 32.23777344 27.49804688 32.26367188 C33.75895644 32.31843202 38.55435746 32.24019508 44 29 C46.67673561 24.98489659 46.6923699 21.71837262 46 17 C43.58756676 13.51537421 40.94831885 12.32376286 37 11 C34.10185651 10.72725893 34.10185651 10.72725893 31.04296875 10.8046875 C29.93115234 10.81113281 28.81933594 10.81757812 27.67382812 10.82421875 C25.9480957 10.84935547 25.9480957 10.84935547 24.1875 10.875 C22.43276367 10.88853516 22.43276367 10.88853516 20.64257812 10.90234375 C17.76163084 10.92586169 14.88078911 10.96173121 12 11 Z " fill="#FC5055" transform="translate(354,112)"/>
<path d="M0 0 C5.03841567 -0.85673465 10.05823761 -1.5701992 15 0 C19.26757907 3.12707322 22.02820534 7.79214275 24.83056641 12.19970703 C26.46436813 14.71487486 28.31276882 17.0362635 30.1875 19.375 C31.12537819 20.58303982 32.06305076 21.79123955 33 23 C37.47889872 18.72624168 41.34843476 14.05005848 45.25 9.25 C46.50482099 7.71322531 47.76000937 6.1767505 49.015625 4.640625 C49.83981934 3.62790527 49.83981934 3.62790527 50.68066406 2.59472656 C52 1 52 1 53 0 C55.53049402 -0.07313567 58.03304837 -0.09247527 60.5625 -0.0625 C61.62887695 -0.05573242 61.62887695 -0.05573242 62.71679688 -0.04882812 C64.47790013 -0.03700864 66.23896036 -0.01907263 68 0 C59.94768304 10.8815094 51.48211007 21.4520465 43 32 C44.42494761 36.25943799 46.50668937 39.05651685 49.4375 42.4375 C50.33502767 43.48813827 51.23079018 44.54028643 52.125 45.59375 C52.59292969 46.14417969 53.06085937 46.69460937 53.54296875 47.26171875 C56.06725524 50.27326697 58.50575511 53.3510703 60.9375 56.4375 C61.39761475 57.0162085 61.85772949 57.59491699 62.33178711 58.19116211 C64.80706803 61.34006358 67.02585294 64.51429479 69 68 C56.85706287 69.91730586 56.85706287 69.91730586 52.33886719 66.88525391 C49.16603804 63.87013849 46.67797613 60.34403683 44.21679688 56.74072266 C42.3989843 54.14020025 40.34855602 51.74366479 38.3125 49.3125 C35 45.25651303 35 45.25651303 35 43 C31.09586861 46.79648071 27.52146167 50.78592907 24 54.9375 C23.49210937 55.53240234 22.98421875 56.12730469 22.4609375 56.74023438 C21.95820313 57.32998047 21.45546875 57.91972656 20.9375 58.52734375 C20.43951904 59.10387695 19.94153809 59.68041016 19.4284668 60.27441406 C17.98495176 61.97005217 17.98495176 61.97005217 16.76879883 63.76464844 C14.47132969 66.96531929 13.4018161 67.93369371 9.44921875 68.5859375 C8.20785156 68.51632813 6.96648437 68.44671875 5.6875 68.375 C4.43324219 68.32085937 3.17898438 68.26671875 1.88671875 68.2109375 C0.93410156 68.14132813 -0.01851563 68.07171875 -1 68 C0.32116254 65.19020361 1.8019651 62.77660999 3.6875 60.3125 C4.21714355 59.61922607 4.74678711 58.92595215 5.29248047 58.21166992 C6.13770264 57.11689331 6.13770264 57.11689331 7 56 C7.86262451 54.8713855 7.86262451 54.8713855 8.74267578 53.7199707 C11.45613955 50.19321842 14.20082546 46.71709846 17.1171875 43.35546875 C17.58511719 42.81470703 18.05304688 42.27394531 18.53515625 41.71679688 C19.8001469 40.27293728 21.0831422 38.84490937 22.3671875 37.41796875 C24.16394321 35.21988282 24.16394321 35.21988282 24.0625 33.07421875 C22.46533264 29.95621923 20.32969744 27.32509708 18.125 24.625 C17.13016799 23.38154269 16.1353776 22.13805209 15.140625 20.89453125 C14.62564453 20.25596191 14.11066406 19.61739258 13.58007812 18.95947266 C10.99663341 15.7557138 8.43258769 12.53691468 5.875 9.3125 C5.4020752 8.72484863 4.92915039 8.13719727 4.44189453 7.53173828 C2.45025806 5.0232894 1.02200541 3.06601622 0 0 Z " fill="#FC5055" transform="translate(486,112)"/>
<path d="M0 0 C1.4609375 1.28125 1.4609375 1.28125 2.4609375 4.28125 C1.24609375 6.32421875 1.24609375 6.32421875 -0.4765625 8.46875 C-1.04246094 9.18417969 -1.60835938 9.89960937 -2.19140625 10.63671875 C-2.85849609 11.45076172 -2.85849609 11.45076172 -3.5390625 12.28125 C-4.10753906 11.99507812 -4.67601562 11.70890625 -5.26171875 11.4140625 C-6.01324219 11.04023437 -6.76476562 10.66640625 -7.5390625 10.28125 C-8.23902344 9.92804688 -8.93898438 9.57484375 -9.66015625 9.2109375 C-17.15658617 5.7977232 -24.88232017 4.72172397 -32.93359375 6.94140625 C-38.95581175 9.60131515 -43.00444592 14.21201683 -45.9140625 20.03125 C-47.58553008 28.72288141 -47.05466155 36.52619946 -42.5390625 44.28125 C-38.52123689 49.23815319 -32.59279702 51.67020913 -26.4140625 52.6015625 C-19.44658503 52.97482022 -11.9688332 50.90844182 -6.40234375 46.64453125 C-4.5390625 45.28125 -4.5390625 45.28125 -1.5390625 45.28125 C0.06640625 47.25 0.06640625 47.25 1.6484375 49.78125 C2.17824219 50.6165625 2.70804687 51.451875 3.25390625 52.3125 C3.65222656 52.9621875 4.05054688 53.611875 4.4609375 54.28125 C-3.76464015 62.50682765 -12.77800694 64.65701832 -24.1640625 64.78125 C-35.08396684 64.66182521 -43.43253235 61.80874229 -51.5390625 54.28125 C-58.15228456 47.11692611 -60.10069138 38.36870192 -59.9765625 28.84375 C-59.96753906 28.01117676 -59.95851562 27.17860352 -59.94921875 26.32080078 C-59.67043201 16.42193567 -56.80218498 9.57140212 -49.95703125 2.328125 C-35.71678701 -9.72662133 -15.42724028 -9.82305912 0 0 Z " fill="#FC5055" transform="translate(276.5390625,116.71875)"/>
<path d="M0 0 C19.8 0 39.6 0 60 0 C60 3.63 60 7.26 60 11 C52.08 11 44.16 11 36 11 C36 29.81 36 48.62 36 68 C32.04 68 28.08 68 24 68 C24 49.19 24 30.38 24 11 C16.08 11 8.16 11 0 11 C0 7.37 0 3.74 0 0 Z " fill="#FC5055" transform="translate(285,112)"/>
</svg>
