<?xml version="1.0" encoding="UTF-8"?>
<svg version="1.1" xmlns="http://www.w3.org/2000/svg" width="3040" height="653">
<path d="M0 0 C0.33 -12.21 0.66 -24.42 1 -37 C49.84 -37 98.68 -37 149 -37 C149 155.72 149 348.44 149 547 C100.16 547 51.32 547 1 547 C1 534.79 1 522.58 1 510 C-4.630625 512.908125 -4.630625 512.908125 -10.375 515.875 C-39.79729027 530.72324894 -70.47651929 539.90735533 -103 545 C-103.82081055 545.13277344 -104.64162109 545.26554688 -105.48730469 545.40234375 C-178.2391136 556.61916661 -256.28514751 534.64987802 -315.2421875 491.80078125 C-320.31890026 488.04848355 -325.19577255 484.09427705 -330 480 C-331.08397548 479.10076639 -332.16864879 478.20237351 -333.25390625 477.3046875 C-345.10689317 467.42161948 -356.36506583 456.79482789 -365.9140625 444.63671875 C-367.32409788 442.85437066 -368.77924746 441.10694492 -370.2734375 439.39453125 C-419.63397177 382.76569825 -438.58500075 305.69102912 -434.79785156 232.0703125 C-432.94885044 206.78435002 -427.38927992 181.8867673 -419 158 C-418.54781719 156.65637107 -418.09596964 155.31262923 -417.64453125 153.96875 C-404.93260756 117.24489196 -383.20741681 84.39516638 -357 56 C-356.09386355 54.99195253 -355.18898141 53.98277657 -354.28515625 52.97265625 C-349.1489008 47.25488782 -343.90380203 41.93177223 -338 37 C-337.01902344 36.13117188 -336.03804688 35.26234375 -335.02734375 34.3671875 C-259.27720263 -32.57090657 -152.02486905 -53.06505573 0 0 Z M-247 135 C-247.97710937 135.84304687 -248.95421875 136.68609375 -249.9609375 137.5546875 C-279.68837746 163.671546 -298.92150351 202.2635038 -301.87109375 241.77099609 C-303.555476 270.89677247 -298.86827398 298.71499071 -286 325 C-285.55599854 325.93054199 -285.55599854 325.93054199 -285.10302734 326.87988281 C-277.61623861 342.43590089 -266.98368951 355.66539718 -255 368 C-254.47156494 368.55107422 -253.94312988 369.10214844 -253.39868164 369.66992188 C-242.3009423 381.05479345 -229.10525631 389.8038069 -215 397 C-214.39510742 397.31662598 -213.79021484 397.63325195 -213.16699219 397.95947266 C-176.7368047 416.88617072 -132.91683415 418.82107704 -94.078125 406.73046875 C-60.23028486 395.56171266 -30.67408431 372.95615143 -10.6875 343.5 C-10.31536377 342.95625732 -9.94322754 342.41251465 -9.55981445 341.85229492 C-8.80001575 340.69196923 -8.07441374 339.50872245 -7.37960815 338.30834961 C-6 336 -6 336 -4.26472473 333.58918762 C3.26952018 321.53299535 2.06426247 307.8244833 2.00614166 294.08182311 C1.99785538 291.1623673 2.01140167 288.24316584 2.02465248 285.32374078 C2.05554854 278.42450227 2.0507121 271.52594083 2.02246094 264.62670898 C1.99409115 257.55736567 2.02394671 250.48999028 2.08308029 243.42088145 C2.13225487 237.30729024 2.14576728 231.19430723 2.1314888 225.08053571 C2.12327068 221.44848074 2.12732581 217.81764065 2.16552734 214.18575096 C2.32129547 197.75738531 1.81798702 184.64408267 -8 171 C-8.8627476 169.70843559 -9.72115616 168.41396219 -10.57519531 167.11662292 C-15.53313797 159.61658197 -21.33480533 152.92115991 -27.57910156 146.47216797 C-29.01336139 144.9861565 -30.42457776 143.48039917 -31.8359375 141.97265625 C-58.76653444 113.64501753 -98.23879385 97.60668212 -137 96 C-138.36898437 95.938125 -138.36898437 95.938125 -139.765625 95.875 C-178.96035417 94.99914013 -217.54905449 109.28346833 -247 135 Z " fill="#40B5E5" transform="translate(435,37)"/>
<path d="M0 0 C48.84 0 97.68 0 148 0 C148 192.72 148 385.44 148 584 C99.16 584 50.32 584 0 584 C0 391.28 0 198.56 0 0 Z " fill="#003D81" transform="translate(436,0)"/>
<path d="M0 0 C17.26831202 15.1113972 27.16726245 35.82305894 29.125 58.6875 C30.63313369 85.50528591 25.21831573 110.03902136 7.125 130.6875 C6.53203125 131.37585938 5.9390625 132.06421875 5.328125 132.7734375 C-9.07573541 148.34684213 -32.79779476 157.91745251 -53.79223633 158.81176758 C-83.25858415 159.50979694 -111.14699722 155.47018155 -133.31958008 134.38549805 C-144.79860239 123.00563126 -153.51991895 108.66407643 -156.875 92.6875 C-156.875 91.6975 -156.875 90.7075 -156.875 89.6875 C-165.455 89.6875 -174.035 89.6875 -182.875 89.6875 C-182.875 110.8075 -182.875 131.9275 -182.875 153.6875 C-199.375 153.6875 -215.875 153.6875 -232.875 153.6875 C-232.875 97.5875 -232.875 41.4875 -232.875 -16.3125 C-216.375 -16.3125 -199.875 -16.3125 -182.875 -16.3125 C-182.875 4.8075 -182.875 25.9275 -182.875 47.6875 C-174.295 47.6875 -165.715 47.6875 -156.875 47.6875 C-156.545 45.8725 -156.215 44.0575 -155.875 42.1875 C-153.22444515 30.69338776 -147.57938688 19.63009191 -139.875 10.6875 C-139.3284375 9.98753906 -138.781875 9.28757812 -138.21875 8.56640625 C-123.81562806 -9.04080002 -100.83302711 -18.2552114 -78.7578125 -20.99609375 C-50.84782091 -23.2704492 -22.02995265 -18.40637062 0 0 Z M-98.0546875 35.21484375 C-106.50284461 46.69055931 -109.19406942 61.72611354 -107.875 75.6875 C-105.63941582 90.14639674 -100.146041 103.4519742 -88.125 112.375 C-78.16601141 119.03884318 -67.65082385 120.77239996 -55.875 118.6875 C-45.46631473 116.16798254 -36.93138266 110.56715879 -30.875 101.6875 C-21.99679055 86.89048424 -19.33484041 70.26945957 -22.9375 53.375 C-26.52247161 41.33616512 -33.02176913 30.36581008 -43.9765625 23.83984375 C-63.90558084 13.58440001 -83.63207067 18.27533888 -98.0546875 35.21484375 Z " fill="#003D81" transform="translate(2298.875,98.3125)"/>
<path d="M0 0 C19.47 0 38.94 0 59 0 C68.625 23.625 68.625 23.625 73.289505 35.07481384 C77.80271711 46.15313331 82.31676174 57.23111261 86.83203125 68.30859375 C95.07417046 88.53062363 103.31439928 108.75330354 111.50845337 128.99487305 C116.43438178 141.16171757 121.39335232 153.31488938 126.35943604 165.46539307 C133.70514729 183.44192677 141.03495987 201.42495981 148.3258667 219.42379761 C149.27228839 221.75886284 150.21991278 224.09344097 151.16876221 226.42752075 C152.48564137 229.66778638 153.79809961 232.90980711 155.109375 236.15234375 C155.50520782 237.12384369 155.90104065 238.09534363 156.30886841 239.09628296 C156.66552582 239.98095245 157.02218323 240.86562195 157.38964844 241.77709961 C157.70238708 242.54863876 158.01512573 243.32017792 158.33734131 244.11509705 C159 246 159 246 159 248 C140.52 248 122.04 248 103 248 C99.90625 240.059375 96.8125 232.11875 93.625 223.9375 C92.65127441 221.4430835 91.67754883 218.94866699 90.67431641 216.37866211 C89.89981709 214.3866524 89.12555024 212.39455228 88.3515625 210.40234375 C87.95155029 209.38015747 87.55153809 208.35797119 87.1394043 207.30480957 C86.75389404 206.31082153 86.36838379 205.3168335 85.97119141 204.29272461 C85.63809967 203.43778915 85.30500793 202.5828537 84.96182251 201.70201111 C83.82788041 198.51647104 82.92892676 195.25124366 82 192 C47.35 192.33 12.7 192.66 -23 193 C-29.1633231 209.22967565 -29.1633231 209.22967565 -35.32568359 225.4597168 C-36.09990007 227.49789734 -36.87414917 229.5360655 -37.6484375 231.57421875 C-38.04844971 232.62822876 -38.44846191 233.68223877 -38.8605957 234.76818848 C-39.24610596 235.78272095 -39.63161621 236.79725342 -40.02880859 237.8425293 C-40.5284462 239.15824165 -40.5284462 239.15824165 -41.03817749 240.50053406 C-42.00343939 243.00893787 -43.00180713 245.50451784 -44 248 C-62.48 248 -80.96 248 -100 248 C-99.26653979 244.33269895 -98.56664654 241.62325127 -97.18432617 238.25292969 C-96.8077034 237.32839493 -96.43108063 236.40386017 -96.04304504 235.4513092 C-95.63051987 234.45159592 -95.21799469 233.45188263 -94.79296875 232.421875 C-94.36066452 231.36411362 -93.92836029 230.30635223 -93.48295593 229.21653748 C-92.05527044 225.72598347 -90.6213653 222.23801945 -89.1875 218.75 C-88.18526878 216.30267073 -87.18348421 213.8551585 -86.18212891 211.4074707 C-84.12453108 206.37893865 -82.06434381 201.35147544 -80.00244141 196.32470703 C-76.02023633 186.61517441 -72.05824532 176.89740801 -68.09555054 167.17990112 C-66.04419889 162.15064031 -63.990787 157.1222209 -61.9375 152.09375 C-58.60317019 143.92748976 -55.26991117 135.76079336 -51.9375 127.59375 C-50.67084512 124.48960655 -49.40417086 121.38547101 -48.13748169 118.28134155 C-47.29686075 116.22131327 -46.45626417 114.16127504 -45.61569214 112.10122681 C-41.22013761 101.32922605 -36.82136378 90.5585702 -32.41015625 79.79296875 C-21.52622172 53.22743448 -10.74507773 26.62213288 0 0 Z M29 53 C28.81224503 53.51394821 28.62449005 54.02789642 28.43104553 54.55741882 C25.97857041 61.26880481 23.52151 67.9785058 21.0625 74.6875 C20.66371643 75.77580109 20.26493286 76.86410217 19.85406494 77.98538208 C13.07470454 96.4743157 6.16273152 114.91022827 -0.86694336 133.30541992 C-1.54931968 135.09814329 -2.2316929 136.89086783 -2.9140625 138.68359375 C-3.22881027 139.5021283 -3.54355804 140.32066284 -3.86784363 141.16400146 C-5.43471381 144.9733172 -5.43471381 144.9733172 -6 149 C17.43 149 40.86 149 65 149 C62.57373819 140.85451408 62.57373819 140.85451408 59.79858398 132.87719727 C59.39063095 131.78387589 58.98267792 130.6905545 58.56236267 129.56410217 C58.12799393 128.40986252 57.69362518 127.25562286 57.24609375 126.06640625 C56.54174274 124.18235608 55.8373919 122.29830584 55.13304996 120.41425228 C54.15019288 117.7877518 53.16432416 115.16238573 52.17852783 112.5369873 C50.96789552 109.31122705 49.76031893 106.08432406 48.55273438 102.85742188 C48.07370395 101.5774216 47.59466953 100.29742282 47.1156311 99.01742554 C46.87907429 98.38532543 46.64251747 97.75322533 46.39879227 97.10197067 C45.68607343 95.1980304 44.97288927 93.29426497 44.25961304 91.39053345 C39.47119238 78.60671635 34.7306683 65.80529621 30 53 C29.67 53 29.34 53 29 53 Z " fill="#003D81" transform="translate(1113,4)"/>
<path d="M0 0 C0.17321862 6.17457769 0.30015058 12.34773795 0.38452148 18.52416992 C0.41969477 20.62435543 0.46744308 22.72436989 0.52807617 24.82397461 C0.61313411 27.84531831 0.65271864 30.86439513 0.68359375 33.88671875 C0.71972275 34.82335861 0.75585175 35.75999847 0.79307556 36.72502136 C0.79686441 43.03504247 0.79686441 43.03504247 -1.36201477 45.64932251 C-13.50812103 54.86230906 -32.9266689 56.19152282 -47.4375 59 C-86.07574902 65.42909474 -86.07574902 65.42909474 -115.75 89.03515625 C-117.61638132 91.96887439 -119.34371491 94.94224291 -121 98 C-120.175 97.61328125 -119.35 97.2265625 -118.5 96.828125 C-106.96401357 91.62663112 -94.75621596 87.54432832 -82 87 C-81.21238281 86.96003906 -80.42476562 86.92007813 -79.61328125 86.87890625 C-52.32649762 86.18552012 -26.18348285 94.6333307 -6.1875 113.4375 C8.98308013 129.52862504 15.43831659 151.22699297 15 173 C13.99344599 194.6385032 6.5774448 214.67179432 -9 230 C-31.59882993 250.33894694 -60.65163218 254.50267673 -90 253 C-112.93652293 250.79281476 -135.3567647 240.25360019 -150.30664062 222.44335938 C-163.17673297 206.00612332 -169.08785702 186.67512095 -169.203125 165.98828125 C-169.21013931 165.14598465 -169.21715363 164.30368805 -169.22438049 163.43586731 C-169.24181347 160.72802341 -169.24823381 158.02039797 -169.25 155.3125 C-169.25067474 154.38926941 -169.25134949 153.46603882 -169.25204468 152.51483154 C-169.23648661 139.14390987 -168.97301027 126.09492732 -166 113 C-165.81775879 112.18499023 -165.63551758 111.36998047 -165.44775391 110.53027344 C-160.76682942 90.20325132 -153.3384133 71.25972962 -140 55 C-138.96939453 53.70449219 -138.96939453 53.70449219 -137.91796875 52.3828125 C-128.28284918 40.90647342 -115.78259916 33.48417558 -102 28 C-101.37303223 27.74798828 -100.74606445 27.49597656 -100.10009766 27.23632812 C-80.39875147 19.5377559 -58.7849687 16.23102318 -38.0625 12.375 C-27.48029572 10.39013213 -9.09278444 0 0 0 Z M-108.8125 136 C-118.29681181 146.22581255 -122.57637128 159.35449378 -122.24609375 173.1484375 C-121.10806781 186.33508729 -115.94775624 197.48226478 -105.79296875 206.0546875 C-95.29914033 213.36367568 -83.51132478 215.13936878 -71 214 C-58.42557198 211.58184077 -48.36014568 205.56718083 -41 195 C-34.58103699 182.3372814 -32.66796992 168.85463804 -36.625 155.0625 C-40.92669973 143.04172236 -47.58724326 134.00531287 -59.125 128.125 C-76.32728868 121.02755222 -94.93796136 123.37181822 -108.8125 136 Z " fill="#003D81" transform="translate(1446,4)"/>
<path d="M0 0 C22.90628228 -0.72246159 44.03249078 7.94588124 60.91796875 23.12109375 C61.57539062 23.70761719 62.2328125 24.29414063 62.91015625 24.8984375 C77.20434494 38.3985046 86.50405077 59.01469438 87.15625 78.61328125 C87.57126368 102.22459549 83.0770462 123.13135828 66.91796875 141.12109375 C66.13421875 142.15234375 65.35046875 143.18359375 64.54296875 144.24609375 C51.21918483 158.83880947 30.40076333 169.19207445 10.63916016 170.2421875 C-14.226318 171.1961671 -35.91582151 165.33304404 -55.14453125 148.99609375 C-69.93295916 135.12313995 -80.96734008 115.84237704 -82.2590332 95.30712891 C-82.84774459 67.47585653 -77.47846047 45.25934717 -57.89453125 24.49609375 C-41.96868618 9.22585808 -21.87194175 1.27210168 0 0 Z " fill="#003D81" transform="translate(748.08203125,418.87890625)"/>
<path d="M0 0 C19.78211608 16.6991889 30.30479754 37.18028792 32.54125977 62.89819336 C34.22792879 88.58117857 27.93435909 112.88297424 11.10498047 132.71826172 C-4.54100474 150.50396987 -28.16002349 159.87060851 -51.46972656 161.40332031 C-80.26610013 162.53819299 -107.18264983 156.99966127 -129.52734375 137.78125 C-146.5688763 121.16513015 -155.13851553 99.58558395 -155.48022461 75.85595703 C-155.60167939 51.40606056 -151.58580001 30.23518521 -135.1875 11.1875 C-134.51203125 10.39988281 -133.8365625 9.61226562 -133.140625 8.80078125 C-100.74677755 -26.08958452 -36.97663618 -28.56761923 0 0 Z M-86.1875 29.1875 C-86.991875 29.72375 -87.79625 30.26 -88.625 30.8125 C-98.55206812 40.01319728 -103.85453699 53.33367723 -104.5234375 66.73046875 C-104.8368945 82.81612259 -101.85308322 97.30543109 -90.93359375 109.7578125 C-83.10476595 117.37301257 -73.86750895 121.74711993 -62.8984375 122.25 C-51.32579771 121.98319562 -40.98208438 118.03470596 -32.375 110.1875 C-22.27059147 99.23952923 -17.38412818 83.88720155 -17.90625 69.09375 C-19.45413964 53.0988904 -24.28129331 40.2592546 -36.1875 29.1875 C-50.59141347 17.50713352 -71.66890145 18.12571063 -86.1875 29.1875 Z " fill="#003D81" transform="translate(1805.1875,95.8125)"/>
<path d="M0 0 C44.22 0 88.44 0 134 0 C134 56.1 134 112.2 134 170 C117.5 170 101 170 84 170 C84 127.76 84 85.52 84 42 C70.8 42.33 57.6 42.66 44 43 C43.03578125 48.46820313 42.0715625 53.93640625 41.078125 59.5703125 C40.45913997 63.06134529 39.83972024 66.55228995 39.21875 70.04296875 C38.23601896 75.56746129 37.25479435 81.09218825 36.28320312 86.61865234 C35.49862554 91.08077437 34.70674243 95.54154651 33.91005707 100.00152206 C33.60934756 101.6920572 33.31114757 103.38304098 33.01566315 105.07449722 C29.08057874 127.57501003 23.88891564 148.26584007 5.3046875 163.16015625 C-10.50713912 174.01638123 -27.72917984 174.04513669 -46 171 C-46 156.81 -46 142.62 -46 128 C-40.555 127.505 -40.555 127.505 -35 127 C-29.73606311 125.05039374 -25.69515889 122.11324899 -22.96365356 117.09669495 C-20.41371652 111.5117026 -18.99606704 106.19384855 -17.9921875 100.15234375 C-17.82506256 99.20630783 -17.65793762 98.26027191 -17.48574829 97.28556824 C-16.93806387 94.17131981 -16.40663255 91.054525 -15.875 87.9375 C-15.49274286 85.74897514 -15.10925522 83.56066489 -14.72460938 81.37255859 C-13.90714268 76.7149346 -13.09561294 72.05632992 -12.28808594 67.39697266 C-10.28858348 55.88341108 -8.22687882 44.38089047 -6.16998291 32.87747192 C-5.50663092 29.16213876 -4.84643541 25.4462568 -4.18701172 21.73022461 C-3.78095345 19.44774875 -3.37486763 17.1652778 -2.96875 14.8828125 C-2.78373932 13.83715622 -2.59872864 12.79149994 -2.40811157 11.7141571 C-2.23669647 10.75290421 -2.06528137 9.79165131 -1.88867188 8.80126953 C-1.7403894 7.96612823 -1.59210693 7.13098694 -1.43933105 6.27053833 C-1.03193656 4.16505363 -0.52012646 2.08050584 0 0 Z " fill="#003D81" transform="translate(1893,82)"/>
<path d="M0 0 C18.50806268 14.33739437 29.59657831 35.3226944 32.68359375 58.43359375 C35.10625475 85.74087146 28.87484747 110.55826541 11.1875 131.8125 C-2.99716793 146.89245269 -23.33551711 156.41873207 -44.05859375 157.203125 C-71.04636833 157.68565326 -90.82696732 149.49194663 -111 131 C-111.33 163.01 -111.66 195.02 -112 228 C-121.24 228 -130.48 228 -140 228 C-140 149.13 -140 70.26 -140 -11 C-131.42 -11 -122.84 -11 -114 -11 C-113.67 -3.08 -113.34 4.84 -113 13 C-111.63875 11.535625 -110.2775 10.07125 -108.875 8.5625 C-79.77153027 -20.499805 -33.46835443 -22.97697908 0 0 Z M-103.17578125 35.625 C-111.34137333 46.25600639 -112.29144007 54.70996358 -112.4050293 67.71191406 C-112.42651186 69.55650669 -112.46049778 71.4010001 -112.50756836 73.24511719 C-112.7848863 84.22335499 -112.91244161 92.86910703 -106 102 C-105.29617188 103.04414062 -104.59234375 104.08828125 -103.8671875 105.1640625 C-92.00465426 119.81778003 -76.65383258 128.37885256 -58 131 C-42.96064313 132.49150647 -28.28800129 127.73411859 -16.14453125 118.9296875 C-10.04403824 113.77980081 -5.81944758 107.97508743 -2 101 C-1.60039063 100.29488281 -1.20078125 99.58976563 -0.7890625 98.86328125 C7.36041396 82.77878823 6.30949317 63.37047882 0.93359375 46.69140625 C-1.69891544 39.87120918 -5.14643186 34.44315559 -10 29 C-10.52207031 28.38511719 -11.04414062 27.77023437 -11.58203125 27.13671875 C-20.91170697 16.89904539 -34.39373814 11.57353197 -48.0546875 10.65625 C-70.01256869 9.83500103 -88.96922988 19.02667629 -103.17578125 35.625 Z " fill="#41B6E6" transform="translate(1514,425)"/>
<path d="M0 0 C16.231875 -0.061875 32.46375 -0.12375 49.1875 -0.1875 C54.28985107 -0.21481201 59.39220215 -0.24212402 64.64916992 -0.27026367 C70.93811035 -0.28381348 70.93811035 -0.28381348 73.89350891 -0.28633118 C75.93295767 -0.29090146 77.97239894 -0.30137598 80.01179504 -0.31672668 C97.78618711 -0.44368724 114.60965665 -0.06008427 128.67578125 12.36328125 C138.03490793 22.21257496 141.58404771 33.6639516 141.2421875 47.1484375 C140.32212295 57.98145556 136.71368069 67.78592573 128.54296875 75.2421875 C126.40841339 76.91621674 124.25880321 78.49925319 122 80 C122.64066406 80.42410156 123.28132813 80.84820312 123.94140625 81.28515625 C134.77145052 88.62892695 142.93391924 96.44562849 145.71875 109.75390625 C147.44794723 123.56346747 145.03357812 137.39747899 136.4375 148.5625 C127.26857642 158.60247132 114.22019549 162.82014678 101 164 C97.60585172 164.1297421 94.21659389 164.12684556 90.8203125 164.11352539 C89.81821747 164.11364593 88.81612244 164.11376646 87.78366089 164.11389065 C84.56408408 164.11314874 81.34456635 164.10555361 78.125 164.09765625 C76.12760445 164.09618459 74.13020851 164.09516526 72.1328125 164.09460449 C64.75520242 164.08937755 57.37760062 164.07541629 50 164.0625 C25.25 164.0315625 25.25 164.0315625 0 164 C0 109.88 0 55.76 0 0 Z M28 25 C28 39.52 28 54.04 28 69 C39.17967749 69.05824008 39.17967749 69.05824008 50.359375 69.09765625 C54.92387585 69.10957896 59.48829591 69.12363366 64.05273438 69.15087891 C67.73560976 69.17272274 71.41839842 69.18459279 75.10133362 69.18975449 C76.50144311 69.19342964 77.90154824 69.20060595 79.30162048 69.21146011 C89.63731416 69.28835002 98.29974445 69.02325384 107 63 C112.45272421 55.96885562 112.7183398 49.66112555 112 41 C110.36084596 34.87785839 106.34394718 30.31620437 101 27 C96.57692962 25.25727193 92.9093818 24.75505894 88.16845703 24.77294922 C87.51409164 24.77265717 86.85972626 24.77236511 86.18553162 24.77206421 C84.04281924 24.77344712 81.90046343 24.78895853 79.7578125 24.8046875 C78.2642333 24.80842134 76.77065163 24.81126656 75.27706909 24.81326294 C71.36109562 24.82087022 67.44527236 24.84049347 63.52935791 24.8626709 C58.82280583 24.88680522 54.11620329 24.89592416 49.40960693 24.90757751 C42.27296706 24.92691981 35.1366563 24.96526235 28 25 Z M28 93 C28 108.18 28 123.36 28 139 C40.01951036 139.08739053 40.01951036 139.08739053 52.0390625 139.14648438 C56.94801677 139.16435406 61.8568017 139.18539614 66.765625 139.22631836 C70.72732513 139.25913478 74.68884343 139.2768995 78.6506691 139.28463173 C80.15520206 139.29013556 81.65972611 139.30088221 83.16418076 139.31719017 C93.85582926 139.42837913 104.47799574 139.30457508 113 132 C117.4168209 126.04936349 118.48548606 120.28229088 118 113 C116.66020361 106.95509188 114.59766786 102.29781996 110 98 C102.9733877 93.94768385 96.23010043 92.87126396 88.16845703 92.88647461 C87.51409164 92.88632858 86.85972626 92.88618256 86.18553162 92.8860321 C84.04292374 92.88672353 81.90040501 92.89447948 79.7578125 92.90234375 C78.26423185 92.90421067 76.77065058 92.90563328 75.27706909 92.90663147 C71.36114793 92.91043506 67.44526432 92.92024676 63.52935791 92.93133545 C58.82278214 92.94340267 54.11619377 92.94796209 49.40960693 92.95378876 C42.27304523 92.9634598 35.13656581 92.9826314 28 93 Z " fill="#41B6E6" transform="translate(2133,414)"/>
<path d="M0 0 C1 1 1 1 1.11352539 4.87719727 C1.11336621 6.60694167 1.10766849 8.33669081 1.09765625 10.06640625 C1.09553383 11.42934059 1.09553383 11.42934059 1.09336853 12.81980896 C1.08775193 15.73407221 1.07519665 18.64825981 1.0625 21.5625 C1.05748714 23.53320202 1.05292386 25.50390524 1.04882812 27.47460938 C1.03777711 32.31643559 1.02050138 37.15820495 1 42 C-2.59183171 40.59785311 -5.87376854 38.98675049 -9.25 37.125 C-24.78732137 29.38479595 -44.37271394 26.86573639 -61.1640625 31.8984375 C-75.40297248 37.42925377 -84.31461848 44.73813434 -90.58984375 58.62890625 C-95.77892341 71.03382521 -95.83265374 86.41460845 -91 99 C-84.98387438 111.57634529 -76.96305042 120.02490746 -63.92578125 125.2265625 C-45.56437213 131.38394698 -26.67441318 129.30210497 -9 122 C-6.50154641 120.73006779 -4.104937 119.41105528 -1.734375 117.91796875 C0 117 0 117 3 117 C3 130.53 3 144.06 3 158 C-4.82901657 161.26209024 -11.64123065 163.94939399 -19.75 165.75 C-20.63042969 165.95753906 -21.51085938 166.16507813 -22.41796875 166.37890625 C-50.69249598 172.89087017 -81.91219468 170.54116409 -107.37109375 156.0859375 C-126.68292059 143.73620874 -138.7857938 126.51644936 -144.2734375 104.375 C-149.54418526 79.89152651 -146.82175413 51.79194823 -133.6875 30.125 C-129.93676109 24.63049651 -125.65640063 19.74120263 -121 15 C-120.26265625 14.23816406 -119.5253125 13.47632812 -118.765625 12.69140625 C-107.93863458 2.20957156 -94.43821068 -4.14477097 -80 -8 C-78.84113281 -8.31839844 -77.68226562 -8.63679688 -76.48828125 -8.96484375 C-50.4829814 -14.96181513 -23.88416518 -11.29015748 0 0 Z " fill="#003D81" transform="translate(1628,88)"/>
<path d="M0 0 C3.73636136 3.20259545 7.145272 6.770272 10.625 10.25 C10.955 2.33 11.285 -5.59 11.625 -13.75 C20.205 -13.75 28.785 -13.75 37.625 -13.75 C37.625 40.37 37.625 94.49 37.625 150.25 C28.385 150.25 19.145 150.25 9.625 150.25 C9.295 142.99 8.965 135.73 8.625 128.25 C6.315 130.56 4.005 132.87 1.625 135.25 C-16.72661975 150.43754738 -39.09003071 155.63459216 -62.375 154.25 C-83.82106234 151.99967374 -103.4981761 141.68419466 -117.10546875 124.9921875 C-133.06705813 104.32988774 -138.16967679 78.37779106 -134.87890625 52.7109375 C-131.37820565 30.52666324 -120.05068725 11.0908758 -102.375 -2.75 C-70.88006027 -25.19420318 -30.38496629 -22.38892253 0 0 Z M-95.375 29.25 C-105.7726034 43.81861897 -109.31027569 61.21544163 -106.87890625 78.84765625 C-103.6178472 95.48458462 -96.37632034 109.21823735 -82.375 119.25 C-67.16602427 127.97192236 -51.11947918 130.44448954 -34.09375 126.4140625 C-22.51177513 122.78861238 -12.77661468 117.05960676 -4.375 108.25 C-3.65828125 107.52941406 -2.9415625 106.80882812 -2.203125 106.06640625 C8.20155604 95.09455274 10.61753483 85.66154169 10.40722656 70.93457031 C10.3750455 68.25378993 10.40703227 65.57903486 10.4453125 62.8984375 C10.47002576 52.95094524 9.78593343 45.48561151 3.625 37.25 C2.89796875 36.19425781 2.1709375 35.13851562 1.421875 34.05078125 C-9.91092098 20.27408079 -24.39956197 10.55877186 -42.375 8.25 C-63.17023454 6.55933053 -81.81450106 12.84579158 -95.375 29.25 Z " fill="#41B6E6" transform="translate(2433.375,427.75)"/>
<path d="M0 0 C5.31114735 4.32900286 10.15948717 9.15948717 15 14 C15.33 5.75 15.66 -2.5 16 -11 C24.25 -11 32.5 -11 41 -11 C41 43.12 41 97.24 41 153 C31.76 153 22.52 153 13 153 C12.67 145.74 12.34 138.48 12 131 C10.96875 132.134375 9.9375 133.26875 8.875 134.4375 C-6.64882034 149.93384455 -27.92129237 157.16915163 -49.5625 157.25 C-68.75432333 157.22230332 -85.6225693 151.46870783 -101 140 C-101.94552734 139.33097656 -101.94552734 139.33097656 -102.91015625 138.6484375 C-119.86022009 125.58526773 -128.76745056 103.61238682 -131.5859375 83.01171875 C-134.40910501 58.57284353 -128.71576839 33.97129515 -113.72998047 14.3359375 C-86.22870452 -19.97073894 -35.40293076 -24.51322619 0 0 Z M-91 31 C-101.97790063 44.35041395 -104.95589929 61.74775988 -103.7421875 78.57421875 C-101.7689134 93.7325516 -95.26976279 107.52826877 -84 118 C-70.32654725 128.37296416 -54.7855534 132.67751915 -37.7578125 130.60546875 C-19.1872346 127.34193182 -4.05916448 117.19650637 7.02734375 102.08984375 C11.44222096 95.17465984 13.62341954 89.94836854 13.63671875 81.671875 C13.64766068 80.80161682 13.6586026 79.93135864 13.6698761 79.034729 C13.68565711 77.20273722 13.69096197 75.37062799 13.6862793 73.53857422 C13.68749135 70.76976248 13.74726844 68.00628182 13.81054688 65.23828125 C13.92090311 54.21996511 13.03554884 46.87555825 6 38 C5.54439697 37.37657715 5.08879395 36.7531543 4.61938477 36.11083984 C-5.15848214 23.32605821 -20.26475488 14.08174089 -36.109375 11.31640625 C-57.87614809 8.93382703 -76.05556014 14.88599528 -91 31 Z " fill="#41B6E6" transform="translate(1698,425)"/>
<path d="M0 0 C1 1 1 1 1.11352539 3.86743164 C1.10828857 5.11903076 1.10305176 6.37062988 1.09765625 7.66015625 C1.09553383 8.65685585 1.09553383 8.65685585 1.09336853 9.6736908 C1.08775518 11.80333899 1.07520054 13.93288339 1.0625 16.0625 C1.05748671 17.50325369 1.05292351 18.94400903 1.04882812 20.38476562 C1.03778145 23.92321102 1.02050792 27.46159539 1 31 C0.50822266 30.75354736 0.01644531 30.50709473 -0.49023438 30.25317383 C-31.55676733 14.80283798 -64.58341212 8.60829086 -98.375 19.6875 C-110.83754683 24.02492142 -122.17938189 30.1005789 -132 39 C-133.26263672 40.12341797 -133.26263672 40.12341797 -134.55078125 41.26953125 C-150.76382076 56.49847124 -159.95467997 79.2272274 -161.12426758 101.35058594 C-161.81450701 123.95966701 -158.60579181 145.35717037 -145 164 C-144.39414063 164.85078125 -143.78828125 165.7015625 -143.1640625 166.578125 C-127.16853793 187.86196586 -101.05247637 198.39023238 -75.48046875 202.39453125 C-50.44210483 205.50875562 -24.90979193 201.13112353 -3.01171875 188.671875 C0 187 0 187 3 186 C3 195.9 3 205.8 3 216 C-31.45057391 233.39927975 -72.58844479 237.68068238 -109.54296875 225.6328125 C-140.98891843 214.56599759 -167.16154864 192.95346775 -181.75 162.75 C-196.32766234 131.06954178 -195.33024063 93.18672188 -183.50390625 60.85546875 C-172.21129834 31.17557834 -149.79243077 9.32198156 -121.18530273 -3.94384766 C-82.79543976 -21.02396915 -37.45921093 -18.2829535 0 0 Z " fill="#41B6E6" transform="translate(1195,350)"/>
<path d="M0 0 C1.32975713 1.1257603 2.64380368 2.27047811 3.9375 3.4375 C4.535625 3.94410156 5.13375 4.45070313 5.75 4.97265625 C19.29728176 17.28011981 25.82818437 36.71152875 27.08984375 54.59716797 C27.51937186 64.18638311 26.41562623 72.82967952 24.9375 82.4375 C-17.9625 82.4375 -60.8625 82.4375 -105.0625 82.4375 C-99.86741374 100.62030192 -94.94062366 111.56151771 -78.54882812 120.70629883 C-56.73628876 132.23421432 -29.27065014 131.92104707 -5.99609375 125.0078125 C-0.41953496 123.23206471 5.03392623 121.40496337 10.2578125 118.75 C12.9375 117.4375 12.9375 117.4375 15.9375 117.4375 C15.9375 126.3475 15.9375 135.2575 15.9375 144.4375 C-12.57504018 158.69377009 -48.5345165 160.92371298 -78.875 151.1875 C-100.09960608 143.5910865 -116.36201682 129.8587084 -126.0625 109.4375 C-135.57976322 87.04536039 -136.96769317 59.10297382 -128.20068359 36.18457031 C-124.6144521 27.39336112 -120.39230644 19.57181421 -114.0625 12.4375 C-113.61777344 11.85226562 -113.17304688 11.26703125 -112.71484375 10.6640625 C-87.02936123 -22.4350141 -31.88938247 -23.91703685 0 0 Z M-93.0625 27.4375 C-100.83734125 36.74181822 -103.72979052 45.44311469 -105.0625 57.4375 C-70.4125 57.4375 -35.7625 57.4375 -0.0625 57.4375 C-1.32299825 41.05102276 -4.20442401 31.82502029 -15.75 20.6875 C-20.6111886 16.62708859 -26.11783727 14.47203698 -32.0625 12.4375 C-33.13757812 12.06625 -33.13757812 12.06625 -34.234375 11.6875 C-54.26589631 6.09730801 -78.88023663 12.29372725 -93.0625 27.4375 Z " fill="#41B6E6" transform="translate(3013.0625,425.5625)"/>
<path d="M0 0 C9.24 0 18.48 0 28 0 C28.33 38.28 28.66 76.56 29 116 C34.95592018 108.96118524 40.87723665 101.94787671 46.6953125 94.8046875 C51.53019085 88.92088639 56.48419998 83.13652057 61.41601562 77.33398438 C66.90270514 70.87593074 72.33777129 64.38502384 77.6875 57.8125 C80.7243277 54.1190609 83.81960955 50.47701514 86.91625977 46.83374023 C89.7954532 43.44045891 92.63204237 40.01732214 95.4375 36.5625 C99.39017006 31.70474628 103.45548069 26.95317233 107.54296875 22.20922852 C111.42325148 17.69653432 115.21602426 13.12282172 118.96484375 8.5 C121.28679231 5.64770234 123.64545721 2.82545135 126 0 C134.25 0 142.5 0 151 0 C151 54.12 151 108.24 151 164 C141.43 164 131.86 164 122 164 C121.67 125.72 121.34 87.44 121 48 C115.06491935 55.01418623 109.17228283 62.00114793 103.37890625 69.12109375 C100.12078183 73.0640128 96.78052945 76.9338271 93.44165039 80.80834961 C90.41054711 84.33298919 87.43014684 87.89039882 84.5 91.5 C81.06791987 95.7279248 77.55448829 99.8752789 74 104 C69.68065728 109.01314773 65.44902723 114.08537515 61.27734375 119.22265625 C58.25580056 122.90759143 55.16964049 126.53568321 52.08349609 130.16650391 C49.20442157 133.55973475 46.36788508 136.9827672 43.5625 140.4375 C39.48864585 145.44694091 35.29907905 150.34963045 31.07250977 155.23022461 C30.58709717 155.79233643 30.10168457 156.35444824 29.6015625 156.93359375 C29.17182129 157.42915771 28.74208008 157.92472168 28.29931641 158.43530273 C26.80183939 160.23863423 25.40641356 162.12478193 24 164 C16.08 164 8.16 164 0 164 C0 109.88 0 55.76 0 0 Z " fill="#41B6E6" transform="translate(2698,414)"/>
<path d="M0 0 C52.14 0 104.28 0 158 0 C158 13.86 158 27.72 158 42 C140.18 42 122.36 42 104 42 C104 84.24 104 126.48 104 170 C87.5 170 71 170 54 170 C54 127.76 54 85.52 54 42 C36.18 42 18.36 42 0 42 C0 28.14 0 14.28 0 0 Z " fill="#003D81" transform="translate(2335,82)"/>
<path d="M0 0 C14.11974939 12.65364122 23.57871972 29.35379656 26.4453125 48.19140625 C26.55488281 48.84367187 26.66445312 49.4959375 26.77734375 50.16796875 C29.33859435 68.404073 27.20099844 87.4577916 19.4453125 104.19140625 C19.02636719 105.11050781 18.60742188 106.02960938 18.17578125 106.9765625 C8.70925425 125.93689756 -7.93152486 138.92860069 -27.5546875 146.19140625 C-54.34375988 154.83246856 -81.20244161 152.63572416 -106.1796875 139.94140625 C-124.90358841 129.50661467 -138.35272204 112.72367069 -144.5546875 92.19140625 C-151.03291583 68.10702511 -148.75587907 42.17491862 -136.92578125 20.16015625 C-132.88689837 13.48803418 -128.00678309 7.74871772 -122.5546875 2.19140625 C-121.96429687 1.57652344 -121.37390625 0.96164062 -120.765625 0.328125 C-88.64396183 -30.44923949 -32.81275195 -27.10395028 0 0 Z M-97.5546875 17.19140625 C-98.28171875 17.6915625 -99.00875 18.19171875 -99.7578125 18.70703125 C-111.13520676 27.57602362 -116.33103649 40.99967245 -119.3046875 54.62890625 C-120.62084762 73.38418789 -117.64463931 90.19444063 -106.1484375 105.3671875 C-95.77578295 116.66150864 -80.62866064 123.53679132 -65.375 124.5 C-48.16831935 125.18148957 -32.63606457 121.29109213 -19.3046875 109.94140625 C-7.37139544 98.59437735 -1.52958966 84.58748806 -0.5546875 68.19140625 C-0.57251608 50.70156938 -4.96791396 35.2105773 -17.26953125 22.375 C-30.20270264 10.01663622 -45.00459318 5.65643798 -62.62207031 5.77197266 C-75.71328268 6.13496692 -86.72203843 9.69187997 -97.5546875 17.19140625 Z " fill="#41B6E6" transform="translate(2076.5546875,430.80859375)"/>
<path d="M0 0 C9.24 0 18.48 0 28 0 C28 22.77 28 45.54 28 69 C58.69 69 89.38 69 121 69 C121 46.23 121 23.46 121 0 C130.24 0 139.48 0 149 0 C149 54.12 149 108.24 149 164 C139.76 164 130.52 164 121 164 C121 141.23 121 118.46 121 95 C90.31 95 59.62 95 28 95 C28 117.77 28 140.54 28 164 C18.76 164 9.52 164 0 164 C0 109.88 0 55.76 0 0 Z " fill="#41B6E6" transform="translate(2511,414)"/>
<path d="M0 0 C4.39203523 -0.27433434 8.77940737 -0.47254024 13.17749023 -0.60424805 C14.66893407 -0.65918835 16.15979559 -0.73398397 17.64916992 -0.82983398 C29.94017965 -1.60033979 29.94017965 -1.60033979 34.8215332 2.19213867 C37.15228241 5.01411431 39.09085138 7.88007154 41 11 C42.08839393 12.49180324 43.18765958 13.97577434 44.30078125 15.44921875 C45.3078607 16.85971892 46.31173979 18.27250927 47.3125 19.6875 C51.56189743 25.63238944 55.85585527 31.53616622 60.25 37.375 C60.73992432 38.02702393 61.22984863 38.67904785 61.73461914 39.35083008 C64.06067574 42.44142485 66.39779805 45.52300797 68.75 48.59375 C69.1737793 49.1501416 69.59755859 49.7065332 70.03417969 50.27978516 C71.17006829 51.77012574 72.31139411 53.25631787 73.453125 54.7421875 C75 57 75 57 75 59 C75.66 59 76.32 59 77 59 C77.36351562 58.19755859 77.36351562 58.19755859 77.734375 57.37890625 C79.32908102 54.38144957 81.26302567 51.68136064 83.25 48.9375 C83.68401123 48.33389648 84.11802246 47.73029297 84.56518555 47.10839844 C88.86056926 41.15345168 93.22563079 35.24961018 97.59008789 29.34521484 C102.38116196 22.85837589 107.11541481 16.33200697 111.82543945 9.78613281 C112.33034912 9.08456055 112.83525879 8.38298828 113.35546875 7.66015625 C113.79528076 7.04793213 114.23509277 6.43570801 114.68823242 5.80493164 C115.12111572 5.2093042 115.55399902 4.61367676 116 4 C116.39461426 3.27256592 116.78922852 2.54513184 117.19580078 1.7956543 C119.49261191 -0.49027884 121.2110774 -0.45463165 124.3712616 -0.45318604 C125.07761246 -0.43254089 125.78396332 -0.41189575 126.51171875 -0.390625 C127.23994339 -0.38496521 127.96816803 -0.37930542 128.71846008 -0.37347412 C131.04214498 -0.35110029 133.36428207 -0.30090669 135.6875 -0.25 C137.26364959 -0.22993609 138.83982337 -0.21168512 140.41601562 -0.1953125 C144.27793924 -0.15123283 148.1387073 -0.08220225 152 0 C149.87555481 3.80358934 147.82418865 7.46524133 145.109375 10.8828125 C144.573125 11.56400146 144.036875 12.24519043 143.484375 12.94702148 C142.91203125 13.66575439 142.3396875 14.3844873 141.75 15.125 C140.49387488 16.72193555 139.23870469 18.31962258 137.984375 19.91796875 C137.33146484 20.7486084 136.67855469 21.57924805 136.00585938 22.43505859 C132.63666605 26.74332844 129.31508873 31.0875274 126 35.4375 C125.33170166 36.3143042 124.66340332 37.1911084 123.97485352 38.09448242 C118.90032496 44.77272163 113.92239611 51.51834343 108.96826172 58.28613281 C103.80435401 65.31815567 98.44693457 72.18577369 93 79 C96.4629989 84.60459032 100.35200466 89.77045098 104.5 94.875 C109.70214033 101.28733787 114.63593569 107.86178015 119.50585938 114.52880859 C123.93090561 120.57645221 128.44410378 126.55043866 133 132.5 C138.37424094 139.5322375 143.72087191 146.58348812 149 153.6875 C149.60585937 154.49574219 150.21171875 155.30398438 150.8359375 156.13671875 C151.38507813 156.87921875 151.93421875 157.62171875 152.5 158.38671875 C152.9846875 159.03858154 153.469375 159.69044434 153.96875 160.36206055 C155 162 155 162 155 164 C128.02449051 166.83774016 128.02449051 166.83774016 120.27148438 162.45898438 C115.88924656 158.45677803 113.02576122 153.55651104 110.27050781 148.34619141 C108.46989717 145.02108221 106.26174303 142.08253358 104 139.0625 C103.20763581 137.94504217 102.41865279 136.82518028 101.6328125 135.703125 C98.44510896 131.19198863 95.15767884 126.7547407 91.875 122.3125 C86.88803803 115.56203653 81.92006369 108.79946691 77 102 C73.70245132 103.09918289 73.31775204 103.57152338 71.42578125 106.296875 C70.93118408 106.99780273 70.43658691 107.69873047 69.92700195 108.42089844 C69.39421631 109.18950195 68.86143066 109.95810547 68.3125 110.75 C63.28636858 117.86382057 58.12100227 124.84436046 52.8125 131.75 C47.4751345 138.70789736 42.25010992 145.71780374 37.2109375 152.89453125 C36.48132812 153.91933594 35.75171875 154.94414063 35 156 C34.66629395 156.70753418 34.33258789 157.41506836 33.98876953 158.14404297 C32.54952678 160.77984177 31.45928407 162.24440251 29 164 C23.34751283 165.00647499 17.83910606 164.75460077 12.125 164.5 C10.5625908 164.45983857 9.00008281 164.4233424 7.4375 164.390625 C3.62254996 164.30278602 -0.18763748 164.16495494 -4 164 C0.20267627 156.48575295 0.20267627 156.48575295 2.5234375 153.703125 C3.20817139 152.8685376 3.20817139 152.8685376 3.90673828 152.01708984 C4.39126465 151.4339502 4.87579102 150.85081055 5.375 150.25 C10.13540733 144.4149014 14.68173702 138.45480832 19.125 132.375 C23.75063175 126.05038621 28.42738391 119.78413239 33.2265625 113.58984375 C36.9284231 108.81003058 40.58659941 103.9968063 44.25 99.1875 C44.92401855 98.30336426 45.59803711 97.41922852 46.29248047 96.50830078 C47.58629159 94.80979348 48.87630887 93.10838811 50.16210938 91.40380859 C51.3686981 89.82569055 52.59872068 88.26516342 53.85351562 86.72509766 C54.69172852 85.67974854 54.69172852 85.67974854 55.546875 84.61328125 C56.04541992 84.00911377 56.54396484 83.40494629 57.05761719 82.7824707 C58.18002803 81.04519002 58.18002803 81.04519002 57.84301758 79.03955078 C56.84134557 76.61616012 55.57462133 74.82651503 53.96484375 72.75390625 C53.01013184 71.51386841 53.01013184 71.51386841 52.03613281 70.2487793 C51.34358398 69.36230713 50.65103516 68.47583496 49.9375 67.5625 C48.47250221 65.66418137 47.00766293 63.7657404 45.54296875 61.8671875 C44.78935059 60.89491211 44.03573242 59.92263672 43.25927734 58.92089844 C39.73240567 54.36119531 36.24105701 49.77464561 32.75 45.1875 C32.08307129 44.31262939 31.41614258 43.43775879 30.72900391 42.53637695 C26.25352338 36.66182662 21.80748668 30.76614531 17.39257812 24.84594727 C14.74932632 21.30782565 12.07650092 17.7955814 9.37109375 14.3046875 C8.76740967 13.52383789 8.16372559 12.74298828 7.54174805 11.93847656 C6.36896384 10.42419625 5.19218999 8.91299542 4.01098633 7.40527344 C3.48657959 6.72754883 2.96217285 6.04982422 2.421875 5.3515625 C1.71949707 4.45171631 1.71949707 4.45171631 1.00292969 3.53369141 C0 2 0 2 0 0 Z " fill="#41B6E6" transform="translate(1774,414)"/>
<path d="M0 0 C48.84 0 97.68 0 148 0 C148 8.58 148 17.16 148 26 C128.53 26 109.06 26 89 26 C89 71.54 89 117.08 89 164 C79.76 164 70.52 164 61 164 C61 118.46 61 72.92 61 26 C40.87 26 20.74 26 0 26 C0 17.42 0 8.84 0 0 Z " fill="#41B6E6" transform="translate(1195,414)"/>
</svg>
