<?xml version="1.0" encoding="UTF-8"?>
<svg version="1.1" xmlns="http://www.w3.org/2000/svg" width="1501" height="654">
<path d="M0 0 C15.84 0 31.68 0 48 0 C50.34311294 8.78667354 52.6530573 17.49269126 54.62426758 26.35473633 C54.85857861 27.3964458 55.09288963 28.43815527 55.33430099 29.51143169 C56.10721845 32.95100097 56.87587751 36.39150686 57.64453125 39.83203125 C58.2036668 42.32415658 58.76307705 44.81622029 59.32273865 47.30822754 C60.52498012 52.66412841 61.72541827 58.02042823 62.92419434 63.37710571 C64.67662982 71.20767675 66.43247689 79.03747981 68.18922687 86.86708391 C70.37640501 96.61513018 72.56296351 106.36331508 74.74777222 116.1118927 C79.39375015 136.84195469 84.0468437 157.57040658 88.70576334 178.29756379 C89.38320823 181.31156595 90.06056099 184.32558881 90.73790777 187.33961302 C93.56914313 199.93790208 96.40046147 212.53617235 99.23400879 225.13394165 C101.16066829 233.6998016 103.08664331 242.26581516 105.01171875 250.83203125 C105.24239351 251.85842598 105.24239351 251.85842598 105.47772837 252.90555596 C109.31149942 269.96529473 113.12502207 287.02930984 116.89161301 304.10402489 C117.50661817 306.8907076 118.12277836 309.67713206 118.7394104 312.4634552 C118.93378252 313.3418679 119.12815464 314.22028059 119.32841682 315.12531185 C119.70684769 316.83549884 120.08531926 318.54567682 120.46383476 320.25584507 C121.33438195 324.19259012 122.2011756 328.13007912 123.05847168 332.06973267 C128.24319368 363.90347087 128.24319368 363.90347087 147 388 C147 394.27 147 400.54 147 407 C108.72 407 70.44 407 31 407 C31 400.73 31 394.46 31 388 C33.64 387.34 36.28 386.68 39 386 C43.01327708 382.11618347 43.22312812 377.35998744 43.41796875 371.9921875 C43.52736927 359.51459914 39.9975728 347.22470249 37.3125 335.125 C36.50477718 331.41791575 35.70147143 327.70989654 34.89897156 324.00167847 C34.40207122 321.71297045 33.90156826 319.42503904 33.39607239 317.13821411 C30.75385526 305.12202494 28.41474338 293.07371691 26 281 C5.87 281 -14.26 281 -35 281 C-35.33 283.64 -35.66 286.28 -36 289 C-36.24696529 290.36975176 -36.51307746 291.73653357 -36.81616211 293.0949707 C-36.96979721 293.79382889 -37.12343231 294.49268707 -37.28172302 295.21272278 C-37.52705528 296.30818672 -37.52705528 296.30818672 -37.77734375 297.42578125 C-38.12994653 299.04483716 -38.48214638 300.66398085 -38.83398438 302.28320312 C-39.38024361 304.7800762 -39.92939535 307.27618236 -40.48608398 309.77075195 C-45.68613073 333.14875984 -51.1765836 360.2831783 -37.75 381.9375 C-34.69090992 385.8186555 -34.69090992 385.8186555 -27 388 C-27 394.27 -27 400.54 -27 407 C-97.62 407 -168.24 407 -241 407 C-241 400.73 -241 394.46 -241 388 C-239.30875 387.773125 -237.6175 387.54625 -235.875 387.3125 C-230.59780536 386.31795178 -227.62962321 385.14814081 -224 381 C-212.46922018 363.58819208 -214.85071453 339.53387408 -214.88647461 319.55102539 C-214.88675721 317.32224021 -214.88659733 315.09345493 -214.8860321 312.8646698 C-214.88574697 306.8574769 -214.89159764 300.85030426 -214.89860606 294.84311604 C-214.90488702 288.5490932 -214.90544714 282.25506981 -214.90663147 275.96104431 C-214.90937944 265.41095641 -214.91561181 254.86087509 -214.92456055 244.31079102 C-214.93376169 233.45174191 -214.94082925 222.59269481 -214.94506836 211.73364258 C-214.94533108 211.06252243 -214.94559381 210.39140228 -214.94586449 209.69994516 C-214.94716968 206.33260458 -214.94843335 202.965264 -214.94967639 199.5979234 C-214.96010924 171.73194381 -214.97768156 143.86597243 -215 116 C-215.407917 117.39501755 -215.407917 117.39501755 -215.82407475 118.81821728 C-240.44319842 203.00956344 -240.44319842 203.00956344 -250.49511719 236.94256592 C-253.14455092 245.8865227 -255.78877642 254.83202102 -258.43359375 263.77734375 C-258.70299648 264.68840126 -258.97239922 265.59945877 -259.24996567 266.53812408 C-265.68788065 288.31083366 -272.09616735 310.09224566 -278.5 331.875 C-278.7579472 332.75238956 -279.01589439 333.62977913 -279.28165817 334.53375626 C-280.53070256 338.78236127 -281.77963931 343.0309979 -283.02842712 347.27967834 C-283.97598782 350.50349487 -284.92380685 353.72723527 -285.87184143 356.95091248 C-287.97849519 364.11529811 -290.08306421 371.28027227 -292.17940521 378.44768333 C-293.11494789 381.64570217 -294.05185391 384.84332078 -294.98890686 388.04089737 C-295.42998125 389.54745609 -295.87037232 391.05421505 -296.31004333 392.56118393 C-296.91138629 394.62218013 -297.51500529 396.68249669 -298.11914062 398.74267578 C-298.45965454 399.90759552 -298.80016846 401.07251526 -299.15100098 402.2727356 C-300 405 -300 405 -301 407 C-310.24 407 -319.48 407 -329 407 C-337.81495372 375.46714245 -346.50090627 343.90020707 -355.07421875 312.30078125 C-355.25429671 311.63706457 -355.43437466 310.9733479 -355.61990952 310.28951859 C-359.46459866 296.11817751 -363.30467393 281.94558857 -367.14067554 267.7718935 C-368.90552098 261.2513682 -370.67121896 254.73107406 -372.4375 248.2109375 C-372.61402721 247.55923702 -372.79055442 246.90753654 -372.97243094 246.23608756 C-384.55856343 203.46629734 -396.2888311 160.73568045 -408 118 C-408.04575662 146.4506205 -408.08108686 174.90123632 -408.10213066 203.3518865 C-408.10463167 206.72091918 -408.10722036 210.0899518 -408.10986328 213.45898438 C-408.11065021 214.46493347 -408.11065021 214.46493347 -408.11145304 215.49120477 C-408.12012408 226.3091367 -408.13587558 237.12704708 -408.15430559 247.94496629 C-408.17309701 259.06890269 -408.1839867 270.19283039 -408.18817699 281.31678224 C-408.19077172 287.55491637 -408.19681902 293.79300185 -408.21146011 300.0311203 C-408.22516278 305.91780481 -408.22919734 311.8044212 -408.22621536 317.69112015 C-408.22675991 319.83709968 -408.23066103 321.98308179 -408.23841095 324.12904739 C-409.2236563 356.31827356 -409.2236563 356.31827356 -395.875 384.375 C-391.44679973 386.87789581 -387.01913027 387.27434261 -382 388 C-382 394.27 -382 400.54 -382 407 C-406.42 407 -430.84 407 -456 407 C-456 400.73 -456 394.46 -456 388 C-453.03 387.67 -450.06 387.34 -447 387 C-444.10516181 386.41245546 -444.10516181 386.41245546 -442 385 C-440.50056527 381.71714668 -439.42591832 378.34222657 -438.4375 374.875 C-438.18871094 374.02679688 -437.93992187 373.17859375 -437.68359375 372.3046875 C-435.85639604 363.47149172 -435.85382489 354.45702507 -435.86628723 345.47163391 C-435.86402167 344.25662569 -435.86175612 343.04161746 -435.85942191 341.78979081 C-435.85421953 338.44784652 -435.85343136 335.10595641 -435.85461628 331.76401198 C-435.85482161 328.14763805 -435.84928906 324.53127195 -435.84455872 320.91490173 C-435.8362799 313.8410585 -435.83350513 306.7672236 -435.83294634 299.69337592 C-435.83246985 293.93862563 -435.83040852 288.18387807 -435.82724571 282.42912865 C-435.81844665 266.08458403 -435.81382516 249.74004597 -435.81457619 233.39549897 C-435.81463612 232.07594646 -435.81463612 232.07594646 -435.81469727 230.72973633 C-435.81473815 229.84895061 -435.81477903 228.96816489 -435.81482115 228.0606887 C-435.81522739 213.7940953 -435.80566132 199.52752832 -435.7915589 185.26094256 C-435.77716616 170.58391412 -435.77029031 155.90689854 -435.77115268 141.22986287 C-435.77148365 133.0011799 -435.76878048 124.77252462 -435.75797462 116.54384804 C-435.7488314 109.53681277 -435.74672556 102.52981776 -435.75348405 95.52277908 C-435.75673009 91.95419773 -435.75687605 88.38569344 -435.7481308 84.8171196 C-434.18433318 57.13584739 -434.18433318 57.13584739 -444.1875 32.5 C-447.80367355 30.34844046 -447.80367355 30.34844046 -456 30 C-456 23.73 -456 17.46 -456 11 C-420.03 11 -384.06 11 -347 11 C-342.40547529 25.93220529 -342.40547529 25.93220529 -340.43237305 33.38256836 C-340.09118486 34.65852119 -340.09118486 34.65852119 -339.74310398 35.96025085 C-338.99698303 38.75283366 -338.25434104 41.54632872 -337.51171875 44.33984375 C-336.975054 46.35117893 -336.43816249 48.36245362 -335.90106201 50.37367249 C-334.75658393 54.66109083 -333.61362345 58.94890962 -332.47189331 63.23706055 C-330.6693593 70.00700704 -328.86340213 76.77603739 -327.05688477 83.54492188 C-324.89007036 91.66467389 -322.72400899 99.78462595 -320.55904293 107.90487099 C-315.58865801 126.5474084 -310.60822198 145.18725219 -305.62338734 163.8259306 C-304.20229167 169.13954012 -302.7818383 174.45332065 -301.36199284 179.76726437 C-299.21771245 187.79225167 -297.07084662 195.81653867 -294.91925144 203.83956814 C-293.80952562 207.97784866 -292.70132466 212.11652916 -291.59552002 216.25585938 C-290.42729878 220.62840191 -289.25568624 225.00002304 -288.08174324 229.37103271 C-287.63694168 231.02944565 -287.19331581 232.6881744 -286.75091362 234.347229 C-286.14316053 236.62557337 -285.53122249 238.90275277 -284.91821289 241.1796875 C-284.73781275 241.85988953 -284.55741261 242.54009155 -284.37154579 243.24090576 C-283.69501081 246.38343443 -283.69501081 246.38343443 -282 249 C-281.72090286 248.05519272 -281.44180573 247.11038544 -281.1542511 246.13694763 C-277.83793465 234.91053226 -274.52142753 223.68417322 -271.20480728 212.4578476 C-270.61017648 210.44509734 -270.0155491 208.43234608 -269.42092514 206.41959381 C-263.08570575 184.97545478 -256.75039015 163.53134562 -250.40625 142.08984375 C-249.97252829 140.62388635 -249.53880738 139.15792871 -249.10508728 137.69197083 C-247.4246067 132.01219871 -245.74407634 126.33244147 -244.06253052 120.65298462 C-239.17126477 104.13258556 -234.2937897 87.60823676 -229.437994 71.0773735 C-227.82878724 65.60008669 -226.21802686 60.12325645 -224.60739994 54.6463871 C-223.04961843 49.34823205 -221.4947968 44.04921954 -219.94212437 38.74956512 C-218.98561098 35.48714083 -218.02646165 32.22549592 -217.06659126 28.96405792 C-216.61866626 27.4399797 -216.17188845 25.91556381 -215.72630119 24.39080048 C-215.11768473 22.30864387 -214.5051488 20.22768068 -213.89160156 18.14697266 C-213.54856995 16.97768219 -213.20553833 15.80839172 -212.85211182 14.60366821 C-212 12 -212 12 -211 11 C-207.86440114 10.90465042 -204.75086387 10.87449121 -201.61499023 10.88647461 C-200.13710526 10.88625557 -200.13710526 10.88625557 -198.62936401 10.8860321 C-195.35575193 10.88673168 -192.08219596 10.89452615 -188.80859375 10.90234375 C-186.54557832 10.90420777 -184.28256249 10.90563175 -182.01954651 10.90663147 C-176.05021052 10.9104579 -170.08089868 10.92028925 -164.11157227 10.93133545 C-158.02555671 10.94154688 -151.93953727 10.94612851 -145.85351562 10.95117188 C-133.9023314 10.96191141 -121.95117149 10.97950922 -110 11 C-110 17.27 -110 23.54 -110 30 C-112.97 30.33 -115.94 30.66 -119 31 C-122.70811086 32.53921583 -124.43203787 33.851333 -126.21875 37.46484375 C-133.3724481 56.09000774 -131.14605217 78.5694829 -131.12939453 98.16967773 C-131.13075212 100.87053544 -131.13249846 103.57139042 -131.13470459 106.27224731 C-131.13911858 112.80538058 -131.13820539 119.33850227 -131.13529195 125.87163597 C-131.1330204 131.18854971 -131.13273293 136.50546025 -131.13381577 141.82237434 C-131.133969 142.58322485 -131.13412223 143.34407536 -131.13428011 144.12798195 C-131.13459988 145.67433444 -131.13492409 147.22068693 -131.1352527 148.76703943 C-131.13809474 163.21993963 -131.13484066 177.67283345 -131.12945233 192.12573261 C-131.12498637 204.48657558 -131.12576101 216.84740915 -131.13037109 229.20825195 C-131.13574104 243.61292156 -131.13781922 258.01758559 -131.13475883 272.42225605 C-131.13444033 273.962774 -131.13412596 275.50329194 -131.13381577 277.04380989 C-131.13366149 277.80148513 -131.13350721 278.55916036 -131.13334826 279.33979545 C-131.13249029 284.64054268 -131.1339304 289.94128633 -131.13629532 295.242033 C-131.13912055 301.71594101 -131.13829831 308.18983691 -131.13301457 314.66374355 C-131.13041378 317.95728865 -131.12986226 321.25080987 -131.13266373 324.54435539 C-133.2517671 356.56622403 -133.2517671 356.56622403 -123 385.375 C-117.8523057 388.16333441 -112.29493387 387.9534997 -106.71875 386.33984375 C-95.33600136 381.28327657 -90.4553908 368.62272856 -86.08935547 357.72753906 C-82.10914273 347.19808738 -79.23110971 336.3552406 -76.5234375 325.44140625 C-76.27409266 324.4401002 -76.27409266 324.4401002 -76.01971054 323.41856575 C-70.77498204 302.33010651 -65.8907221 281.15385447 -60.95441437 259.99166107 C-59.53581919 253.91277461 -58.11423208 247.8345879 -56.69287109 241.75634766 C-54.61597908 232.87383245 -52.53985707 223.99113801 -50.46482277 215.10818863 C-44.7991748 190.85442954 -39.12024907 166.60378264 -33.43977356 142.35349274 C-32.6270362 138.88369312 -31.81441521 135.41386626 -31.00183105 131.94403076 C-20.70011466 87.95509297 -10.35952305 43.97535689 0 0 Z M-5 141 C-7.74409363 153.68996246 -10.48266617 166.38110251 -13.21417999 179.07377911 C-14.48267898 184.96733875 -15.75308219 190.8604745 -17.02783203 196.75268555 C-18.25776705 202.43808962 -19.48270671 208.12454886 -20.70417786 213.81177711 C-21.17126908 215.98229176 -21.64016457 218.15241894 -22.11088562 220.32214928 C-22.76944747 223.35918921 -23.4216039 226.39753852 -24.07226562 229.4362793 C-24.26863113 230.33467529 -24.46499664 231.23307129 -24.66731262 232.15869141 C-24.93235847 233.40588203 -24.93235847 233.40588203 -25.20275879 234.67826843 C-25.35762001 235.39634517 -25.51248123 236.1144219 -25.67203522 236.85425854 C-26.12590821 239.46198993 -26.12590821 239.46198993 -26 244 C-11.48 244 3.04 244 18 244 C17.28617216 237.09334788 17.28617216 237.09334788 16.12046814 230.34910583 C15.95081039 229.54580338 15.78115265 228.74250092 15.60635376 227.91485596 C15.42293427 227.06824402 15.23951477 226.22163208 15.05053711 225.34936523 C14.85531967 224.43121536 14.66010223 223.51306549 14.45896912 222.5670929 C13.81924417 219.56335689 13.17334764 216.56098502 12.52734375 213.55859375 C12.07998487 211.46403546 11.63301502 209.36939404 11.18641663 207.27467346 C10.01485358 201.78467734 8.83803604 196.29582066 7.66009521 190.80718994 C6.4570506 185.19701253 5.259014 179.58576608 4.06054688 173.97460938 C1.71191245 162.98202497 -0.64227824 151.99063863 -3 141 C-3.66 141 -4.32 141 -5 141 Z " fill="#004B88" transform="translate(837,104)"/>
<path d="M0 0 C3.21040482 3.21040482 4.79712334 6.36633007 6.66796875 10.41015625 C7.01959579 11.15657883 7.37122284 11.9030014 7.73350525 12.67204285 C8.89093463 15.13271713 10.03918709 17.5975599 11.1875 20.0625 C11.99727332 21.78837265 12.80766546 23.51395508 13.61865234 25.23925781 C15.28055612 28.77723838 16.93891701 32.31684514 18.59423828 35.85791016 C20.78251962 40.53804627 22.98051587 45.21353237 25.18359375 49.88671875 C25.84546999 51.29092906 26.50733533 52.6951445 27.16918945 54.09936523 C27.49214996 54.78457245 27.81511047 55.46977966 28.14785767 56.17575073 C29.79068536 59.66309748 31.43051881 63.15185085 33.0703125 66.640625 C36.71056659 74.38515872 40.35384966 82.12826401 43.99798584 89.87097168 C45.66545298 93.41392037 47.33271634 96.95696496 49 100.5 C49.66666569 101.91666713 50.33333235 103.33333379 51 104.75 C134.99999999 283.24999999 134.99999999 283.24999999 135.99995422 285.37490845 C136.6667676 286.79188306 137.33358686 288.2088549 138.00041199 289.62582397 C139.66488218 293.16275648 141.32925088 296.69973668 142.9934082 300.23681641 C146.36182828 307.39592687 149.73204499 314.55418333 153.10546875 321.7109375 C156.75412121 329.45233002 160.39694236 337.19644627 164.03411865 344.9432373 C165.01001418 347.02132434 165.9866914 349.0990429 166.96337891 351.17675781 C168.52268668 354.49530907 170.07764924 357.8158639 171.62930298 361.13800049 C172.48108253 362.95954469 173.33656914 364.77935395 174.19213867 366.59912109 C174.69592041 367.68016113 175.19970215 368.76120117 175.71875 369.875 C176.16154297 370.82117188 176.60433594 371.76734375 177.06054688 372.7421875 C178 375 178 375 178 377 C178.66 377 179.32 377 180 377 C180.17056412 376.45635803 180.34112823 375.91271606 180.51686096 375.3526001 C182.34323142 369.68645924 184.51897585 364.28335601 186.96484375 358.859375 C187.34992599 357.99610092 187.73500824 357.13282684 188.13175964 356.24339294 C189.39644703 353.41050391 190.66697477 350.580275 191.9375 347.75 C192.8342581 345.74409156 193.73057176 343.73798438 194.62646484 341.73168945 C196.48842028 337.56273579 198.35228675 333.39464396 200.21728516 329.22705078 C202.86770795 323.30059164 205.50479045 317.36828586 208.13671875 311.43359375 C208.55057327 310.50052399 208.9644278 309.56745422 209.39082336 308.60610962 C210.221201 306.73391132 211.05156909 304.86170878 211.88192749 302.98950195 C218.947892 287.06215564 226.07092017 271.16161812 233.23980713 255.28036499 C239.2913546 241.86770095 245.22992504 228.40798011 251.12554932 214.92614746 C256.67150967 202.24786124 262.30204529 189.61066719 268 177 C275.43170983 160.55051367 282.73148953 144.04573523 289.9680481 127.50952148 C290.65511999 125.9397373 291.34282717 124.37023099 292.03121948 122.80102539 C293.70807503 118.97446116 295.36886643 115.1421346 297.00244141 111.296875 C297.32146927 110.55163574 297.64049713 109.80639648 297.9691925 109.03857422 C298.57116786 107.63106981 299.16796212 106.22133437 299.75871277 104.80908203 C301.77537917 100.11231042 301.77537917 100.11231042 304 99 C305.50106459 107.41073088 306.6113792 115.80916667 307.49331665 124.30555725 C307.62978273 125.59184554 307.76624881 126.87813383 307.90685022 128.20340055 C308.28183426 131.73885194 308.65233901 135.27475994 309.0220499 138.8107661 C309.4229267 142.63710257 309.82803014 146.46299192 310.23258972 150.28894043 C311.02273583 157.76771518 311.8090284 165.2468902 312.59399773 172.72620989 C313.50840048 181.4373745 314.42666763 190.14813047 315.34508948 198.85887211 C316.98302953 214.39510485 318.61750279 229.93170034 320.25 245.46850586 C321.83440189 260.54754715 323.42122078 275.62633148 325.01074219 290.70483398 C325.10878759 291.63491471 325.206833 292.56499543 325.30784948 293.52326042 C325.45466384 294.91596849 325.45466384 294.91596849 325.60444415 296.33681208 C325.80150644 298.20619288 325.99856747 300.07557381 326.19562721 301.94495487 C326.29280843 302.86685154 326.38998964 303.7887482 326.49011574 304.73858112 C328.00517511 319.11200997 329.5179319 333.48568126 331.03049404 347.85937308 C331.57885889 353.07008967 332.12758855 358.2807677 332.67658617 363.49141765 C333.54661697 371.74906987 334.41567168 380.00682342 335.2826295 388.26479889 C335.67881959 392.0384077 336.07550347 395.81196283 336.47352791 399.58537865 C336.90426947 403.66917359 337.33259291 407.75321841 337.76065063 411.83729553 C337.88768769 413.03823839 338.01472474 414.23918124 338.14561141 415.47651631 C338.25933006 416.56539188 338.37304872 417.65426746 338.49021339 418.77613926 C338.63895643 420.19090277 338.63895643 420.19090277 338.79070437 421.63424736 C339 424 339 424 339 427 C227.13 427 115.26 427 0 427 C0 286.09 0 145.18 0 0 Z " fill="#004B88" transform="translate(4,85)"/>
<path d="M0 0 C41.25 0 82.5 0 125 0 C125 6.27 125 12.54 125 19 C123.453125 19.0825 121.90625 19.165 120.3125 19.25 C115.70240146 19.74486934 113.06248229 20.28790025 110 24 C102.41014473 38.8135333 104.72925552 58.95215687 104.79721212 74.96397471 C104.80986073 78.4552689 104.81090096 81.9465679 104.81326294 85.43788147 C104.81943676 92.02478429 104.83579101 98.61161937 104.85596192 105.19849259 C104.87844986 112.7077569 104.88934651 120.21702473 104.89935279 127.72631443 C104.92016174 143.15091528 104.95525642 158.57544885 105 174 C105.52908966 173.10655884 106.05817932 172.21311768 106.603302 171.29260254 C108.61119232 167.90264991 110.62048734 164.51353154 112.63015747 161.12463379 C113.49140733 159.67189044 114.35230148 158.21893613 115.21279907 156.76574707 C120.37193452 148.05374656 125.57685722 139.37376861 130.87928772 130.74813843 C160.53182798 85.61792731 160.53182798 85.61792731 166.31640625 33.7734375 C164.4768353 28.72034219 161.99209256 24.40795053 157 22 C153.01617751 20.74677707 149.09740751 19.86500825 145 19 C145 12.73 145 6.46 145 0 C178.99 0 212.98 0 248 0 C248 6.27 248 12.54 248 19 C246.040625 19.515625 244.08125 20.03125 242.0625 20.5625 C226.90496324 25.27562356 217.67544451 38.35595264 209.3125 51.1875 C208.62607422 52.22922363 207.93964844 53.27094727 207.23242188 54.34423828 C200.86213621 64.07727152 194.81975474 73.99829441 188.83007812 83.96826172 C186.18784749 88.34542555 183.51202215 92.70159791 180.83154297 97.05541992 C179.45692366 99.28889415 178.08607729 101.52469539 176.71923828 103.76293945 C173.79814954 108.53414726 170.85808724 113.26744679 167.6953125 117.8828125 C167.21223633 118.60154541 166.72916016 119.32027832 166.23144531 120.06079102 C165.3660839 121.33780653 164.47925526 122.60070989 163.56542969 123.84350586 C162.03205576 126.12741556 160.9288497 128.10078716 161.15052795 130.90240479 C162.67308375 137.30453575 164.84140805 143.37024715 167.19140625 149.51171875 C167.60843811 150.61677765 168.02546997 151.72183655 168.45513916 152.86038208 C169.3518682 155.23471032 170.25131598 157.60801321 171.15322876 159.9803772 C172.58308302 163.74164414 174.00618647 167.50539253 175.42651367 171.27026367 C175.78446502 172.21901666 175.78446502 172.21901666 176.14964771 173.18693638 C176.63326625 174.46881629 177.11685825 175.75070623 177.60042381 177.03260612 C178.33000664 178.96592365 179.06034754 180.89895339 179.79084778 182.83192444 C184.18795075 194.47132008 188.51150079 206.13729056 192.8125 217.8125 C194.20274998 221.58216962 195.59357333 225.35162764 196.984375 229.12109375 C197.32174683 230.03568863 197.65911865 230.95028351 198.00671387 231.89259338 C203.14415424 245.81652401 208.31698018 259.72721869 213.50799561 273.6312561 C215.91432791 280.07961476 218.3105604 286.531658 220.70228672 292.98544312 C222.84387765 298.76295224 224.9917106 304.53812195 227.14308071 310.31199646 C228.47614409 313.89041553 229.80651927 317.46977955 231.13015747 321.05169678 C232.38458839 324.44603917 233.64670103 327.83743399 234.91412354 331.22694588 C235.60013325 333.06734039 236.27838811 334.9106199 236.95629883 336.75401306 C241.113117 347.83201351 245.77602455 358.91553989 253.25 368.1875 C253.67023438 368.71923828 254.09046875 369.25097656 254.5234375 369.79882812 C256.56704681 372.35976621 258.67866864 374.67866864 261 377 C261 383.27 261 389.54 261 396 C221.73 396 182.46 396 142 396 C142 389.73 142 383.46 142 377 C144.31 376.34 146.62 375.68 149 375 C152.76800035 370.47970791 151.65630973 362.91490547 151.27685547 357.32800293 C150.36722802 349.67919117 147.47881252 342.37417155 145 335.125 C144.3432346 333.14542991 143.68903059 331.16500857 143.03710938 329.18383789 C141.56114803 324.70676811 140.07281537 320.23403363 138.578125 315.76318359 C135.63681584 306.93796355 132.76959022 298.08905234 129.90625 289.23828125 C129.64303955 288.42481987 129.3798291 287.61135849 129.10864258 286.77324677 C128.03846965 283.46558332 126.9684353 280.15787517 125.89880371 276.85003662 C124.06730352 271.18711263 122.23062911 265.52588887 120.390625 259.86572266 C120.01174259 258.69985957 120.01174259 258.69985957 119.62520599 257.51044369 C118.17720885 253.05474737 118.17720885 253.05474737 116.72798157 248.59945107 C112.76367991 236.41707607 108.87457342 224.21118568 105 212 C104.95311764 229.60351149 104.91793204 247.20700329 104.89637566 264.81056309 C104.88609716 272.98562784 104.87210299 281.16065363 104.84912109 289.33569336 C104.82908161 296.4675151 104.81625872 303.5993086 104.81182301 310.73115772 C104.80923336 314.50154333 104.80321952 318.27184819 104.78853989 322.04220772 C104.77478837 325.60363037 104.77081212 329.16494035 104.77378464 332.72638702 C104.77298699 334.63077242 104.76231858 336.53514604 104.75115967 338.4394989 C104.78895992 357.14284873 104.78895992 357.14284873 112 374 C116.27846832 376.85231222 119.895631 376.60225696 125 377 C125 383.27 125 389.54 125 396 C83.75 396 42.5 396 0 396 C0 389.73 0 383.46 0 377 C2.97 376.67 5.94 376.34 9 376 C14.06881085 373.46559457 15.06162892 371.1431446 17 366 C20.02756415 355.16167864 20.14938047 343.76372211 20.13371277 332.59225464 C20.13597833 331.39020264 20.13824388 330.18815064 20.14057809 328.94967282 C20.14577983 325.64386366 20.14656875 322.33810929 20.14538372 319.0323 C20.14517837 315.45476207 20.15071121 311.87723205 20.15544128 308.29969788 C20.1637198 301.30172004 20.16649486 294.30375062 20.16705366 287.3057683 C20.1675302 281.61204872 20.1695918 275.9183319 20.17275429 270.22461319 C20.18155359 254.05114681 20.18617485 237.87768704 20.18542381 221.70421825 C20.18536388 220.39850131 20.18536388 220.39850131 20.18530273 219.06640625 C20.18526185 218.19485469 20.18522097 217.32330312 20.18517885 216.42534091 C20.18477269 202.31138632 20.19433656 188.19745844 20.2084411 174.08351158 C20.22283811 159.56128999 20.22970944 145.0390814 20.22884732 130.5168525 C20.22851648 122.37588695 20.23121397 114.23494941 20.24202538 106.09399033 C20.25117429 99.16091108 20.25326987 92.22787253 20.24651595 85.29478984 C20.24327262 81.76456433 20.24311384 78.23441671 20.2518692 74.70419884 C21.97696314 47.06008906 21.97696314 47.06008906 12.49609375 22.3359375 C8.5235115 18.78861862 6.32227336 19.70247482 0 19 C0 12.73 0 6.46 0 0 Z " fill="#004B88" transform="translate(988,115)"/>
<path d="M0 0 C6.98075667 3.72469293 6.98075667 3.72469293 14.67578125 4.74633789 C18.64637397 2.10815883 19.44224223 -0.97938263 20.42578125 -5.50366211 C20.83828125 -7.40116211 21.25078125 -9.29866211 21.67578125 -11.25366211 C26.29578125 -11.25366211 30.91578125 -11.25366211 35.67578125 -11.25366211 C35.67578125 33.62633789 35.67578125 78.50633789 35.67578125 124.74633789 C31.05578125 124.74633789 26.43578125 124.74633789 21.67578125 124.74633789 C21.32966797 122.27907227 21.32966797 122.27907227 20.9765625 119.76196289 C16.61351099 89.52103151 10.31022957 51.75709543 -14.32421875 30.74633789 C-24.13472034 24.21437781 -32.75508176 22.72456934 -44.1953125 24.88696289 C-58.6811678 28.8655998 -67.82314193 37.96449738 -75.39648438 50.5246582 C-98.21571753 90.64095605 -99.7409594 142.28913579 -99.58496094 187.21069336 C-99.57420011 190.87768998 -99.58496604 194.54419921 -99.59765625 198.21118164 C-99.61028357 218.66215824 -98.70388559 239.13538642 -95.57421875 259.37133789 C-95.40647949 260.47195557 -95.23874023 261.57257324 -95.06591797 262.70654297 C-90.30691135 292.41524782 -81.5831045 326.14650185 -57.4296875 346.25024414 C-46.62382114 353.92862413 -35.30392833 355.98367913 -22.32421875 354.74633789 C-18.35080473 353.89350757 -14.9452075 352.57402051 -11.32421875 350.74633789 C-10.50953125 350.34543945 -9.69484375 349.94454102 -8.85546875 349.53149414 C7.90268754 340.38344996 19.82685221 323.95511692 30.67578125 308.74633789 C35.4612741 310.34150217 37.25096649 314.42367028 39.98828125 318.49633789 C40.56384766 319.30844727 41.13941406 320.12055664 41.73242188 320.95727539 C42.26673828 321.74875977 42.80105469 322.54024414 43.3515625 323.35571289 C43.84567627 324.07726562 44.33979004 324.79881836 44.84887695 325.54223633 C45.67578125 327.74633789 45.67578125 327.74633789 44.94140625 330.30664062 C29.31656473 360.42605446 3.21549528 388.62104644 -29.59960938 399.50073242 C-56.36225661 407.44552359 -85.41693439 404.75391347 -110.19921875 391.87133789 C-150.06627024 368.60052503 -172.50572318 325.26044002 -183.93139648 281.93334961 C-201.68636885 210.77708516 -198.95320068 124.00101366 -163.32421875 58.74633789 C-162.83937012 57.83899902 -162.83937012 57.83899902 -162.34472656 56.91333008 C-157.71972971 48.28460461 -152.4650046 40.37609401 -146.32421875 32.74633789 C-145.88094238 32.18946289 -145.43766602 31.63258789 -144.98095703 31.05883789 C-124.65204811 5.69900163 -97.94600428 -10.11387134 -65.27734375 -13.94116211 C-41.33179681 -15.83409072 -21.18333781 -11.27836943 0 0 Z " fill="#004B88" transform="translate(1455.32421875,118.253662109375)"/>
<path d="M0 0 C0.66 0 1.32 0 2 0 C2.45717407 0.9895166 2.45717407 0.9895166 2.92358398 1.99902344 C10.05735088 17.4280825 17.26213655 32.82175595 24.53146362 48.18737793 C29.66835842 59.04668179 34.77339158 69.92002956 39.84295654 80.81091309 C44.71136824 91.26705739 49.6300625 101.69892323 54.5625 112.125 C59.58056524 122.73232866 64.5725311 133.350209 69.5 144 C74.38908557 154.56484991 79.33667576 165.10078786 84.3125 175.625 C84.67049683 176.38224365 85.02849365 177.1394873 85.39733887 177.91967773 C86.84851902 180.98906158 88.2998306 184.05838323 89.75131226 187.12762451 C93.59131836 195.24840077 97.42355395 203.37282591 101.25 211.5 C101.58312195 212.2074939 101.9162439 212.91498779 102.25946045 213.6439209 C106.68230566 223.04041625 111.07406148 232.45073556 115.4375 241.875 C120.34851713 252.48095968 125.31699748 263.05863353 130.3125 273.625 C130.67040619 274.38206238 131.02831238 275.13912476 131.39706421 275.91912842 C132.84833851 278.98870672 134.2997526 282.05821887 135.75132751 285.12765503 C145.48347198 305.70903579 155.16694046 326.31204271 164.73828125 346.96875 C168.41546664 354.90247344 172.11313656 362.82660095 175.8125 370.75 C176.12576233 371.42099731 176.43902466 372.09199463 176.76177979 372.7833252 C178.5074722 376.52239479 180.25355276 380.26128289 182 384 C184.17636388 381.27296064 185.71694475 378.68881209 187.07104492 375.47753906 C187.45479782 374.57521545 187.83855072 373.67289185 188.2339325 372.7432251 C188.64528946 371.76061707 189.05664642 370.77800903 189.48046875 369.765625 C189.9211116 368.72581482 190.36175446 367.68600464 190.81575012 366.61468506 C191.77353568 364.35286523 192.72881088 362.08998112 193.68188477 359.82617188 C195.2108387 356.19456538 196.74583699 352.56555026 198.28320312 348.9375 C198.8123531 347.68860104 199.34149734 346.43969966 199.87063599 345.1907959 C200.13528782 344.56617966 200.39993965 343.94156342 200.67261124 343.29801941 C201.48726962 341.37456779 202.30120311 339.45081083 203.11495972 337.52697754 C208.2074544 325.49041096 213.35417982 313.47732585 218.51089478 301.46813965 C226.87307709 281.99254078 235.20178837 262.502935 243.5 243 C251.28792759 224.69776279 259.09942111 206.40581808 266.9375 188.125 C267.42696106 186.98340424 267.91642212 185.84180847 268.42071533 184.6656189 C271.6807118 177.06274684 274.94174873 169.46032126 278.20298004 161.85797882 C282.11800503 152.73144011 286.03256179 143.6047008 289.94587612 134.47742844 C291.28555318 131.35289407 292.62548582 128.22846984 293.96603394 125.10430908 C295.44403768 121.65961269 296.92131364 118.21460502 298.3984375 114.76953125 C298.83683456 113.74832687 299.27523163 112.7271225 299.72691345 111.67497253 C300.1307576 110.73269302 300.53460175 109.79041351 300.95068359 108.81958008 C301.30021088 108.00475662 301.64973816 107.18993317 302.00985718 106.35041809 C303.03711957 103.91188492 304.02461695 101.45969202 305 99 C305.66 99 306.32 99 307 99 C313.73604161 158.72036711 320.12108161 218.47812727 326.49757528 278.23777042 C327.58297868 288.40973274 328.67007921 298.58151263 329.75830078 308.75317383 C331.03994246 320.73274719 332.32052337 332.71243303 333.5995388 344.69228715 C334.27057284 350.97748326 334.94203221 357.26263312 335.61462402 363.54766273 C336.23994482 369.3915779 336.86373553 375.23565434 337.48631096 381.07986259 C337.71474722 383.22181129 337.94372716 385.36370207 338.17328072 387.50553131 C338.48522665 390.41693022 338.79523707 393.32852874 339.10473633 396.2401886 C339.19655308 397.09281936 339.28836983 397.94545011 339.3829689 398.82391816 C339.70810051 401.89781927 340 404.90647023 340 408 C338.02 408 336.04 408 334 408 C331.9970023 392.40786896 330.17608688 376.80734623 328.5480957 361.171875 C328.32125931 359.01070548 328.09421208 356.84955809 327.86697388 354.68843079 C327.25967689 348.90719948 326.65527268 343.12566923 326.05144906 337.34407425 C325.41657539 331.27013597 324.77895623 325.19648589 324.14164734 319.12280273 C322.93923596 307.65965293 321.73923915 296.19625174 320.54014319 284.73275471 C319.17319614 271.66574207 317.80350644 258.59901737 316.43360388 245.5323143 C313.619384 218.68852534 310.80855137 191.84438259 308 165 C306.87813953 167.4014771 305.75653881 169.80307494 304.63508606 172.20474243 C304.31932885 172.88058915 304.00357163 173.55643587 303.67824602 174.25276279 C301.42492846 179.07912328 299.19837066 183.91646721 297.01171875 188.7734375 C296.67131058 189.52795197 296.3309024 190.28246643 295.98017883 191.05984497 C294.88122022 193.49760274 293.78415793 195.93620644 292.6875 198.375 C292.30182861 199.23182373 291.91615723 200.08864746 291.51879883 200.97143555 C285.22274206 214.96509936 279.02915357 229.00183574 272.8800354 243.06057739 C267.28638725 255.84538568 261.61505907 268.59276713 255.875 281.3125 C255.31229401 282.5595018 255.31229401 282.5595018 254.73822021 283.83169556 C254.17726654 285.07479996 254.17726654 285.07479996 253.60498047 286.34301758 C247.08493399 300.79323466 240.63667076 315.27448757 234.20976257 329.7663269 C231.45774687 335.97104477 228.70021788 342.17330121 225.94140625 348.375 C224.62695549 351.33023854 223.31253867 354.28549217 221.99813843 357.24075317 C221.12939963 359.1939641 220.26060552 361.14715043 219.39175415 363.10031128 C215.35073607 372.18563668 211.31000364 381.27089776 207.3203125 390.37890625 C206.79993408 391.56653564 206.27955566 392.75416504 205.7434082 393.9777832 C204.8203711 396.08859471 203.89947479 398.20034428 202.98120117 400.31323242 C202.5916626 401.20502197 202.20212402 402.09681152 201.80078125 403.015625 C201.47247314 403.77133789 201.14416504 404.52705078 200.8059082 405.30566406 C200 407 200 407 199 408 C196.04294679 408.08868299 193.10934944 408.11520296 190.15234375 408.09765625 C188.82270348 408.09553383 188.82270348 408.09553383 187.46620178 408.09336853 C184.62326746 408.08775215 181.78041069 408.07519691 178.9375 408.0625 C177.01497509 408.05748711 175.09244896 408.05292384 173.16992188 408.04882812 C168.44658451 408.03777741 163.72330542 408.02050183 159 408 C148.6425558 386.0813877 138.3015076 364.15515892 127.98388672 342.21777344 C124.99062375 335.85370223 121.9957466 329.49039063 119.00100708 323.12701416 C117.33394012 319.58470651 115.66697517 316.04235085 114 312.5 C113.33333382 311.0833331 112.66666716 309.66666644 112 308.25 C44.00000001 163.75000001 44.00000001 163.75000001 43.00003052 161.62506104 C42.33326604 160.20818907 41.66649765 158.79131896 40.99972534 157.37445068 C39.33452299 153.83594013 37.66938844 150.2973977 36.00439453 146.75878906 C32.98756711 140.34730437 29.97025122 133.93605195 26.95037842 127.52600098 C25.58497435 124.62765059 24.21996717 121.72911337 22.85498047 118.83056641 C22.22952256 117.50267594 21.60388951 116.17486795 20.97802734 114.84716797 C20.69008301 114.23631348 20.40213867 113.62545898 20.10546875 112.99609375 C19.81125031 112.37431244 19.51703186 111.75253113 19.21389771 111.11190796 C18.59584991 109.7931446 17.98700932 108.47003521 17.38644409 107.14321899 C15.26173685 102.4929595 12.91942943 98.03430339 10.42236328 93.57177734 C-0.20739567 74.06194709 -1.85233447 57.46260081 -0.96130371 35.49072266 C-0.8145358 31.46757969 -0.75341764 27.44305169 -0.68359375 23.41796875 C-0.53623494 15.60842001 -0.29944886 7.80536203 0 0 Z " fill="#ED1846" transform="translate(3,0)"/>
<path d="M0 0 C6.27 0 12.54 0 19 0 C20.2730194 3.54089201 21.54358245 7.0826369 22.8125 10.625 C23.23539307 11.80457275 23.65828613 12.98414551 24.09399414 14.19946289 C27.36853189 23.35378974 30.58605521 32.52744627 33.7890625 41.70703125 C35.07439859 45.38402159 36.36009678 49.06088517 37.64584351 52.73773193 C38.50659042 55.20322022 39.36533696 57.66940779 40.22207642 60.1362915 C41.4438742 63.65381083 42.67248372 67.16888661 43.90234375 70.68359375 C44.270784 71.75027786 44.63922424 72.81696198 45.01882935 73.91596985 C45.54112625 75.40280525 45.54112625 75.40280525 46.07397461 76.91967773 C46.37468369 77.78342514 46.67539276 78.64717255 46.98521423 79.53709412 C49.02286032 84.5592246 49.02286032 84.5592246 52.875 88.125 C55.65509797 87.96146483 56.73413132 86.75360427 58.61328125 84.79638672 C61.59468809 80.93420512 63.48981958 76.39258763 65.5625 72 C69.41801729 63.89651937 72.67811278 57.49141542 80 52 C79.43152344 51.8040625 78.86304688 51.608125 78.27734375 51.40625 C71.15819587 48.64891727 66.32435046 44.57096344 62.83203125 37.703125 C60.78408142 31.04969174 60.68075005 21.79101134 63.625 15.375 C67.98555651 8.3799406 74.34799959 5.37958549 82 3 C86.11568119 2.19461232 89.99862305 1.87763423 94.18896484 1.88647461 C95.38975677 1.88655014 96.59054871 1.88662567 97.82772827 1.88670349 C99.10918732 1.89186478 100.39064636 1.89702606 101.7109375 1.90234375 C103.04757636 1.90421105 104.38421592 1.90563348 105.72085571 1.90663147 C109.22249269 1.91043205 112.72408756 1.92024109 116.22570801 1.93133545 C119.80541413 1.94160268 123.38512712 1.94614043 126.96484375 1.95117188 C133.97657969 1.96186578 140.98828782 1.97891236 148 2 C148 3.65 148 5.3 148 7 C147.030625 7.350625 146.06125 7.70125 145.0625 8.0625 C141.74641682 9.66635395 141.74641682 9.66635395 141.31689453 12.75048828 C140.70422253 18.78093952 140.85770196 24.87625835 140.8671875 30.9296875 C140.86651255 32.28817767 140.86554093 33.64666771 140.86428833 35.00515747 C140.86281937 37.84443315 140.86493939 40.68367723 140.86962891 43.52294922 C140.87531477 47.13936326 140.87204933 50.75570288 140.86605644 54.37211418 C140.8624198 57.17587837 140.86360378 59.9796253 140.86618423 62.78339005 C140.86716429 64.75792744 140.86415723 66.73246554 140.86105347 68.70700073 C140.87791881 75.2238677 141.12090959 81.54082431 142 88 C144.97 88.495 144.97 88.495 148 89 C148 90.65 148 92.3 148 94 C132.82 94 117.64 94 102 94 C102 92.35 102 90.7 102 89 C102.969375 88.731875 103.93875 88.46375 104.9375 88.1875 C106.4534375 87.5996875 106.4534375 87.5996875 108 87 C109.13917218 83.58248347 109.11338481 80.96512063 109.09765625 77.36328125 C109.09443359 76.06455078 109.09121094 74.76582031 109.08789062 73.42773438 C109.07953531 72.05598892 109.07107037 70.68424413 109.0625 69.3125 C109.05748335 67.92903805 109.05292073 66.54557437 109.04882812 65.16210938 C109.03702529 61.77469605 109.02056019 58.38736967 109 55 C99.64707365 66.22351162 95.0455526 80.69978428 89 94 C63.59 94 38.18 94 12 94 C12 92.35 12 90.7 12 89 C12.99 88.67 13.98 88.34 15 88 C16.13087014 84.60738958 15.86514295 83.83482243 14.78515625 80.55078125 C14.41596069 79.4047644 14.41596069 79.4047644 14.03930664 78.2355957 C13.71696045 77.27097412 13.39461426 76.30635254 13.0625 75.3125 C12.051875 72.239375 11.04125 69.16625 10 66 C3.07 66 -3.86 66 -11 66 C-11.70125 68.165625 -12.4025 70.33125 -13.125 72.5625 C-13.51945313 73.78066406 -13.91390625 74.99882813 -14.3203125 76.25390625 C-15.09951477 80.54847507 -14.64557596 82.98640009 -13 87 C-10.50358872 88.51792644 -10.50358872 88.51792644 -8 89 C-8 90.65 -8 92.3 -8 94 C-18.23 94 -28.46 94 -39 94 C-39 92.35 -39 90.7 -39 89 C-37.03501678 87.61558 -35.02951535 86.28796166 -33 85 C-29.2909938 80.23199908 -27.34526469 75.16281963 -25.3125 69.51171875 C-24.80305092 68.1251432 -24.80305092 68.1251432 -24.28330994 66.71055603 C-23.1813284 63.7055694 -22.09056179 60.69664768 -21 57.6875 C-20.24359906 55.61807846 -19.48651439 53.54890671 -18.72875977 51.47998047 C-16.83433171 46.30171032 -14.94911523 41.12014572 -13.06719971 35.93731689 C-11.45393972 31.49704599 -9.83411953 27.05917342 -8.21484375 22.62109375 C-5.46669004 15.08428682 -2.73012659 7.54335554 0 0 Z M96.5625 16.3125 C93.21720631 22.06640515 91.91650351 27.4882529 93.5 34.08203125 C95.00541539 38.69236589 96.59603829 41.60654255 101 44 C103.97 44.33 106.94 44.66 110 45 C110 33.78 110 22.56 110 11 C105.00857985 11 100.13833377 12.92004232 96.5625 16.3125 Z M-1 33 C-2.17152378 36.45670732 -3.33639077 39.91562122 -4.5 43.375 C-5.00080078 44.85226562 -5.00080078 44.85226562 -5.51171875 46.359375 C-5.82753906 47.30039062 -6.14335938 48.24140625 -6.46875 49.2109375 C-6.76201172 50.08024902 -7.05527344 50.94956055 -7.35742188 51.84521484 C-8.09525788 53.94467299 -8.09525788 53.94467299 -8 56 C-3.05 56 1.9 56 7 56 C4.95285106 48.22083402 2.61516053 40.6065329 0 33 C-0.33 33 -0.66 33 -1 33 Z " fill="#004B88" transform="translate(725,557)"/>
<path d="M0 0 C0.74886475 0.00523682 1.49772949 0.01047363 2.26928711 0.01586914 C3.07817383 0.0190918 3.88706055 0.02231445 4.72045898 0.02563477 C5.5705957 0.03401367 6.42073242 0.04239258 7.29663086 0.05102539 C8.15063477 0.05553711 9.00463867 0.06004883 9.88452148 0.06469727 C12.00108749 0.07652166 14.11761771 0.0944577 16.23413086 0.11352539 C19.33375563 7.63225041 22.08962375 15.24349578 24.75366211 22.92602539 C25.39845587 24.77378889 26.04325363 26.62155101 26.6882658 28.46923828 C28.25588486 32.96226923 29.81847286 37.4570517 31.38085938 41.9519043 C37.60783899 59.90809207 37.60783899 59.90809207 44.18334961 77.73852539 C44.4529097 78.46056152 44.72246979 79.18259766 45.00019836 79.92651367 C46.78830433 84.61804415 46.78830433 84.61804415 50.23413086 88.11352539 C56.20280568 88.2556367 60.82666281 84.80018095 65.23413086 81.11352539 C71.44892184 74.5242084 76.42556649 66.76075906 81.23413086 59.11352539 C81.68232178 58.63133545 82.1305127 58.14914551 82.59228516 57.65234375 C84.16220695 55.72881196 84.8386553 54.58232749 85.23413086 52.11352539 C83.67409846 47.39517236 81.12073031 43.27377083 78.54663086 39.05102539 C77.83293043 37.83668797 77.12134357 36.62110589 76.41186523 35.40429688 C75.01529327 33.02320594 73.60066292 30.65463278 72.16625977 28.29614258 C70.57140939 25.66909312 69.00999445 23.02754093 67.46459961 20.37133789 C63.69601014 14.08721299 60.80210661 10.45277268 54.23413086 7.11352539 C54.23413086 5.46352539 54.23413086 3.81352539 54.23413086 2.11352539 C70.07413086 2.11352539 85.91413086 2.11352539 102.23413086 2.11352539 C102.23413086 3.76352539 102.23413086 5.41352539 102.23413086 7.11352539 C100.91413086 7.44352539 99.59413086 7.77352539 98.23413086 8.11352539 C101.04171252 15.99568011 104.87427265 22.98589203 109.23413086 30.11352539 C116.22141936 22.05350682 116.22141936 22.05350682 118.23413086 12.11352539 C116.3577277 9.47266168 115.05077423 8.38573985 111.98413086 7.36352539 C111.40663086 7.28102539 110.82913086 7.19852539 110.23413086 7.11352539 C110.23413086 5.46352539 110.23413086 3.81352539 110.23413086 2.11352539 C122.11413086 2.11352539 133.99413086 2.11352539 146.23413086 2.11352539 C146.23413086 3.76352539 146.23413086 5.41352539 146.23413086 7.11352539 C145.6656543 7.38165039 145.09717773 7.64977539 144.51147461 7.92602539 C143.73932617 8.31790039 142.96717773 8.70977539 142.17163086 9.11352539 C141.4175293 9.48477539 140.66342773 9.85602539 139.88647461 10.23852539 C132.46321183 15.48619275 127.68433445 23.61387438 122.79663086 31.11352539 C122.16047852 32.0790332 121.52432617 33.04454102 120.86889648 34.03930664 C119.31858428 36.39391615 117.77382125 38.75196241 116.23413086 41.11352539 C120.27654895 49.44927029 124.65614126 57.50861401 129.35913086 65.48852539 C129.9662793 66.52879883 130.57342773 67.56907227 131.19897461 68.64086914 C137.88585615 81.28288818 137.88585615 81.28288818 149.23413086 89.11352539 C149.23413086 90.76352539 149.23413086 92.41352539 149.23413086 94.11352539 C133.06413086 94.11352539 116.89413086 94.11352539 100.23413086 94.11352539 C100.23413086 92.46352539 100.23413086 90.81352539 100.23413086 89.11352539 C101.55413086 88.45352539 102.87413086 87.79352539 104.23413086 87.11352539 C102.04390716 81.71947932 99.44163359 76.72265694 96.54663086 71.67602539 C96.1309082 70.94448242 95.71518555 70.21293945 95.28686523 69.45922852 C94.27256519 67.67545948 93.25381088 65.89422447 92.23413086 64.11352539 C84.05061683 73.42182856 84.05061683 73.42182856 82.23413086 85.11352539 C83.78110296 87.43398354 84.7730906 87.96862702 87.42163086 88.80102539 C88.01975586 88.90415039 88.61788086 89.00727539 89.23413086 89.11352539 C89.23413086 90.76352539 89.23413086 92.41352539 89.23413086 94.11352539 C62.83413086 94.11352539 36.43413086 94.11352539 9.23413086 94.11352539 C9.23413086 92.46352539 9.23413086 90.81352539 9.23413086 89.11352539 C11.21413086 88.12352539 11.21413086 88.12352539 13.23413086 87.11352539 C12.01831801 79.73866061 9.91727627 73.08970345 7.23413086 66.11352539 C0.30413086 65.78352539 -6.62586914 65.45352539 -13.76586914 65.11352539 C-17.46023575 75.8589029 -17.46023575 75.8589029 -15.45336914 86.55102539 C-13.74277301 88.35039496 -13.74277301 88.35039496 -10.76586914 89.11352539 C-10.76586914 90.76352539 -10.76586914 92.41352539 -10.76586914 94.11352539 C-20.99586914 94.11352539 -31.22586914 94.11352539 -41.76586914 94.11352539 C-41.76586914 92.46352539 -41.76586914 90.81352539 -41.76586914 89.11352539 C-39.77302776 87.76951609 -37.77167243 86.43811247 -35.76586914 85.11352539 C-31.55989451 79.80420652 -29.20431175 73.63818015 -26.94555664 67.32446289 C-26.60464996 66.39475174 -26.26374329 65.46504059 -25.9125061 64.50715637 C-24.81349512 61.50395786 -23.72717183 58.49634108 -22.64086914 55.48852539 C-21.88589772 53.41959764 -21.13003304 51.35099563 -20.37329102 49.28271484 C-18.50600953 44.17367947 -16.6482921 39.06123519 -14.79406738 33.94744873 C-12.52901246 27.70449698 -10.25081709 21.46634915 -7.96954346 15.22930908 C-7.27727938 13.33229294 -6.58931501 11.43376213 -5.90209961 9.53491211 C-5.49620605 8.42003418 -5.0903125 7.30515625 -4.67211914 6.15649414 C-4.3247168 5.19767334 -3.97731445 4.23885254 -3.61938477 3.25097656 C-2.3823812 0.15316014 -2.3823812 0.15316014 0 0 Z M-3.76586914 34.11352539 C-6.07586914 41.37352539 -8.38586914 48.63352539 -10.76586914 56.11352539 C-5.81586914 56.11352539 -0.86586914 56.11352539 4.23413086 56.11352539 C2.8040841 48.9632916 1.03904839 41.86285819 -1.76586914 35.11352539 C-2.42586914 34.78352539 -3.08586914 34.45352539 -3.76586914 34.11352539 Z " fill="#004B88" transform="translate(318.765869140625,556.886474609375)"/>
<path d="M0 0 C32.01 0 64.02 0 97 0 C97 1.65 97 3.3 97 5 C96.195625 5.28875 95.39125 5.5775 94.5625 5.875 C91.8673532 6.73262568 91.8673532 6.73262568 91 9 C90.89750228 11.32238096 90.86154668 13.64778036 90.85473633 15.97241211 C90.85137772 16.68964951 90.8480191 17.4068869 90.84455872 18.14585876 C90.83503934 20.52303792 90.83310514 22.90014671 90.83203125 25.27734375 C90.82881945 26.92639699 90.82545543 28.57544993 90.82194519 30.22450256 C90.81595152 33.68377341 90.81410554 37.14301925 90.81469727 40.60229492 C90.81479892 45.03893739 90.80114411 49.47541995 90.78392506 53.9120245 C90.7728168 57.31861612 90.77077769 60.72516893 90.77130699 64.13177681 C90.7701252 65.76767084 90.7656923 67.40356581 90.75797462 69.03944206 C90.74819796 71.32580706 90.75104338 73.61182296 90.75708008 75.89819336 C90.75565506 77.20010117 90.75423004 78.50200897 90.75276184 79.84336853 C90.75419837 83.16000378 90.75419837 83.16000378 93 86 C95.05925139 86.72382467 95.05925139 86.72382467 97 87 C97 88.65 97 90.3 97 92 C81.82 92 66.64 92 51 92 C51 90.35 51 88.7 51 87 C51.969375 86.71125 52.93875 86.4225 53.9375 86.125 C57.10664203 85.35785318 57.10664203 85.35785318 58 83 C58.12128293 80.66213665 58.17754956 78.3208229 58.20532227 75.97998047 C58.21522186 75.25792419 58.22512146 74.53586792 58.23532104 73.79193115 C58.26696031 71.40038352 58.29170299 69.00881601 58.31640625 66.6171875 C58.33697369 64.96094236 58.3579701 63.30470249 58.37937927 61.64846802 C58.43462167 57.28538276 58.48402137 52.92224996 58.53222656 48.55908203 C58.58242577 44.10835531 58.63812007 39.65769777 58.69335938 35.20703125 C58.80096749 26.47141103 58.90189887 17.73573216 59 9 C52.07 9 45.14 9 38 9 C38.08544626 18.59672645 38.17916732 28.19327355 38.28752708 37.78976917 C38.33750862 42.24563791 38.38383844 46.70148272 38.421875 51.1574707 C38.45870442 55.4564035 38.50505787 59.75513704 38.55806351 64.05389977 C38.57661995 65.69533486 38.59172329 67.33681269 38.60334396 68.97831154 C38.62018521 71.27456769 38.64921442 73.57036627 38.68115234 75.86645508 C38.69447601 77.17439529 38.70779968 78.48233551 38.7215271 79.82991028 C38.7583816 83.15731478 38.7583816 83.15731478 41 86 C43.56282742 86.72965366 43.56282742 86.72965366 46 87 C46 88.65 46 90.3 46 92 C30.82 92 15.64 92 0 92 C0 90.35 0 88.7 0 87 C0.804375 86.71125 1.60875 86.4225 2.4375 86.125 C5.1326468 85.26737432 5.1326468 85.26737432 6 83 C6.10765052 80.67773586 6.14893307 78.3523138 6.16113281 76.02758789 C6.16609772 75.31035049 6.17106262 74.5931131 6.17617798 73.85414124 C6.19080604 71.47696989 6.19760211 69.09986524 6.203125 66.72265625 C6.20887527 65.07360329 6.21463301 63.42455035 6.22039795 61.77549744 C6.23090932 58.31623014 6.23675131 54.8569861 6.24023438 51.39770508 C6.24572397 46.96099446 6.26976115 42.52458999 6.29820633 38.0879755 C6.31681071 34.68138219 6.32203709 31.27486302 6.32357025 27.86822319 C6.32660155 26.23231772 6.33464612 24.59641369 6.34775543 22.96055794 C6.3647729 20.67406889 6.36294681 18.38833297 6.35644531 16.10180664 C6.36009094 14.79989883 6.36373657 13.49799103 6.36749268 12.15663147 C6.26202145 9.05010039 6.26202145 9.05010039 4.66522217 7.11863708 C2.87969046 5.81183424 2.87969046 5.81183424 0 5 C0 3.35 0 1.7 0 0 Z " fill="#004B88" transform="translate(1187,559)"/>
<path d="M0 0 C32.34 0 64.68 0 98 0 C98 1.65 98 3.3 98 5 C96.02 5.33 94.04 5.66 92 6 C91.04480507 10.0234985 90.86766966 13.7835986 90.85473633 17.9140625 C90.85137772 18.58951111 90.8480191 19.26495972 90.84455872 19.96087646 C90.83509927 22.18226994 90.83310836 24.40358767 90.83203125 26.625 C90.828816 28.17529328 90.82545172 29.72558626 90.82194519 31.27587891 C90.81596704 34.52051497 90.81410402 37.76512444 90.81469727 41.00976562 C90.814799 45.1625154 90.80112944 49.31509463 90.78392506 53.46780396 C90.77279678 56.66773255 90.77077829 59.86761995 90.77130699 63.06756592 C90.7701288 64.59853708 90.76571601 66.12950938 90.75797462 67.66046143 C90.74815468 69.80240801 90.75106013 71.9439847 90.75708008 74.0859375 C90.75565506 75.3032959 90.75423004 76.5206543 90.75276184 77.77490234 C90.9982491 80.97716037 91.4722025 83.182585 93 86 C95.54775306 86.89386164 95.54775306 86.89386164 98 87 C98 88.65 98 90.3 98 92 C82.82 92 67.64 92 52 92 C52 90.35 52 88.7 52 87 C54.97 86.505 54.97 86.505 58 86 C59.2648851 78.07758798 59.22580947 70.1273017 59.31640625 62.125 C59.33700953 60.5894316 59.35800681 59.05386844 59.37937927 57.51831055 C59.43425185 53.50055213 59.48381282 49.48274553 59.53222656 45.46490479 C59.58269781 41.35546645 59.63824935 37.24609703 59.69335938 33.13671875 C59.80051433 25.09120284 59.90158157 17.04562753 60 9 C52.74 9 45.48 9 38 9 C38.08554789 18.30141993 38.17932205 27.60265747 38.28752708 36.90384197 C38.33744478 41.22289005 38.38377519 45.54191421 38.421875 49.86108398 C38.45878504 54.03035098 38.50516046 58.19941563 38.55806351 62.36850929 C38.57657709 63.95805113 38.59169625 65.54763629 38.60334396 67.13724327 C38.62025859 69.36603837 38.6493055 71.59437314 38.68115234 73.82299805 C38.69447601 75.09096725 38.70779968 76.35893646 38.7215271 77.66532898 C38.99198593 80.90403277 39.45015027 83.15232527 41 86 C43.54775306 86.89386164 43.54775306 86.89386164 46 87 C46 88.65 46 90.3 46 92 C30.82 92 15.64 92 0 92 C0 90.35 0 88.7 0 87 C2.97 86.505 2.97 86.505 6 86 C6.82706171 81.66649276 7.1310159 77.56515483 7.14526367 73.15600586 C7.14862228 72.49991837 7.1519809 71.84383087 7.15544128 71.16786194 C7.16487713 69.0168362 7.16689028 66.86588884 7.16796875 64.71484375 C7.17118512 63.2108202 7.17454948 61.70679695 7.17805481 60.20277405 C7.18402666 57.05827102 7.18589658 53.91379541 7.18530273 50.76928711 C7.18520091 46.74547929 7.19888217 42.72184714 7.21607494 38.69808102 C7.22720325 35.59508967 7.22922173 32.4921408 7.22869301 29.38913155 C7.22987075 27.90560866 7.23428096 26.4220846 7.24202538 24.93858147 C7.25184757 22.86379576 7.24893927 20.78939175 7.24291992 18.71459961 C7.24434494 17.5357872 7.24576996 16.35697479 7.24723816 15.1424408 C6.99813848 11.97633976 6.48647205 9.7977689 5 7 C2.47627099 5.63921965 2.47627099 5.63921965 0 5 C0 3.35 0 1.7 0 0 Z " fill="#004B88" transform="translate(1295,559)"/>
<path d="M0 0 C7.59843691 -0.07003094 15.19683964 -0.12307729 22.79552746 -0.15543652 C26.32530949 -0.17098059 29.85486802 -0.19200787 33.38452148 -0.22631836 C37.45819028 -0.26566158 41.53163056 -0.27980199 45.60546875 -0.29296875 C46.8507988 -0.30845261 48.09612885 -0.32393646 49.37919617 -0.33988953 C59.93965518 -0.34188319 71.13279377 0.24970435 79.48046875 7.40234375 C83.66106211 11.79787764 85 17.03197026 85 23 C84.34351329 28.45704574 82.57657016 32.76458796 79 37 C75.52656453 39.5963053 72.11823882 41.62725373 68 43 C68.6290625 43.20753906 69.258125 43.41507813 69.90625 43.62890625 C77.72697962 46.44389778 83.52400134 50.05387714 88 57.1875 C89.75345208 63.87253606 90.31063401 70.92283268 87.4375 77.375 C82.97349848 84.87203391 76.18103572 88.53430917 68 91 C63.82223408 91.81826075 59.88127884 92.12220669 55.62744141 92.11352539 C54.38660797 92.11344986 53.14577454 92.11337433 51.86734009 92.11329651 C50.52874714 92.10819113 49.19015461 92.10297515 47.8515625 92.09765625 C46.47008312 92.09578906 45.08860308 92.09436658 43.7071228 92.09336853 C40.08711897 92.08956702 36.46715583 92.07975716 32.84716797 92.06866455 C29.14681549 92.05839935 25.44645639 92.05386 21.74609375 92.04882812 C14.49737736 92.03813258 7.2486944 92.02108485 0 92 C0 90.35 0 88.7 0 87 C0.969375 86.71125 1.93875 86.4225 2.9375 86.125 C6.10664203 85.35785318 6.10664203 85.35785318 7 83 C7.10765052 80.67773586 7.14893307 78.3523138 7.16113281 76.02758789 C7.16609772 75.31035049 7.17106262 74.5931131 7.17617798 73.85414124 C7.19080604 71.47696989 7.19760211 69.09986524 7.203125 66.72265625 C7.20887527 65.07360329 7.21463301 63.42455035 7.22039795 61.77549744 C7.23090932 58.31623014 7.23675131 54.8569861 7.24023438 51.39770508 C7.24572397 46.96099446 7.26976115 42.52458999 7.29820633 38.0879755 C7.31681071 34.68138219 7.32203709 31.27486302 7.32357025 27.86822319 C7.32660155 26.23231772 7.33464612 24.59641369 7.34775543 22.96055794 C7.3647729 20.67406889 7.36294681 18.38833297 7.35644531 16.10180664 C7.36009094 14.79989883 7.36373657 13.49799103 7.36749268 12.15663147 C7.26664974 9.03860781 7.26664974 9.03860781 5.61444092 7.09910583 C3.76713467 5.84146608 2.19174494 5.37788706 0 5 C0 3.35 0 1.7 0 0 Z M39 9 C39 18.9 39 28.8 39 39 C46.49267165 39.05316553 46.49267165 39.05316553 52 35 C55.92325258 29.57640617 55.76298413 24.47221022 55 18 C53.15014828 13.60660216 51.29685847 11.88061941 47 10.125 C44.03081747 9.11594187 42.27535246 9 39 9 Z M39 49 C38.90110698 53.50229474 38.82852291 58.00395727 38.78027344 62.50708008 C38.7601602 64.03876762 38.7328655 65.57037839 38.69824219 67.10180664 C38.64970685 69.30374073 38.62703004 71.50465982 38.609375 73.70703125 C38.58872986 74.39150833 38.56808472 75.07598541 38.54681396 75.78120422 C38.54528622 79.01968993 38.59408339 80.58244851 40.89941406 82.95385742 C44.05175056 84.52379721 45.84855188 83.85099906 49.1015625 82.859375 C53.00460523 81.09256553 54.47848348 78.09518469 56.25 74.375 C57.59462225 68.32419987 57.84944347 62.45891531 55.8125 56.5625 C53.10761899 52.73835788 50.45021241 50.48340414 46 49 C43.66700175 48.96045766 41.33291811 48.95598268 39 49 Z " fill="#004B88" transform="translate(591,559)"/>
<path d="M0 0 C1.00772461 0.01015137 2.01544922 0.02030273 3.05371094 0.03076172 C17.01726651 0.32195129 28.80072558 3.80590586 39.3125 13.375 C49.42383418 24.12169629 53.06095758 37.39033799 52.8125 51.81640625 C51.96500229 63.88000645 47.55925512 76.00959612 38.5625 84.375 C26.05052362 94.77227614 10.64195717 98.4379177 -5.4375 97.375 C-21.02480263 95.90136686 -33.46408447 89.74330679 -43.61328125 77.859375 C-51.55564828 67.0427895 -53.72158741 53.92056784 -52.125 40.80859375 C-49.92533254 28.25870528 -44.39293786 17.7724957 -34.37109375 9.71484375 C-23.96285265 2.5026686 -12.52327346 -0.18335994 0 0 Z M-9.4375 13.375 C-13.65677912 19.85357274 -16.36380974 26.73367189 -17.4375 34.375 C-17.60185547 35.46554687 -17.60185547 35.46554687 -17.76953125 36.578125 C-19.66857442 51.06149423 -19.23959061 68.66440654 -11.20703125 81.3125 C-7.68365957 85.82241575 -5.19267028 87.14481373 0.375 87.875 C4.58220113 87.71859847 6.97146086 86.37142971 9.9609375 83.45703125 C19.39759576 71.18937551 19.90216548 53.06950561 18.33984375 38.26513672 C17.07171771 28.60460614 15.1731226 18.77117504 7.875 11.8125 C1.87190758 8.08084796 -4.13894552 8.33839653 -9.4375 13.375 Z " fill="#004B88" transform="translate(527.4375,556.625)"/>
<path d="M0 0 C8.13728208 -0.0699339 16.27443571 -0.12302907 24.41194534 -0.15543652 C28.19173146 -0.17100124 31.97130991 -0.19206809 35.75097656 -0.22631836 C39.40794628 -0.25924421 43.06471798 -0.27692187 46.72182465 -0.28463173 C48.1074815 -0.29011635 49.49312921 -0.30082379 50.87870026 -0.31719017 C61.63109189 -0.43898708 73.40102163 -0.30913161 82 7 C86.82551062 11.82551062 89.07758643 18.22708179 89.375 25 C89.08166939 31.40225929 87.04857386 37.88667691 82.63671875 42.65625 C72.95771345 50.60273645 61.41385998 51.31269461 49.4375 51.125 C48.33341797 51.11597656 47.22933594 51.10695313 46.09179688 51.09765625 C43.3942983 51.07430128 40.69726923 51.04155054 38 51 C38.09372888 55.34200946 38.19986502 59.68348678 38.31738281 64.02490234 C38.35560666 65.50105536 38.39047103 66.97729943 38.421875 68.45361328 C38.46766986 70.57878094 38.52563837 72.70332542 38.5859375 74.828125 C38.6173584 76.1059082 38.6487793 77.38369141 38.68115234 78.70019531 C38.97511034 81.74241295 39.20690837 83.54881754 41 86 C44.05908413 86.81584568 44.05908413 86.81584568 47 87 C47 88.65 47 90.3 47 92 C31.49 92 15.98 92 0 92 C0 90.35 0 88.7 0 87 C0.804375 86.71125 1.60875 86.4225 2.4375 86.125 C5.1326468 85.26737432 5.1326468 85.26737432 6 83 C6.10765052 80.67773586 6.14893307 78.3523138 6.16113281 76.02758789 C6.16609772 75.31035049 6.17106262 74.5931131 6.17617798 73.85414124 C6.19080604 71.47696989 6.19760211 69.09986524 6.203125 66.72265625 C6.20887527 65.07360329 6.21463301 63.42455035 6.22039795 61.77549744 C6.23090932 58.31623014 6.23675131 54.8569861 6.24023438 51.39770508 C6.24572397 46.96099446 6.26976115 42.52458999 6.29820633 38.0879755 C6.31681071 34.68138219 6.32203709 31.27486302 6.32357025 27.86822319 C6.32660155 26.23231772 6.33464612 24.59641369 6.34775543 22.96055794 C6.3647729 20.67406889 6.36294681 18.38833297 6.35644531 16.10180664 C6.36009094 14.79989883 6.36373657 13.49799103 6.36749268 12.15663147 C6.26202145 9.05010039 6.26202145 9.05010039 4.66522217 7.11863708 C2.87969046 5.81183424 2.87969046 5.81183424 0 5 C0 3.35 0 1.7 0 0 Z M38 9 C38 19.89 38 30.78 38 42 C46.86537008 42.10605233 46.86537008 42.10605233 54 38 C57.83876878 33.32015267 58.59802776 28.25126132 58.31640625 22.328125 C57.63717738 17.33034222 55.98891696 14.7785091 52.0625 11.6875 C46.7142664 8.74051414 44.53926529 9 38 9 Z " fill="#004B88" transform="translate(993,559)"/>
<path d="M0 0 C8.13728208 -0.0699339 16.27443571 -0.12302907 24.41194534 -0.15543652 C28.19173146 -0.17100124 31.97130991 -0.19206809 35.75097656 -0.22631836 C39.40794628 -0.25924421 43.06471798 -0.27692187 46.72182465 -0.28463173 C48.1074815 -0.29011635 49.49312921 -0.30082379 50.87870026 -0.31719017 C61.61320114 -0.43878442 73.42848492 -0.31714702 82 7 C87.34046889 12.46184318 89.03602713 17.41513389 89.3125 24.9375 C89.12652214 32.15781699 86.90114503 38.03088877 82.00390625 43.39453125 C74.73052332 49.22174448 65.27129966 51.14661989 56.1640625 51.09765625 C55.10058594 51.09443359 54.03710938 51.09121094 52.94140625 51.08789062 C51.84699219 51.07951172 50.75257813 51.07113281 49.625 51.0625 C48.50738281 51.05798828 47.38976562 51.05347656 46.23828125 51.04882812 C43.49213196 51.03709244 40.74609414 51.02067363 38 51 C38.09372888 55.34200946 38.19986502 59.68348678 38.31738281 64.02490234 C38.35560666 65.50105536 38.39047103 66.97729943 38.421875 68.45361328 C38.46766986 70.57878094 38.52563837 72.70332542 38.5859375 74.828125 C38.6173584 76.1059082 38.6487793 77.38369141 38.68115234 78.70019531 C38.97511034 81.74241295 39.20690837 83.54881754 41 86 C44.05908413 86.81584568 44.05908413 86.81584568 47 87 C47 88.65 47 90.3 47 92 C31.49 92 15.98 92 0 92 C0 90.35 0 88.7 0 87 C2.97 86.505 2.97 86.505 6 86 C7.03915308 78.33121541 7.14520774 70.79097145 7.1328125 63.05859375 C7.13348786 61.72298668 7.13445981 60.38737973 7.13571167 59.05177307 C7.13717722 56.26733212 7.13507077 53.48292349 7.13037109 50.69848633 C7.12466892 47.149291 7.12796319 43.60017124 7.13394356 40.05097866 C7.13757542 37.29787131 7.13639866 34.54478157 7.13381577 31.79167366 C7.13283501 29.85309423 7.13584391 27.91451408 7.13894653 25.97593689 C7.18293904 16.932175 7.18293904 16.932175 6 8 C3.08158143 5.91367303 3.08158143 5.91367303 0 5 C0 3.35 0 1.7 0 0 Z M38 9 C38 19.89 38 30.78 38 42 C46.13089523 42.07080528 46.13089523 42.07080528 53 39 C57.89086599 33.85172001 58.30127548 29.57418128 58.2109375 22.7265625 C57.93227076 19.12453682 57.13597006 16.91915908 55 14 C48.87972919 9.18191447 45.83474373 9 38 9 Z " fill="#004B88" transform="translate(186,559)"/>
<path d="M0 0 C6.27 0 12.54 0 19 0 C23.69795266 12.96793158 28.35229583 25.94927347 32.89453125 38.97265625 C33.2990451 40.13074799 33.70355896 41.28883972 34.12033081 42.48202515 C35.77491997 47.21979154 37.42891618 51.95774002 39.07495117 56.69848633 C40.30161328 60.22909438 41.53500186 63.75729271 42.76953125 67.28515625 C43.13625443 68.34662369 43.5029776 69.40809113 43.8808136 70.50172424 C47.10833304 81.03147372 47.10833304 81.03147372 54 89 C54 90.65 54 92.3 54 94 C40.14 94 26.28 94 12 94 C12 92.35 12 90.7 12 89 C12.99 88.67 13.98 88.34 15 88 C16.13087014 84.60738958 15.86514295 83.83482243 14.78515625 80.55078125 C14.41596069 79.4047644 14.41596069 79.4047644 14.03930664 78.2355957 C13.71696045 77.27097412 13.39461426 76.30635254 13.0625 75.3125 C12.051875 72.239375 11.04125 69.16625 10 66 C3.07 66 -3.86 66 -11 66 C-13.67916129 73.31215656 -13.67916129 73.31215656 -14.375 80.375 C-14.38273437 81.18710937 -14.39046875 81.99921875 -14.3984375 82.8359375 C-13.90650846 85.5077874 -13.13668536 86.36488398 -11 88 C-9.515 88.495 -9.515 88.495 -8 89 C-8 90.65 -8 92.3 -8 94 C-18.23 94 -28.46 94 -39 94 C-39 92.35 -39 90.7 -39 89 C-37.00715862 87.6559907 -35.00580329 86.32458708 -33 85 C-28.22988081 79.150559 -25.90091668 71.97966153 -23.41796875 64.9609375 C-23.00009598 63.80365143 -22.58222321 62.64636536 -22.15168762 61.45401001 C-20.82152908 57.7640887 -19.50424756 54.06972548 -18.1875 50.375 C-17.31531736 47.94760597 -16.44227759 45.52051973 -15.56835938 43.09375 C-13.85940304 38.34497721 -12.15510146 33.59457644 -10.45458984 28.84277344 C-7.00611628 19.21529434 -3.50502587 9.60700478 0 0 Z M-1 33 C-2.17152378 36.45670732 -3.33639077 39.91562122 -4.5 43.375 C-5.00080078 44.85226562 -5.00080078 44.85226562 -5.51171875 46.359375 C-5.82753906 47.30039062 -6.14335938 48.24140625 -6.46875 49.2109375 C-6.76201172 50.08024902 -7.05527344 50.94956055 -7.35742188 51.84521484 C-8.09525788 53.94467299 -8.09525788 53.94467299 -8 56 C-3.05 56 1.9 56 7 56 C4.95285106 48.22083402 2.61516053 40.6065329 0 33 C-0.33 33 -0.66 33 -1 33 Z " fill="#004B88" transform="translate(1436,557)"/>
<path d="M0 0 C15.84 0 31.68 0 48 0 C48 1.65 48 3.3 48 5 C46.02 5.99 46.02 5.99 44 7 C44.53606016 11.77588988 45.89212807 15.06607963 48.30859375 19.203125 C48.63537613 19.76698914 48.96215851 20.33085327 49.29884338 20.9118042 C49.98632148 22.09412179 50.67820366 23.27388855 51.37426758 24.45117188 C52.43962003 26.25358677 53.49136033 28.0634072 54.54101562 29.875 C57.80543325 35.784933 57.80543325 35.784933 62 41 C63.49972749 37.6964424 64.97083667 34.38085359 66.4375 31.0625 C66.85837891 30.13630859 67.27925781 29.21011719 67.71289062 28.25585938 C70.56977281 21.742168 73.36229369 15.08688108 71 8 C67.49705129 6.28432339 67.49705129 6.28432339 64 5 C64 3.35 64 1.7 64 0 C74.56 0 85.12 0 96 0 C96 1.65 96 3.3 96 5 C94.29427089 6.2053819 92.58260732 7.40395908 90.83154297 8.54248047 C87.52367383 11.17484234 86.21570987 14.75746348 84.5625 18.5625 C83.95740601 19.88749512 83.95740601 19.88749512 83.34008789 21.23925781 C81.86873519 24.48232732 80.43284313 27.73973078 79 31 C78.37757561 32.41077559 77.75483796 33.821413 77.13183594 35.23193359 C76.64001579 36.34573647 76.64001579 36.34573647 76.13825989 37.48204041 C75.45196679 39.03528402 74.76518116 40.58831009 74.07792664 42.14112854 C72.3650936 46.0119533 70.6596032 49.88553371 68.97290039 53.76782227 C65.62915508 61.41921551 62.11438282 68.9399424 58.234375 76.3359375 C57.86678574 77.04155823 57.49919647 77.74717896 57.12046814 78.47418213 C53.24756254 85.7226815 48.82954261 90.93626594 41 94 C33.7386441 96.04807474 26.73262283 95.29709754 20 92 C16.51234106 89.15293148 15.29550526 87.77303157 14.5625 83.375 C14.35986163 78.71431757 14.67398769 75.66366791 16.75 71.4375 C20.21093142 67.68815763 21.75063006 67.12090677 26.875 66.625 C31.18785966 66.73764932 33.70279071 68.17382061 37 71 C39.26383516 73.85440086 38.99788706 75.02112941 38.625 78.75 C38.41875 79.8225 38.2125 80.895 38 82 C39.11375 81.5875 40.2275 81.175 41.375 80.75 C42.00148438 80.51796875 42.62796875 80.2859375 43.2734375 80.046875 C45.55692951 78.66231423 46.12346372 77.50663045 47 75 C46.3526895 72.96236255 46.3526895 72.96236255 44.94921875 71 C44.44350342 70.20916016 43.93778809 69.41832031 43.41674805 68.60351562 C42.84609619 67.74435547 42.27544434 66.88519531 41.6875 66 C40.47732965 64.11576191 39.26909912 62.23027697 38.0625 60.34375 C37.40765625 59.32796875 36.7528125 58.3121875 36.078125 57.265625 C32.72702188 51.99960581 29.50626961 46.65579805 26.28115845 41.31201172 C23.19706224 36.20217283 20.0986479 31.10102326 17 26 C16.64697815 25.41557129 16.2939563 24.83114258 15.93023682 24.22900391 C14.86953352 22.47357202 13.80432396 20.72094317 12.73828125 18.96875 C12.11606689 17.94201172 11.49385254 16.91527344 10.8527832 15.85742188 C7.33878213 10.36531716 7.33878213 10.36531716 2.25 6.5 C1.5075 6.005 0.765 5.51 0 5 C0 3.35 0 1.7 0 0 Z " fill="#004B88" transform="translate(1086,559)"/>
<path d="M0 0 C0.92482178 0.00128906 1.84964355 0.00257813 2.80249023 0.00390625 C8.71586406 0.08712727 14.01362771 0.66462411 19.62890625 2.65625 C21.96256216 3.51498398 21.96256216 3.51498398 25.6875 3.3125 C26.0175 2.3225 26.3475 1.3325 26.6875 0.3125 C28.6675 0.3125 30.6475 0.3125 32.6875 0.3125 C32.6875 10.8725 32.6875 21.4325 32.6875 32.3125 C30.7075 32.3125 28.7275 32.3125 26.6875 32.3125 C26.52894531 31.6834375 26.37039062 31.054375 26.20703125 30.40625 C24.4156651 23.83460842 22.4992354 17.20811015 16.8671875 12.9296875 C12.26176845 10.34704074 7.90567041 9.33790008 2.6875 10.3125 C-3.94586274 12.3150246 -8.0142811 16.30355745 -11.3125 22.3125 C-16.98203517 36.46419131 -17.54113743 54.93374707 -12.3125 69.3125 C-9.05124189 75.69444475 -5.15816337 80.60331628 1.5 83.5625 C9.48644102 85.44166259 15.5221824 84.14484167 22.6875 80.3125 C25.23349567 78.45179015 27.40050097 76.50006429 29.6875 74.3125 C34.40096154 75.80096154 34.40096154 75.80096154 35.8515625 78.390625 C36.12742187 79.02484375 36.40328125 79.6590625 36.6875 80.3125 C26.02846392 91.16892564 13.47571662 97.04406162 -1.75 97.5625 C-15.08256108 97.11335344 -27.24016393 93.37461247 -37.25 84.25 C-47.35668698 73.23823658 -50.93960556 59.92262796 -50.55859375 45.34765625 C-49.93536634 32.17926415 -44.60933435 20.43955031 -35.00390625 11.38671875 C-24.55152365 3.33125407 -13.02530496 -0.07540656 0 0 Z " fill="#004B88" transform="translate(50.3125,556.6875)"/>
<path d="M0 0 C10.80458457 -0.02255075 21.60915363 -0.04091493 32.41375637 -0.05181217 C37.4302247 -0.05704107 42.44667615 -0.06413883 47.46313477 -0.07543945 C52.30009694 -0.0862681 57.13704284 -0.09227679 61.97401619 -0.09487724 C63.82368285 -0.09673153 65.67334857 -0.10035222 67.52300835 -0.10573006 C70.10447014 -0.1129402 72.68586382 -0.11399095 75.26733398 -0.11352539 C76.03985001 -0.11712067 76.81236603 -0.12071594 77.60829163 -0.12442017 C82.88594784 -0.11405216 82.88594784 -0.11405216 84 1 C84.15806531 2.92478813 84.251135 4.8549921 84.31640625 6.78515625 C84.35830078 7.95498047 84.40019531 9.12480469 84.44335938 10.33007812 C84.48267578 11.56177734 84.52199219 12.79347656 84.5625 14.0625 C84.60568359 15.29806641 84.64886719 16.53363281 84.69335938 17.80664062 C84.79984198 20.87097335 84.90185424 23.93539073 85 27 C83.02 27 81.04 27 79 27 C78.70867187 26.33613281 78.41734375 25.67226563 78.1171875 24.98828125 C75.52808966 19.41113652 73.3947978 15.29682088 68 12 C66.11107831 11.4078367 64.20528922 10.86784085 62.2890625 10.37109375 C61.2985791 10.11126709 60.3080957 9.85144043 59.28759766 9.58374023 C58.53269043 9.39110596 57.7777832 9.19847168 57 9 C57.08437238 18.44907664 57.17924361 27.89797247 57.28752708 37.34680557 C57.33747718 41.73426398 57.38380734 46.12169847 57.421875 50.50927734 C57.45874407 54.74337724 57.50510843 58.97727633 57.55806351 63.21120453 C57.57659884 64.826693 57.59171 66.4422245 57.60334396 68.0577774 C57.62022128 70.32030304 57.64925934 72.58236969 57.68115234 74.84472656 C57.69447601 76.13268127 57.70779968 77.42063599 57.7215271 78.74761963 C57.98209363 81.79086542 58.16898686 83.57257273 60 86 C63.56206661 86.81870185 63.56206661 86.81870185 67 87 C67 88.65 67 90.3 67 92 C50.5 92 34 92 17 92 C17 90.35 17 88.7 17 87 C19.64 86.67 22.28 86.34 25 86 C25.84863125 81.55783659 26.14902719 77.32095951 26.20532227 72.80126953 C26.22017166 71.76120003 26.22017166 71.76120003 26.23532104 70.70011902 C26.26669326 68.42771723 26.29159647 66.15529459 26.31640625 63.8828125 C26.3369968 62.29954512 26.3579938 60.71628297 26.37937927 59.13302612 C26.43438309 54.98043071 26.48388735 50.82778749 26.53222656 46.67510986 C26.58260068 42.43180116 26.63820342 38.18856127 26.69335938 33.9453125 C26.80067536 25.63026665 26.90217849 17.31516295 27 9 C24.90526879 9.58496584 22.81492723 10.18566598 20.7265625 10.79296875 C19.56205566 11.12578857 18.39754883 11.4586084 17.19775391 11.80151367 C11.86881855 13.79874559 9.48288711 17.06844625 6.984375 22.0078125 C6.25587129 23.64363446 5.617467 25.3191176 5 27 C3.02 27 1.04 27 -1 27 C-0.67 18.09 -0.34 9.18 0 0 Z " fill="#004B88" transform="translate(94,559)"/>
<path d="M0 0 C22.44 0 44.88 0 68 0 C69.01587978 3.04763934 69.19804406 5.34718967 69.31640625 8.54296875 C69.35830078 9.61611328 69.40019531 10.68925781 69.44335938 11.79492188 C69.48267578 12.91447266 69.52199219 14.03402344 69.5625 15.1875 C69.60568359 16.31865234 69.64886719 17.44980469 69.69335938 18.61523438 C69.79949099 21.41003354 69.90154385 24.20492162 70 27 C68.02 27 66.04 27 64 27 C63.69707031 26.32453125 63.39414062 25.6490625 63.08203125 24.953125 C59.2255925 16.72785339 59.2255925 16.72785339 51.63671875 12.140625 C47.46251447 10.82961566 43.29048956 9.84513706 39 9 C39.0843177 18.59672981 39.1791674 28.19328048 39.28752708 37.78976917 C39.33750862 42.24563791 39.38383844 46.70148272 39.421875 51.1574707 C39.45870442 55.4564035 39.50505787 59.75513704 39.55806351 64.05389977 C39.57661995 65.69533486 39.59172329 67.33681269 39.60334396 68.97831154 C39.62018521 71.27456769 39.64921442 73.57036627 39.68115234 75.86645508 C39.69447601 77.17439529 39.70779968 78.48233551 39.7215271 79.82991028 C39.7583816 83.15731478 39.7583816 83.15731478 42 86 C45.06556598 86.73343428 45.06556598 86.73343428 48 87 C48 88.65 48 90.3 48 92 C32.16 92 16.32 92 0 92 C0 90.35 0 88.7 0 87 C0.969375 86.71125 1.93875 86.4225 2.9375 86.125 C6.10664203 85.35785318 6.10664203 85.35785318 7 83 C7.0972801 80.70811969 7.12797243 78.41332826 7.12939453 76.11938477 C7.13114685 75.41190094 7.13289917 74.70441711 7.13470459 73.97549438 C7.13911503 71.63077357 7.13618764 69.28612787 7.1328125 66.94140625 C7.13348585 65.31477341 7.13445613 63.68814067 7.13571167 62.06150818 C7.13718761 58.64931278 7.13503769 55.23714353 7.13037109 51.82495117 C7.12467839 47.44888759 7.12795056 43.0728854 7.13394356 38.69682407 C7.13755582 35.3365584 7.13640743 31.97630729 7.13381577 28.61604118 C7.13314811 27.00248139 7.13396931 25.38892027 7.13629532 23.77536201 C7.13883222 21.52020894 7.13496635 19.26515542 7.12939453 17.01000977 C7.12859894 15.72586685 7.12780334 14.44172394 7.12698364 13.1186676 C7.14306229 9.96690331 7.14306229 9.96690331 6 7 C2.99152582 5.77479736 2.99152582 5.77479736 0 5 C0 3.35 0 1.7 0 0 Z " fill="#004B88" transform="translate(915,559)"/>
</svg>
