<?xml version="1.0" encoding="utf-8"?>
<!-- Generator: Adobe Illustrator 25.3.1, SVG Export Plug-In . SVG Version: 6.00 Build 0)  -->
<svg version="1.0" id="Слой_1" xmlns="http://www.w3.org/2000/svg" xmlns:xlink="http://www.w3.org/1999/xlink" x="0px" y="0px"
	 viewBox="0 0 147.34 63.48" style="enable-background:new 0 0 147.34 63.48;" xml:space="preserve">
<style type="text/css">
	.Сводчатый_x0020_зеленый{fill:url(#SVGID_1_);stroke:#FFFFFF;stroke-width:0.25;stroke-miterlimit:1;}
	.st0{fill:#0067B2;}
	.st1{fill:#62BAEA;}
</style>
<linearGradient id="SVGID_1_" gradientUnits="userSpaceOnUse" x1="-2.8271" y1="844.324" x2="-2.12" y2="843.6169">
	<stop  offset="0" style="stop-color:#1DA238"/>
	<stop  offset="0.9831" style="stop-color:#24391D"/>
</linearGradient>
<polygon class="st0" points="45.66,31.07 51.98,31.07 51.98,36.9 55.48,31.07 62.42,31.07 57.04,38.75 62.58,47.27 55.3,47.27 
	51.98,41.11 51.98,47.27 45.66,47.27 "/>
<path class="st0" d="M44.06,46.77c-0.99,0.53-2.35,0.99-4.25,0.99c-5.15,0-8.81-3.4-8.81-8.59c0-5.88,4.7-8.59,8.72-8.59
	c1.29,0,3.07,0.32,4.34,1.23v5.67c-0.97-1.23-2.39-1.71-3.5-1.71c-2.35,0-3.48,1.6-3.48,3.57c0,2.06,1.47,3.24,3.46,3.24
	c1.4,0,2.62-0.65,3.52-1.48V46.77z"/>
<path class="st0" d="M22.51,43.39v-2.43h0.77c0.61,0,1.58,0.12,1.58,1.21c0,1.13-1,1.23-1.58,1.23H22.51z M16.19,31.07v16.21h9.35
	c4.38,0,5.33-2.87,5.33-4.52c0-2.2-1.47-3.8-3.5-4.14v-0.05c1.31-0.39,2.76-1.55,2.76-3.38c0-1.25-0.47-4.12-5.02-4.12H16.19z
	 M22.51,37.23v-2.27h0.59c1.1,0,1.4,0.58,1.4,1.14c0,0.55-0.3,1.13-1.4,1.13H22.51z"/>
<polygon class="st1" points="99.54,33.13 97.74,33.2 97.57,32.76 95.84,32.63 95.82,32.31 93.96,32.28 94.27,32.95 95.1,33.05 
	95,32.83 95.75,33.34 97,33.62 97.83,33.65 99.93,33.37 "/>
<path class="st1" d="M94.94,31.56l-0.85-0.12c0,0,0.02-0.3-0.31-0.46c-0.33-0.17-0.26-0.01-0.26-0.01l-0.32-0.24l-0.6-0.1
	l-0.05-0.45l-0.77-0.04l0.02-0.22l-0.61-0.07l-0.26-0.23l0.08-0.25l-0.15-0.23l-0.73-0.34l-0.61-0.24l-0.4-0.46l-0.48-0.41
	l-0.62-0.6l-1.53-0.54l-1.45-1.07l-0.59-0.25l-0.62-0.31l-1.32-0.71l-1.95-1.09l-4.31-2.09l-1.23-0.55c-0.7-0.3-0.81-0.46-0.83-0.55
	c-0.63-0.15-0.84-0.26-1.17-0.59c-0.33,0.01-1.08-0.42-1.28-0.61c0-0.01-1.27-0.38-1.35-0.45c0-0.08-3.29-1.24-3.69-1.34
	c-0.29-0.02-1.08-0.17-1.19-0.22c-0.13,0-0.64-0.16-0.84-0.18c-0.69-0.08-1.34-0.19-2.04-0.19c-0.5,0-0.79,0-1.23-0.11
	c-0.16,0.1-1.19-0.09-1.55,0.19c-0.41,0.02-1.36,0.23-1.62,0.35c-0.56,0.02-1.52,0.64-1.84,0.8c-0.16,0.08-0.33,0.16-0.5,0.24
	c1.03,0.36,2.2,0.79,2.2,0.84c0.08,0.07,1.35,0.44,1.35,0.45c0.2,0.2,0.95,0.63,1.28,0.62c0.33,0.33,0.54,0.44,1.17,0.59
	c0.02,0.09,0.13,0.25,0.82,0.55l1.23,0.54l4.31,2.09l1.95,1.09l1.32,0.71l0.62,0.31l0.59,0.25l0.48,0.36l0.95,0.37l2.14,0.7
	l2.58,1.01l0.96,0.33l0.97,0.3l0.46-0.08l0.5,0.17l0.56,0.5l0.57-0.19l0.39,0.07l0.31,0.4l0.2,0.24l0.49,0.15l0.48,0.06l0.57-0.1
	l0.67,0.06l0.24,0.4l0.94,0.16l0.67,0.05l0.68,0.05l0.52,0.24l0.47,0.51l0.68,0.14l1.75,0.25l1.58-0.19l1.03,0.05L94.94,31.56z"/>
<polygon class="st0" points="80.75,34.12 82.61,34.15 82.62,34.47 84.36,34.6 84.53,35.04 86.33,34.97 86.72,35.21 84.62,35.49 
	83.79,35.46 82.54,35.18 81.79,34.67 81.89,34.89 81.06,34.79 "/>
<path class="st0" d="M80.94,33.36c0,0,0.02-0.3-0.31-0.46c-0.33-0.17-0.26-0.01-0.26-0.01l-0.33-0.24l-0.6-0.1l-0.05-0.45
	l-0.77-0.04l0.02-0.22l-0.61-0.07l-0.26-0.23l0.08-0.26l-0.15-0.23L77,30.7l-0.61-0.24L75.99,30l-0.48-0.42l-0.61-0.6l-1.53-0.54
	l-1.45-1.07l-0.59-0.25l-0.63-0.31l-1.32-0.71l-1.95-1.09l-4.3-2.09l-1.23-0.55c-0.7-0.3-0.81-0.46-0.83-0.55
	c-0.63-0.15-0.84-0.26-1.17-0.59c-0.33,0.02-1.08-0.41-1.28-0.61c0-0.01-1.27-0.38-1.35-0.46c0-0.07-3.29-1.24-3.69-1.34
	c-0.29-0.02-1.08-0.17-1.19-0.22c-0.14,0-0.64-0.16-0.84-0.18c-0.68-0.08-1.34-0.18-2.04-0.19c-0.51-0.01-0.79,0-1.23-0.11
	c-0.16,0.1-1.19-0.09-1.56,0.18c-0.41,0.02-1.35,0.23-1.61,0.35c-0.56,0.02-1.52,0.64-1.85,0.8c-0.28,0.14-0.61,0.28-0.87,0.44
	c-0.12,0.1-1.92,0.99-2.04,1.1c0.03,0.06-1.76,1.13-1.93,1.28c-0.08,0.08-0.55,0.27-0.67,0.39c-0.12,0.12-0.6,0.55-0.76,0.63
	c-0.07,0.15-0.53,0.31-0.6,0.46c-0.11,0.15-0.65,0.41-0.74,0.52c-0.02,0.01-0.32,0.26-0.56,0.46c-0.1,0.13-0.2,0.27-0.3,0.4
	c-0.12,0.04-0.6,0.32-0.72,0.41c0.01,0.29,0.03,0.74-0.42,0.65l-0.53,0.31c0.06,0-0.28,0.5-0.56,0.86c-0.17,0.2-0.94,0.49-1.09,0.7
	c-0.31,0.43-0.71,0.83-1.02,1.25v0.03l0.04,0c0,0.06,0.3,0.05,0.34,0.16c0.06,0.17-0.12,0.32-0.17,0.46l0.04,0l0,0.03
	c0.24-0.01,0.47-0.26,0.66-0.36c0.16-0.06,0.32-0.13,0.48-0.19c0.29-0.17,0.57-0.34,0.85-0.51c2.13-1.16,4.26-2.32,6.39-3.47
	c1.02-0.55,1.83-1.06,2.96-1.68c0.27-0.15,1.3-0.84,2.07-0.89c0.98-0.06,2.15,0.19,2.47,0.32c0.3,0.11,1.04,0.48,1.42,0.57
	c0.11,0.04,0.33,0.2,0.38,0.19c0.04,0.05,0.74,0.16,1.11,0.29c0.13,0.08,0.25,0.15,0.38,0.23c0.61,0.18,2.13,0.54,2.68,0.71
	c0.47,0.14,0.75,0.41,0.98,0.46c0.32,0.22,0.39,0.11,0.78,0.3c0.59,0.06,0.95,0.27,0.97,0.29c0.18,0.08,0.31,0.15,0.49,0.23
	c0.15,0.02,0.44,0.25,0.56,0.3c0.14,0.03,1.1,0.32,1.19,0.37c0.16-0.02,0.84,0.28,0.92,0.35c0.19,0.09,0.41,0.14,0.63,0.18
	l1.96,0.77l2.14,0.7l2.58,1.01l0.97,0.33l0.97,0.3l0.45-0.08l0.51,0.17l0.56,0.5l0.57-0.19l0.39,0.07l0.31,0.4l0.2,0.24l0.49,0.14
	l0.48,0.06l0.57-0.1l0.67,0.06l0.24,0.4l0.94,0.16l0.67,0.05l0.68,0.05l0.52,0.24l0.47,0.51l0.68,0.14l1.75,0.26l1.58-0.19
	l1.03,0.05l0.37-0.28L80.94,33.36z"/>
<path class="st0" d="M67.85,47.08c-0.3,0.16-0.71,0.3-1.25,0.3c-0.89,0-1.42-0.31-1.85-0.7c-0.58-0.56-0.81-1.19-0.81-1.94
	c0-0.91,0.38-1.58,0.81-1.98c0.51-0.48,1.14-0.67,1.86-0.67c0.35,0,0.78,0.06,1.25,0.31v1.15c-0.46-0.53-1.04-0.57-1.23-0.57
	c-1.01,0-1.68,0.84-1.68,1.77c0,1.12,0.86,1.73,1.72,1.73c0.47,0,0.89-0.2,1.18-0.55V47.08z"/>
<polygon class="st0" points="70.74,47.26 69.75,47.26 69.75,43.06 68.61,43.06 68.61,42.21 71.88,42.21 71.88,43.06 70.74,43.06 "/>
<path class="st0" d="M72.88,42.21v5.06h0.99v-1.87h0.64c0.58,0,1-0.17,1.28-0.45c0.39-0.38,0.42-0.93,0.42-1.13
	c0-0.36-0.11-0.86-0.52-1.22c-0.37-0.33-0.77-0.39-1.34-0.39H72.88z M73.87,43.06h0.34c0.24,0,0.49,0.01,0.7,0.16
	c0.15,0.11,0.28,0.3,0.28,0.57c0,0.22-0.09,0.45-0.27,0.59c-0.21,0.16-0.46,0.16-0.65,0.16h-0.4V43.06z"/>
<path class="st0" d="M80.43,47.26h1.06l-2.13-5.16h-0.75l-2.19,5.16h1.07l0.45-1.06h2.04L80.43,47.26z M78.25,45.4l0.73-1.82
	l0.71,1.82H78.25z"/>
<polygon class="st0" points="83.75,44.6 82.24,42.21 83.42,42.21 84.31,43.78 85.24,42.21 86.43,42.21 84.87,44.6 86.6,47.26 
	85.42,47.26 84.31,45.41 83.14,47.26 81.95,47.26 "/>
<path class="st0" d="M90.17,42.09c-1.59,0-2.7,1.11-2.7,2.65c0,1.54,1.11,2.64,2.7,2.64c1.59,0,2.7-1.1,2.7-2.64
	C92.87,43.2,91.76,42.09,90.17,42.09 M90.17,46.48c-0.99,0-1.69-0.72-1.69-1.75c0-1.02,0.7-1.75,1.69-1.75
	c0.99,0,1.69,0.73,1.69,1.75C91.86,45.76,91.16,46.48,90.17,46.48"/>
<path class="st0" d="M95.15,45.07h0.36c0.21,0,0.46,0,0.67,0.1c0.32,0.14,0.37,0.42,0.37,0.58c0,0.2-0.07,0.44-0.31,0.58
	c-0.22,0.13-0.49,0.14-0.68,0.14h-0.42V45.07z M94.17,42.21v5.06h1.7c0.44,0,0.9-0.07,1.29-0.41c0.35-0.31,0.43-0.73,0.43-1.02
	c0-0.26-0.06-0.66-0.37-0.95c-0.13-0.12-0.33-0.26-0.66-0.32c0.14-0.08,0.57-0.34,0.57-0.99c0-0.42-0.17-0.82-0.47-1.05
	c-0.41-0.32-0.96-0.32-1.24-0.32H94.17z M95.15,43.01h0.29c0.4,0,0.76,0.17,0.76,0.64c0,0.65-0.61,0.66-0.77,0.66h-0.28V43.01z"/>
<path class="st0" d="M101.34,42.09c-1.59,0-2.7,1.11-2.7,2.65c0,1.54,1.11,2.64,2.7,2.64c1.6,0,2.7-1.1,2.7-2.64
	C104.04,43.2,102.93,42.09,101.34,42.09 M101.34,46.48c-0.99,0-1.69-0.72-1.69-1.75c0-1.02,0.7-1.75,1.69-1.75s1.69,0.73,1.69,1.75
	C103.02,45.76,102.32,46.48,101.34,46.48"/>
<path class="st0" d="M106.88,40.59c0.16,0.42,0.58,0.44,0.68,0.44c0.1,0,0.52-0.02,0.68-0.44l0.68,0.27
	c-0.2,0.51-0.67,0.85-1.37,0.85c-0.7,0-1.17-0.33-1.37-0.85L106.88,40.59z M106.32,42.21v3.4l2.79-3.51h0.69v5.17h-0.99v-3.41
	l-2.79,3.51h-0.68v-5.15H106.32z"/>
<path class="st0" d="M113.97,42.21v2.2c0,0.7-0.08,1.08-0.18,1.33c-0.15,0.38-0.44,0.7-0.8,0.68v1.99h0.91v-1.14H117v1.14h0.91
	v-1.99h-0.53v-4.21H113.97z M114.92,43.06h1.47v3.36h-2.04c0.14-0.14,0.29-0.32,0.4-0.6c0.09-0.24,0.17-0.63,0.17-1.41V43.06z"/>
<path class="st0" d="M121.41,42.09c-1.59,0-2.7,1.11-2.7,2.65c0,1.54,1.11,2.64,2.7,2.64c1.6,0,2.7-1.1,2.7-2.64
	C124.11,43.2,123,42.09,121.41,42.09 M121.41,46.48c-0.99,0-1.69-0.72-1.69-1.75c0-1.02,0.7-1.75,1.69-1.75
	c0.99,0,1.69,0.73,1.69,1.75C123.1,45.76,122.4,46.48,121.41,46.48"/>
<polygon class="st0" points="125.15,47.26 126.09,42.12 126.77,42.12 128.15,45.42 129.58,42.12 130.27,42.12 131.12,47.26 
	130.11,47.26 129.66,44.15 128.27,47.33 127.99,47.33 126.66,44.15 126.15,47.26 "/>
</svg>
