<?xml version="1.0" encoding="utf-8"?>
<!-- Generator: Adobe Illustrator 28.0.0, SVG Export Plug-In . SVG Version: 6.00 Build 0)  -->
<svg version="1.1" id="Слой_1" xmlns="http://www.w3.org/2000/svg" xmlns:xlink="http://www.w3.org/1999/xlink" x="0px" y="0px"
	 viewBox="0 0 1000 143.6553497" enable-background="new 0 0 1000 143.6553497" xml:space="preserve">
<g>
	<path fill-rule="evenodd" clip-rule="evenodd" fill="#333333" d="M251.8678436,61.5564156
		c-2.6179199-14.7081146-15.7068481-25.1791229-36.3984985-25.1791229
		c-23.6823883-0.2483139-38.2660065,13.4631157-38.2660065,31.4137077c0,17.6974869,14.5836182,31.4089203,38.2660065,31.4089203
		c20.9399567-0.1238174,33.5302124-10.468956,36.2726288-25.3029404h-19.0710907
		c-1.8695526,6.7305298-8.4755859,11.3438721-17.7002258,11.3438721c-11.591507,0-18.6968994-7.7292633-18.6968994-17.449852
		c0-9.7246895,7.1053925-17.3280907,18.6968994-17.3280907c9.2246399,0,15.7048035,4.4874763,17.5757294,11.0935059H251.8678436
		L251.8678436,61.5564156z M299.9433594,97.3310471V53.8292007h25.6777954V37.9985313H255.567276v15.8306694h25.679184v43.5018463
		H299.9433594L299.9433594,97.3310471z M333.1034851,37.9985313v59.3325157h18.0744019V81.3758774h19.071106
		c4.4867859,0,8.849762-0.1238174,13.0889282-1.4946823c8.2252197-2.6179276,14.333252-9.9730072,14.333252-19.9439621
		c0-9.9723244-5.9814758-17.2015419-14.0849304-20.069149c-4.4874878-1.6191826-8.7259521-1.8695526-13.3372498-1.8695526
		H333.1034851L333.1034851,37.9985313z M351.177887,52.3324623h16.453186c3.4901123,0,5.4855347,0.3741837,7.1047058,0.9987373
		c2.8682861,1.1205025,4.2391663,3.7384262,4.2391663,6.4801636c0,2.9921074-1.6212463,5.8597183-4.7371521,6.8563995
		c-1.4953918,0.4986877-3.240448,0.7483673-6.60672,0.7483673h-16.453186V52.3324623L351.177887,52.3324623z
		 M446.5148926,88.7309647h-27.4221802l-3.3663025,8.6000824h-20.4419556l24.3062439-59.3325157h26.426178l24.3062744,59.3325157
		h-20.3174744L446.5148926,88.7309647L446.5148926,88.7309647z M432.1816406,51.7099609l-8.6021423,23.9320679h18.5724182
		l-8.5993958-23.9320679H432.1816406L432.1816406,51.7099609z M517.5982666,67.0419464l23.3041382-29.0434151h-19.9378052
		l-13.2134399,17.8240395l-12.0915527-17.8240395h-22.1870117l22.5591431,30.1646004l-23.059906,29.1679153h19.6956482
		l13.8311462-17.5764084l12.464386,17.5764084h22.821167L517.5982666,67.0419464L517.5982666,67.0419464z M581.1555786,36.3772926
		c-24.3082886,0-38.8939209,13.7114334-38.8939209,31.4137077c0,17.6974869,14.5856323,31.4089203,38.8939209,31.4089203
		c24.1742554,0,38.7660522-13.7114334,38.7660522-31.4089203C619.9216309,50.088726,605.329834,36.3772926,581.1555786,36.3772926
		L581.1555786,36.3772926z M581.1555786,84.7421722c-12.0922241,0-19.8248901-7.2305832-19.8248901-16.9511719
		c0-9.7246895,7.732666-16.8294067,19.8248901-16.8294067c11.9581909,0,19.8133545,7.1047173,19.8133545,16.8294067
		C600.9689331,77.5115891,593.1137695,84.7421722,581.1555786,84.7421722L581.1555786,84.7421722z M695.5657349,53.2046471
		c0-6.3563461-3.4825439-11.591507-10.3430786-13.835247c-2.9962158-0.996685-6.8584595-1.3708687-12.3446655-1.3708687h-43.1269531
		v59.3325157h43.9998169c5.2433472,0,9.0960693-0.3748703,12.338501-1.6212387
		c6.6142578-2.4920502,10.7289429-8.3497162,10.7289429-15.3306122c0-5.857666-3.3724976-11.716011-10.8513794-13.8352509
		C691.3286133,64.1743393,695.5657349,59.6875458,695.5657349,53.2046471L695.5657349,53.2046471z M646.9545898,61.4326019
		V51.211277h23.5579224c1.7450562,0,3.114502,0.1245003,4.114624,0.4986839
		c2.1192627,0.7463188,3.114563,2.4913712,3.114563,4.4867935s-0.9953003,3.7404785-3.2363281,4.7371635
		c-0.8783569,0.3741837-2.2478027,0.4986839-3.9928589,0.4986839H646.9545898L646.9545898,61.4326019z M646.9545898,83.6196136
		V73.5248489h24.1845093c1.991333,0,3.366272,0.1238098,4.3609009,0.4959488
		c1.991333,0.7483673,2.9859619,2.369606,2.9859619,4.3629761c0,2.1192398-0.9946289,3.864975-3.2321777,4.7371597
		c-0.9946899,0.3741837-2.3757935,0.4986801-4.1146851,0.4986801H646.9545898L646.9545898,83.6196136z M750.4730225,88.7309647
		l3.482605,8.6000824h20.3215332l-24.3027954-59.3325157h-26.4316406l-24.3028564,59.3325157h20.4440308l3.3601074-8.6000824
		H750.4730225L750.4730225,88.7309647z M736.1329346,51.7099609h1.375l8.5980225,23.9320679h-18.5765381L736.1329346,51.7099609
		L736.1329346,51.7099609z M829.0250854,75.2678452v22.0632019h18.079895V37.9985313h-18.079895v21.6890144h-29.0379639V37.9985313
		H781.911377v59.3325157h18.0757446V75.2678452H829.0250854L829.0250854,75.2678452z M878.8634644,72.5261078V37.9985313
		h-18.0703125v59.3325157h15.956543l31.1612549-34.5275764v34.5275764h18.0703125V37.9985313h-15.9544678L878.8634644,72.5261078
		L878.8634644,72.5261078z M1000,37.9985313h-60.3305664v59.3325157H1000V83.7454834h-42.2602539V73.2744751h39.7668457V61.4326019
		h-39.7668457V51.584095H1000V37.9985313z"/>
	<path fill-rule="evenodd" clip-rule="evenodd" fill="#FDDB2D" d="M0,0h143.6553497v72.2483749
		c0,18.5204239-9.882019,35.6350861-25.9199677,44.8959808l-45.9077072,26.510994l-45.9083939-26.510994
		C9.8792896,107.883461,0,90.7687988,0,72.2483749V0z"/>
	<path fill-rule="evenodd" clip-rule="evenodd" fill="#333333" d="M39.4213905,38.0176849v22.472271
		c3.0714569-3.4709511,8.6582298-5.8193512,15.0474129-5.8193512h6.941906v26.121769
		c0,6.9494324-1.8887062,13.0328369-4.6906433,16.3772354h30.195385c-2.7964706-3.3485031-4.6810684-9.4236984-4.6810684-16.3635559
		V54.6706047h6.9419022c6.389183,0,11.9759598,2.3484001,15.049469,5.8172989V38.0176849H39.4213905z"/>
</g>
</svg>
