<?xml version="1.0" encoding="UTF-8"?>
<svg version="1.1" xmlns="http://www.w3.org/2000/svg" width="1401" height="281">
<path d="M0 0 C0.99 1.485 0.99 1.485 2 3 C0.27427512 4.44163007 -1.4557347 5.87813165 -3.1875 7.3125 C-4.15042969 8.11300781 -5.11335937 8.91351562 -6.10546875 9.73828125 C-12.91413932 15.05841656 -12.91413932 15.05841656 -16.46875 14.8671875 C-19.34352204 13.8823119 -21.83964958 12.59403966 -24.5 11.125 C-38.79388899 3.89110971 -55.93281101 2.51100162 -71.3359375 7.09375 C-72.21507813 7.3928125 -73.09421875 7.691875 -74 8 C-74.85851562 8.2784375 -75.71703125 8.556875 -76.6015625 8.84375 C-83.1600961 11.19913668 -88.51356387 14.74778678 -94 19 C-94.71285156 19.5465625 -95.42570312 20.093125 -96.16015625 20.65625 C-108.06305998 30.38039485 -115.97026204 45.8313333 -118 61 C-119.28028641 80.88413808 -115.23223442 98.3669886 -102.01953125 113.828125 C-91.50465212 125.13619617 -76.68898111 134.17759685 -60.92749023 135.12451172 C-40.06362486 135.81689187 -22.65580843 131.55764921 -7 117 C2.6152781 107.67787063 10.55430107 94.36670092 11.296875 80.78125 C11.93759412 69.33247876 11.93759412 69.33247876 15.3203125 65.08984375 C18.11118334 62.81228022 20.9309693 60.88115518 24 59 C25.3606989 57.98789004 26.7161234 56.96858588 28.0625 55.9375 C31 54 31 54 33 54 C37.46082548 67.38247645 34.65113228 85.91597368 30 99 C29.57589844 100.19496094 29.15179688 101.38992187 28.71484375 102.62109375 C20.53713289 123.41844755 4.55243866 140.46646995 -15.76171875 149.77734375 C-19.45072745 151.37653163 -23.19067869 152.71373566 -27 154 C-27.96421875 154.3403125 -28.9284375 154.680625 -29.921875 155.03125 C-46.24747842 159.79656127 -66.07287889 158.6504199 -82 153 C-83.18335938 152.5875 -84.36671875 152.175 -85.5859375 151.75 C-106.27846288 143.71051994 -123.4488553 127.28493561 -132.8515625 107.19921875 C-143.04304461 83.88495557 -142.73751941 58.29877981 -133.75 34.6875 C-124.42442804 13.90398445 -106.61717782 -3.24701597 -85.5625 -11.8125 C-56.86273452 -21.90172872 -24.43166814 -19.02009344 0 0 Z " fill="#5BB46B" transform="translate(140,17)"/>
<path d="M0 0 C29.7 0 59.4 0 90 0 C88.84317398 3.47047807 88.01905274 3.97788554 85.10546875 6.03125 C84.31462891 6.59457031 83.52378906 7.15789063 82.70898438 7.73828125 C81.87689453 8.31964844 81.04480469 8.90101562 80.1875 9.5 C78.55588439 10.65610156 76.92437056 11.81234677 75.29296875 12.96875 C74.20278442 13.73348633 74.20278442 13.73348633 73.09057617 14.51367188 C70.99609092 15.9576137 70.99609092 15.9576137 69.15016174 17.5716095 C66.67076625 19.21871581 65.44898114 19.36593949 62.50683594 19.34057617 C61.18591949 19.34023628 61.18591949 19.34023628 59.83831787 19.33988953 C58.89651672 19.32440567 57.95471558 19.30892181 56.984375 19.29296875 C56.01340881 19.28872391 55.04244263 19.28447906 54.04205322 19.28010559 C50.94441869 19.26332853 47.84743751 19.22567772 44.75 19.1875 C42.6484469 19.17245192 40.5468836 19.15876373 38.4453125 19.14648438 C33.2964215 19.11598147 28.14894106 19.05725758 23 19 C23 26.26 23 33.52 23 41 C26.79757812 40.94779297 26.79757812 40.94779297 30.671875 40.89453125 C33.16421383 40.87103626 35.65653963 40.85287656 38.14892578 40.83520508 C39.86154842 40.8202554 41.57413371 40.79988814 43.28662109 40.77368164 C58.06378636 40.5534492 71.03995725 41.01349526 82.55859375 51.40625 C88.96939248 58.25458099 89.50142087 66.66733802 89.2890625 75.625 C88.55022533 84.25142313 85.21256885 91.1593542 78.875 97.125 C59.02451182 113.15647249 19.12201832 106 0 106 C0 71.02 0 36.04 0 0 Z M23 59 C23 68.24 23 77.48 23 87 C27.28731985 87.06919165 31.57267233 87.12882248 35.86010742 87.16479492 C37.31590368 87.17980313 38.77165532 87.20021633 40.22729492 87.22631836 C42.33002789 87.26305676 44.43215885 87.2798056 46.53515625 87.29296875 C48.42826538 87.31653442 48.42826538 87.31653442 50.35961914 87.34057617 C56.39479026 86.77595517 61.02602858 84.73819669 65 80 C66.86581821 76.26836358 66.55464677 72.06325499 66 68 C64.31562758 64.56136418 61.94332634 62.50794495 58.5625 60.6875 C53.5200124 59.33463747 48.72060129 58.87752095 43.5078125 58.90234375 C42.4264502 58.90484131 41.34508789 58.90733887 40.23095703 58.90991211 C38.87599121 58.91901611 37.52102539 58.92812012 36.125 58.9375 C29.628125 58.9684375 29.628125 58.9684375 23 59 Z " fill="#21A038" transform="translate(340,34)"/>
<path d="M0 0 C8.806875 -0.061875 17.61375 -0.12375 26.6875 -0.1875 C29.44053467 -0.21481201 32.19356934 -0.24212402 35.0300293 -0.27026367 C37.25308801 -0.27903922 39.47615161 -0.28668061 41.69921875 -0.29296875 C42.82026001 -0.30831665 43.94130127 -0.32366455 45.09631348 -0.33947754 C56.06581386 -0.34304408 67.43474503 0.62550305 75.61328125 8.56640625 C81.37088905 14.70877066 82.43822181 20.97635743 82.24609375 29.2265625 C81.55688984 36.99378115 78.6723397 42.66740982 73 48 C72.01 48.66 71.02 49.32 70 50 C70.67546875 50.3403125 71.3509375 50.680625 72.046875 51.03125 C79.16025497 54.89632351 82.20637531 58.20427398 84.57421875 65.85546875 C86.14934772 73.78891651 85.848907 82.78158723 82 90 C76.49212537 98.22449573 69.32839384 102.50402536 59.73742676 104.57687378 C54.40138312 105.40167027 49.03916164 105.24183743 43.65234375 105.1953125 C42.54088989 105.19329834 41.42943604 105.19128418 40.28430176 105.18920898 C36.16865864 105.17881701 32.05307477 105.15089493 27.9375 105.125 C18.718125 105.08375 9.49875 105.0425 0 105 C0 70.35 0 35.7 0 0 Z M20 18 C20 26.58 20 35.16 20 44 C24.12670505 44.09238892 28.25073905 44.17184732 32.37792969 44.21972656 C33.77844473 44.2397063 35.17887782 44.2669002 36.57910156 44.30175781 C46.10091883 44.53267207 53.03264341 44.34643702 60.5 37.8125 C62.63227255 33.81448897 62.76609387 30.43528032 62 26 C60.13893108 22.27786217 58.06636458 20.80378877 54.28125 19.37890625 C47.63009079 17.25729442 40.84465684 17.67973553 33.9375 17.8125 C32.58139514 17.82758044 31.22527398 17.84126288 29.86914062 17.85351562 C26.57925222 17.88863899 23.28957231 17.94243781 20 18 Z M20 60 C20 68.91 20 77.82 20 87 C24.55380573 87.06923015 29.10575343 87.12885053 33.65966797 87.16479492 C35.20562968 87.1797933 36.75154948 87.20019887 38.29736328 87.22631836 C50.02115272 87.60589377 50.02115272 87.60589377 61 84 C64.17125519 80.67018205 65.25743055 78.00269536 65.5 73.5 C65.25743055 68.99730464 64.17125519 66.32981795 61 63 C53.16349561 58.81459424 44.63096303 59.66666332 36 59.8125 C34.44662752 59.82757027 32.89324094 59.84125454 31.33984375 59.85351562 C27.5592592 59.88377644 23.78065686 59.9425238 20 60 Z " fill="#21A038" transform="translate(865,174)"/>
<path d="M0 0 C6.27 0 12.54 0 19 0 C19.33 24.75 19.66 49.5 20 75 C27.95479743 64.20420349 35.88283613 53.41023722 43.71875 42.53125 C47.6853457 37.03904057 51.71362474 31.59274656 55.7409668 26.14501953 C60.54431861 19.63942725 65.28620807 13.09081709 70.00195312 6.52148438 C70.51306641 5.81056641 71.02417969 5.09964844 71.55078125 4.3671875 C72.00106689 3.73925293 72.45135254 3.11131836 72.9152832 2.46435547 C74 1 74 1 75 0 C82.26 0 89.52 0 97 0 C97 34.65 97 69.3 97 105 C90.4 105 83.8 105 77 105 C76.67 80.25 76.34 55.5 76 30 C67.90941296 40.474447 67.90941296 40.474447 60.1875 51.1875 C59.17011447 52.64121578 58.1518548 54.09432012 57.1328125 55.546875 C56.61879883 56.27970703 56.10478516 57.01253906 55.57519531 57.76757812 C51.32996414 63.78406818 46.98819553 69.73198056 42.66748047 75.69433594 C40.37687703 78.86160664 38.09689487 82.03643724 35.82006836 85.21362305 C34.70148327 86.76366009 33.57354331 88.30699442 32.43579102 89.84301758 C30.18519398 92.88610232 28.12211492 95.76599509 26.3671875 99.12890625 C25 101.625 25 101.625 21 105 C14.07 105 7.14 105 0 105 C0 70.35 0 35.7 0 0 Z " fill="#21A038" transform="translate(1203,174)"/>
<path d="M0 0 C0.73476563 0.27585938 1.46953125 0.55171875 2.2265625 0.8359375 C12.85468518 5.45133739 21.93007658 15.51238191 26.28125 26.125 C31.91228977 42.53545877 32.01918838 60.13091737 24.875 76.125 C17.9400922 89.07849144 6.70822952 97.41397412 -7 102 C-24.25431806 106.85797153 -43.96398389 105.08936205 -59.73046875 96.4609375 C-72.91476441 87.97397265 -79.41171239 75.64729424 -82.75 60.625 C-83.95040789 43.21908566 -82.12607142 26.66611606 -70.75 12.6875 C-52.64888339 -6.36214674 -23.65940597 -9.21192557 0 0 Z M-53.83203125 24.421875 C-61.85039213 33.95722307 -62.83582887 45.05117885 -62 57 C-60.02327212 66.74809233 -55.88342383 74.41784313 -47.8125 80.3125 C-38.53935174 86.00354584 -27.98406461 87.40482075 -17.3359375 85.53125 C-8.66704329 83.27680073 -1.33327229 78.71514863 3.71484375 71.234375 C9.75426428 60.73422744 10.59280117 49.59690695 8.41015625 37.81640625 C5.89280723 29.6379221 0.5436409 22.89382693 -6.66796875 18.30078125 C-22.37914042 10.20152141 -41.00503064 12.10469158 -53.83203125 24.421875 Z " fill="#21A038" transform="translate(816,177)"/>
<path d="M0 0 C26.4 0 52.8 0 80 0 C80 0.66 80 1.32 80 2 C77.90790401 3.6489575 75.81566683 5.17943225 73.625 6.6875 C73.04105469 7.09677734 72.45710937 7.50605469 71.85546875 7.92773438 C70.60339972 8.80418269 69.34181405 9.66713877 68.07275391 10.51879883 C65.93370514 11.99342076 65.93370514 11.99342076 63.87646484 13.87768555 C56.2185723 20.25495352 48.79427227 19.82552465 39.375 19.4375 C37.87897993 19.40231288 36.38287943 19.37038697 34.88671875 19.34179688 C31.2541573 19.2713984 27.63297706 19.13447565 24 19 C24 26.92 24 34.84 24 43 C39.84 43 55.68 43 72 43 C72 48.94 72 54.88 72 61 C56.16 61 40.32 61 24 61 C24 69.58 24 78.16 24 87 C42.48 87 60.96 87 80 87 C80 93.27 80 99.54 80 106 C53.6 106 27.2 106 0 106 C0 71.02 0 36.04 0 0 Z " fill="#21A038" transform="translate(449,34)"/>
<path d="M0 0 C62.11428571 0 62.11428571 0 77.25 10.1875 C85.5469246 18.67299107 88.41716951 28.14422984 88.36572266 39.86328125 C88.1239344 49.4993195 84.81835266 58.07511058 78 65 C68.90914482 72.65265348 57.6999476 76.14765935 45.94921875 76.09765625 C44.14070435 76.09390991 44.14070435 76.09390991 42.2956543 76.09008789 C40.01461792 76.07643188 40.01461792 76.07643188 37.6875 76.0625 C30.4171875 76.0315625 30.4171875 76.0315625 23 76 C23 85.9 23 95.8 23 106 C15.41 106 7.82 106 0 106 C0 71.02 0 36.04 0 0 Z M23 19 C23 31.87 23 44.74 23 58 C28.383125 58.0928125 28.383125 58.0928125 33.875 58.1875 C34.98472168 58.21481201 36.09444336 58.24212402 37.23779297 58.27026367 C45.09019885 58.33499278 52.16541133 57.36602279 58.9375 53.1875 C63.88160425 47.94375307 65.17430763 42.04856459 65 35 C63.90895606 29.39865834 61.49916039 25.57887759 57 22 C50.29309869 18.10868766 43.64380376 18.65865014 36.0625 18.8125 C31.751875 18.874375 27.44125 18.93625 23 19 Z " fill="#21A038" transform="translate(549,34)"/>
<path d="M0 0 C6.6 0 13.2 0 20 0 C20 13.86 20 27.72 20 42 C38.48 42 56.96 42 76 42 C76 28.14 76 14.28 76 0 C82.6 0 89.2 0 96 0 C96 34.65 96 69.3 96 105 C89.4 105 82.8 105 76 105 C76 90.15 76 75.3 76 60 C57.52 60 39.04 60 20 60 C20 74.85 20 89.7 20 105 C13.4 105 6.8 105 0 105 C0 70.35 0 35.7 0 0 Z " fill="#21A038" transform="translate(1080,174)"/>
<path d="M0 0 C24.42 0 48.84 0 74 0 C74 5.94 74 11.88 74 18 C56.18 18 38.36 18 20 18 C20 25.92 20 33.84 20 42 C35.84 42 51.68 42 68 42 C68 47.94 68 53.88 68 60 C52.16 60 36.32 60 20 60 C20 68.91 20 77.82 20 87 C38.15 87 56.3 87 75 87 C75 92.94 75 98.88 75 105 C50.25 105 25.5 105 0 105 C0 70.35 0 35.7 0 0 Z " fill="#21A038" transform="translate(1326,174)"/>
<path d="M0 0 C7.59 0 15.18 0 23 0 C24.61841797 3.96386719 24.61841797 3.96386719 26.26953125 8.0078125 C34.58047236 28.35374243 42.91919036 48.68789675 51.3125 69 C51.91428574 70.4565097 51.91428574 70.4565097 52.52822876 71.94244385 C53.30883335 73.83143355 54.0896349 75.72034188 54.87065125 77.60916138 C55.60275513 79.37998419 56.33431255 81.15103305 57.06526184 82.92233276 C58.57514558 86.57740321 60.091163 90.2287421 61.64990234 93.86328125 C62.10961426 94.93964844 62.56932617 96.01601563 63.04296875 97.125 C63.42864014 98.01445312 63.81431152 98.90390625 64.21166992 99.8203125 C65 102 65 102 65 105 C58.07 105 51.14 105 44 105 C42.49576526 101.37670441 40.99644193 97.75151244 39.5 94.125 C39.07074219 93.09246094 38.64148438 92.05992187 38.19921875 90.99609375 C37.79316406 90.00996094 37.38710938 89.02382813 36.96875 88.0078125 C36.59169922 87.09660645 36.21464844 86.18540039 35.82617188 85.24658203 C35 83 35 83 35 81 C19.16 81 3.32 81 -13 81 C-13.33 82.65 -13.66 84.3 -14 86 C-14.49569359 87.47596363 -15.0275852 88.94023257 -15.59375 90.390625 C-15.90183594 91.18210937 -16.20992187 91.97359375 -16.52734375 92.7890625 C-16.84832031 93.60117187 -17.16929687 94.41328125 -17.5 95.25 C-17.82097656 96.07757813 -18.14195312 96.90515625 -18.47265625 97.7578125 C-20.86577662 103.86577662 -20.86577662 103.86577662 -22 105 C-23.4887186 105.08669432 -24.981445 105.10703494 -26.47265625 105.09765625 C-27.37177734 105.09443359 -28.27089844 105.09121094 -29.19726562 105.08789062 C-30.61555664 105.07532227 -30.61555664 105.07532227 -32.0625 105.0625 C-33.01189453 105.05798828 -33.96128906 105.05347656 -34.93945312 105.04882812 C-37.29303065 105.0370011 -39.64648477 105.02052025 -42 105 C-39.58680747 97.43866342 -36.71947492 90.10864446 -33.75 82.75 C-33.22445731 81.44285084 -32.69907095 80.13563882 -32.17382812 78.82836914 C-30.75247696 75.29380603 -29.32702349 71.76091222 -27.90014648 68.22857666 C-26.98820865 65.97080705 -26.07705893 63.71272055 -25.16601562 61.45458984 C-16.88128671 40.9263068 -8.50186815 20.4393143 0 0 Z M10 23 C7.85942656 28.37344658 5.72329478 33.7486288 3.59130859 39.12548828 C2.86499717 40.9554031 2.13746193 42.78483267 1.40869141 44.61376953 C0.36300741 47.23864976 -0.67830159 49.86522836 -1.71875 52.4921875 C-2.04685669 53.31306854 -2.37496338 54.13394958 -2.7130127 54.97970581 C-4.38752661 58.86985634 -4.38752661 58.86985634 -5 63 C5.56 63 16.12 63 27 63 C25.17110912 56.90369708 23.43993599 51.29231481 21.08203125 45.4609375 C20.81992355 44.80920563 20.55781586 44.15747375 20.2877655 43.48599243 C19.46678716 41.44730698 18.63978502 39.41113316 17.8125 37.375 C17.24764205 35.97542373 16.68318594 34.57568521 16.11914062 33.17578125 C14.750716 29.78197327 13.37688565 26.39038557 12 23 C11.34 23 10.68 23 10 23 Z " fill="#21A038" transform="translate(557,174)"/>
<path d="M0 0 C7.26 0 14.52 0 22 0 C28.25295597 14.14130042 34.22296944 28.35968994 39.99887085 42.69976807 C43.8543774 52.27164041 47.74290606 61.82797926 51.70703125 71.35546875 C52.0975618 72.29428894 52.48809235 73.23310913 52.89045715 74.20037842 C54.79893804 78.78501976 56.71188438 83.36775663 58.62915039 87.94873047 C59.32313359 89.61293315 60.01706529 91.2771573 60.7109375 92.94140625 C61.03000565 93.7001152 61.34907379 94.45882416 61.67781067 95.24052429 C63.0320225 98.49382729 64.14282283 101.57129132 65 105 C58.07 105 51.14 105 44 105 C40.26131336 97.52262672 37.10481026 89.76202565 34 82 C18.49 82 2.98 82 -13 82 C-15.97 89.59 -18.94 97.18 -22 105 C-28.93 105 -35.86 105 -43 105 C-42.16082031 102.90205078 -42.16082031 102.90205078 -41.3046875 100.76171875 C-40.92610596 99.81522461 -40.54752441 98.86873047 -40.1574707 97.89355469 C-39.2811174 95.70275486 -38.40464725 93.51200177 -37.52807617 91.32128906 C-35.2085656 85.52389824 -32.89017892 79.72606738 -30.57577515 73.92663574 C-26.72629188 64.28076831 -22.86796882 54.63847017 -19 45 C-18.66881165 44.17461731 -18.33762329 43.34923462 -17.99639893 42.49884033 C-15.9566995 37.41753724 -13.91237491 32.33812781 -11.86264038 27.26086426 C-11.21129264 25.64617074 -10.56105973 24.03102702 -9.91201782 22.41540527 C-9.00445292 20.15713603 -8.09259979 17.90064317 -7.1796875 15.64453125 C-6.9166835 14.98763809 -6.6536795 14.33074493 -6.38270569 13.65394592 C-4.46875051 8.94293581 -2.29215613 4.58431226 0 0 Z M10 22 C7.71917062 27.67743017 5.44056812 33.35574684 3.1640625 39.03491211 C2.38863933 40.9684285 1.61259857 42.90169732 0.8359375 44.8347168 C-0.27765169 47.60661643 -1.3890467 50.37938681 -2.5 53.15234375 C-2.84998047 54.02213364 -3.19996094 54.89192352 -3.56054688 55.78807068 C-3.88087891 56.58882523 -4.20121094 57.38957977 -4.53125 58.21459961 C-4.81548828 58.9229747 -5.09972656 59.63134979 -5.39257812 60.3611908 C-6.05792392 61.86498436 -6.05792392 61.86498436 -6 63 C4.89 63 15.78 63 27 63 C21.91983891 49.23008967 16.48723585 35.61225274 11 22 C10.67 22 10.34 22 10 22 Z " fill="#21A038" transform="translate(1001,174)"/>
<path d="M0 0 C8.01442729 -2.26375382 16.2233862 -3.54565056 24 0 C32.73813704 7.62765048 38.38548047 19.37647 43.90722656 29.40307617 C45.65710695 32.52969319 47.66485466 35.27181366 50 38 C50.71542969 36.98164063 51.43085937 35.96328125 52.16796875 34.9140625 C58.32274714 26.1671394 64.52894431 17.4604819 70.80932617 8.80322266 C71.32857666 8.0869873 71.84782715 7.37075195 72.3828125 6.6328125 C72.84059082 6.00262207 73.29836914 5.37243164 73.77001953 4.72314453 C74.87812807 3.17073682 75.94200855 1.58698718 77 0 C79.33837891 -0.34057617 79.33837891 -0.34057617 82.2265625 -0.29296875 C83.7734375 -0.2784668 83.7734375 -0.2784668 85.3515625 -0.26367188 C86.43179688 -0.23853516 87.51203125 -0.21339844 88.625 -0.1875 C89.71296875 -0.17396484 90.8009375 -0.16042969 91.921875 -0.14648438 C94.61507409 -0.11104754 97.30729374 -0.06164331 100 0 C98.75471479 3.43010691 97.37447462 6.09021866 95.09375 8.93359375 C94.51979492 9.65780518 93.94583984 10.3820166 93.35449219 11.12817383 C92.74250977 11.89025146 92.13052734 12.6523291 91.5 13.4375 C87.11760384 18.97601934 82.80878661 24.53182897 78.75 30.3125 C74.02944344 37.02976402 69.0517943 43.52940389 64 50 C66.9556072 55.40798152 70.29223044 60.34835547 73.9375 65.3125 C75.09512447 66.90229104 76.25267434 68.49213641 77.41015625 70.08203125 C78.29791748 71.29753662 78.29791748 71.29753662 79.20361328 72.53759766 C83.6944045 78.69336284 88.15037332 84.87450432 92.60205078 91.05859375 C93.4821008 92.28076591 94.36314432 93.50222389 95.24560547 94.72265625 C96.27269688 96.14498848 97.2929654 97.57224129 98.3125 99 C98.84488281 99.7425 99.37726563 100.485 99.92578125 101.25 C101 103 101 103 101 105 C97.31387336 105.26319835 93.63017002 105.42176303 89.9375 105.5625 C88.89916016 105.63791016 87.86082031 105.71332031 86.79101562 105.79101562 C79.22589559 106.00716191 79.22589559 106.00716191 75.93798828 103.3059082 C74.09253402 100.96026722 72.54493997 98.55272798 71 96 C69.84289788 94.35909894 68.67613714 92.72496784 67.5 91.09765625 C66.3308885 89.42097291 65.16422958 87.74257684 64 86.0625 C63.4225 85.23298828 62.845 84.40347656 62.25 83.54882812 C61.6725 82.71931641 61.095 81.88980469 60.5 81.03515625 C59.92894531 80.2167627 59.35789062 79.39836914 58.76953125 78.55517578 C57.52600784 76.75954719 56.29534002 74.95498067 55.07421875 73.14404297 C54.45160156 72.22896973 53.82898438 71.31389648 53.1875 70.37109375 C52.62417969 69.53376709 52.06085937 68.69644043 51.48046875 67.83374023 C50.74763672 66.92603882 50.74763672 66.92603882 50 66 C49.34 66 48.68 66 48 66 C46.58088631 67.7074808 46.58088631 67.7074808 45.1640625 69.9609375 C44.60154785 70.81727783 44.0390332 71.67361816 43.45947266 72.5559082 C42.85409668 73.4862085 42.2487207 74.41650879 41.625 75.375 C40.67246338 76.78495239 40.67246338 76.78495239 39.70068359 78.22338867 C36.59980421 82.84210776 33.71530459 87.41176271 31.25 92.40234375 C26.20321325 102.126134 26.20321325 102.126134 22 105 C14.16881226 107.080034 5.92868109 106.1252495 -2 105 C3.4261918 96.22168387 9.30572778 87.82722923 15.28515625 79.42089844 C19.00695528 74.16671861 22.68383578 68.88085345 26.36743164 63.59985352 C26.92809326 62.79733154 27.48875488 61.99480957 28.06640625 61.16796875 C28.56084229 60.45922607 29.05527832 59.7504834 29.56469727 59.02026367 C31 57 31 57 32.80834961 55.05200195 C34.30674605 53.02029361 34.30674605 53.02029361 33.38989258 50.55322266 C31.97645886 47.9567551 30.46822273 45.56274873 28.76171875 43.1484375 C28.11227295 42.22329346 27.46282715 41.29814941 26.79370117 40.3449707 C26.09865479 39.36488037 25.4036084 38.38479004 24.6875 37.375 C23.23890612 35.31427797 21.79100034 33.25307207 20.34375 31.19140625 C19.61671875 30.15773926 18.8896875 29.12407227 18.140625 28.05908203 C14.40399464 22.71921223 10.73950187 17.33038738 7.07495117 11.94091797 C6.57970947 11.21404785 6.08446777 10.48717773 5.57421875 9.73828125 C5.14713623 9.10962158 4.72005371 8.48096191 4.2800293 7.83325195 C3.34151616 6.48911784 2.35349048 5.17919995 1.33911133 3.89135742 C0 2 0 2 0 0 Z " fill="#21A038" transform="translate(629,174)"/>
<path d="M0 0 C61.75 0 61.75 0 73.0234375 9.75 C81.21560162 18.32239115 82.59673704 27.19692981 82.47070312 38.66601562 C82.13531739 48.16385409 79.7420379 55.22199522 73.08984375 62.18359375 C57.92549053 75.36382599 37.71939435 73.29097504 19 73 C19 83.56 19 94.12 19 105 C12.73 105 6.46 105 0 105 C0 70.35 0 35.7 0 0 Z M19 18 C19 30.21 19 42.42 19 55 C22.609375 55.04125 26.21875 55.0825 29.9375 55.125 C31.61573853 55.15231201 31.61573853 55.15231201 33.32788086 55.18017578 C42.49584387 55.23042008 50.36860619 54.34197567 58 49 C62.08670565 43.55105913 62.74173515 37.64289275 62 31 C60.94038572 26.92621267 59.51784522 23.99653595 55.94140625 21.6484375 C49.84718085 18.79144819 43.87609731 17.86625754 37.1640625 17.90234375 C35.72474365 17.90609009 35.72474365 17.90609009 34.25634766 17.90991211 C33.05800293 17.91901611 31.8596582 17.92812012 30.625 17.9375 C24.870625 17.9684375 24.870625 17.9684375 19 18 Z " fill="#21A038" transform="translate(432,174)"/>
<path d="M0 0 C1.87109375 1.71875 1.87109375 1.71875 3 3 C1.61269114 7.16192659 -1.31771045 8.79042409 -4.75 11.25 C-5.37132812 11.72179687 -5.99265625 12.19359375 -6.6328125 12.6796875 C-11.26338616 16.02073432 -11.26338616 16.02073432 -14.63671875 15.92578125 C-17.12301537 14.95181051 -19.6011449 13.97327387 -22.0625 12.9375 C-31.27245093 9.56710241 -39.95403584 10.14565898 -49.1015625 13.54296875 C-55.99080252 17.00615814 -62.31306563 22.55344353 -65.3203125 29.78515625 C-68.35088379 39.66063856 -69.05129967 49.14184074 -64.76953125 58.765625 C-59.34689607 68.47693948 -52.08250711 73.51307474 -41.5625 76.75 C-31.81307764 77.70116316 -21.76925783 76.94830847 -13.42578125 71.23828125 C-11 70 -11 70 -8.55078125 70.5546875 C-5.59578156 72.22903648 -2.90881851 74.09220786 -0.1875 76.125 C0.78832031 76.84945312 1.76414062 77.57390625 2.76953125 78.3203125 C3.50558594 78.87460938 4.24164063 79.42890625 5 80 C4.45236839 83.73533799 3.12853061 85.14296621 0.1875 87.4375 C-12.89174127 97.1119864 -29.18537348 99.90668946 -45.09082031 97.71142578 C-59.46825067 95.18877255 -71.95420484 88.68668167 -81 77 C-90.38295346 62.06689687 -93.70907525 46.02580307 -89.875 28.625 C-85.81656334 14.87140909 -77.21917856 3.80116813 -64.90625 -3.53125 C-43.9823163 -14.10571112 -19.56924497 -12.38916229 0 0 Z " fill="#21A038" transform="translate(316,43)"/>
<path d="M0 0 C1.12148438 0.43183594 2.24296875 0.86367187 3.3984375 1.30859375 C7.1965561 5.23787861 6.61243539 8.64517324 6.52734375 13.94921875 C6.47707031 15.20347656 6.42679687 16.45773438 6.375 17.75 C6.33439453 19.65458984 6.33439453 19.65458984 6.29296875 21.59765625 C6.2222359 24.73347906 6.12356492 27.86588663 6 31 C4.89419342 30.0550827 3.78880709 29.1096736 2.68359375 28.1640625 C2.06798584 27.6376416 1.45237793 27.1112207 0.81811523 26.56884766 C-0.7820603 25.18805969 -2.36151087 23.78333072 -3.9375 22.375 C-14.14654061 14.45778483 -25.38957227 12.77867276 -38 14 C-41.96971274 14.8670565 -45.39495394 16.13913295 -49 18 C-49.66386719 18.33902344 -50.32773437 18.67804688 -51.01171875 19.02734375 C-58.07191428 23.33084688 -61.77853968 31.29369516 -64 39 C-65.88122811 49.76401946 -65.12198803 60.46136789 -59.3125 69.9375 C-52.99352692 78.35252268 -45.21350947 81.90279446 -35 84 C-23.42214306 85.29126475 -11.14044737 82.60754399 -1.87109375 75.328125 C1.57091471 72.36153207 4.792063 69.21625203 8 66 C8.20416594 69.87421701 8.32791537 73.74704592 8.4375 77.625 C8.52547852 79.26662109 8.52547852 79.26662109 8.61523438 80.94140625 C8.78317121 88.85842841 8.78317121 88.85842841 6.6171875 92.015625 C3.21771338 95.04900191 -0.64607397 97.07676639 -4.875 98.75 C-5.82117188 99.13671875 -6.76734375 99.5234375 -7.7421875 99.921875 C-25.34225249 105.74635694 -45.20226248 104.58311693 -61.875 96.375 C-73.37531592 89.45063561 -81.29753084 79.15944011 -85.09375 66.29296875 C-88.79676893 49.64652716 -87.80804032 32.39687598 -78.796875 17.51953125 C-69.45250191 4.41709507 -56.21169099 -2.45929019 -40.6640625 -5.44921875 C-26.70158491 -7.08084927 -12.87812889 -5.77027273 0 0 Z " fill="#21A038" transform="translate(311,178)"/>
<path d="M0 0 C29.37 0 58.74 0 89 0 C89 5.94 89 11.88 89 18 C77.45 18 65.9 18 54 18 C54 46.71 54 75.42 54 105 C47.4 105 40.8 105 34 105 C34 76.29 34 47.58 34 18 C22.78 18 11.56 18 0 18 C0 12.06 0 6.12 0 0 Z " fill="#21A038" transform="translate(327,174)"/>
<path d="M0 0 C5.38567718 4.56966549 9.06910459 10.61028393 12 17 C10.70426824 20.88719529 8.37310319 22.10752133 5.125 24.3125 C3.83877904 25.20810828 2.55368226 26.10533253 1.26953125 27.00390625 C0.57811035 27.48617676 -0.11331055 27.96844727 -0.82568359 28.46533203 C-4.65570539 31.16862386 -8.41924156 33.96158174 -12.1875 36.75 C-12.98913574 37.34208252 -13.79077148 37.93416504 -14.61669922 38.54418945 C-16.25953373 39.75762822 -17.90211053 40.97141597 -19.54443359 42.18554688 C-23.52649203 45.12794679 -27.51340767 48.06374758 -31.5 51 C-36.39193311 54.60369862 -41.28306136 58.20847646 -46.171875 61.81640625 C-47.44708008 62.75709961 -47.44708008 62.75709961 -48.74804688 63.71679688 C-50.36424847 64.90907674 -51.98015493 66.10175681 -53.59570312 67.29492188 C-55.04859396 68.36647654 -56.50544207 69.43269308 -57.96679688 70.49267578 C-59.31098913 71.48919871 -60.63124426 72.51893405 -61.92382812 73.58154297 C-63.734375 75.02734375 -63.734375 75.02734375 -67 77 C-70.45586981 75.97867047 -73.43064447 74.26978015 -76.51171875 72.42578125 C-77.35283203 71.92240234 -78.19394531 71.41902344 -79.06054688 70.90039062 C-80.36088867 70.11438477 -80.36088867 70.11438477 -81.6875 69.3125 C-82.53505859 68.80783203 -83.38261719 68.30316406 -84.25585938 67.78320312 C-85.97693096 66.74794258 -87.68601536 65.69250414 -89.3828125 64.61791992 C-92.00070565 62.95494587 -92.00070565 62.95494587 -94.8515625 61.5168457 C-97.71661219 59.88188783 -99.82403446 58.48614157 -102 56 C-103.19306712 51.45446993 -102.95540399 47.22119632 -102.625 42.5625 C-102.57988281 41.35400391 -102.53476563 40.14550781 -102.48828125 38.90039062 C-102.37081353 35.92845727 -102.20689163 32.96682593 -102 30 C-98.62927251 31.26323767 -95.66608619 32.70428302 -92.63671875 34.64453125 C-91.83169922 35.15693359 -91.02667969 35.66933594 -90.19726562 36.19726562 C-89.36904297 36.73029297 -88.54082031 37.26332031 -87.6875 37.8125 C-85.24061486 39.37487575 -82.793594 40.93683352 -80.34130859 42.49072266 C-78.80642001 43.48015761 -77.28747833 44.49488097 -75.78759766 45.53662109 C-75.10101074 46.00277832 -74.41442383 46.46893555 -73.70703125 46.94921875 C-72.81141479 47.57896606 -72.81141479 47.57896606 -71.89770508 48.22143555 C-69.23045481 49.31571846 -67.7194184 48.85890254 -65 48 C-62.94404536 46.85032495 -62.94404536 46.85032495 -61.0234375 45.33203125 C-60.28029297 44.77580078 -59.53714844 44.21957031 -58.77148438 43.64648438 C-57.98064453 43.04126953 -57.18980469 42.43605469 -56.375 41.8125 C-54.66423487 40.52711431 -52.95329246 39.24196453 -51.2421875 37.95703125 C-49.93459473 36.96823975 -49.93459473 36.96823975 -48.60058594 35.95947266 C-44.59194162 32.93906528 -40.54549838 29.97074811 -36.5 27 C-34.93078877 25.84402255 -33.36177939 24.68777104 -31.79296875 23.53125 C-28.48376085 21.09281451 -25.17374918 18.65547455 -21.86328125 16.21875 C-20.59484375 15.28482422 -20.59484375 15.28482422 -19.30078125 14.33203125 C-17.69812842 13.15205609 -16.09527917 11.97234764 -14.4921875 10.79296875 C-9.6417963 7.22123956 -4.81269094 3.62236782 0 0 Z " fill="#21A038" transform="translate(155,33)"/>
</svg>
