<?xml version="1.0" encoding="UTF-8"?>
<svg version="1.1" xmlns="http://www.w3.org/2000/svg" width="2000" height="272">
<path d="M0 0 C5.37482665 0.21745786 10.67875126 0.08776606 16.05117416 -0.12973022 C38.71511723 -0.9201835 60.23708441 2.87150002 77.72021484 18.28222656 C97.87313276 37.46957496 98.39655226 64.03223671 99.04701233 90.19987011 C99.28258799 103.0079868 99.07680925 115.80478161 98.80898666 128.61051345 C98.66545422 136.27038058 98.71725515 143.91161759 98.87744141 151.57080078 C100.56711866 234.68614399 100.56711866 234.68614399 80.15590668 256.30698395 C63.15879898 272.48972377 42.21498423 277.56053603 19.24755859 277.14941406 C17.11371529 277.07499173 14.98007288 276.99457106 12.84667969 276.90820312 C7.47185304 276.69074526 2.16792843 276.82043707 -3.20449448 277.03793335 C-25.86843754 277.82838662 -47.39040472 274.0367031 -64.87353516 258.62597656 C-85.02645307 239.43862816 -85.54987257 212.87596641 -86.20033264 186.70833302 C-86.4359083 173.90021632 -86.23012956 161.10342152 -85.96230698 148.29768968 C-85.81877453 140.63782254 -85.87057546 132.99658554 -86.03076172 125.33740234 C-87.72043897 42.22205913 -87.72043897 42.22205913 -67.30922699 20.60121918 C-48.39311516 2.59141883 -25.21067706 -1.02062488 0 0 Z M-25.07666016 56.95410156 C-25.07666016 110.74410156 -25.07666016 164.53410156 -25.07666016 219.95410156 C-4.28666016 219.95410156 16.50333984 219.95410156 37.92333984 219.95410156 C37.92333984 166.16410156 37.92333984 112.37410156 37.92333984 56.95410156 C17.13333984 56.95410156 -3.65666016 56.95410156 -25.07666016 56.95410156 Z " fill="#990032" transform="translate(796.07666015625,-2.9541015625)"/>
<path d="M0 0 C5.37482665 0.21745786 10.67875126 0.08776606 16.05117416 -0.12973022 C38.71511723 -0.9201835 60.23708441 2.87150002 77.72021484 18.28222656 C97.87313276 37.46957496 98.39655226 64.03223671 99.04701233 90.19987011 C99.28258799 103.0079868 99.07680925 115.80478161 98.80898666 128.61051345 C98.66545422 136.27038058 98.71725515 143.91161759 98.87744141 151.57080078 C100.56711866 234.68614399 100.56711866 234.68614399 80.15590668 256.30698395 C63.15879898 272.48972377 42.21498423 277.56053603 19.24755859 277.14941406 C17.11371529 277.07499173 14.98007288 276.99457106 12.84667969 276.90820312 C7.47185304 276.69074526 2.16792843 276.82043707 -3.20449448 277.03793335 C-25.86843754 277.82838662 -47.39040472 274.0367031 -64.87353516 258.62597656 C-85.02645307 239.43862816 -85.54987257 212.87596641 -86.20033264 186.70833302 C-86.4359083 173.90021632 -86.23012956 161.10342152 -85.96230698 148.29768968 C-85.81877453 140.63782254 -85.87057546 132.99658554 -86.03076172 125.33740234 C-87.72043897 42.22205913 -87.72043897 42.22205913 -67.30922699 20.60121918 C-48.39311516 2.59141883 -25.21067706 -1.02062488 0 0 Z M-25.07666016 56.95410156 C-25.07666016 110.74410156 -25.07666016 164.53410156 -25.07666016 219.95410156 C-4.28666016 219.95410156 16.50333984 219.95410156 37.92333984 219.95410156 C37.92333984 166.16410156 37.92333984 112.37410156 37.92333984 56.95410156 C17.13333984 56.95410156 -3.65666016 56.95410156 -25.07666016 56.95410156 Z " fill="#990032" transform="translate(279.07666015625,-2.9541015625)"/>
<path d="M0 0 C31.35 0 62.7 0 95 0 C104.77312714 46.94933628 114.49930566 93.90809334 124.1875 140.875 C124.32349326 141.5342727 124.45948652 142.1935454 124.59960079 142.87279606 C127.12436002 155.11252338 129.64903722 167.35226763 132.17224121 179.59231567 C134.85379982 192.59967264 137.53809908 205.6064533 140.22741592 218.61220813 C141.14228051 223.03706611 142.05664254 227.46202797 142.97100741 231.88698924 C143.84919957 236.13654992 144.72826346 240.38592911 145.60796022 244.63517857 C146.27497526 247.85835144 146.94072923 251.08178483 147.60668945 254.30517578 C147.850338 255.48066608 148.09398655 256.65615639 148.34501839 257.86726761 C148.56445044 258.93048611 148.78388248 259.99370461 149.00996399 261.08914185 C149.29841171 262.48352069 149.29841171 262.48352069 149.59268665 263.9060688 C150 266 150 266 150 267 C131.19 267 112.38 267 93 267 C91.43471661 259.10603361 89.86996645 251.21199606 88.31048584 243.3168869 C87.58412586 239.64040525 86.85675708 235.96412977 86.12695312 232.28833008 C85.4242091 228.74862003 84.72423423 225.20837273 84.02618408 221.66773415 C83.75924434 220.31633776 83.49130375 218.96513868 83.22235107 217.61414146 C82.84611382 215.72334644 82.47374891 213.83178212 82.1015625 211.94018555 C81.88838379 210.86318893 81.67520508 209.78619232 81.45556641 208.67655945 C81 206 81 206 81 203 C58.23 203 35.46 203 12 203 C11.67 206.3 11.34 209.6 11 213 C10.69499427 214.9286988 10.36197647 216.85347797 9.984375 218.76928711 C9.7874707 219.77990707 9.59056641 220.79052704 9.38769531 221.83177185 C9.17725586 222.88631058 8.96681641 223.9408493 8.75 225.02734375 C8.53182617 226.13807755 8.31365234 227.24881134 8.08886719 228.39320374 C7.63044347 230.72228439 7.16979938 233.05092903 6.70703125 235.37915039 C5.99744926 238.95033735 5.29504293 242.5228801 4.59375 246.09570312 C4.14624951 248.36466545 3.69834716 250.63354857 3.25 252.90234375 C2.93434082 254.50540627 2.93434082 254.50540627 2.61230469 256.14085388 C2.41540039 257.12940872 2.21849609 258.11796356 2.015625 259.13647461 C1.84321289 260.00566025 1.67080078 260.87484589 1.49316406 261.77037048 C1 264 1 264 0 267 C-18.15 267 -36.3 267 -55 267 C-53.75537049 258.9099082 -52.46930863 250.95087165 -50.79882812 242.95727539 C-50.58618852 241.92631618 -50.37354891 240.89535698 -50.15446568 239.83315659 C-49.44982451 236.42067438 -48.74053171 233.00917667 -48.03125 229.59765625 C-47.52154924 227.13366214 -47.01215293 224.66960503 -46.5030365 222.20549011 C-45.4103518 216.92008056 -44.31571475 211.63508167 -43.21920776 206.35046387 C-41.4857996 197.9962799 -39.7563526 189.64127873 -38.02758789 181.28613281 C-37.43454487 178.42013129 -36.84147697 175.55413492 -36.24839783 172.68814087 C-36.10020696 171.97200501 -35.95201609 171.25586914 -35.79933459 170.51803219 C-34.88850624 166.11668755 -33.97723981 161.71543385 -33.06564122 157.31424868 C-28.84502414 136.93714043 -24.64009749 116.55685149 -20.44778061 96.17390251 C-19.53638325 91.7428546 -18.62447752 87.31191142 -17.71243286 82.8809967 C-17.56413021 82.16048899 -17.41582756 81.43998128 -17.26303089 80.69764 C-16.67013864 77.81717045 -16.07723825 74.93670258 -15.48430419 72.05624163 C-13.88979461 64.31001558 -12.29616904 56.56360995 -10.70507812 48.81668091 C-9.34843827 42.21130197 -7.98897554 35.60651025 -6.62762642 29.00209999 C-6.12716737 26.5717039 -5.62770453 24.14110243 -5.12928581 21.71028709 C-4.45130816 18.40430462 -3.76992001 15.09904345 -3.08764648 11.79394531 C-2.88891182 10.8206128 -2.69017715 9.84728029 -2.48542023 8.84445286 C-2.30290962 7.96389194 -2.12039902 7.08333101 -1.93235779 6.17608643 C-1.77531592 5.41241383 -1.61827406 4.64874123 -1.45647335 3.86192703 C-1 2 -1 2 0 0 Z M42 52 C39.10945059 62.69927039 37.06891115 73.54300658 34.98828125 84.421875 C34.61171365 86.37776153 34.23485224 88.33359152 33.85771179 90.28936768 C32.87336911 95.39816375 31.89297895 100.50771033 30.91345215 105.61743164 C29.73334136 111.76896588 28.54824896 117.91954217 27.36400604 124.07028198 C25.5722177 133.37946558 23.78670228 142.68983242 22 152 C38.17 152 54.34 152 71 152 C67.46223437 131.81988267 63.66716676 111.70666737 59.69628906 91.6081543 C58.89282681 87.5406787 58.09533598 83.47205517 57.29919052 79.40314198 C56.67906519 76.23806868 56.0554273 73.07369543 55.43073273 69.9095211 C55.13447451 68.4061936 54.83943468 66.90262545 54.54564667 65.39881325 C54.14053682 63.3273884 53.73059691 61.2569786 53.31933594 59.18676758 C53.08792908 58.01213455 52.85652222 56.83750153 52.61810303 55.62727356 C52.26410201 53.0886424 52.26410201 53.0886424 51 52 C49.48071962 51.92820036 47.95832518 51.91607993 46.4375 51.9375 C45.26199585 51.9540564 45.26199585 51.9540564 44.06274414 51.97094727 C43.04168579 51.98532837 43.04168579 51.98532837 42 52 Z " fill="#990032" transform="translate(1657,2)"/>
<path d="M0 0 C41.91 0 83.82 0 127 0 C169.34379123 42.34379123 169.34379123 42.34379123 169.6900177 60.67381287 C169.54577397 63.14620091 169.39504549 65.618218 169.23828125 68.08984375 C169.20526564 70.75835054 169.1861221 73.42379631 169.18315125 76.09217834 C169.14768507 81.60212625 168.97176742 87.09134907 168.69067383 92.59399414 C168.36905603 98.9054285 168.23693213 105.19878098 168.20998031 111.51793379 C168.18317354 117.69382229 168.0698571 123.86448239 167.90282249 130.03811836 C167.8356283 132.62386819 167.78344306 135.21005854 167.7474308 137.79643059 C167.31594508 159.73232635 167.31594508 159.73232635 159.63756847 168.01937962 C156.58101186 170.91106144 153.37079754 173.48844544 150 176 C148.63618783 177.17640978 147.27790325 178.35948597 145.9375 179.5625 C145.35484375 180.05234375 144.7721875 180.5421875 144.171875 181.046875 C140.22794336 184.59357612 136.54605158 188.41674312 132.83374023 192.20336914 C132.25309814 192.79239014 131.67245605 193.38141113 131.07421875 193.98828125 C130.55432373 194.51977783 130.03442871 195.05127441 129.4987793 195.59887695 C125.71589274 199.13528125 123.26154924 199.24510431 118.23364258 199.22705078 C117.20886055 199.22748886 117.20886055 199.22748886 116.16337585 199.22793579 C113.90696477 199.22654332 111.65088459 199.21098629 109.39453125 199.1953125 C107.82940349 199.19158207 106.26427339 199.18873524 104.69914246 199.18673706 C100.58091782 199.17910294 96.46283439 199.1594564 92.34466553 199.1373291 C87.40290495 199.11326769 82.46109714 199.10408863 77.51929474 199.09242249 C70.01276497 199.07303181 62.50654499 199.03470789 55 199 C55 221.44 55 243.88 55 267 C36.85 267 18.7 267 0 267 C0 178.89 0 90.78 0 0 Z M55 52 C55 83.35 55 114.7 55 147 C72.82 147 90.64 147 109 147 C109 115.65 109 84.3 109 52 C91.18 52 73.36 52 55 52 Z " fill="#990032" transform="translate(1428,2)"/>
<path d="M0 0 C41.91 0 83.82 0 127 0 C169.34379123 42.34379123 169.34379123 42.34379123 169.6900177 60.67381287 C169.54577397 63.14620091 169.39504549 65.618218 169.23828125 68.08984375 C169.20526564 70.75835054 169.1861221 73.42379631 169.18315125 76.09217834 C169.14768507 81.60212625 168.97176742 87.09134907 168.69067383 92.59399414 C168.36905603 98.9054285 168.23693213 105.19878098 168.20998031 111.51793379 C168.18317354 117.69382229 168.0698571 123.86448239 167.90282249 130.03811836 C167.8356283 132.62386819 167.78344306 135.21005854 167.7474308 137.79643059 C167.31594508 159.73232635 167.31594508 159.73232635 159.63756847 168.01937962 C156.58101186 170.91106144 153.37079754 173.48844544 150 176 C148.63618783 177.17640978 147.27790325 178.35948597 145.9375 179.5625 C145.35484375 180.05234375 144.7721875 180.5421875 144.171875 181.046875 C140.22794336 184.59357612 136.54605158 188.41674312 132.83374023 192.20336914 C132.25309814 192.79239014 131.67245605 193.38141113 131.07421875 193.98828125 C130.55432373 194.51977783 130.03442871 195.05127441 129.4987793 195.59887695 C125.71589274 199.13528125 123.26154924 199.24510431 118.23364258 199.22705078 C117.20886055 199.22748886 117.20886055 199.22748886 116.16337585 199.22793579 C113.90696477 199.22654332 111.65088459 199.21098629 109.39453125 199.1953125 C107.82940349 199.19158207 106.26427339 199.18873524 104.69914246 199.18673706 C100.58091782 199.17910294 96.46283439 199.1594564 92.34466553 199.1373291 C87.40290495 199.11326769 82.46109714 199.10408863 77.51929474 199.09242249 C70.01276497 199.07303181 62.50654499 199.03470789 55 199 C55 221.44 55 243.88 55 267 C36.85 267 18.7 267 0 267 C0 178.89 0 90.78 0 0 Z M55 52 C55 83.35 55 114.7 55 147 C72.82 147 90.64 147 109 147 C109 115.65 109 84.3 109 52 C91.18 52 73.36 52 55 52 Z " fill="#990032" transform="translate(3,2)"/>
<path d="M0 0 C18.48 0 36.96 0 56 0 C59.37498806 7.87497215 59.37498806 7.87497215 60.25170898 10.88752747 C60.45343719 11.57265915 60.65516541 12.25779083 60.86300659 12.96368408 C61.07192535 13.68956726 61.28084412 14.41545044 61.49609375 15.16333008 C61.84065109 16.34045815 61.84065109 16.34045815 62.19216919 17.54136658 C62.94475932 20.11623229 63.69114685 22.69285148 64.4375 25.26953125 C64.96371653 27.07414573 65.49033447 28.8786432 66.01733398 30.68302917 C67.40095493 35.42418556 68.77937102 40.16683929 70.15661621 44.90985107 C71.55198324 49.7122443 72.95185066 54.51332478 74.3515625 59.31445312 C75.92857936 64.72397378 77.50522763 70.1335967 79.07788086 75.54438782 C81.35379663 83.37265949 83.63838387 91.19702551 86 99 C88.97 99.33 91.94 99.66 95 100 C95.2237178 99.07041473 95.44743561 98.14082947 95.67793274 97.18307495 C98.34949368 86.21898696 101.42220782 75.3953545 104.60546875 64.5703125 C105.13566238 62.7595758 105.66563145 60.94877333 106.19538879 59.13790894 C107.29520036 55.38090933 108.39712508 51.62453866 109.50073242 47.86865234 C110.91650741 43.05002451 112.3277104 38.23007205 113.73748302 33.40968513 C114.82632987 29.68790548 115.91709903 25.96669153 117.00850868 22.24566269 C117.53011755 20.46674949 118.05122694 18.68768975 118.57182884 16.9084816 C119.29493336 14.43858946 120.02051584 11.9694393 120.74682617 9.50048828 C120.96136444 8.76605499 121.17590271 8.0316217 121.39694214 7.27493286 C122.88558126 2.22883748 122.88558126 2.22883748 124 0 C142.48 0 160.96 0 180 0 C177.75000261 11.24998694 177.75000261 11.24998694 176.56483459 15.15942383 C176.29716782 16.0506192 176.02950104 16.94181458 175.75372314 17.86001587 C175.4664032 18.79953094 175.17908325 19.73904602 174.88305664 20.70703125 C174.57546921 21.72630707 174.26788177 22.74558289 173.95097351 23.79574585 C172.94178864 27.13601982 171.92601953 30.47425168 170.91015625 33.8125 C170.2023414 36.15067275 169.49494561 38.4889724 168.78794861 40.82739258 C166.93061065 46.96662938 165.06769038 53.10415815 163.20355225 59.24133301 C161.31272643 65.46978102 159.4270497 71.69978717 157.54101562 77.9296875 C154.49155304 88.00088201 151.43931134 98.07122827 148.38180542 108.13998413 C147.84549159 109.90702322 147.3121823 111.67497771 146.78224373 113.44393921 C146.25368111 115.17107121 145.70294197 116.89154811 145.13198662 118.60513306 C142.38641201 127.03722517 142.52461795 133.61934301 145.08862305 142.08862305 C145.31180427 142.8570969 145.53498549 143.62557076 145.76492977 144.4173317 C146.50373751 146.95188293 147.25765338 149.4816691 148.01171875 152.01171875 C148.53842317 153.80770788 149.06414983 155.60398402 149.58895874 157.40052795 C150.70155578 161.20185683 151.82072473 165.00116059 152.94534302 168.7989502 C154.68886639 174.68678278 156.41785486 180.57881654 158.14428711 186.47167969 C160.40124042 194.17128789 162.66365147 201.86926584 164.93066406 209.56591797 C168.40118119 221.35137768 171.84086014 233.1455581 175.25186157 244.94839478 C176.0466551 247.69523928 176.84565665 250.44083274 177.64526367 253.1862793 C178.10874663 254.7855908 178.57205836 256.38495195 179.03515625 257.984375 C179.2401474 258.68530777 179.44513855 259.38624054 179.65634155 260.1084137 C181 264.77148945 181 264.77148945 181 267 C162.85 267 144.7 267 126 267 C122.625 259.125 122.625 259.125 121.5382843 255.47572327 C121.29014984 254.64992767 121.04201538 253.82413208 120.78636169 252.97331238 C120.39578331 251.65053032 120.39578331 251.65053032 119.99731445 250.30102539 C119.71402283 249.35390686 119.4307312 248.40678833 119.13885498 247.43096924 C118.20970785 244.32102958 117.28646143 241.20937187 116.36328125 238.09765625 C115.71774591 235.93278833 115.07184112 233.76803053 114.42558289 231.6033783 C112.73026888 225.92129039 111.03996323 220.23772463 109.35070801 214.55383301 C107.62420659 208.74787567 105.89295643 202.94333488 104.16210938 197.13867188 C100.77009925 185.76049336 97.38338024 174.3807474 94 163 C91.36 162.67 88.72 162.34 86 162 C85.7532251 163.19987549 85.5064502 164.39975098 85.25219727 165.63598633 C83.80728596 172.12367995 81.8703493 178.45969942 79.96484375 184.82421875 C79.56301655 186.17430468 79.1614571 187.52447033 78.76014709 188.87471008 C77.70272593 192.42973265 76.64154834 195.9836231 75.57958984 199.53729248 C74.53310258 203.04173161 73.49038349 206.54729117 72.44726562 210.05273438 C70.59239013 216.28387013 68.73284095 222.51359764 66.87024498 228.74242973 C65.59516809 233.00685577 64.32254524 237.27200474 63.05170727 241.53769588 C62.21569102 244.34265135 61.37811835 247.14714038 60.54016304 249.95151711 C60.14378579 251.27916834 59.74802862 252.60700488 59.35291862 253.9350338 C58.80933733 255.76164268 58.26325405 257.58750644 57.71704102 259.41333008 C57.25419456 260.96483513 57.25419456 260.96483513 56.78199768 262.54768372 C56 265 56 265 55 267 C36.85 267 18.7 267 0 267 C2.24997616 255.75011918 2.24997616 255.75011918 3.80908203 250.40356445 C4.15824173 249.1985025 4.50740143 247.99344055 4.86714172 246.75186157 C5.24726805 245.4556396 5.62749472 244.15944706 6.0078125 242.86328125 C6.41048567 241.4797887 6.81279453 240.09619007 7.21476746 238.7124939 C8.07000151 235.77129326 8.92779221 232.83085492 9.7875061 229.89096069 C11.13673603 225.27581029 12.47733194 220.65817635 13.81713867 216.0402832 C17.9427231 201.83124023 22.09724707 187.63161991 26.33248901 173.45485115 C27.64536282 169.05379415 28.94809951 164.64972257 30.25262451 160.2461853 C30.95538441 157.88656727 31.66386234 155.52864418 32.37823486 153.17251587 C33.36605934 149.91447874 34.33525667 146.65142133 35.30078125 143.38671875 C35.59244675 142.44396088 35.88411224 141.501203 36.18461609 140.52987671 C36.44120499 139.64949738 36.69779388 138.76911804 36.9621582 137.86206055 C37.188293 137.11087448 37.4144278 136.35968842 37.64741516 135.58573914 C38.63085105 128.37354968 36.10742064 121.3716781 34.02832031 114.55517578 C33.57197708 113.03134529 33.57197708 113.03134529 33.10641479 111.47673035 C32.10293943 108.13110238 31.09050751 104.78825483 30.078125 101.4453125 C29.37347173 99.10108538 28.66944132 96.75667096 27.96600342 94.41207886 C26.11245781 88.23929372 24.25156896 82.06874802 22.38879395 75.89874268 C19.42017728 66.06132175 16.462969 56.22046512 13.50527191 46.37975693 C12.47891004 42.96851235 11.44959747 39.55817 10.41973877 36.14797974 C9.77619192 34.01159236 9.13269578 31.8751897 8.48925781 29.73876953 C8.0697435 28.35390099 8.0697435 28.35390099 7.64175415 26.9410553 C4.95164189 17.99464438 2.5025505 9.00918182 0 0 Z " fill="#990032" transform="translate(1818,2)"/>
<path d="M0 0 C6.51475641 0.4675849 13.04418263 0.63334646 19.5710907 0.85322571 C29.37264559 1.2155643 39.08240521 1.94302628 48.88879395 2.60925293 C48.88879395 19.76925293 48.88879395 36.92925293 48.88879395 54.60925293 C23.14879395 54.60925293 -2.59120605 54.60925293 -29.11120605 54.60925293 C-29.11120605 108.39925293 -29.11120605 162.18925293 -29.11120605 217.60925293 C-3.37120605 217.60925293 22.36879395 217.60925293 48.88879395 217.60925293 C48.88879395 234.76925293 48.88879395 251.92925293 48.88879395 269.60925293 C26.45459992 271.13338768 26.45459992 271.13338768 16.6192627 271.46472168 C9.99094616 271.68910569 3.3831609 271.94875854 -3.22888184 272.47595215 C-25.94377438 274.22993827 -47.9829864 273.55597359 -66.47366714 258.64480972 C-84.7370633 242.39079775 -88.06035758 222.90357347 -89.62295532 199.62106323 C-90.64002644 181.73920782 -90.37114798 163.84964316 -89.99685371 145.95284331 C-89.8533194 138.29297534 -89.90512319 130.65173774 -90.06530762 122.99255371 C-91.75493554 39.87075565 -91.75493554 39.87075565 -71.39269638 18.12134171 C-51.07773809 -1.37826405 -26.64686904 -2.1246171 0 0 Z " fill="#990032" transform="translate(1167.1112060546875,-0.6092529296875)"/>
<path d="M0 0 C6.51475641 0.4675849 13.04418263 0.63334646 19.5710907 0.85322571 C29.37264559 1.2155643 39.08240521 1.94302628 48.88879395 2.60925293 C48.88879395 19.76925293 48.88879395 36.92925293 48.88879395 54.60925293 C23.14879395 54.60925293 -2.59120605 54.60925293 -29.11120605 54.60925293 C-29.11120605 108.39925293 -29.11120605 162.18925293 -29.11120605 217.60925293 C-3.37120605 217.60925293 22.36879395 217.60925293 48.88879395 217.60925293 C48.88879395 234.76925293 48.88879395 251.92925293 48.88879395 269.60925293 C26.45459992 271.13338768 26.45459992 271.13338768 16.6192627 271.46472168 C9.99094616 271.68910569 3.3831609 271.94875854 -3.22888184 272.47595215 C-25.94377438 274.22993827 -47.9829864 273.55597359 -66.47366714 258.64480972 C-84.7370633 242.39079775 -88.06035758 222.90357347 -89.62295532 199.62106323 C-90.64002644 181.73920782 -90.37114798 163.84964316 -89.99685371 145.95284331 C-89.8533194 138.29297534 -89.90512319 130.65173774 -90.06530762 122.99255371 C-91.75493554 39.87075565 -91.75493554 39.87075565 -71.39269638 18.12134171 C-51.07773809 -1.37826405 -26.64686904 -2.1246171 0 0 Z " fill="#990032" transform="translate(1008.1112060546875,-0.6092529296875)"/>
<path d="M0 0 C6.52273889 0.45497854 13.05931815 0.61662926 19.59354401 0.8307724 C29.40890746 1.18372944 39.13753096 1.89215771 48.9574585 2.54058838 C48.9574585 19.70058838 48.9574585 36.86058838 48.9574585 54.54058838 C23.2174585 54.54058838 -2.5225415 54.54058838 -29.0425415 54.54058838 C-29.0425415 108.33058838 -29.0425415 162.12058838 -29.0425415 217.54058838 C-3.3025415 217.54058838 22.4374585 217.54058838 48.9574585 217.54058838 C48.9574585 234.70058838 48.9574585 251.86058838 48.9574585 269.54058838 C26.7728304 271.06472313 26.7728304 271.06472313 17.043396 271.39605713 C10.48736638 271.62041018 3.95210053 271.87994172 -2.58746338 272.4072876 C-25.1627351 274.17022264 -46.99445893 273.39800686 -65.37536812 258.60840034 C-83.72867508 242.31075953 -86.99213685 222.73680744 -88.52960205 199.37304688 C-89.53026252 181.38305847 -89.25472892 163.38613421 -88.87164688 145.38225484 C-88.72399653 137.67396498 -88.7690397 129.98355772 -88.92120361 122.2756958 C-90.52594848 38.60231603 -90.52594848 38.60231603 -70.75328064 17.4487381 C-50.77761468 -1.68474083 -26.10611919 -2.02248187 0 0 Z " fill="#990032" transform="translate(491.04254150390625,-0.54058837890625)"/>
<path d="M0 0 C54.45 0 108.9 0 165 0 C165 17.16 165 34.32 165 52 C146.85 52 128.7 52 110 52 C110 122.95 110 193.9 110 267 C91.52 267 73.04 267 54 267 C54 196.05 54 125.1 54 52 C36.18 52 18.36 52 0 52 C0 34.84 0 17.68 0 0 Z " fill="#990032" transform="translate(1236,2)"/>
<path d="M0 0 C41.25 0 82.5 0 125 0 C125 17.16 125 34.32 125 52 C102.23 52 79.46 52 56 52 C56 122.95 56 193.9 56 267 C37.52 267 19.04 267 0 267 C0 178.89 0 90.78 0 0 Z " fill="#990032" transform="translate(574,2)"/>
</svg>
