<?xml version="1.0" encoding="utf-8"?>
<!-- Generator: Adobe Illustrator 21.1.0, SVG Export Plug-In . SVG Version: 6.00 Build 0)  -->
<svg version="1.1" id="Слой_1" xmlns="http://www.w3.org/2000/svg" xmlns:xlink="http://www.w3.org/1999/xlink" x="0px" y="0px"
	 viewBox="0 0 172.9 48.2" style="enable-background:new 0 0 172.9 48.2;" xml:space="preserve">
<style type="text/css">
	.st0{fill:#339851;}
</style>
<g>
	<path class="st0" d="M81.6,6.2c-1.1-1.7-2.6-3-4.7-3.9c-2-0.9-4.4-1.3-7.1-1.3H58.9v31.3h6.2v-8.9h4.7c2.7,0,5.1-0.5,7.1-1.3
		c2-0.9,3.6-2.2,4.7-3.9c1.1-1.7,1.6-3.7,1.6-6C83.2,9.9,82.6,7.9,81.6,6.2 M76.9,12.2c0,1.9-0.6,3.3-1.9,4.4
		c-1.2,1-3.1,1.5-5.5,1.5h-4.5V6.3h4.5c2.4,0,4.3,0.5,5.5,1.5C76.3,8.8,76.9,10.3,76.9,12.2"/>
	<polygon class="st0" points="92.3,27 92.3,19 105.2,19 105.2,13.8 92.3,13.8 92.3,6.2 107.1,6.2 107.1,1 86.1,1 86.1,32.3 
		107.7,32.3 107.7,27 	"/>
	<path class="st0" d="M131.7,25.3c-1.8,1.2-3.8,1.9-6.1,1.9c-2.1,0-3.9-0.5-5.6-1.4c-1.6-0.9-2.9-2.2-3.8-3.8
		c-0.9-1.6-1.4-3.4-1.4-5.5c0-2,0.5-3.9,1.4-5.5c0.9-1.6,2.2-2.9,3.8-3.8c1.6-0.9,3.5-1.4,5.6-1.4c2.1,0,4.1,0.6,5.7,1.6l3.6-4.3
		c-0.8-0.6-1.7-1-2.6-1.4c-2.1-0.9-4.5-1.3-7-1.3c-3.1,0-6,0.7-8.6,2.1c-2.5,1.4-4.6,3.3-6,5.7c-1.5,2.4-2.2,5.2-2.2,8.3
		c0,3.1,0.7,5.8,2.2,8.3c1.4,2.4,3.5,4.4,6,5.7c2.5,1.4,5.4,2.1,8.6,2.1c2.5,0,4.9-0.5,7-1.3c1-0.4,2-1,2.8-1.6L131.7,25.3z"/>
	<path class="st0" d="M166.3,8.3c-1.5-2.4-3.5-4.4-6-5.7c-2.5-1.4-5.4-2.1-8.6-2.1c-3.2,0-6.1,0.7-8.6,2.1c-2.5,1.4-4.6,3.3-6,5.8
		c-1.5,2.4-2.2,5.2-2.2,8.2c0,3,0.7,5.8,2.2,8.2c1.5,2.5,3.5,4.4,6,5.8c2.5,1.4,5.4,2.1,8.6,2.1c3.2,0,6.1-0.7,8.6-2.1
		c2.6-1.4,4.6-3.3,6-5.7c1.5-2.4,2.2-5.2,2.2-8.3C168.5,13.6,167.8,10.8,166.3,8.3 M162.3,16.6c0,2-0.5,3.8-1.4,5.5
		c-0.9,1.6-2.2,2.9-3.8,3.8c-1.6,0.9-3.4,1.4-5.4,1.4c-2,0-3.8-0.5-5.4-1.4c-1.6-0.9-2.9-2.2-3.8-3.8c-0.9-1.6-1.4-3.4-1.4-5.5
		c0-2,0.5-3.8,1.4-5.5c0.9-1.6,2.2-2.9,3.8-3.8c1.6-0.9,3.4-1.4,5.4-1.4c2,0,3.8,0.5,5.4,1.4c1.6,0.9,2.9,2.2,3.8,3.8
		C161.8,12.8,162.3,14.6,162.3,16.6"/>
	<polygon class="st0" points="64.1,42.1 60.9,42.1 60.9,47.6 58.9,47.6 58.9,40.5 64.1,40.5 	"/>
	<path class="st0" d="M76.5,46.2h-3l-0.6,1.4h-2.1l3.2-7.1h2l3.2,7.1h-2.1L76.5,46.2z M75.9,44.7L75,42.4l-0.9,2.3H75.9z"/>
	<path class="st0" d="M91.6,40.8c0.5,0.2,0.8,0.5,1.1,0.9c0.3,0.4,0.4,0.9,0.4,1.4c0,0.5-0.1,1-0.4,1.4c-0.3,0.4-0.6,0.7-1.1,0.9
		c-0.5,0.2-1,0.3-1.7,0.3h-1.2v1.9h-2v-7.1h3.3C90.5,40.5,91.1,40.6,91.6,40.8 M90.7,43.9c0.2-0.2,0.3-0.4,0.3-0.8
		c0-0.3-0.1-0.6-0.3-0.8c-0.2-0.2-0.5-0.3-0.9-0.3h-1.1v2.1h1.1C90.2,44.1,90.5,44.1,90.7,43.9"/>
	<path class="st0" d="M105.8,46.2h-3l-0.6,1.4h-2.1l3.2-7.1h2l3.2,7.1h-2.1L105.8,46.2z M105.2,44.7l-0.9-2.3l-0.9,2.3H105.2z"/>
	<polygon class="st0" points="123.5,40.5 123.5,47.6 121.5,47.6 121.5,44.8 118.8,44.8 118.8,47.6 116.8,47.6 116.8,40.5 
		118.8,40.5 118.8,43.1 121.5,43.1 121.5,40.5 	"/>
	<polygon class="st0" points="138.2,42.1 136,42.1 136,47.6 134,47.6 134,42.1 131.8,42.1 131.8,40.5 138.2,40.5 	"/>
	<polygon class="st0" points="146.1,40.5 148,40.5 148,44.7 151,40.5 152.9,40.5 152.9,47.6 150.9,47.6 150.9,43.4 148,47.6 
		146.1,47.6 	"/>
	<path class="st0" d="M166.2,40.5v7.1h-2v-1.8h-1.1l-1.2,1.8h-2.1l1.4-2.1c-0.5-0.2-0.8-0.5-1.1-0.9c-0.2-0.4-0.4-0.9-0.4-1.4
		c0-0.6,0.1-1,0.4-1.4c0.3-0.4,0.6-0.7,1.1-0.9c0.5-0.2,1-0.3,1.7-0.3H166.2z M161.8,43.1c0,0.4,0.1,0.6,0.3,0.8
		c0.2,0.2,0.5,0.3,0.9,0.3h1.2v-2.2H163C162.2,42.1,161.8,42.4,161.8,43.1"/>
	<path class="st0" d="M49.5,32.4l-0.3-2.9c-0.6-5.5-2.4-9.9-5.1-13.3c-2.5-3.1-5.7-5.4-9.7-7V0.9l-2.9,0.3
		c-5.5,0.6-9.9,2.4-13.3,5.1c-3.1,2.5-5.4,5.7-7,9.7H2.9l0.3,2.9c0.6,5.5,2.4,9.9,5.1,13.3c2.5,3.1,5.7,5.4,9.7,7v8.3l2.9-0.3
		c5.5-0.6,9.9-2.4,13.3-5.1c3.1-2.5,5.4-5.7,7-9.7H49.5z M31.1,38.1c-2.1,1.7-4.7,2.9-7.9,3.6v-17H18v9.1c-2.3-1.2-4.2-2.7-5.7-4.6
		c-1.7-2.1-2.9-4.7-3.6-7.9h17.1v-5.1h-9.1c1.2-2.3,2.7-4.2,4.6-5.7c2.1-1.7,4.7-2.9,7.9-3.6v17.3h5.1v-9.3c2.3,1.2,4.2,2.7,5.7,4.6
		c1.7,2.1,2.9,4.7,3.6,7.9H26.7v5.1h8.9C34.5,34.7,33,36.6,31.1,38.1"/>
</g>
</svg>
