<?xml version="1.0" encoding="utf-8"?>
<!-- Generator: Adobe Illustrator 12.0.0, SVG Export Plug-In . SVG Version: 6.00 Build 51448)  -->
<!DOCTYPE svg PUBLIC "-//W3C//DTD SVG 1.1//EN" "http://www.w3.org/Graphics/SVG/1.1/DTD/svg11.dtd" [
	<!ENTITY ns_svg "http://www.w3.org/2000/svg">
	<!ENTITY ns_xlink "http://www.w3.org/1999/xlink">
]>
<svg  version="1.1" id="Layer_1" xmlns="&ns_svg;" xmlns:xlink="&ns_xlink;" width="182.409" height="60.963"
	 viewBox="0 0 182.409 60.963" overflow="visible" enable-background="new 0 0 182.409 60.963" xml:space="preserve">
<g>
	<path fill-rule="evenodd" clip-rule="evenodd" fill="#6E0F6C" d="M8.221,9.553c-0.732,0-1.498,0.074-2.233,0.219v7.612
		c0.736,0.11,1.428,0.147,2.123,0.147c2.711,0,4.758-1.502,4.758-4.353C12.868,10.398,10.894,9.553,8.221,9.553L8.221,9.553z
		 M8.221,21.414c-0.768,0-1.465-0.073-2.233-0.185v9.846H1.414V6.335C3.646,5.82,5.987,5.637,8.293,5.637
		c4.87,0,9.338,2.268,9.338,7.688C17.631,18.667,13.274,21.414,8.221,21.414L8.221,21.414z"/>
	<path fill-rule="evenodd" clip-rule="evenodd" fill="#6E0F6C" d="M27.899,15.923c-2.344,0-3.698,1.975-3.805,4.17h7.535
		C31.595,17.792,30.351,15.923,27.899,15.923L27.899,15.923z M35.913,23.535H24.094c0.291,2.82,2.192,4.134,4.902,4.134
		c1.497,0,3.328-0.362,4.648-0.95l1.392,3.403c-1.979,0.839-4.137,1.354-6.296,1.354c-5.636,0-9.369-3.844-9.369-9.517
		c0-5.306,2.889-9.664,8.489-9.664c5.268,0,8.311,3.733,8.311,8.824C36.171,21.926,36.058,22.73,35.913,23.535L35.913,23.535z"/>
	<polygon fill-rule="evenodd" clip-rule="evenodd" fill="#6E0F6C" points="43.831,12.774 43.831,19.729 50.893,19.729 
		50.893,12.774 55.286,12.774 55.286,31.075 50.893,31.075 50.893,23.169 43.831,23.169 43.831,31.075 39.438,31.075 39.438,12.774 
		43.831,12.774 	"/>
	<path fill-rule="evenodd" clip-rule="evenodd" fill="#6E0F6C" d="M68.064,15.923c-2.343,0-3.696,1.975-3.806,4.17h7.539
		C71.762,17.792,70.517,15.923,68.064,15.923L68.064,15.923z M76.082,23.535H64.258c0.294,2.82,2.198,4.134,4.903,4.134
		c1.501,0,3.333-0.362,4.649-0.95l1.392,3.403c-1.977,0.839-4.135,1.354-6.294,1.354c-5.638,0-9.369-3.844-9.369-9.517
		c0-5.306,2.892-9.664,8.49-9.664c5.271,0,8.309,3.733,8.309,8.824C76.337,21.926,76.229,22.73,76.082,23.535L76.082,23.535z"/>
	<path fill-rule="evenodd" clip-rule="evenodd" fill="#6E0F6C" d="M88.282,31.477c-5.639,0-9.955-3.768-9.955-9.551
		c0-5.675,3.875-9.555,9.552-9.555c2.009,0,4.171,0.479,6.037,1.283L92.599,17.2c-1.391-0.546-2.965-1.021-4.466-1.021
		c-3.22,0-5.124,2.6-5.124,5.636c0,3.254,2.124,5.854,5.526,5.854c1.392,0,2.818-0.437,4.098-0.913l1.282,3.44
		C92.121,31,90.22,31.477,88.282,31.477L88.282,31.477z"/>
	<path fill-rule="evenodd" clip-rule="evenodd" fill="#6E0F6C" d="M105.334,31.477c-5.636,0-9.957-3.768-9.957-9.551
		c0-5.675,3.88-9.555,9.555-9.555c2.014,0,4.173,0.479,6.042,1.283l-1.322,3.546c-1.388-0.546-2.961-1.021-4.463-1.021
		c-3.223,0-5.122,2.6-5.122,5.636c0,3.254,2.121,5.854,5.525,5.854c1.387,0,2.818-0.437,4.102-0.913l1.281,3.44
		C109.18,31,107.274,31.477,105.334,31.477L105.334,31.477z"/>
	<path fill-rule="evenodd" clip-rule="evenodd" fill="#6E0F6C" d="M125.037,26.61v-4.504c-1.506,1.429-6.517,0.845-6.517,3.479
		c0,1.9,1.83,2.233,3.404,2.233c1.063,0,2.161-0.185,3.187-0.511C125.11,27.307,125.037,26.864,125.037,26.61L125.037,26.61z
		 M121.887,31.477c-3.511,0-8.199-1.281-8.199-5.563c0-7.393,11.349-4.865,11.349-8.052c0-1.541-1.977-1.682-3.076-1.682
		c-1.645,0-3.548,0.438-5.089,1.095l-1.498-3.325c2.163-0.989,4.832-1.578,7.212-1.578c3.915,0,6.843,1.722,6.843,5.971l0,9.403
		c0,0.766,0.255,2.302,0.255,2.302C127.159,30.819,124.56,31.477,121.887,31.477L121.887,31.477z"/>
	<polygon fill-rule="evenodd" clip-rule="evenodd" fill="#6E0F6C" points="137.981,12.774 137.981,19.729 145.042,19.729 
		145.042,12.774 149.437,12.774 149.437,31.075 145.042,31.075 145.042,23.169 137.981,23.169 137.981,31.075 133.584,31.075 
		133.584,12.774 137.981,12.774 	"/>
	<path fill-rule="evenodd" clip-rule="evenodd" fill="#6E0F6C" d="M162.683,31.477c-5.637,0-9.956-3.768-9.956-9.551
		c0-5.675,3.878-9.555,9.554-9.555c2.013,0,4.174,0.479,6.04,1.283l-1.316,3.546c-1.395-0.546-2.967-1.021-4.468-1.021
		c-3.22,0-5.122,2.6-5.122,5.636c0,3.254,2.12,5.854,5.522,5.854c1.394,0,2.82-0.437,4.103-0.913l1.281,3.44
		C166.525,31,164.623,31.477,162.683,31.477L162.683,31.477z"/>
	<path fill-rule="evenodd" clip-rule="evenodd" fill="#ADC42B" d="M175.565,7.687c1.354,0,2.269-0.621,2.269-2.013
		c0-1.394-0.876-1.864-2.194-1.864c-0.365,0-0.803,0.071-1.061,0.106V7.65C174.837,7.65,175.202,7.687,175.565,7.687L175.565,7.687z
		 M181.204,6.66c0-3.038-2.452-5.492-5.454-5.492c-3.037,0-5.453,2.454-5.453,5.492c0,2.053,1.096,3.808,2.744,4.761V2.819
		c0.877-0.255,1.72-0.293,2.633-0.293c1.941,0,3.735,0.986,3.735,3.147c0,2.196-1.721,3.333-3.77,3.333
		c-0.438,0-1.061-0.113-1.061-0.113v3.114c0.365,0.072,0.768,0.108,1.171,0.108C178.752,12.115,181.204,9.665,181.204,6.66
		L181.204,6.66z M182.409,6.66c0,3.662-3,6.666-6.659,6.666c-3.698,0-6.661-3.003-6.661-6.666c0-3.693,2.963-6.66,6.661-6.66
		C179.409,0,182.409,2.967,182.409,6.66L182.409,6.66z"/>
	<path fill-rule="evenodd" clip-rule="evenodd" fill="#ADC42B" d="M6.417,55.742C2.904,55.742,0,53.352,0,49.398
		c0-3.78,2.414-6.39,6.123-6.39c1.292,0,2.611,0.291,3.782,0.778l-0.657,1.78c-0.684-0.268-1.833-0.658-2.981-0.658
		c-2.631,0-3.828,2.172-3.828,4.44c0,2.784,1.878,4.514,4.099,4.514c1.076,0,2.027-0.313,2.735-0.586l0.632,1.71
		C8.832,55.474,7.634,55.742,6.417,55.742L6.417,55.742z"/>
	<polygon fill-rule="evenodd" clip-rule="evenodd" fill="#ADC42B" points="21.261,45.129 17.332,45.129 17.332,55.474 
		15.135,55.474 15.135,45.129 11.207,45.129 11.207,43.273 21.261,43.273 21.261,45.129 	"/>
	<path fill-rule="evenodd" clip-rule="evenodd" fill="#ADC42B" d="M26.654,44.908c-0.83,0-1.512,0.172-2.149,0.415
		c0,0.075,0.077,0.362,0.077,0.563v7.567c0.561,0.265,1.268,0.387,1.877,0.387c2.757,0,3.955-1.806,3.955-4.492
		C30.413,47.007,29.359,44.908,26.654,44.908L26.654,44.908z M26.823,55.742c-0.756,0-1.489-0.145-2.242-0.415v5.636h-2.197V45.422
		c0-0.514-0.148-1.539-0.148-1.539c1.173-0.441,3.024-0.875,4.418-0.875c3.928,0,6.197,2.702,6.197,6.34
		C32.851,53.036,30.338,55.742,26.823,55.742L26.823,55.742z"/>
	<path fill-rule="evenodd" clip-rule="evenodd" fill="#ADC42B" d="M42.056,52.935v-3.828c-0.56,0.438-1.54,0.611-2.438,0.802
		c-1.415,0.318-2.709,0.711-2.709,2.074c0,1.271,1.023,1.857,2.66,1.857c0.878,0,1.757-0.146,2.537-0.415
		C42.105,53.425,42.056,53.106,42.056,52.935L42.056,52.935z M39.568,55.742c-2.978,0-5.098-1.198-5.098-3.585
		c0-2.689,2.195-3.417,4.195-3.833c1.755-0.363,3.363-0.559,3.363-1.754c0-1.416-1.337-1.661-2.389-1.661
		c-1.246,0-2.709,0.56-3.221,0.777l-0.755-1.705c1.196-0.559,2.828-0.973,4.125-0.973c2.901,0,4.463,1.341,4.463,3.897v6.371
		c0,0.517,0.173,1.566,0.173,1.566C42.985,55.3,41.25,55.742,39.568,55.742L39.568,55.742z"/>
	<polygon fill-rule="evenodd" clip-rule="evenodd" fill="#ADC42B" points="55.045,55.474 51.847,50.789 48.629,55.474 
		46.018,55.474 50.53,49.131 46.261,43.273 48.943,43.273 52.019,47.688 54.946,43.273 57.531,43.273 53.361,49.373 57.777,55.474 
		55.045,55.474 	"/>
	<path fill-rule="evenodd" clip-rule="evenodd" fill="#ADC42B" d="M64.312,44.908c-2.34,0-3.488,2.023-3.488,4.464
		c0,2.444,1.148,4.467,3.488,4.467c2.343,0,3.464-2.023,3.464-4.467C67.775,46.932,66.654,44.908,64.312,44.908L64.312,44.908z
		 M64.286,55.742c-3.541,0-5.904-2.656-5.904-6.37c0-3.705,2.364-6.365,5.904-6.365c3.54,0,5.931,2.66,5.931,6.365
		C70.217,53.086,67.825,55.742,64.286,55.742L64.286,55.742z"/>
	<path fill-rule="evenodd" clip-rule="evenodd" fill="#ADC42B" d="M76.653,53.912c1.561,0,3.394-0.315,3.394-1.901
		c0-1.712-1.293-2.077-3.662-2.077h-1.487v3.882C75.308,53.862,75.968,53.912,76.653,53.912L76.653,53.912z M74.897,48.3h1.487
		c1.368,0,3.123-0.269,3.123-1.906c0-1.414-1.44-1.708-2.831-1.708c-0.655,0-1.291,0.077-1.779,0.125V48.3L74.897,48.3z
		 M82.535,52.011c0,1.442-0.881,2.584-2.32,3.172c-1.196,0.463-2.902,0.56-4.126,0.56c-1.758,0-3.413-0.341-3.413-0.341V43.347
		c0,0,2.046-0.339,3.754-0.339c2.053,0,3.933,0.242,4.958,1.507c0.437,0.49,0.632,1.051,0.632,1.734c0,1.195-0.953,2.125-2.002,2.71
		C81.363,49.398,82.535,50.52,82.535,52.011L82.535,52.011z"/>
	<path fill-rule="evenodd" clip-rule="evenodd" fill="#ADC42B" d="M91.681,52.935v-3.828c-0.56,0.438-1.536,0.611-2.438,0.802
		c-1.417,0.318-2.71,0.711-2.71,2.074c0,1.271,1.026,1.857,2.659,1.857c0.88,0,1.758-0.146,2.54-0.415
		C91.73,53.425,91.681,53.106,91.681,52.935L91.681,52.935z M89.19,55.742c-2.979,0-5.1-1.198-5.1-3.585
		c0-2.689,2.197-3.417,4.198-3.833c1.757-0.363,3.367-0.559,3.367-1.754c0-1.416-1.342-1.661-2.388-1.661
		c-1.246,0-2.711,0.56-3.222,0.777l-0.757-1.705c1.194-0.559,2.832-0.973,4.124-0.973c2.902,0,4.466,1.341,4.466,3.897v6.371
		c0,0.517,0.17,1.566,0.17,1.566C92.607,55.3,90.876,55.742,89.19,55.742L89.19,55.742z"/>
	<polygon fill-rule="evenodd" clip-rule="evenodd" fill="#ADC42B" points="107.071,43.273 107.071,55.474 104.85,55.474 
		104.85,49.959 99.211,49.959 99.211,55.474 97.019,55.474 97.019,43.273 99.211,43.273 99.211,48.105 104.85,48.105 104.85,43.273 
		107.071,43.273 	"/>
	<path fill-rule="evenodd" clip-rule="evenodd" fill="#ADC42B" d="M112.479,43.273v5.15c0,1.93-0.025,3.146-0.124,4.881h0.073
		c0.735-1.467,1.15-2.316,1.979-3.733l3.807-6.297h2.659v12.201h-2.196v-5.175c0-1.975,0.05-3.018,0.149-4.976h-0.077
		c-0.78,1.561-1.29,2.537-2.001,3.784c-0.926,1.465-1.926,3.245-2.976,4.952c-0.779,1.294-1.83,1.563-2.561,1.563
		c-0.537,0-0.927-0.148-0.927-0.148V43.273H112.479L112.479,43.273z"/>
	<path fill-rule="evenodd" clip-rule="evenodd" fill="#ADC42B" d="M128.723,44.885c-1.902,0-2.951,1.561-3.003,3.466h5.933
		C131.628,46.543,130.727,44.885,128.723,44.885L128.723,44.885z M133.849,50.131h-8.129c0.124,2.169,1.469,3.708,3.808,3.708
		c1,0,2.002-0.194,2.904-0.563l0.684,1.658c-1.171,0.539-2.488,0.808-3.781,0.808c-3.735,0-6.003-2.757-6.003-6.394
		c0-3.343,1.731-6.34,5.372-6.34c3.412,0,5.268,2.536,5.268,5.782C133.971,49.202,133.922,49.664,133.849,50.131L133.849,50.131z"/>
</g>
</svg>
